<?xml version="1.0" encoding="UTF-8" standalone="no"?>
<svg
   xmlns:dc="http://purl.org/dc/elements/1.1/"
   xmlns:cc="http://creativecommons.org/ns#"
   xmlns:rdf="http://www.w3.org/1999/02/22-rdf-syntax-ns#"
   xmlns:svg="http://www.w3.org/2000/svg"
   xmlns="http://www.w3.org/2000/svg"
   xmlns:sodipodi="http://sodipodi.sourceforge.net/DTD/sodipodi-0.dtd"
   xmlns:inkscape="http://www.inkscape.org/namespaces/inkscape"
   version="1.1"
   id="svg2"
   inkscape:version="0.48.4 r9939"
   width="684.09003"
   height="560"
   sodipodi:docname="2ADMapped.svg">
  <metadata
     id="metadata440">
    <rdf:RDF>
      <cc:Work
         rdf:about="">
        <dc:format>image/svg+xml</dc:format>
        <dc:type
           rdf:resource="http://purl.org/dc/dcmitype/StillImage" />
      </cc:Work>
    </rdf:RDF>
  </metadata>
  <defs
     id="defs438" />
  <sodipodi:namedview
     pagecolor="#ffffff"
     bordercolor="#666666"
     borderopacity="1"
     objecttolerance="10"
     gridtolerance="10"
     guidetolerance="10"
     inkscape:pageopacity="0"
     inkscape:pageshadow="2"
     inkscape:window-width="1366"
     inkscape:window-height="709"
     id="namedview436"
     showgrid="false"
     inkscape:zoom="0.89702957"
     inkscape:cx="402.42161"
     inkscape:cy="223.14132"
     inkscape:window-x="0"
     inkscape:window-y="27"
     inkscape:window-maximized="1"
     inkscape:current-layer="svg2" />
  <line
     x1="258.65341"
     y1="460.85156"
     x2="219.65341"
     y2="493.85156"
     id="line4"
     style="fill:none;stroke:#000000;stroke-width:1.5;stroke-miterlimit:4;stroke-dasharray:none" />
  <polygon
     points="310,506 301,508 304,498 "
     id="polygon6"
     transform="translate(-81.346589,-14.15)"
     style="fill:#000000" />
  <polygon
     points="310,506 301,508 304,498 "
     id="polygon8"
     transform="translate(-81.346589,-14.15)"
     style="fill:none;stroke:#000000;stroke-width:1" />
  <line
     x1="291.65341"
     y1="195.85156"
     x2="291.65341"
     y2="229.85156"
     id="line10"
     style="fill:none;stroke:#000000;stroke-width:1.5;stroke-miterlimit:4;stroke-dasharray:none" />
  <polygon
     points="377,235 373,244 368,235 "
     id="polygon12"
     transform="translate(-81.346589,-14.15)"
     style="fill:#000000" />
  <polygon
     points="377,235 373,244 368,235 "
     id="polygon14"
     transform="translate(-81.346589,-14.15)"
     style="fill:none;stroke:#000000;stroke-width:1" />
  <line
     x1="381.65341"
     y1="161.85156"
     x2="340.65341"
     y2="190.85156"
     id="line16"
     style="fill:none;stroke:#000000;stroke-width:1.5;stroke-miterlimit:4;stroke-dasharray:none" />
  <polygon
     points="431,204 422,205 426,195 "
     id="polygon18"
     transform="translate(-81.346589,-14.15)"
     style="fill:#000000" />
  <polygon
     points="431,204 422,205 426,195 "
     id="polygon20"
     transform="translate(-81.346589,-14.15)"
     style="fill:none;stroke:#000000;stroke-width:1" />
  <line
     x1="227.65341"
     y1="163.85156"
     x2="265.65341"
     y2="190.85156"
     id="line22"
     style="fill:none;stroke:#000000;stroke-width:1.5;stroke-miterlimit:4;stroke-dasharray:none" />
  <polygon
     points="342,195 347,205 337,204 "
     id="polygon24"
     transform="translate(-81.346589,-14.15)"
     style="fill:#000000" />
  <polygon
     points="342,195 347,205 337,204 "
     id="polygon26"
     transform="translate(-81.346589,-14.15)"
     style="fill:none;stroke:#000000;stroke-width:1" />
  <line
     x1="294.65341"
     y1="48.851562"
     x2="294.65341"
     y2="79.851562"
     id="line28"
     style="fill:none;stroke:#000000;stroke-width:1.5;stroke-miterlimit:4;stroke-dasharray:none" />
  <polygon
     points="380,85 376,94 371,85 "
     id="polygon30"
     transform="translate(-81.346589,-14.15)"
     style="fill:#000000" />
  <polygon
     points="380,85 376,94 371,85 "
     id="polygon32"
     transform="translate(-81.346589,-14.15)"
     style="fill:none;stroke:#000000;stroke-width:1" />
  <line
     x1="343.65341"
     y1="84.851562"
     x2="381.65341"
     y2="116.85156"
     id="line34"
     style="fill:none;stroke:#000000;stroke-width:1.5;stroke-miterlimit:4;stroke-dasharray:none" />
  <polygon
     points="459,121 463,131 453,129 "
     id="polygon36"
     transform="translate(-81.346589,-14.15)"
     style="fill:#000000" />
  <polygon
     points="459,121 463,131 453,129 "
     id="polygon38"
     transform="translate(-81.346589,-14.15)"
     style="fill:none;stroke:#000000;stroke-width:1" />
  <line
     x1="291.65341"
     y1="259.85156"
     x2="291.65341"
     y2="294.85156"
     id="line40"
     style="fill:none;stroke:#000000;stroke-width:1.5;stroke-miterlimit:4;stroke-dasharray:none" />
  <polygon
     points="377,300 373,309 368,300 "
     id="polygon42"
     transform="translate(-81.346589,-14.15)"
     style="fill:#000000" />
  <polygon
     points="377,300 373,309 368,300 "
     id="polygon44"
     transform="translate(-81.346589,-14.15)"
     style="fill:none;stroke:#000000;stroke-width:1" />
  <line
     x1="251.65341"
     y1="319.85156"
     x2="171.65341"
     y2="319.85156"
     id="line46"
     style="fill:none;stroke:#000000;stroke-width:1.5;stroke-miterlimit:4;stroke-dasharray:none" />
  <line
     x1="171.65341"
     y1="319.85156"
     x2="171.65341"
     y2="371.85156"
     id="line48"
     style="fill:none;stroke:#000000;stroke-width:1.5;stroke-miterlimit:4;stroke-dasharray:none" />
  <polygon
     points="257,377 253,386 248,377 "
     id="polygon50"
     transform="translate(-81.346589,-14.15)"
     style="fill:#000000" />
  <polygon
     points="257,377 253,386 248,377 "
     id="polygon52"
     transform="translate(-81.346589,-14.15)"
     style="fill:none;stroke:#000000;stroke-width:1" />
  <line
     x1="331.65341"
     y1="319.85156"
     x2="511.65338"
     y2="319.85156"
     id="line54"
     style="fill:none;stroke:#000000;stroke-width:1.5;stroke-miterlimit:4;stroke-dasharray:none" />
  <line
     x1="511.65338"
     y1="319.85156"
     x2="511.65338"
     y2="375.85156"
     id="line56"
     style="fill:none;stroke:#000000;stroke-width:1.5;stroke-miterlimit:4;stroke-dasharray:none" />
  <polygon
     points="597,381 593,390 588,381 "
     id="polygon58"
     transform="translate(-81.346589,-14.15)"
     style="fill:#000000" />
  <polygon
     points="597,381 593,390 588,381 "
     id="polygon60"
     transform="translate(-81.346589,-14.15)"
     style="fill:none;stroke:#000000;stroke-width:1" />
  <line
     x1="170.65341"
     y1="498.85156"
     x2="170.65341"
     y2="529.85156"
     id="line62"
     style="fill:none;stroke:#000000;stroke-width:1.5;stroke-miterlimit:4;stroke-dasharray:none" />
  <polygon
     points="256,535 252,544 247,535 "
     id="polygon64"
     transform="translate(-81.346589,-14.15)"
     style="fill:#000000" />
  <polygon
     points="256,535 252,544 247,535 "
     id="polygon66"
     transform="translate(-81.346589,-14.15)"
     style="fill:none;stroke:#000000;stroke-width:1" />
  <line
     x1="244.65341"
     y1="84.851562"
     x2="227.65341"
     y2="118.85156"
     id="line68"
     style="fill:none;stroke:#000000;stroke-width:1.5;stroke-miterlimit:4;stroke-dasharray:none" />
  <polygon
     points="317,127 309,133 308,123 "
     id="polygon70"
     transform="translate(-81.346589,-14.15)"
     style="fill:#000000" />
  <polygon
     points="317,127 309,133 308,123 "
     id="polygon72"
     transform="translate(-81.346589,-14.15)"
     style="fill:none;stroke:#000000;stroke-width:1" />
  <line
     x1="121.65341"
     y1="376.85156"
     x2="85.653412"
     y2="414.85156"
     id="line74"
     style="fill:none;stroke:#000000;stroke-width:1.5;stroke-miterlimit:4;stroke-dasharray:none" />
  <polygon
     points="176,426 167,429 169,419 "
     id="polygon76"
     transform="translate(-81.346589,-14.15)"
     style="fill:#000000" />
  <polygon
     points="176,426 167,429 169,419 "
     id="polygon78"
     transform="translate(-81.346589,-14.15)"
     style="fill:none;stroke:#000000;stroke-width:1" />
  <line
     x1="220.65341"
     y1="376.85156"
     x2="258.65341"
     y2="415.85156"
     id="line80"
     style="fill:none;stroke:#000000;stroke-width:1.5;stroke-miterlimit:4;stroke-dasharray:none" />
  <polygon
     points="337,420 340,430 330,427 "
     id="polygon82"
     transform="translate(-81.346589,-14.15)"
     style="fill:#000000" />
  <polygon
     points="337,420 340,430 330,427 "
     id="polygon84"
     transform="translate(-81.346589,-14.15)"
     style="fill:none;stroke:#000000;stroke-width:1" />
  <line
     x1="85.653412"
     y1="459.85156"
     x2="120.65341"
     y2="493.85156"
     id="line86"
     style="fill:none;stroke:#000000;stroke-width:1.5;stroke-miterlimit:4;stroke-dasharray:none" />
  <polygon
     points="199,498 202,508 192,505 "
     id="polygon88"
     transform="translate(-81.346589,-14.15)"
     style="fill:#000000" />
  <polygon
     points="199,498 202,508 192,505 "
     id="polygon90"
     transform="translate(-81.346589,-14.15)"
     style="fill:none;stroke:#000000;stroke-width:1" />
  <line
     x1="560.65338"
     y1="380.85156"
     x2="590.65338"
     y2="419.85156"
     id="line92"
     style="fill:none;stroke:#000000;stroke-width:1.5;stroke-miterlimit:4;stroke-dasharray:none" />
  <polygon
     points="670,424 672,434 662,430 "
     id="polygon94"
     transform="translate(-81.346589,-14.15)"
     style="fill:#000000" />
  <polygon
     points="670,424 672,434 662,430 "
     id="polygon96"
     transform="translate(-81.346589,-14.15)"
     style="fill:none;stroke:#000000;stroke-width:1" />
  <line
     x1="461.65341"
     y1="380.85156"
     x2="448.65341"
     y2="420.85156"
     id="line98"
     style="fill:none;stroke:#000000;stroke-width:1.5;stroke-miterlimit:4;stroke-dasharray:none" />
  <polygon
     points="537,428 530,435 527,425 "
     id="polygon100"
     transform="translate(-81.346589,-14.15)"
     style="fill:#000000" />
  <polygon
     points="537,428 530,435 527,425 "
     id="polygon102"
     transform="translate(-81.346589,-14.15)"
     style="fill:none;stroke:#000000;stroke-width:1" />
  <line
     x1="448.65341"
     y1="465.85156"
     x2="470.65341"
     y2="495.85156"
     id="line104"
     style="fill:none;stroke:#000000;stroke-width:1.5;stroke-miterlimit:4;stroke-dasharray:none" />
  <polygon
     points="550,500 552,510 542,505 "
     id="polygon106"
     transform="translate(-81.346589,-14.15)"
     style="fill:#000000" />
  <polygon
     points="550,500 552,510 542,505 "
     id="polygon108"
     transform="translate(-81.346589,-14.15)"
     style="fill:none;stroke:#000000;stroke-width:1" />
  <line
     x1="590.65338"
     y1="464.85156"
     x2="569.65338"
     y2="495.85156"
     id="line110"
     style="fill:none;stroke:#000000;stroke-width:1.5;stroke-miterlimit:4;stroke-dasharray:none" />
  <polygon
     points="659,505 651,510 651,500 "
     id="polygon112"
     transform="translate(-81.346589,-14.15)"
     style="fill:#000000" />
  <polygon
     points="659,505 651,510 651,500 "
     id="polygon114"
     transform="translate(-81.346589,-14.15)"
     style="fill:none;stroke:#000000;stroke-width:1" />
  <line
     x1="520.65338"
     y1="500.85156"
     x2="520.65338"
     y2="537.85156"
     id="line116"
     style="fill:none;stroke:#000000;stroke-width:1.5;stroke-miterlimit:4;stroke-dasharray:none" />
  <line
     x1="520.65338"
     y1="537.85156"
     x2="669.65338"
     y2="537.85156"
     id="line118"
     style="fill:none;stroke:#000000;stroke-width:1.5;stroke-miterlimit:4;stroke-dasharray:none" />
  <line
     x1="669.65338"
     y1="537.85156"
     x2="669.65338"
     y2="244.85156"
     id="line120"
     style="fill:none;stroke:#000000;stroke-width:1.5;stroke-miterlimit:4;stroke-dasharray:none" />
  <line
     x1="669.65338"
     y1="244.85156"
     x2="306.65341"
     y2="244.85156"
     id="line122"
     style="fill:none;stroke:#000000;stroke-width:1.5;stroke-miterlimit:4;stroke-dasharray:none" />
  <polygon
     points="396,263 388,259 396,254 "
     id="polygon124"
     transform="translate(-81.346589,-14.15)"
     style="fill:#000000" />
  <polygon
     points="396,263 388,259 396,254 "
     id="polygon126"
     transform="translate(-81.346589,-14.15)"
     style="fill:none;stroke:#000000;stroke-width:1" />
  <rect
     x="165.71341"
     y="119.91016"
     width="124.88001"
     height="43.945187"
     id="rect130"
     style="fill:none;stroke:#000000;stroke-width:1.11998725" />
  <text
     x="198.94342"
     y="136.44922"
     style="font-size:12px;font-family:Dialog"
     id="text136">
    <tspan
       style="font-size:16px"
       id="tspan3417">Program</tspan>
  </text>
  <text
     x="168.65341"
     y="131.85156"
     style="font-size:12px;font-family:Dialog"
     id="text138">sd</text>
  <line
     x1="165.65341"
     y1="134.85156"
     x2="180.65341"
     y2="134.85156"
     id="line140"
     style="fill:none;stroke:#000000;stroke-width:1" />
  <line
     x1="190.65341"
     y1="119.85156"
     x2="190.65341"
     y2="127.85156"
     id="line142"
     style="fill:none;stroke:#000000;stroke-width:1" />
  <line
     x1="180.65341"
     y1="134.85156"
     x2="190.65341"
     y2="127.85156"
     id="line144"
     style="fill:none;stroke:#000000;stroke-width:1" />
  <ellipse
     cx="376"
     cy="50"
     rx="7"
     ry="7"
     id="ellipse146"
     sodipodi:cx="376"
     sodipodi:cy="50"
     sodipodi:rx="7"
     sodipodi:ry="7"
     transform="translate(-81.346589,-14.15)"
     style="fill:#000000" />
  <line
     x1="294.65341"
     y1="43.851562"
     x2="294.65341"
     y2="48.851562"
     id="line148"
     style="fill:none;stroke:#000000;stroke-width:1" />
  <rect
     x="8.7134552"
     y="415.91016"
     width="153.87991"
     height="43.945087"
     id="rect152"
     style="fill:none;stroke:#000000;stroke-width:1.12008691" />
  <text
     x="47.873947"
     y="433.81641"
     style="font-size:12px;font-family:Dialog"
     id="text158">
    <tspan
       style="font-size:16px"
       id="tspan3421">Terminate</tspan>
  </text>
  <text
     x="11.653412"
     y="427.85156"
     style="font-size:12px;font-family:Dialog"
     id="text160">sd</text>
  <line
     x1="8.6534119"
     y1="430.85156"
     x2="23.653412"
     y2="430.85156"
     id="line162"
     style="fill:none;stroke:#000000;stroke-width:1" />
  <line
     x1="33.653412"
     y1="415.85156"
     x2="33.653412"
     y2="423.85156"
     id="line164"
     style="fill:none;stroke:#000000;stroke-width:1" />
  <line
     x1="23.653412"
     y1="430.85156"
     x2="33.653412"
     y2="423.85156"
     id="line166"
     style="fill:none;stroke:#000000;stroke-width:1" />
  <text
     x="860"
     y="-430.36328"
     style="font-size:12px;font-family:Dialog"
     id="text184" />
  <text
     x="860"
     y="-322.36328"
     style="font-size:12px;font-family:Dialog"
     id="text196" />
  <text
     x="860"
     y="-286.36328"
     style="font-size:12px;font-family:Dialog"
     id="text200" />
  <rect
     x="387.71341"
     y="421.91016"
     width="121.88003"
     height="43.945198"
     id="rect206"
     style="fill:none;stroke:#000000;stroke-width:1.11997426" />
  <text
     x="420.97272"
     y="439.99609"
     style="font-size:12px;font-family:Dialog"
     id="text212">
    <tspan
       style="font-size:16px"
       id="tspan3425">Execute</tspan>
  </text>
  <text
     x="390.65341"
     y="433.85156"
     style="font-size:12px;font-family:Dialog"
     id="text214">sd</text>
  <line
     x1="387.65341"
     y1="436.85156"
     x2="402.65341"
     y2="436.85156"
     id="line216"
     style="fill:none;stroke:#000000;stroke-width:1" />
  <line
     x1="412.65341"
     y1="421.85156"
     x2="412.65341"
     y2="429.85156"
     id="line218"
     style="fill:none;stroke:#000000;stroke-width:1" />
  <line
     x1="402.65341"
     y1="436.85156"
     x2="412.65341"
     y2="429.85156"
     id="line220"
     style="fill:none;stroke:#000000;stroke-width:1" />
  <line
     x1="291.65341"
     y1="304.85156"
     x2="306.65341"
     y2="319.85156"
     id="line222"
     style="fill:none;stroke:#000000;stroke-width:1.5;stroke-miterlimit:4;stroke-dasharray:none" />
  <line
     x1="276.65341"
     y1="319.85156"
     x2="291.65341"
     y2="334.85156"
     id="line224"
     style="fill:none;stroke:#000000;stroke-width:1.5;stroke-miterlimit:4;stroke-dasharray:none" />
  <line
     x1="291.65341"
     y1="304.85156"
     x2="276.65341"
     y2="319.85156"
     id="line226"
     style="fill:none;stroke:#000000;stroke-width:1.5;stroke-miterlimit:4;stroke-dasharray:none" />
  <line
     x1="306.65341"
     y1="319.85156"
     x2="291.65341"
     y2="334.85156"
     id="line228"
     style="fill:none;stroke:#000000;stroke-width:1.5;stroke-miterlimit:4;stroke-dasharray:none" />
  <line
     x1="291.65341"
     y1="304.85156"
     x2="291.65341"
     y2="294.85156"
     id="line230"
     style="fill:none;stroke:#000000;stroke-width:1" />
  <line
     x1="276.65341"
     y1="319.85156"
     x2="251.65341"
     y2="319.85156"
     id="line232"
     style="fill:none;stroke:#000000;stroke-width:1.5;stroke-miterlimit:4;stroke-dasharray:none" />
  <line
     x1="306.65341"
     y1="319.85156"
     x2="331.65341"
     y2="319.85156"
     id="line234"
     style="fill:none;stroke:#000000;stroke-width:1.5;stroke-miterlimit:4;stroke-dasharray:none" />
  <text
     x="6.9492679"
     y="348.51953"
     style="font-size:12px;font-family:Dialog"
     id="text238">
    <tspan
       style="font-size:16px"
       id="tspan3494">[ (counterADAIFEM==0) &amp;&amp; (counterFEP==0) ]</tspan>
  </text>
  <text
     x="311.65341"
     y="309.27734"
     style="font-size:12px;font-family:Dialog"
     id="text240">
    <tspan
       style="font-size:16px"
       id="tspan3492">[ (counterADAIFEM&gt;0) &amp;&amp; (counterFEP&gt;0) ]</tspan>
  </text>
  <ellipse
     cx="252"
     cy="559"
     rx="8"
     ry="8"
     id="ellipse244"
     sodipodi:cx="252"
     sodipodi:cy="559"
     sodipodi:rx="8"
     sodipodi:ry="8"
     transform="translate(-81.346589,-14.15)"
     style="fill:#000000" />
  <ellipse
     cx="252"
     cy="559"
     rx="10"
     ry="10"
     id="ellipse246"
     sodipodi:cx="252"
     sodipodi:cy="559"
     sodipodi:rx="10"
     sodipodi:ry="10"
     transform="translate(-81.346589,-14.15)"
     style="fill:none;stroke:#000000;stroke-width:1" />
  <line
     x1="170.65341"
     y1="534.85156"
     x2="170.65341"
     y2="529.85156"
     id="line248"
     style="fill:none;stroke:#000000;stroke-width:1.5;stroke-miterlimit:4;stroke-dasharray:none" />
  <line
     x1="291.65341"
     y1="229.85156"
     x2="291.65341"
     y2="259.85156"
     id="line250"
     style="fill:none;stroke:#000000;stroke-width:1.5;stroke-miterlimit:4;stroke-dasharray:none" />
  <line
     x1="276.65341"
     y1="244.85156"
     x2="306.65341"
     y2="244.85156"
     id="line252"
     style="fill:none;stroke:#000000;stroke-width:1.5;stroke-miterlimit:4;stroke-dasharray:none" />
  <rect
     x="219.65341"
     y="79.851562"
     width="150"
     height="5"
     id="rect272"
     style="fill:none;stroke:#000000;stroke-width:1" />
  <rect
     x="219.65341"
     y="79.851562"
     width="149"
     height="4"
     id="rect274"
     style="fill:#000000" />
  <rect
     x="216.65341"
     y="190.85156"
     width="150"
     height="5"
     id="rect276"
     style="fill:none;stroke:#000000;stroke-width:1" />
  <rect
     x="216.65341"
     y="190.85156"
     width="149"
     height="4"
     id="rect278"
     style="fill:#000000" />
  <rect
     x="96.653412"
     y="371.85156"
     width="150"
     height="5"
     id="rect280"
     style="fill:none;stroke:#000000;stroke-width:1" />
  <rect
     x="96.653412"
     y="371.85156"
     width="149"
     height="4"
     id="rect282"
     style="fill:#000000" />
  <rect
     x="95.653412"
     y="493.85156"
     width="150"
     height="5"
     id="rect284"
     style="fill:none;stroke:#000000;stroke-width:1" />
  <rect
     x="95.653412"
     y="493.85156"
     width="149"
     height="4"
     id="rect286"
     style="fill:#000000" />
  <rect
     x="436.65341"
     y="375.85156"
     width="150"
     height="5"
     id="rect306"
     style="fill:none;stroke:#000000;stroke-width:1" />
  <rect
     x="436.65341"
     y="375.85156"
     width="149"
     height="4"
     id="rect308"
     style="fill:#000000" />
  <rect
     x="445.65341"
     y="495.85156"
     width="150"
     height="5"
     id="rect328"
     style="fill:none;stroke:#000000;stroke-width:1" />
  <rect
     x="445.65341"
     y="495.85156"
     width="149"
     height="4"
     id="rect330"
     style="fill:#000000" />
  <text
     x="862"
     y="-222.36328"
     style="font-size:12px;font-family:Dialog"
     id="text348" />
  <text
     x="862"
     y="-114.36328"
     style="font-size:12px;font-family:Dialog"
     id="text360" />
  <text
     x="862"
     y="-78.363281"
     style="font-size:12px;font-family:Dialog"
     id="text364" />
  <text
     x="48.275967"
     y="454.45312"
     style="font-size:12px;font-family:Dialog"
     id="text158-0">
    <tspan
       style="font-size:16px"
       id="tspan3421-3">ADAIFdma</tspan>
  </text>
  <rect
     x="180.81316"
     y="416.01953"
     width="153.87991"
     height="43.945087"
     id="rect152-2"
     style="fill:none;stroke:#000000;stroke-width:1.12008691" />
  <text
     x="219.97365"
     y="433.92578"
     style="font-size:12px;font-family:Dialog"
     id="text158-6">
    <tspan
       style="font-size:16px"
       id="tspan3421-9">Terminate</tspan>
  </text>
  <text
     x="183.75311"
     y="427.96094"
     style="font-size:12px;font-family:Dialog"
     id="text160-6">sd</text>
  <line
     x1="180.75311"
     y1="430.96094"
     x2="195.75311"
     y2="430.96094"
     id="line162-5"
     style="fill:none;stroke:#000000;stroke-width:1" />
  <line
     x1="205.75311"
     y1="415.96094"
     x2="205.75311"
     y2="423.96094"
     id="line164-6"
     style="fill:none;stroke:#000000;stroke-width:1" />
  <line
     x1="195.75311"
     y1="430.96094"
     x2="205.75311"
     y2="423.96094"
     id="line166-9"
     style="fill:none;stroke:#000000;stroke-width:1" />
  <text
     x="228.37567"
     y="454.5625"
     style="font-size:12px;font-family:Dialog"
     id="text158-0-3">
    <tspan
       style="font-size:16px"
       id="tspan3421-3-4">FEPdma</tspan>
  </text>
  <text
     x="411.82935"
     y="459.94141"
     style="font-size:12px;font-family:Dialog"
     id="text158-0-5">
    <tspan
       style="font-size:16px"
       id="tspan3421-3-3">ADAIFdma</tspan>
  </text>
  <rect
     x="532.77826"
     y="421.69922"
     width="121.88003"
     height="43.945198"
     id="rect206-8"
     style="fill:none;stroke:#000000;stroke-width:1.11997426" />
  <text
     x="566.0376"
     y="439.78516"
     style="font-size:12px;font-family:Dialog"
     id="text212-6">
    <tspan
       style="font-size:16px"
       id="tspan3425-4">Execute</tspan>
  </text>
  <text
     x="535.71826"
     y="433.63672"
     style="font-size:12px;font-family:Dialog"
     id="text214-9">sd</text>
  <line
     x1="532.71826"
     y1="436.63672"
     x2="547.71826"
     y2="436.63672"
     id="line216-2"
     style="fill:none;stroke:#000000;stroke-width:1" />
  <line
     x1="557.71826"
     y1="421.63672"
     x2="557.71826"
     y2="429.63672"
     id="line218-4"
     style="fill:none;stroke:#000000;stroke-width:1" />
  <line
     x1="547.71826"
     y1="436.63672"
     x2="557.71826"
     y2="429.63672"
     id="line220-6"
     style="fill:none;stroke:#000000;stroke-width:1" />
  <text
     x="566.89423"
     y="459.73047"
     style="font-size:12px;font-family:Dialog"
     id="text158-0-5-4">
    <tspan
       style="font-size:16px"
       id="tspan3421-3-3-3">FEPdma</tspan>
  </text>
  <text
     x="191.11209"
     y="158.42578"
     style="font-size:12px;font-family:Dialog"
     id="text158-0-2">
    <tspan
       style="font-size:16px"
       id="tspan3421-3-9">ADAIFdma</tspan>
  </text>
  <rect
     x="319.08551"
     y="117.875"
     width="124.88001"
     height="43.945187"
     id="rect130-6"
     style="fill:none;stroke:#000000;stroke-width:1.11998725" />
  <text
     x="352.31552"
     y="134.41406"
     style="font-size:12px;font-family:Dialog"
     id="text136-3">
    <tspan
       style="font-size:16px"
       id="tspan3417-8">Program</tspan>
  </text>
  <text
     x="322.02551"
     y="129.81641"
     style="font-size:12px;font-family:Dialog"
     id="text138-0">sd</text>
  <line
     x1="319.02551"
     y1="132.81641"
     x2="334.02551"
     y2="132.81641"
     id="line140-4"
     style="fill:none;stroke:#000000;stroke-width:1" />
  <line
     x1="344.02551"
     y1="117.81641"
     x2="344.02551"
     y2="125.81641"
     id="line142-1"
     style="fill:none;stroke:#000000;stroke-width:1" />
  <line
     x1="334.02551"
     y1="132.81641"
     x2="344.02551"
     y2="125.81641"
     id="line144-9"
     style="fill:none;stroke:#000000;stroke-width:1" />
  <text
     x="354.48419"
     y="156.39062"
     style="font-size:12px;font-family:Dialog"
     id="text158-0-2-9">
    <tspan
       style="font-size:16px"
       id="tspan3421-3-9-0">FEPdma</tspan>
  </text>
</svg>
