<?xml version="1.0" encoding="UTF-8" standalone="no"?>
<svg
   xmlns:dc="http://purl.org/dc/elements/1.1/"
   xmlns:cc="http://creativecommons.org/ns#"
   xmlns:rdf="http://www.w3.org/1999/02/22-rdf-syntax-ns#"
   xmlns:svg="http://www.w3.org/2000/svg"
   xmlns="http://www.w3.org/2000/svg"
   xmlns:sodipodi="http://sodipodi.sourceforge.net/DTD/sodipodi-0.dtd"
   xmlns:inkscape="http://www.inkscape.org/namespaces/inkscape"
   version="1.1"
   id="svg3531"
   inkscape:version="0.48.4 r9939"
   width="834.09003"
   height="542.35999"
   sodipodi:docname="3parallel.svg">
  <metadata
     id="metadata3919">
    <rdf:RDF>
      <cc:Work
         rdf:about="">
        <dc:format>image/svg+xml</dc:format>
        <dc:type
           rdf:resource="http://purl.org/dc/dcmitype/StillImage" />
        <dc:title />
      </cc:Work>
    </rdf:RDF>
  </metadata>
  <defs
     id="defs3917" />
  <sodipodi:namedview
     pagecolor="#ffffff"
     bordercolor="#666666"
     borderopacity="1"
     objecttolerance="10"
     gridtolerance="10"
     guidetolerance="10"
     inkscape:pageopacity="0"
     inkscape:pageshadow="2"
     inkscape:window-width="1366"
     inkscape:window-height="709"
     id="namedview3915"
     showgrid="false"
     inkscape:zoom="0.97114854"
     inkscape:cx="479.28519"
     inkscape:cy="300.48671"
     inkscape:window-x="0"
     inkscape:window-y="27"
     inkscape:window-maximized="1"
     inkscape:current-layer="svg3531" />
  <line
     x1="366.26569"
     y1="247.60437"
     x2="366.26569"
     y2="283.60431"
     id="line3533"
     style="fill:none;stroke:#000000;stroke-width:1.5;stroke-miterlimit:4;stroke-dasharray:none" />
  <polygon
     points="664,295 673,295 669,304 "
     id="polygon3535"
     transform="translate(-302.73433,-20.395584)"
     style="fill:#000000" />
  <polygon
     points="664,295 673,295 669,304 "
     id="polygon3537"
     transform="translate(-302.73433,-20.395584)"
     style="fill:none;stroke:#000000;stroke-width:1" />
  <line
     x1="366.26569"
     y1="174.60439"
     x2="366.26569"
     y2="217.60439"
     id="line3539"
     style="fill:none;stroke:#000000;stroke-width:1.5;stroke-miterlimit:4;stroke-dasharray:none" />
  <polygon
     points="664,229 673,229 669,238 "
     id="polygon3541"
     transform="translate(-302.73433,-20.395584)"
     style="fill:#000000" />
  <polygon
     points="664,229 673,229 669,238 "
     id="polygon3543"
     transform="translate(-302.73433,-20.395584)"
     style="fill:none;stroke:#000000;stroke-width:1" />
  <line
     x1="764.14508"
     y1="451.59631"
     x2="710.21802"
     y2="485.65198"
     id="line3545"
     style="fill:none;stroke:#000000;stroke-width:1.5;stroke-miterlimit:4;stroke-dasharray:none" />
  <polygon
     points="1016,496 1022,504 1013,506 "
     id="polygon3547"
     transform="translate(-302.73433,-20.395584)"
     style="fill:#000000" />
  <polygon
     points="1016,496 1022,504 1013,506 "
     id="polygon3549"
     transform="translate(-302.73433,-20.395584)"
     style="fill:none;stroke:#000000;stroke-width:1" />
  <line
     x1="661.26569"
     y1="451.76639"
     x2="661.26569"
     y2="485.70963"
     id="line3551"
     style="fill:none;stroke:#000000;stroke-width:1.5;stroke-miterlimit:4;stroke-dasharray:none" />
  <polygon
     points="959,497 968,497 964,506 "
     id="polygon3553"
     transform="translate(-302.73433,-20.395584)"
     style="fill:#000000" />
  <polygon
     points="959,497 968,497 964,506 "
     id="polygon3555"
     transform="translate(-302.73433,-20.395584)"
     style="fill:none;stroke:#000000;stroke-width:1" />
  <line
     x1="661.26569"
     y1="351.60431"
     x2="661.26569"
     y2="397.60431"
     id="line3557"
     style="fill:none;stroke:#000000;stroke-width:1.5;stroke-miterlimit:4;stroke-dasharray:none" />
  <polygon
     points="959,409 968,409 964,418 "
     id="polygon3559"
     transform="translate(-302.73433,-20.395584)"
     style="fill:#000000" />
  <polygon
     points="959,409 968,409 964,418 "
     id="polygon3561"
     transform="translate(-302.73433,-20.395584)"
     style="fill:none;stroke:#000000;stroke-width:1" />
  <line
     x1="175.62973"
     y1="447.87552"
     x2="175.62973"
     y2="479.70642"
     id="line3563"
     style="fill:none;stroke:#000000;stroke-width:1.5;stroke-miterlimit:4;stroke-dasharray:none" />
  <polygon
     points="473,491 482,491 478,500 "
     id="polygon3565"
     transform="translate(-302.73433,-20.395584)"
     style="fill:#000000" />
  <polygon
     points="473,491 482,491 478,500 "
     id="polygon3567"
     transform="translate(-302.73433,-20.395584)"
     style="fill:none;stroke:#000000;stroke-width:1" />
  <line
     x1="175.26567"
     y1="351.60431"
     x2="175.26567"
     y2="394.60431"
     id="line3569"
     style="fill:none;stroke:#000000;stroke-width:1.5;stroke-miterlimit:4;stroke-dasharray:none" />
  <polygon
     points="473,406 482,406 478,415 "
     id="polygon3571"
     transform="translate(-302.73433,-20.395584)"
     style="fill:#000000" />
  <polygon
     points="473,406 482,406 478,415 "
     id="polygon3573"
     transform="translate(-302.73433,-20.395584)"
     style="fill:none;stroke:#000000;stroke-width:1" />
  <line
     x1="292.87634"
     y1="449.46378"
     x2="224.20341"
     y2="479.66656"
     id="line3575"
     style="fill:none;stroke:#000000;stroke-width:1.5;stroke-miterlimit:4;stroke-dasharray:none" />
  <polygon
     points="531,491 536,499 527,500 "
     id="polygon3577"
     transform="translate(-302.73433,-20.395584)"
     style="fill:#000000" />
  <polygon
     points="531,491 536,499 527,500 "
     id="polygon3579"
     transform="translate(-302.73433,-20.395584)"
     style="fill:none;stroke:#000000;stroke-width:1" />
  <line
     x1="224.26567"
     y1="351.60431"
     x2="290.26569"
     y2="393.60431"
     id="line3581"
     style="fill:none;stroke:#000000;stroke-width:1.5;stroke-miterlimit:4;stroke-dasharray:none" />
  <polygon
     points="583,413 588,405 593,414 "
     id="polygon3583"
     transform="translate(-302.73433,-20.395584)"
     style="fill:#000000" />
  <polygon
     points="583,413 588,405 593,414 "
     id="polygon3585"
     transform="translate(-302.73433,-20.395584)"
     style="fill:none;stroke:#000000;stroke-width:1" />
  <line
     x1="513.91675"
     y1="150.85437"
     x2="415.15915"
     y2="169.71091"
     id="line3587"
     style="fill:none;stroke:#000000;stroke-width:1.5;stroke-miterlimit:4;stroke-dasharray:none" />
  <polygon
     points="724,182 727,192 718,190 "
     id="polygon3589"
     transform="translate(-302.73433,-20.395584)"
     style="fill:#000000" />
  <polygon
     points="724,182 727,192 718,190 "
     id="polygon3591"
     transform="translate(-302.73433,-20.395584)"
     style="fill:none;stroke:#000000;stroke-width:1" />
  <line
     x1="366.26569"
     y1="30.604385"
     x2="366.26569"
     y2="58.604385"
     id="line3593"
     style="fill:none;stroke:#000000;stroke-width:1.5;stroke-miterlimit:4;stroke-dasharray:none" />
  <polygon
     points="664,70 673,70 669,79 "
     id="polygon3595"
     transform="translate(-302.73433,-20.395584)"
     style="fill:#000000" />
  <polygon
     points="664,70 673,70 669,79 "
     id="polygon3597"
     transform="translate(-302.73433,-20.395584)"
     style="fill:none;stroke:#000000;stroke-width:1" />
  <line
     x1="415.26569"
     y1="63.604385"
     x2="512.26569"
     y2="93.604378"
     id="line3599"
     style="fill:none;stroke:#000000;stroke-width:1.5;stroke-miterlimit:4;stroke-dasharray:none" />
  <polygon
     points="805,116 808,106 815,114 "
     id="polygon3601"
     transform="translate(-302.73433,-20.395584)"
     style="fill:#000000" />
  <polygon
     points="805,116 808,106 815,114 "
     id="polygon3603"
     transform="translate(-302.73433,-20.395584)"
     style="fill:none;stroke:#000000;stroke-width:1" />
  <line
     x1="366.26569"
     y1="63.604385"
     x2="366.26569"
     y2="94.604378"
     id="line3605"
     style="fill:none;stroke:#000000;stroke-width:1.5;stroke-miterlimit:4;stroke-dasharray:none" />
  <polygon
     points="664,106 673,106 669,115 "
     id="polygon3607"
     transform="translate(-302.73433,-20.395584)"
     style="fill:#000000" />
  <polygon
     points="664,106 673,106 669,115 "
     id="polygon3609"
     transform="translate(-302.73433,-20.395584)"
     style="fill:none;stroke:#000000;stroke-width:1" />
  <ellipse
     cx="669"
     cy="38"
     rx="7"
     ry="7"
     id="ellipse3665"
     sodipodi:cx="669"
     sodipodi:cy="38"
     sodipodi:rx="7"
     sodipodi:ry="7"
     transform="translate(-302.73433,-20.395584)"
     style="fill:#000000" />
  <line
     x1="366.26569"
     y1="25.604383"
     x2="366.26569"
     y2="30.604385"
     id="line3667"
     style="fill:none;stroke:#000000;stroke-width:1.5;stroke-miterlimit:4;stroke-dasharray:none" />
  <rect
     x="291.26569"
     y="58.604385"
     width="150"
     height="5"
     id="rect3669"
     style="fill:none;stroke:#000000;stroke-width:1" />
  <rect
     x="291.26569"
     y="58.604385"
     width="149"
     height="4"
     id="rect3671"
     style="fill:#000000" />
  <line
     x1="316.26569"
     y1="63.604385"
     x2="218.26567"
     y2="93.604378"
     id="line3673"
     style="fill:none;stroke:#000000;stroke-width:1.5;stroke-miterlimit:4;stroke-dasharray:none" />
  <polygon
     points="527,106 530,116 521,114 "
     id="polygon3675"
     transform="translate(-302.73433,-20.395584)"
     style="fill:#000000" />
  <polygon
     points="527,106 530,116 521,114 "
     id="polygon3677"
     transform="translate(-302.73433,-20.395584)"
     style="fill:none;stroke:#000000;stroke-width:1" />
  <rect
     x="291.26569"
     y="169.60439"
     width="150"
     height="5"
     id="rect3679"
     style="fill:none;stroke:#000000;stroke-width:1" />
  <rect
     x="291.26569"
     y="169.60439"
     width="149"
     height="4"
     id="rect3681"
     style="fill:#000000" />
  <line
     x1="366.26569"
     y1="293.60431"
     x2="381.26569"
     y2="308.60431"
     id="line3683"
     style="fill:none;stroke:#000000;stroke-width:1.5;stroke-miterlimit:4;stroke-dasharray:none" />
  <line
     x1="351.26569"
     y1="308.60431"
     x2="366.26569"
     y2="323.60431"
     id="line3685"
     style="fill:none;stroke:#000000;stroke-width:1.5;stroke-miterlimit:4;stroke-dasharray:none" />
  <line
     x1="366.26569"
     y1="293.60431"
     x2="351.26569"
     y2="308.60431"
     id="line3687"
     style="fill:none;stroke:#000000;stroke-width:1.5;stroke-miterlimit:4;stroke-dasharray:none" />
  <line
     x1="381.26569"
     y1="308.60431"
     x2="366.26569"
     y2="323.60431"
     id="line3689"
     style="fill:none;stroke:#000000;stroke-width:1.5;stroke-miterlimit:4;stroke-dasharray:none" />
  <line
     x1="366.26569"
     y1="293.60431"
     x2="366.26569"
     y2="283.60431"
     id="line3691"
     style="fill:none;stroke:#000000;stroke-width:1.5;stroke-miterlimit:4;stroke-dasharray:none" />
  <line
     x1="351.26569"
     y1="308.60431"
     x2="326.26569"
     y2="308.60431"
     id="line3693"
     style="fill:none;stroke:#000000;stroke-width:1.5;stroke-miterlimit:4;stroke-dasharray:none" />
  <line
     x1="381.26569"
     y1="308.60431"
     x2="406.26569"
     y2="308.60431"
     id="line3695"
     style="fill:none;stroke:#000000;stroke-width:1.5;stroke-miterlimit:4;stroke-dasharray:none" />
  <text
     x="6.1354175"
     y="329.14807"
     style="font-size:12px;font-family:Dialog"
     id="text3699">
    <tspan
       style="font-size:16px"
       id="tspan8781">[ (samples1==0) &amp;&amp; (samples2==0) &amp;&amp; (samples3==0) ]</tspan>
  </text>
  <text
     x="378.98456"
     y="297.05127"
     style="font-size:12px;font-family:Dialog"
     id="text3701">
    <tspan
       style="font-size:16px"
       id="tspan8779">[ (samples1&gt;0) &amp;&amp; (samples2&gt;0) &amp;&amp; (samples3&gt;0) ]</tspan>
  </text>
  <rect
     x="100.26567"
     y="346.60431"
     width="150"
     height="5"
     id="rect3741"
     style="fill:none;stroke:#000000;stroke-width:1" />
  <rect
     x="100.26567"
     y="346.60431"
     width="149"
     height="4"
     id="rect3743"
     style="fill:#000000" />
  <line
     x1="125.26567"
     y1="351.60431"
     x2="58.265675"
     y2="393.60431"
     id="line3745"
     style="fill:none;stroke:#000000;stroke-width:1.5;stroke-miterlimit:4;stroke-dasharray:none" />
  <polygon
     points="365,405 370,413 361,414 "
     id="polygon3747"
     transform="translate(-302.73433,-20.395584)"
     style="fill:#000000" />
  <polygon
     points="365,405 370,413 361,414 "
     id="polygon3749"
     transform="translate(-302.73433,-20.395584)"
     style="fill:none;stroke:#000000;stroke-width:1" />
  <rect
     x="100.26567"
     y="479.60431"
     width="150"
     height="5"
     id="rect3751"
     style="fill:none;stroke:#000000;stroke-width:1" />
  <rect
     x="100.26567"
     y="479.60431"
     width="149"
     height="4"
     id="rect3753"
     style="fill:#000000" />
  <line
     x1="56.025497"
     y1="448.37802"
     x2="125.32151"
     y2="479.66016"
     id="line3755"
     style="fill:none;stroke:#000000;stroke-width:1.5;stroke-miterlimit:4;stroke-dasharray:none" />
  <polygon
     points="418,499 423,491 428,500 "
     id="polygon3757"
     transform="translate(-302.73433,-20.395584)"
     style="fill:#000000" />
  <polygon
     points="418,499 423,491 428,500 "
     id="polygon3759"
     transform="translate(-302.73433,-20.395584)"
     style="fill:none;stroke:#000000;stroke-width:1" />
  <line
     x1="326.26569"
     y1="308.60431"
     x2="175.26567"
     y2="308.60431"
     id="line3761"
     style="fill:none;stroke:#000000;stroke-width:1.5;stroke-miterlimit:4;stroke-dasharray:none" />
  <line
     x1="175.26567"
     y1="308.60431"
     x2="175.26567"
     y2="346.60431"
     id="line3763"
     style="fill:none;stroke:#000000;stroke-width:1.5;stroke-miterlimit:4;stroke-dasharray:none" />
  <polygon
     points="473,358 482,358 478,367 "
     id="polygon3765"
     transform="translate(-302.73433,-20.395584)"
     style="fill:#000000" />
  <polygon
     points="473,358 482,358 478,367 "
     id="polygon3767"
     transform="translate(-302.73433,-20.395584)"
     style="fill:none;stroke:#000000;stroke-width:1" />
  <line
     x1="215.07295"
     y1="150.85728"
     x2="316.36929"
     y2="169.70798"
     id="line3769"
     style="fill:none;stroke:#000000;stroke-width:1.5;stroke-miterlimit:4;stroke-dasharray:none" />
  <polygon
     points="609,192 612,182 619,190 "
     id="polygon3771"
     transform="translate(-302.73433,-20.395584)"
     style="fill:#000000" />
  <polygon
     points="609,192 612,182 619,190 "
     id="polygon3773"
     transform="translate(-302.73433,-20.395584)"
     style="fill:none;stroke:#000000;stroke-width:1" />
  <line
     x1="366.26569"
     y1="150.49521"
     x2="366.26569"
     y2="169.78293"
     id="line3775"
     style="fill:none;stroke:#000000;stroke-width:1.5;stroke-miterlimit:4;stroke-dasharray:none" />
  <polygon
     points="664,181 673,181 669,190 "
     id="polygon3777"
     transform="translate(-302.73433,-20.395584)"
     style="fill:#000000" />
  <polygon
     points="664,181 673,181 669,190 "
     id="polygon3779"
     transform="translate(-302.73433,-20.395584)"
     style="fill:none;stroke:#000000;stroke-width:1" />
  <line
     x1="175.26567"
     y1="434.60431"
     x2="175.26567"
     y2="439.60431"
     id="line3787"
     style="fill:none;stroke:#000000;stroke-width:1" />
  <ellipse
     cx="478"
     cy="550"
     rx="8"
     ry="8"
     id="ellipse3799"
     sodipodi:cx="478"
     sodipodi:cy="550"
     sodipodi:rx="8"
     sodipodi:ry="8"
     transform="translate(-302.73433,-20.395584)"
     style="fill:#000000" />
  <ellipse
     cx="478"
     cy="550"
     rx="10"
     ry="10"
     id="ellipse3801"
     sodipodi:cx="478"
     sodipodi:cy="550"
     sodipodi:rx="10"
     sodipodi:ry="10"
     transform="translate(-302.73433,-20.395584)"
     style="fill:none;stroke:#000000;stroke-width:1" />
  <line
     x1="175.26567"
     y1="519.60431"
     x2="175.26567"
     y2="514.60431"
     id="line3803"
     style="fill:none;stroke:#000000;stroke-width:1.5;stroke-miterlimit:4;stroke-dasharray:none" />
  <line
     x1="175.26567"
     y1="484.60431"
     x2="175.26567"
     y2="514.60431"
     id="line3805"
     style="fill:none;stroke:#000000;stroke-width:1.5;stroke-miterlimit:4;stroke-dasharray:none" />
  <polygon
     points="473,526 482,526 478,535 "
     id="polygon3807"
     transform="translate(-302.73433,-20.395584)"
     style="fill:#000000" />
  <polygon
     points="473,526 482,526 478,535 "
     id="polygon3809"
     transform="translate(-302.73433,-20.395584)"
     style="fill:none;stroke:#000000;stroke-width:1" />
  <rect
     x="529.42834"
     y="397.76694"
     width="79.714371"
     height="53.981754"
     id="rect3813"
     style="fill:none;stroke:#000000;stroke-width:1.32528341" />
  <text
     x="536.00824"
     y="430.37659"
     style="font-size:12px;font-family:Dialog"
     id="text3819">
    <tspan
       style="font-size:16px"
       id="tspan7900">Execute</tspan>
  </text>
  <text
     x="532.26569"
     y="409.60431"
     style="font-size:12px;font-family:Dialog"
     id="text3821">sd</text>
  <line
     x1="529.26569"
     y1="412.60431"
     x2="544.26569"
     y2="412.60431"
     id="line3823"
     style="fill:none;stroke:#000000;stroke-width:1" />
  <line
     x1="554.26569"
     y1="397.60431"
     x2="554.26569"
     y2="405.60431"
     id="line3825"
     style="fill:none;stroke:#000000;stroke-width:1" />
  <line
     x1="544.26569"
     y1="412.60431"
     x2="554.26569"
     y2="405.60431"
     id="line3827"
     style="fill:none;stroke:#000000;stroke-width:1" />
  <rect
     x="586.26569"
     y="346.60431"
     width="150"
     height="5"
     id="rect3865"
     style="fill:none;stroke:#000000;stroke-width:1" />
  <rect
     x="586.26569"
     y="346.60431"
     width="149"
     height="4"
     id="rect3867"
     style="fill:#000000" />
  <line
     x1="406.26569"
     y1="308.60431"
     x2="661.26569"
     y2="308.60431"
     id="line3869"
     style="fill:none;stroke:#000000;stroke-width:1.5;stroke-miterlimit:4;stroke-dasharray:none" />
  <line
     x1="661.26569"
     y1="308.60431"
     x2="661.26569"
     y2="346.60431"
     id="line3871"
     style="fill:none;stroke:#000000;stroke-width:1.5;stroke-miterlimit:4;stroke-dasharray:none" />
  <polygon
     points="959,358 968,358 964,367 "
     id="polygon3873"
     transform="translate(-302.73433,-20.395584)"
     style="fill:#000000" />
  <polygon
     points="959,358 968,358 964,367 "
     id="polygon3875"
     transform="translate(-302.73433,-20.395584)"
     style="fill:none;stroke:#000000;stroke-width:1" />
  <line
     x1="611.26569"
     y1="351.60431"
     x2="572.26569"
     y2="396.60431"
     id="line3877"
     style="fill:none;stroke:#000000;stroke-width:1.5;stroke-miterlimit:4;stroke-dasharray:none" />
  <polygon
     points="876,407 884,413 875,417 "
     id="polygon3879"
     transform="translate(-302.73433,-20.395584)"
     style="fill:#000000" />
  <polygon
     points="876,407 884,413 875,417 "
     id="polygon3881"
     transform="translate(-302.73433,-20.395584)"
     style="fill:none;stroke:#000000;stroke-width:1" />
  <line
     x1="710.26569"
     y1="351.60431"
     x2="761.26569"
     y2="396.60431"
     id="line3883"
     style="fill:none;stroke:#000000;stroke-width:1.5;stroke-miterlimit:4;stroke-dasharray:none" />
  <polygon
     points="1054,415 1060,407 1064,417 "
     id="polygon3885"
     transform="translate(-302.73433,-20.395584)"
     style="fill:#000000" />
  <polygon
     points="1054,415 1060,407 1064,417 "
     id="polygon3887"
     transform="translate(-302.73433,-20.395584)"
     style="fill:none;stroke:#000000;stroke-width:1" />
  <rect
     x="586.26569"
     y="485.60431"
     width="150"
     height="5"
     id="rect3889"
     style="fill:none;stroke:#000000;stroke-width:1" />
  <rect
     x="586.26569"
     y="485.60431"
     width="149"
     height="4"
     id="rect3891"
     style="fill:#000000" />
  <line
     x1="366.26569"
     y1="217.60439"
     x2="366.26569"
     y2="247.60437"
     id="line3893"
     style="fill:none;stroke:#000000;stroke-width:1.5;stroke-miterlimit:4;stroke-dasharray:none" />
  <line
     x1="351.26569"
     y1="232.60439"
     x2="381.26569"
     y2="232.60439"
     id="line3895"
     style="fill:none;stroke:#000000;stroke-width:1.5;stroke-miterlimit:4;stroke-dasharray:none" />
  <line
     x1="661.26569"
     y1="490.60431"
     x2="661.26569"
     y2="514.60431"
     id="line3897"
     style="fill:none;stroke:#000000;stroke-width:1.5;stroke-miterlimit:4;stroke-dasharray:none" />
  <line
     x1="661.26569"
     y1="514.60431"
     x2="821.26569"
     y2="514.60431"
     id="line3899"
     style="fill:none;stroke:#000000;stroke-width:1.5;stroke-miterlimit:4;stroke-dasharray:none" />
  <line
     x1="821.26569"
     y1="514.60431"
     x2="821.26569"
     y2="232.60439"
     id="line3901"
     style="fill:none;stroke:#000000;stroke-width:1.5;stroke-miterlimit:4;stroke-dasharray:none" />
  <line
     x1="821.26569"
     y1="232.60439"
     x2="381.26569"
     y2="232.60439"
     id="line3903"
     style="fill:none;stroke:#000000;stroke-width:1.5;stroke-miterlimit:4;stroke-dasharray:none" />
  <polygon
     points="692,248 692,257 684,253 "
     id="polygon3905"
     transform="translate(-302.73433,-20.395584)"
     style="fill:#000000" />
  <polygon
     points="692,248 692,257 684,253 "
     id="polygon3907"
     transform="translate(-302.73433,-20.395584)"
     style="fill:none;stroke:#000000;stroke-width:1" />
  <line
     x1="572.20477"
     y1="451.84048"
     x2="611.3266"
     y2="485.66522"
     id="line3909"
     style="fill:none;stroke:#000000;stroke-width:1.5;stroke-miterlimit:4;stroke-dasharray:none" />
  <polygon
     points="904,502 911,496 914,506 "
     id="polygon3911"
     transform="translate(-302.73433,-20.395584)"
     style="fill:#000000" />
  <polygon
     points="904,502 911,496 914,506 "
     id="polygon3913"
     transform="translate(-302.73433,-20.395584)"
     style="fill:none;stroke:#000000;stroke-width:1" />
  <text
     x="532.51923"
     y="446.13757"
     style="font-size:12px;font-family:Dialog"
     id="text3819-3">
    <tspan
       style="font-size:16px"
       id="tspan7900-7">Transfer1</tspan>
  </text>
  <rect
     x="623.01776"
     y="397.98233"
     width="79.714371"
     height="53.981754"
     id="rect3813-6"
     style="fill:none;stroke:#000000;stroke-width:1.32528341" />
  <text
     x="629.59766"
     y="430.59198"
     style="font-size:12px;font-family:Dialog"
     id="text3819-34">
    <tspan
       style="font-size:16px"
       id="tspan7900-4">Execute</tspan>
  </text>
  <text
     x="625.8551"
     y="409.8197"
     style="font-size:12px;font-family:Dialog"
     id="text3821-7">sd</text>
  <line
     x1="622.8551"
     y1="412.8197"
     x2="637.8551"
     y2="412.8197"
     id="line3823-2"
     style="fill:none;stroke:#000000;stroke-width:1" />
  <line
     x1="647.8551"
     y1="397.8197"
     x2="647.8551"
     y2="405.8197"
     id="line3825-7"
     style="fill:none;stroke:#000000;stroke-width:1" />
  <line
     x1="637.8551"
     y1="412.8197"
     x2="647.8551"
     y2="405.8197"
     id="line3827-4"
     style="fill:none;stroke:#000000;stroke-width:1" />
  <text
     x="626.10864"
     y="446.35297"
     style="font-size:12px;font-family:Dialog"
     id="text3819-3-2">
    <tspan
       style="font-size:16px"
       id="tspan7900-7-4">Transfer2</tspan>
  </text>
  <rect
     x="721.86975"
     y="397.72488"
     width="79.714371"
     height="53.981754"
     id="rect3813-6-7"
     style="fill:none;stroke:#000000;stroke-width:1.32528341" />
  <text
     x="728.44965"
     y="430.33453"
     style="font-size:12px;font-family:Dialog"
     id="text3819-34-7">
    <tspan
       style="font-size:16px"
       id="tspan7900-4-8">Execute</tspan>
  </text>
  <text
     x="724.70709"
     y="409.56226"
     style="font-size:12px;font-family:Dialog"
     id="text3821-7-6">sd</text>
  <line
     x1="721.70709"
     y1="412.56226"
     x2="736.70709"
     y2="412.56226"
     id="line3823-2-8"
     style="fill:none;stroke:#000000;stroke-width:1" />
  <line
     x1="746.70709"
     y1="397.56226"
     x2="746.70709"
     y2="405.56226"
     id="line3825-7-7"
     style="fill:none;stroke:#000000;stroke-width:1" />
  <line
     x1="736.70709"
     y1="412.56226"
     x2="746.70709"
     y2="405.56226"
     id="line3827-4-3"
     style="fill:none;stroke:#000000;stroke-width:1" />
  <text
     x="724.96063"
     y="446.09552"
     style="font-size:12px;font-family:Dialog"
     id="text3819-3-2-2">
    <tspan
       style="font-size:16px"
       id="tspan7900-7-4-9">Transfer3</tspan>
  </text>
  <rect
     x="13.35192"
     y="394.92303"
     width="94.163055"
     height="53.86816"
     id="rect3813-69"
     style="fill:none;stroke:#000000;stroke-width:1.43887579" />
  <text
     x="21.382988"
     y="425.67389"
     style="font-size:12px;font-family:Dialog"
     id="text3819-32">
    <tspan
       style="font-size:16px"
       id="tspan7900-8">Terminate</tspan>
  </text>
  <text
     x="16.132469"
     y="406.70361"
     style="font-size:12px;font-family:Dialog"
     id="text3821-0">sd</text>
  <line
     x1="13.132468"
     y1="409.70361"
     x2="28.132469"
     y2="409.70361"
     id="line3823-5"
     style="fill:none;stroke:#000000;stroke-width:1" />
  <line
     x1="38.132469"
     y1="394.70361"
     x2="38.132469"
     y2="402.70361"
     id="line3825-3"
     style="fill:none;stroke:#000000;stroke-width:1" />
  <line
     x1="28.132469"
     y1="409.70361"
     x2="38.132469"
     y2="402.70361"
     id="line3827-0"
     style="fill:none;stroke:#000000;stroke-width:1" />
  <text
     x="25.123375"
     y="442.50876"
     style="font-size:12px;font-family:Dialog"
     id="text3819-3-3">
    <tspan
       style="font-size:16px"
       id="tspan7900-7-0">Transfer1</tspan>
  </text>
  <rect
     x="127.30177"
     y="394.92303"
     width="94.163055"
     height="53.86816"
     id="rect3813-69-6"
     style="fill:none;stroke:#000000;stroke-width:1.43887579" />
  <text
     x="135.33284"
     y="425.67392"
     style="font-size:12px;font-family:Dialog"
     id="text3819-32-4">
    <tspan
       style="font-size:16px"
       id="tspan7900-8-8">Terminate</tspan>
  </text>
  <text
     x="130.08232"
     y="406.70361"
     style="font-size:12px;font-family:Dialog"
     id="text3821-0-5">sd</text>
  <line
     x1="127.08232"
     y1="409.70361"
     x2="142.08232"
     y2="409.70361"
     id="line3823-5-5"
     style="fill:none;stroke:#000000;stroke-width:1" />
  <line
     x1="152.08232"
     y1="394.70361"
     x2="152.08232"
     y2="402.70361"
     id="line3825-3-0"
     style="fill:none;stroke:#000000;stroke-width:1" />
  <line
     x1="142.08232"
     y1="409.70361"
     x2="152.08232"
     y2="402.70361"
     id="line3827-0-0"
     style="fill:none;stroke:#000000;stroke-width:1" />
  <text
     x="139.07323"
     y="442.50876"
     style="font-size:12px;font-family:Dialog"
     id="text3819-3-3-0">
    <tspan
       style="font-size:16px"
       id="tspan7900-7-0-2">Transfer2</tspan>
  </text>
  <rect
     x="243.07187"
     y="394.92307"
     width="94.163055"
     height="53.86816"
     id="rect3813-69-9"
     style="fill:none;stroke:#000000;stroke-width:1.43887579" />
  <text
     x="251.10294"
     y="425.67392"
     style="font-size:12px;font-family:Dialog"
     id="text3819-32-5">
    <tspan
       style="font-size:16px"
       id="tspan7900-8-3">Terminate</tspan>
  </text>
  <text
     x="245.85242"
     y="406.70364"
     style="font-size:12px;font-family:Dialog"
     id="text3821-0-1">sd</text>
  <line
     x1="242.85242"
     y1="409.70364"
     x2="257.85242"
     y2="409.70364"
     id="line3823-5-1"
     style="fill:none;stroke:#000000;stroke-width:1" />
  <line
     x1="267.85242"
     y1="394.70364"
     x2="267.85242"
     y2="402.70364"
     id="line3825-3-7"
     style="fill:none;stroke:#000000;stroke-width:1" />
  <line
     x1="257.85242"
     y1="409.70364"
     x2="267.85242"
     y2="402.70364"
     id="line3827-0-1"
     style="fill:none;stroke:#000000;stroke-width:1" />
  <text
     x="254.84332"
     y="442.50879"
     style="font-size:12px;font-family:Dialog"
     id="text3819-3-3-3">
    <tspan
       style="font-size:16px"
       id="tspan7900-7-0-21">Transfer3</tspan>
  </text>
  <rect
     x="175.35416"
     y="96.641754"
     width="94.163055"
     height="53.86816"
     id="rect3813-69-9-2"
     style="fill:none;stroke:#000000;stroke-width:1.43887579" />
  <text
     x="190.33575"
     y="126.3629"
     style="font-size:12px;font-family:Dialog"
     id="text3819-32-5-2">
    <tspan
       style="font-size:16px"
       id="tspan7900-8-3-7">Program</tspan>
  </text>
  <text
     x="178.1347"
     y="108.42233"
     style="font-size:12px;font-family:Dialog"
     id="text3821-0-1-0">sd</text>
  <line
     x1="175.1347"
     y1="111.42233"
     x2="190.1347"
     y2="111.42233"
     id="line3823-5-1-0"
     style="fill:none;stroke:#000000;stroke-width:1" />
  <line
     x1="200.1347"
     y1="96.422333"
     x2="200.1347"
     y2="104.42233"
     id="line3825-3-7-6"
     style="fill:none;stroke:#000000;stroke-width:1" />
  <line
     x1="190.1347"
     y1="111.42233"
     x2="200.1347"
     y2="104.42233"
     id="line3827-0-1-3"
     style="fill:none;stroke:#000000;stroke-width:1" />
  <text
     x="187.38304"
     y="144.48491"
     style="font-size:12px;font-family:Dialog"
     id="text3819-3-3-3-4">
    <tspan
       style="font-size:16px"
       id="tspan7900-7-0-21-4">Transfer1</tspan>
  </text>
  <rect
     x="319.75217"
     y="96.07708"
     width="94.163055"
     height="53.86816"
     id="rect3813-69-9-5"
     style="fill:none;stroke:#000000;stroke-width:1.43887579" />
  <text
     x="333.70407"
     y="126.31307"
     style="font-size:12px;font-family:Dialog"
     id="text3819-32-5-5">
    <tspan
       style="font-size:16px"
       id="tspan7900-8-3-0">Program</tspan>
  </text>
  <text
     x="322.53271"
     y="107.85766"
     style="font-size:12px;font-family:Dialog"
     id="text3821-0-1-9">sd</text>
  <line
     x1="319.53271"
     y1="110.85766"
     x2="334.53271"
     y2="110.85766"
     id="line3823-5-1-2"
     style="fill:none;stroke:#000000;stroke-width:1" />
  <line
     x1="344.53271"
     y1="95.857658"
     x2="344.53271"
     y2="103.85766"
     id="line3825-3-7-9"
     style="fill:none;stroke:#000000;stroke-width:1" />
  <line
     x1="334.53271"
     y1="110.85766"
     x2="344.53271"
     y2="103.85766"
     id="line3827-0-1-7"
     style="fill:none;stroke:#000000;stroke-width:1" />
  <text
     x="331.52362"
     y="143.66281"
     style="font-size:12px;font-family:Dialog"
     id="text3819-3-3-3-8">
    <tspan
       style="font-size:16px"
       id="tspan7900-7-0-21-3">Transfer2</tspan>
  </text>
  <rect
     x="461.59451"
     y="96.591934"
     width="94.163055"
     height="53.86816"
     id="rect3813-69-9-0"
     style="fill:none;stroke:#000000;stroke-width:1.43887579" />
  <text
     x="476.57611"
     y="126.57051"
     style="font-size:12px;font-family:Dialog"
     id="text3819-32-5-4">
    <tspan
       style="font-size:16px"
       id="tspan7900-8-3-6">Program</tspan>
  </text>
  <text
     x="464.37506"
     y="108.37251"
     style="font-size:12px;font-family:Dialog"
     id="text3821-0-1-5">sd</text>
  <line
     x1="461.37506"
     y1="111.37251"
     x2="476.37506"
     y2="111.37251"
     id="line3823-5-1-8"
     style="fill:none;stroke:#000000;stroke-width:1" />
  <line
     x1="486.37506"
     y1="96.372513"
     x2="486.37506"
     y2="104.37251"
     id="line3825-3-7-0"
     style="fill:none;stroke:#000000;stroke-width:1" />
  <line
     x1="476.37506"
     y1="111.37251"
     x2="486.37506"
     y2="104.37251"
     id="line3827-0-1-74"
     style="fill:none;stroke:#000000;stroke-width:1" />
  <text
     x="473.36597"
     y="144.17766"
     style="font-size:12px;font-family:Dialog"
     id="text3819-3-3-3-84">
    <tspan
       style="font-size:16px"
       id="tspan7900-7-0-21-8">Transfer3</tspan>
  </text>
</svg>
