<?xml version="1.0" encoding="UTF-8" standalone="no"?>
<svg
   xmlns:dc="http://purl.org/dc/elements/1.1/"
   xmlns:cc="http://creativecommons.org/ns#"
   xmlns:rdf="http://www.w3.org/1999/02/22-rdf-syntax-ns#"
   xmlns:svg="http://www.w3.org/2000/svg"
   xmlns="http://www.w3.org/2000/svg"
   xmlns:sodipodi="http://sodipodi.sourceforge.net/DTD/sodipodi-0.dtd"
   xmlns:inkscape="http://www.inkscape.org/namespaces/inkscape"
   version="1.1"
   id="svg2"
   inkscape:version="0.48.4 r9939"
   width="674.09003"
   height="622.35999"
   sodipodi:docname="3parMapped.svg">
  <metadata
     id="metadata416">
    <rdf:RDF>
      <cc:Work
         rdf:about="">
        <dc:format>image/svg+xml</dc:format>
        <dc:type
           rdf:resource="http://purl.org/dc/dcmitype/StillImage" />
        <dc:title></dc:title>
      </cc:Work>
    </rdf:RDF>
  </metadata>
  <defs
     id="defs414" />
  <sodipodi:namedview
     pagecolor="#ffffff"
     bordercolor="#666666"
     borderopacity="1"
     objecttolerance="10"
     gridtolerance="10"
     guidetolerance="10"
     inkscape:pageopacity="0"
     inkscape:pageshadow="2"
     inkscape:window-width="1366"
     inkscape:window-height="709"
     id="namedview412"
     showgrid="false"
     inkscape:zoom="0.63429569"
     inkscape:cx="655.77818"
     inkscape:cy="337.78714"
     inkscape:window-x="0"
     inkscape:window-y="27"
     inkscape:window-maximized="1"
     inkscape:current-layer="svg2"
     showguides="true"
     inkscape:guide-bbox="true" />
  <line
     x1="132.3576"
     y1="553.5365"
     x2="132.3576"
     y2="592.5365"
     id="line4"
     style="fill:none;stroke:#000000;stroke-width:1" />
  <polygon
     points="233,583 242,583 238,592 "
     id="polygon6"
     transform="translate(-105.6424,0.53666765)"
     style="fill:#000000" />
  <polygon
     points="233,583 242,583 238,592 "
     id="polygon8"
     transform="translate(-105.6424,0.53666765)"
     style="fill:none;stroke:#000000;stroke-width:1" />
  <line
     x1="258.3576"
     y1="457.5365"
     x2="258.3576"
     y2="482.5365"
     id="line10"
     style="fill:none;stroke:#000000;stroke-width:1" />
  <polygon
     points="359,473 368,473 364,482 "
     id="polygon12"
     transform="translate(-105.6424,0.53666765)"
     style="fill:#000000" />
  <polygon
     points="359,473 368,473 364,482 "
     id="polygon14"
     transform="translate(-105.6424,0.53666765)"
     style="fill:none;stroke:#000000;stroke-width:1" />
  <line
     x1="82.357605"
     y1="492.5365"
     x2="82.357605"
     y2="548.5365"
     id="line16"
     style="fill:none;stroke:#000000;stroke-width:1" />
  <polygon
     points="183,539 192,539 188,548 "
     id="polygon18"
     transform="translate(-105.6424,0.53666765)"
     style="fill:#000000" />
  <polygon
     points="183,539 192,539 188,548 "
     id="polygon20"
     transform="translate(-105.6424,0.53666765)"
     style="fill:none;stroke:#000000;stroke-width:1" />
  <line
     x1="587.3576"
     y1="475.5365"
     x2="587.3576"
     y2="501.5365"
     id="line22"
     style="fill:none;stroke:#000000;stroke-width:1" />
  <polygon
     points="688,492 697,492 693,501 "
     id="polygon24"
     transform="translate(-105.6424,0.53666765)"
     style="fill:#000000" />
  <polygon
     points="688,492 697,492 693,501 "
     id="polygon26"
     transform="translate(-105.6424,0.53666765)"
     style="fill:none;stroke:#000000;stroke-width:1" />
  <line
     x1="448.3576"
     y1="398.5365"
     x2="448.3576"
     y2="472.5365"
     id="line28"
     style="fill:none;stroke:#000000;stroke-width:1" />
  <polygon
     points="549,463 558,463 554,472 "
     id="polygon30"
     transform="translate(-105.6424,0.53666765)"
     style="fill:#000000" />
  <polygon
     points="549,463 558,463 554,472 "
     id="polygon32"
     transform="translate(-105.6424,0.53666765)"
     style="fill:none;stroke:#000000;stroke-width:1" />
  <line
     x1="334.3576"
     y1="286.5365"
     x2="334.3576"
     y2="321.5365"
     id="line34"
     style="fill:none;stroke:#000000;stroke-width:1" />
  <polygon
     points="435,312 444,312 440,321 "
     id="polygon36"
     transform="translate(-105.6424,0.53666765)"
     style="fill:#000000" />
  <polygon
     points="435,312 444,312 440,321 "
     id="polygon38"
     transform="translate(-105.6424,0.53666765)"
     style="fill:none;stroke:#000000;stroke-width:1" />
  <line
     x1="333.3576"
     y1="30.536667"
     x2="334.3576"
     y2="48.536667"
     id="line40"
     style="fill:none;stroke:#000000;stroke-width:1" />
  <polygon
     points="434,39 444,39 440,48 "
     id="polygon42"
     transform="translate(-105.6424,0.53666765)"
     style="fill:#000000" />
  <polygon
     points="434,39 444,39 440,48 "
     id="polygon44"
     transform="translate(-105.6424,0.53666765)"
     style="fill:none;stroke:#000000;stroke-width:1" />
  <line
     x1="334.3576"
     y1="225.53665"
     x2="334.3576"
     y2="256.53656"
     id="line46"
     style="fill:none;stroke:#000000;stroke-width:1" />
  <polygon
     points="435,247 444,247 440,256 "
     id="polygon48"
     transform="translate(-105.6424,0.53666765)"
     style="fill:#000000" />
  <polygon
     points="435,247 444,247 440,256 "
     id="polygon50"
     transform="translate(-105.6424,0.53666765)"
     style="fill:none;stroke:#000000;stroke-width:1" />
  <line
     x1="374.3576"
     y1="346.5365"
     x2="498.3576"
     y2="346.5365"
     id="line52"
     style="fill:none;stroke:#000000;stroke-width:1" />
  <line
     x1="498.3576"
     y1="346.5365"
     x2="498.3576"
     y2="393.5365"
     id="line54"
     style="fill:none;stroke:#000000;stroke-width:1" />
  <polygon
     points="599,384 608,384 604,393 "
     id="polygon56"
     transform="translate(-105.6424,0.53666765)"
     style="fill:#000000" />
  <polygon
     points="599,384 608,384 604,393 "
     id="polygon58"
     transform="translate(-105.6424,0.53666765)"
     style="fill:none;stroke:#000000;stroke-width:1" />
  <line
     x1="547.3576"
     y1="398.5365"
     x2="587.3576"
     y2="430.5365"
     id="line60"
     style="fill:none;stroke:#000000;stroke-width:1" />
  <polygon
     points="683,428 689,420 693,430 "
     id="polygon62"
     transform="translate(-105.6424,0.53666765)"
     style="fill:#000000" />
  <polygon
     points="683,428 689,420 693,430 "
     id="polygon64"
     transform="translate(-105.6424,0.53666765)"
     style="fill:none;stroke:#000000;stroke-width:1" />
  <line
     x1="448.3576"
     y1="517.5365"
     x2="448.3576"
     y2="567.5365"
     id="line66"
     style="fill:none;stroke:#000000;stroke-width:1" />
  <polygon
     points="549,558 558,558 554,567 "
     id="polygon68"
     transform="translate(-105.6424,0.53666765)"
     style="fill:#000000" />
  <polygon
     points="549,558 558,558 554,567 "
     id="polygon70"
     transform="translate(-105.6424,0.53666765)"
     style="fill:none;stroke:#000000;stroke-width:1" />
  <line
     x1="82.357605"
     y1="377.5365"
     x2="82.357605"
     y2="447.5365"
     id="line72"
     style="fill:none;stroke:#000000;stroke-width:1" />
  <polygon
     points="183,438 192,438 188,447 "
     id="polygon74"
     transform="translate(-105.6424,0.53666765)"
     style="fill:#000000" />
  <polygon
     points="183,438 192,438 188,447 "
     id="polygon76"
     transform="translate(-105.6424,0.53666765)"
     style="fill:none;stroke:#000000;stroke-width:1" />
  <line
     x1="181.3576"
     y1="377.5365"
     x2="258.3576"
     y2="412.5365"
     id="line78"
     style="fill:none;stroke:#000000;stroke-width:1" />
  <polygon
     points="354,412 358,403 364,412 "
     id="polygon80"
     transform="translate(-105.6424,0.53666765)"
     style="fill:#000000" />
  <polygon
     points="354,412 358,403 364,412 "
     id="polygon82"
     transform="translate(-105.6424,0.53666765)"
     style="fill:none;stroke:#000000;stroke-width:1" />
  <line
     x1="294.3576"
     y1="346.5365"
     x2="132.3576"
     y2="346.5365"
     id="line84"
     style="fill:none;stroke:#000000;stroke-width:1" />
  <line
     x1="132.3576"
     y1="346.5365"
     x2="132.3576"
     y2="372.5365"
     id="line86"
     style="fill:none;stroke:#000000;stroke-width:1" />
  <polygon
     points="233,363 242,363 238,372 "
     id="polygon88"
     transform="translate(-105.6424,0.53666765)"
     style="fill:#000000" />
  <polygon
     points="233,363 242,363 238,372 "
     id="polygon90"
     transform="translate(-105.6424,0.53666765)"
     style="fill:none;stroke:#000000;stroke-width:1" />
  <line
     x1="498.3576"
     y1="572.5365"
     x2="498.3576"
     y2="608.5365"
     id="line92"
     style="fill:none;stroke:#000000;stroke-width:1" />
  <line
     x1="498.3576"
     y1="608.5365"
     x2="665.3576"
     y2="608.5365"
     id="line94"
     style="fill:none;stroke:#000000;stroke-width:1" />
  <line
     x1="665.3576"
     y1="608.5365"
     x2="665.3576"
     y2="271.53653"
     id="line96"
     style="fill:none;stroke:#000000;stroke-width:1" />
  <line
     x1="665.3576"
     y1="271.53653"
     x2="349.3576"
     y2="271.53653"
     id="line98"
     style="fill:none;stroke:#000000;stroke-width:1" />
  <polygon
     points="463,266 463,275 455,271 "
     id="polygon100"
     transform="translate(-105.6424,0.53666765)"
     style="fill:#000000" />
  <polygon
     points="463,266 463,275 455,271 "
     id="polygon102"
     transform="translate(-105.6424,0.53666765)"
     style="fill:none;stroke:#000000;stroke-width:1" />
  <line
     x1="284.3576"
     y1="53.536667"
     x2="284.3576"
     y2="114.53667"
     id="line104"
     style="fill:none;stroke:#000000;stroke-width:1" />
  <polygon
     points="385,105 394,105 390,114 "
     id="polygon106"
     transform="translate(-105.6424,0.53666765)"
     style="fill:#000000" />
  <polygon
     points="385,105 394,105 390,114 "
     id="polygon108"
     transform="translate(-105.6424,0.53666765)"
     style="fill:none;stroke:#000000;stroke-width:1" />
  <line
     x1="284.3576"
     y1="159.53665"
     x2="284.3576"
     y2="220.53665"
     id="line110"
     style="fill:none;stroke:#000000;stroke-width:1" />
  <polygon
     points="385,211 394,211 390,220 "
     id="polygon112"
     transform="translate(-105.6424,0.53666765)"
     style="fill:#000000" />
  <polygon
     points="385,211 394,211 390,220 "
     id="polygon114"
     transform="translate(-105.6424,0.53666765)"
     style="fill:none;stroke:#000000;stroke-width:1" />
  <line
     x1="383.3576"
     y1="53.536667"
     x2="449.3576"
     y2="84.536667"
     id="line116"
     style="fill:none;stroke:#000000;stroke-width:1" />
  <polygon
     points="545,84 549,75 555,84 "
     id="polygon118"
     transform="translate(-105.6424,0.53666765)"
     style="fill:#000000" />
  <polygon
     points="545,84 549,75 555,84 "
     id="polygon120"
     transform="translate(-105.6424,0.53666765)"
     style="fill:none;stroke:#000000;stroke-width:1" />
  <rect
     x="223.38715"
     y="115.56621"
     width="122.94093"
     height="39.27644"
     id="rect124"
     style="fill:none;stroke:#000000;stroke-width:1.05907738" />
  <line
     x1="284.3576"
     y1="154.53665"
     x2="284.3576"
     y2="159.53665"
     id="line128"
     style="fill:none;stroke:#000000;stroke-width:1" />
  <text
     x="257.07104"
     y="131.34769"
     style="font-size:12px;font-family:Dialog"
     id="text130">
    <tspan
       style="font-size:14px"
       id="tspan3363">Program</tspan>
  </text>
  <text
     x="226.3576"
     y="127.53665"
     style="font-size:12px;font-family:Dialog"
     id="text132">sd</text>
  <line
     x1="223.3576"
     y1="130.53665"
     x2="238.3576"
     y2="130.53665"
     id="line134"
     style="fill:none;stroke:#000000;stroke-width:1" />
  <line
     x1="248.3576"
     y1="115.53667"
     x2="248.3576"
     y2="123.53665"
     id="line136"
     style="fill:none;stroke:#000000;stroke-width:1" />
  <line
     x1="238.3576"
     y1="130.53665"
     x2="248.3576"
     y2="123.53665"
     id="line138"
     style="fill:none;stroke:#000000;stroke-width:1" />
  <ellipse
     cx="439"
     cy="17"
     rx="7"
     ry="7"
     id="ellipse140"
     sodipodi:cx="439"
     sodipodi:cy="17"
     sodipodi:rx="7"
     sodipodi:ry="7"
     transform="translate(-105.6424,0.53666765)"
     style="fill:#000000" />
  <line
     x1="333.3576"
     y1="25.536678"
     x2="333.3576"
     y2="30.536667"
     id="line142"
     style="fill:none;stroke:#000000;stroke-width:1" />
  <rect
     x="6.4126801"
     y="448.59158"
     width="151.88985"
     height="43.166744"
     id="rect146"
     style="fill:none;stroke:#000000;stroke-width:1.11015391" />
  <text
     x="41.465191"
     y="465.52997"
     style="font-size:12px;font-family:Dialog"
     id="text152">
    <tspan
       style="font-size:14px"
       id="tspan3504">Acknowledge</tspan>
  </text>
  <text
     x="9.3576031"
     y="460.5365"
     style="font-size:12px;font-family:Dialog"
     id="text154">sd</text>
  <line
     x1="6.3576031"
     y1="463.5365"
     x2="21.357601"
     y2="463.5365"
     id="line156"
     style="fill:none;stroke:#000000;stroke-width:1" />
  <line
     x1="31.357601"
     y1="448.5365"
     x2="31.357601"
     y2="456.5365"
     id="line158"
     style="fill:none;stroke:#000000;stroke-width:1" />
  <line
     x1="21.357601"
     y1="463.5365"
     x2="31.357601"
     y2="456.5365"
     id="line160"
     style="fill:none;stroke:#000000;stroke-width:1" />
  <line
     x1="334.3576"
     y1="331.5365"
     x2="349.3576"
     y2="346.5365"
     id="line184"
     style="fill:none;stroke:#000000;stroke-width:1" />
  <line
     x1="319.3576"
     y1="346.5365"
     x2="334.3576"
     y2="361.5365"
     id="line186"
     style="fill:none;stroke:#000000;stroke-width:1" />
  <line
     x1="334.3576"
     y1="331.5365"
     x2="319.3576"
     y2="346.5365"
     id="line188"
     style="fill:none;stroke:#000000;stroke-width:1" />
  <line
     x1="349.3576"
     y1="346.5365"
     x2="334.3576"
     y2="361.5365"
     id="line190"
     style="fill:none;stroke:#000000;stroke-width:1" />
  <line
     x1="334.3576"
     y1="331.5365"
     x2="334.3576"
     y2="321.5365"
     id="line192"
     style="fill:none;stroke:#000000;stroke-width:1" />
  <line
     x1="319.3576"
     y1="346.5365"
     x2="294.3576"
     y2="346.5365"
     id="line194"
     style="fill:none;stroke:#000000;stroke-width:1" />
  <line
     x1="349.3576"
     y1="346.5365"
     x2="374.3576"
     y2="346.5365"
     id="line196"
     style="fill:none;stroke:#000000;stroke-width:1" />
  <line
     x1="334.3576"
     y1="361.5365"
     x2="334.3576"
     y2="386.5365"
     id="line198"
     style="fill:none;stroke:#000000;stroke-width:1" />
  <text
     x="26.00519"
     y="316.90442"
     style="font-size:12px;font-family:Dialog"
     id="text200">
    <tspan
       style="font-size:14px"
       id="tspan3448">[(samples==0)&amp;&amp;(samples2==0)</tspan>
  </text>
  <text
     x="346.3576"
     y="330.3541"
     style="font-size:12px;font-family:Dialog"
     id="text202">
    <tspan
       style="font-size:14px"
       id="tspan3446">[(samples&gt;0)&amp;&amp;(samples2&gt;0)</tspan>
  </text>
  <text
     x="339.3576"
     y="376.5365"
     style="font-size:12px;font-family:Dialog"
     id="text204">[ ]</text>
  <ellipse
     cx="238"
     cy="607"
     rx="8"
     ry="8"
     id="ellipse206"
     sodipodi:cx="238"
     sodipodi:cy="607"
     sodipodi:rx="8"
     sodipodi:ry="8"
     transform="translate(-105.6424,0.53666765)"
     style="fill:#000000" />
  <ellipse
     cx="238"
     cy="607"
     rx="10"
     ry="10"
     id="ellipse208"
     sodipodi:cx="238"
     sodipodi:cy="607"
     sodipodi:rx="10"
     sodipodi:ry="10"
     transform="translate(-105.6424,0.53666765)"
     style="fill:none;stroke:#000000;stroke-width:1" />
  <line
     x1="132.3576"
     y1="597.5365"
     x2="132.3576"
     y2="592.5365"
     id="line210"
     style="fill:none;stroke:#000000;stroke-width:1" />
  <line
     x1="334.3576"
     y1="256.53656"
     x2="334.3576"
     y2="286.5365"
     id="line212"
     style="fill:none;stroke:#000000;stroke-width:1" />
  <line
     x1="319.3576"
     y1="271.53653"
     x2="349.3576"
     y2="271.53653"
     id="line214"
     style="fill:none;stroke:#000000;stroke-width:1" />
  <rect
     x="388.38452"
     y="85.563591"
     width="122.94616"
     height="38.887535"
     id="rect218"
     style="fill:none;stroke:#000000;stroke-width:1.0538435" />
  <line
     x1="449.3576"
     y1="124.53665"
     x2="449.3576"
     y2="129.53665"
     id="line222"
     style="fill:none;stroke:#000000;stroke-width:1" />
  <text
     x="422.07104"
     y="117.50735"
     style="font-size:12px;font-family:Dialog"
     id="text224">
    <tspan
       style="font-size:14px"
       id="tspan3386">Transfer2</tspan>
  </text>
  <text
     x="391.3576"
     y="97.536667"
     style="font-size:12px;font-family:Dialog"
     id="text226">sd</text>
  <line
     x1="388.3576"
     y1="100.53667"
     x2="403.3576"
     y2="100.53667"
     id="line228"
     style="fill:none;stroke:#000000;stroke-width:1" />
  <line
     x1="413.3576"
     y1="85.536667"
     x2="413.3576"
     y2="93.536667"
     id="line230"
     style="fill:none;stroke:#000000;stroke-width:1" />
  <line
     x1="403.3576"
     y1="100.53667"
     x2="413.3576"
     y2="93.536667"
     id="line232"
     style="fill:none;stroke:#000000;stroke-width:1" />
  <rect
     x="388.42004"
     y="473.59894"
     width="119.87511"
     height="44.334419"
     id="rect236"
     style="fill:none;stroke:#000000;stroke-width:1.1248908" />
  <text
     x="422.88864"
     y="492.10651"
     style="font-size:12px;font-family:Dialog"
     id="text242">
    <tspan
       style="font-size:14px"
       id="tspan3415">Execute</tspan>
  </text>
  <text
     x="391.3576"
     y="485.5365"
     style="font-size:12px;font-family:Dialog"
     id="text244">sd</text>
  <line
     x1="388.3576"
     y1="488.5365"
     x2="403.3576"
     y2="488.5365"
     id="line246"
     style="fill:none;stroke:#000000;stroke-width:1" />
  <line
     x1="413.3576"
     y1="473.5365"
     x2="413.3576"
     y2="481.5365"
     id="line248"
     style="fill:none;stroke:#000000;stroke-width:1" />
  <line
     x1="403.3576"
     y1="488.5365"
     x2="413.3576"
     y2="481.5365"
     id="line250"
     style="fill:none;stroke:#000000;stroke-width:1" />
  <rect
     x="527.38977"
     y="431.56863"
     width="119.93572"
     height="39.665375"
     id="rect254"
     style="fill:none;stroke:#000000;stroke-width:1.06427884" />
  <line
     x1="587.3576"
     y1="470.5365"
     x2="587.3576"
     y2="475.5365"
     id="line258"
     style="fill:none;stroke:#000000;stroke-width:1" />
  <text
     x="561.1004"
     y="447.74167"
     style="font-size:12px;font-family:Dialog"
     id="text260">
    <tspan
       style="font-size:14px"
       id="tspan3423">Execute</tspan>
  </text>
  <text
     x="530.3576"
     y="443.5365"
     style="font-size:12px;font-family:Dialog"
     id="text262">sd</text>
  <line
     x1="527.3576"
     y1="446.5365"
     x2="542.3576"
     y2="446.5365"
     id="line264"
     style="fill:none;stroke:#000000;stroke-width:1" />
  <line
     x1="552.3576"
     y1="431.5365"
     x2="552.3576"
     y2="439.5365"
     id="line266"
     style="fill:none;stroke:#000000;stroke-width:1" />
  <line
     x1="542.3576"
     y1="446.5365"
     x2="552.3576"
     y2="439.5365"
     id="line268"
     style="fill:none;stroke:#000000;stroke-width:1" />
  <rect
     x="182.41765"
     y="413.59653"
     width="151.87991"
     height="43.945091"
     id="rect272"
     style="fill:none;stroke:#000000;stroke-width:1.12008131" />
  <text
     x="215.88864"
     y="430.1358"
     style="font-size:12px;font-family:Dialog"
     id="text278">
    <tspan
       style="font-size:14px"
       id="tspan3502">Acknowledge</tspan>
  </text>
  <text
     x="185.3576"
     y="425.5365"
     style="font-size:12px;font-family:Dialog"
     id="text280">sd</text>
  <line
     x1="182.3576"
     y1="428.5365"
     x2="197.3576"
     y2="428.5365"
     id="line282"
     style="fill:none;stroke:#000000;stroke-width:1" />
  <line
     x1="207.3576"
     y1="413.5365"
     x2="207.3576"
     y2="421.5365"
     id="line284"
     style="fill:none;stroke:#000000;stroke-width:1" />
  <line
     x1="197.3576"
     y1="428.5365"
     x2="207.3576"
     y2="421.5365"
     id="line286"
     style="fill:none;stroke:#000000;stroke-width:1" />
  <rect
     x="423.3576"
     y="393.5365"
     width="150"
     height="5"
     id="rect288"
     style="fill:none;stroke:#000000;stroke-width:1" />
  <rect
     x="423.3576"
     y="393.5365"
     width="149"
     height="4"
     id="rect290"
     style="fill:#000000" />
  <rect
     x="423.3576"
     y="567.5365"
     width="150"
     height="5"
     id="rect292"
     style="fill:none;stroke:#000000;stroke-width:1" />
  <rect
     x="423.3576"
     y="567.5365"
     width="149"
     height="4"
     id="rect294"
     style="fill:#000000" />
  <rect
     x="57.357605"
     y="372.5365"
     width="150"
     height="5"
     id="rect296"
     style="fill:none;stroke:#000000;stroke-width:1" />
  <rect
     x="57.357605"
     y="372.5365"
     width="149"
     height="4"
     id="rect298"
     style="fill:#000000" />
  <rect
     x="57.357605"
     y="548.5365"
     width="150"
     height="5"
     id="rect300"
     style="fill:none;stroke:#000000;stroke-width:1" />
  <rect
     x="57.357605"
     y="548.5365"
     width="149"
     height="4"
     id="rect302"
     style="fill:#000000" />
  <rect
     x="259.3576"
     y="48.536667"
     width="150"
     height="5"
     id="rect326"
     style="fill:none;stroke:#000000;stroke-width:1" />
  <rect
     x="259.3576"
     y="48.536667"
     width="149"
     height="4"
     id="rect328"
     style="fill:#000000" />
  <rect
     x="259.3576"
     y="220.53665"
     width="150"
     height="5"
     id="rect330"
     style="fill:none;stroke:#000000;stroke-width:1" />
  <rect
     x="259.3576"
     y="220.53665"
     width="149"
     height="4"
     id="rect332"
     style="fill:#000000" />
  <rect
     x="388.3819"
     y="151.0137"
     width="122.95142"
     height="38.498657"
     id="rect336"
     style="fill:none;stroke:#000000;stroke-width:1.04858339" />
  <line
     x1="449.3576"
     y1="189.53665"
     x2="449.3576"
     y2="194.53665"
     id="line340"
     style="fill:none;stroke:#000000;stroke-width:1" />
  <text
     x="422.88864"
     y="166.40631"
     style="font-size:12px;font-family:Dialog"
     id="text342">
    <tspan
       style="font-size:14px"
       id="tspan3388">Program</tspan>
  </text>
  <text
     x="391.3576"
     y="162.53665"
     style="font-size:12px;font-family:Dialog"
     id="text344">sd</text>
  <line
     x1="388.3576"
     y1="165.53665"
     x2="403.3576"
     y2="165.53665"
     id="line346"
     style="fill:none;stroke:#000000;stroke-width:1" />
  <line
     x1="413.3576"
     y1="150.53665"
     x2="413.3576"
     y2="158.53665"
     id="line348"
     style="fill:none;stroke:#000000;stroke-width:1" />
  <line
     x1="403.3576"
     y1="165.53665"
     x2="413.3576"
     y2="158.53665"
     id="line350"
     style="fill:none;stroke:#000000;stroke-width:1" />
  <rect
     x="527.4176"
     y="502.5965"
     width="119.88004"
     height="43.945206"
     id="rect354"
     style="fill:none;stroke:#000000;stroke-width:1.1199652" />
  <text
     x="563.07104"
     y="521.89478"
     style="font-size:12px;font-family:Dialog"
     id="text360">
    <tspan
       style="font-size:14px"
       id="tspan3421">Execute</tspan>
  </text>
  <text
     x="530.3576"
     y="514.5365"
     style="font-size:12px;font-family:Dialog"
     id="text362">sd</text>
  <line
     x1="527.3576"
     y1="517.5365"
     x2="542.3576"
     y2="517.5365"
     id="line364"
     style="fill:none;stroke:#000000;stroke-width:1" />
  <line
     x1="552.3576"
     y1="502.5365"
     x2="552.3576"
     y2="510.5365"
     id="line366"
     style="fill:none;stroke:#000000;stroke-width:1" />
  <line
     x1="542.3576"
     y1="517.5365"
     x2="552.3576"
     y2="510.5365"
     id="line368"
     style="fill:none;stroke:#000000;stroke-width:1" />
  <rect
     x="182.41518"
     y="483.59406"
     width="151.88487"
     height="43.555904"
     id="rect372"
     style="fill:none;stroke:#000000;stroke-width:1.11512864" />
  <text
     x="215.88864"
     y="501.71234"
     style="font-size:12px;font-family:Dialog"
     id="text378">
    <tspan
       style="font-size:14px"
       id="tspan3500">Acknowledge</tspan>
  </text>
  <text
     x="185.3576"
     y="495.5365"
     style="font-size:12px;font-family:Dialog"
     id="text380">sd</text>
  <line
     x1="182.3576"
     y1="498.5365"
     x2="197.3576"
     y2="498.5365"
     id="line382"
     style="fill:none;stroke:#000000;stroke-width:1" />
  <line
     x1="207.3576"
     y1="483.5365"
     x2="207.3576"
     y2="491.5365"
     id="line384"
     style="fill:none;stroke:#000000;stroke-width:1" />
  <line
     x1="197.3576"
     y1="498.5365"
     x2="207.3576"
     y2="491.5365"
     id="line386"
     style="fill:none;stroke:#000000;stroke-width:1" />
  <line
     x1="449.3576"
     y1="129.53665"
     x2="449.3576"
     y2="149.53665"
     id="line388"
     style="fill:none;stroke:#000000;stroke-width:1" />
  <polygon
     points="550,140 559,140 555,149 "
     id="polygon390"
     transform="translate(-105.6424,0.53666765)"
     style="fill:#000000" />
  <polygon
     points="550,140 559,140 555,149 "
     id="polygon392"
     transform="translate(-105.6424,0.53666765)"
     style="fill:none;stroke:#000000;stroke-width:1" />
  <line
     x1="449.3576"
     y1="194.53665"
     x2="383.3576"
     y2="220.53665"
     id="line394"
     style="fill:none;stroke:#000000;stroke-width:1" />
  <polygon
     points="495,212 498,221 489,220 "
     id="polygon396"
     transform="translate(-105.6424,0.53666765)"
     style="fill:#000000" />
  <polygon
     points="495,212 498,221 489,220 "
     id="polygon398"
     transform="translate(-105.6424,0.53666765)"
     style="fill:none;stroke:#000000;stroke-width:1" />
  <line
     x1="587.3576"
     y1="546.5365"
     x2="547.3576"
     y2="567.5365"
     id="line400"
     style="fill:none;stroke:#000000;stroke-width:1" />
  <polygon
     points="658,558 662,567 653,567 "
     id="polygon402"
     transform="translate(-105.6424,0.53666765)"
     style="fill:#000000" />
  <polygon
     points="658,558 662,567 653,567 "
     id="polygon404"
     transform="translate(-105.6424,0.53666765)"
     style="fill:none;stroke:#000000;stroke-width:1" />
  <line
     x1="258.3576"
     y1="527.5365"
     x2="181.3576"
     y2="548.5365"
     id="line406"
     style="fill:none;stroke:#000000;stroke-width:1" />
  <polygon
     points="294,540 296,550 287,548 "
     id="polygon408"
     transform="translate(-105.6424,0.53666765)"
     style="fill:#000000" />
  <polygon
     points="294,540 296,550 287,548 "
     id="polygon410"
     transform="translate(-105.6424,0.53666765)"
     style="fill:none;stroke:#000000;stroke-width:1" />
  <text
     xml:space="preserve"
     style="font-size:40px;font-style:normal;font-weight:normal;line-height:125%;letter-spacing:0px;word-spacing:0px;fill:#000000;fill-opacity:1;stroke:none;font-family:Sans"
     x="254.21898"
     y="148.44655"
     id="text3359"
     sodipodi:linespacing="125%"><tspan
       sodipodi:role="line"
       id="tspan3361"
       x="254.21898"
       y="148.44655"
       style="font-size:14px">Transfer1</tspan></text>
  <text
     x="424.45807"
     y="102.09662"
     style="font-size:12px;font-family:Dialog"
     id="text130-6">
    <tspan
       style="font-size:14px"
       id="tspan3363-1">Program</tspan>
  </text>
  <text
     x="419.77191"
     y="182.89061"
     style="font-size:12px;font-family:Dialog"
     id="text224-5">
    <tspan
       style="font-size:14px"
       id="tspan3386-2">Transfer3</tspan>
  </text>
  <text
     xml:space="preserve"
     style="font-size:40px;font-style:normal;font-weight:normal;line-height:125%;letter-spacing:0px;word-spacing:0px;fill:#000000;fill-opacity:1;stroke:none;font-family:Sans"
     x="417.78622"
     y="509.0827"
     id="text3411"
     sodipodi:linespacing="125%"><tspan
       sodipodi:role="line"
       id="tspan3413"
       x="417.78622"
       y="509.0827"
       style="font-size:14px">Transfer1</tspan></text>
  <text
     xml:space="preserve"
     style="font-size:40px;font-style:normal;font-weight:normal;line-height:125%;letter-spacing:0px;word-spacing:0px;fill:#000000;fill-opacity:1;stroke:none;font-family:Sans"
     x="558.09937"
     y="465.7276"
     id="text3417"
     sodipodi:linespacing="125%"><tspan
       sodipodi:role="line"
       id="tspan3419"
       x="558.09937"
       y="465.7276"
       style="font-size:14px">Transfer2</tspan></text>
  <text
     x="556.79181"
     y="539.13263"
     style="font-size:12px;font-family:Dialog"
     id="text224-5-7">
    <tspan
       style="font-size:14px"
       id="tspan3386-2-7">Transfer3</tspan>
  </text>
  <text
     xml:space="preserve"
     style="font-size:40px;font-style:normal;font-weight:normal;line-height:125%;letter-spacing:0px;word-spacing:0px;fill:#000000;fill-opacity:1;stroke:none;font-family:Sans"
     x="156.07863"
     y="332.56757"
     id="text3450"
     sodipodi:linespacing="125%"><tspan
       sodipodi:role="line"
       id="tspan3452"
       x="156.07863"
       y="332.56757"
       style="font-size:14px">&amp;&amp;(samples3==0)]</tspan></text>
  <text
     xml:space="preserve"
     style="font-size:40px;font-style:normal;font-weight:normal;line-height:125%;letter-spacing:0px;word-spacing:0px;fill:#000000;fill-opacity:1;stroke:none;font-family:Sans"
     x="515.92657"
     y="346.3624"
     id="text3454"
     sodipodi:linespacing="125%"><tspan
       sodipodi:role="line"
       id="tspan3456"
       x="515.92657"
       y="346.3624"
       style="font-size:14px">&amp;&amp;(samples3&gt;0)]</tspan></text>
  <text
     xml:space="preserve"
     style="font-size:40px;font-style:normal;font-weight:normal;line-height:125%;letter-spacing:0px;word-spacing:0px;fill:#000000;fill-opacity:1;stroke:none;font-family:Sans"
     x="225.85608"
     y="450.51028"
     id="text3417-9"
     sodipodi:linespacing="125%"><tspan
       sodipodi:role="line"
       id="tspan3419-0"
       x="225.85608"
       y="450.51028"
       style="font-size:14px">Transfer2</tspan></text>
  <text
     x="225.71591"
     y="519.42578"
     style="font-size:12px;font-family:Dialog"
     id="text224-5-7-0">
    <tspan
       style="font-size:14px"
       id="tspan3386-2-7-1">Transfer3</tspan>
  </text>
  <text
     x="52.295227"
     y="484.01196"
     style="font-size:12px;font-family:Dialog"
     id="text224-5-7-0-0">
    <tspan
       style="font-size:14px"
       id="tspan3386-2-7-1-8">Transfer1</tspan>
  </text>
</svg>
