<?xml version="1.0" standalone="no"?>
<!DOCTYPE svg PUBLIC "-//W3C//DTD SVG 1.1//EN" "http://www.w3.org/Graphics/SVG/1.1/DTD/svg11.dtd">
<svg xmlns="http://www.w3.org/2000/svg" version="1.1">
<rect  x="711" y="53" width="157" height="107" fill="none" stroke="#000000" stroke-width="1"/>
<line  x1="711" y1="53" x2="713" y2="50" stroke="#000000" stroke-width="1" fill="none"/>
<line  x1="868" y1="53" x2="870" y2="50" stroke="#000000" stroke-width="1" fill="none"/>
<line  x1="713" y1="50" x2="870" y2="50" stroke="#000000" stroke-width="1" fill="none"/>
<line  x1="868" y1="160" x2="870" y2="157" stroke="#000000" stroke-width="1" fill="none"/>
<line  x1="870" y1="50" x2="870" y2="157" stroke="#000000" stroke-width="1" fill="none"/>
<rect  x="712" y="54" width="155" height="105" fill="#90c9d3"/>
<text  x="743" y="68" style="font-size:12; font-family:Dialog.bold; font-weight=bold; fill=#000000">&lt;&lt;HWA&gt;&gt;</text>
<text  x="772" y="83" style="font-size:12; font-family:Dialog.plain; fill=#000000">DSP1</text>
<rect  x="916" y="53" width="157" height="107" fill="none" stroke="#000000" stroke-width="1"/>
<line  x1="916" y1="53" x2="918" y2="50" stroke="#000000" stroke-width="1" fill="none"/>
<line  x1="1073" y1="53" x2="1075" y2="50" stroke="#000000" stroke-width="1" fill="none"/>
<line  x1="918" y1="50" x2="1075" y2="50" stroke="#000000" stroke-width="1" fill="none"/>
<line  x1="1073" y1="160" x2="1075" y2="157" stroke="#000000" stroke-width="1" fill="none"/>
<line  x1="1075" y1="50" x2="1075" y2="157" stroke="#000000" stroke-width="1" fill="none"/>
<rect  x="917" y="54" width="155" height="105" fill="#90c9d3"/>
<text  x="948" y="68" style="font-size:12; font-family:Dialog.bold; font-weight=bold; fill=#000000">&lt;&lt;HWA&gt;&gt;</text>
<text  x="977" y="83" style="font-size:12; font-family:Dialog.plain; fill=#000000">DSP2</text>
<rect  x="220" y="241" width="250" height="50" fill="none" stroke="#000000" stroke-width="1"/>
<line  x1="220" y1="241" x2="222" y2="238" stroke="#000000" stroke-width="1" fill="none"/>
<line  x1="470" y1="241" x2="472" y2="238" stroke="#000000" stroke-width="1" fill="none"/>
<line  x1="222" y1="238" x2="472" y2="238" stroke="#000000" stroke-width="1" fill="none"/>
<line  x1="470" y1="291" x2="472" y2="288" stroke="#000000" stroke-width="1" fill="none"/>
<line  x1="472" y1="238" x2="472" y2="288" stroke="#000000" stroke-width="1" fill="none"/>
<rect  x="221" y="242" width="248" height="48" fill="#d7bc80"/>
<text  x="295" y="256" style="font-size:12; font-family:Dialog.bold; font-weight=bold; fill=#000000">&lt;&lt;BUS-RR&gt;&gt;</text>
<text  x="331" y="271" style="font-size:12; font-family:Dialog.plain; fill=#000000">Bus1</text>
<rect  x="745" y="243" width="250" height="50" fill="none" stroke="#000000" stroke-width="1"/>
<line  x1="745" y1="243" x2="747" y2="240" stroke="#000000" stroke-width="1" fill="none"/>
<line  x1="995" y1="243" x2="997" y2="240" stroke="#000000" stroke-width="1" fill="none"/>
<line  x1="747" y1="240" x2="997" y2="240" stroke="#000000" stroke-width="1" fill="none"/>
<line  x1="995" y1="293" x2="997" y2="290" stroke="#000000" stroke-width="1" fill="none"/>
<line  x1="997" y1="240" x2="997" y2="290" stroke="#000000" stroke-width="1" fill="none"/>
<rect  x="746" y="244" width="248" height="48" fill="#d7bc80"/>
<text  x="820" y="258" style="font-size:12; font-family:Dialog.bold; font-weight=bold; fill=#000000">&lt;&lt;BUS-RR&gt;&gt;</text>
<text  x="856" y="273" style="font-size:12; font-family:Dialog.plain; fill=#000000">Bus2</text>
<rect  x="540" y="221" width="148" height="90" fill="none" stroke="#000000" stroke-width="1"/>
<line  x1="540" y1="221" x2="542" y2="218" stroke="#000000" stroke-width="1" fill="none"/>
<line  x1="688" y1="221" x2="690" y2="218" stroke="#000000" stroke-width="1" fill="none"/>
<line  x1="542" y1="218" x2="690" y2="218" stroke="#000000" stroke-width="1" fill="none"/>
<line  x1="688" y1="311" x2="690" y2="308" stroke="#000000" stroke-width="1" fill="none"/>
<line  x1="690" y1="218" x2="690" y2="308" stroke="#000000" stroke-width="1" fill="none"/>
<rect  x="541" y="222" width="146" height="88" fill="#acead3"/>
<text  x="568" y="236" style="font-size:12; font-family:Dialog.bold; font-weight=bold; fill=#000000">&lt;&lt;DMA&gt;&gt;</text>
<text  x="589" y="251" style="font-size:12; font-family:Dialog.plain; fill=#000000">DMA1</text>
<rect  x="105" y="74" width="159" height="121" fill="none" stroke="#000000" stroke-width="1"/>
<line  x1="105" y1="74" x2="107" y2="71" stroke="#000000" stroke-width="1" fill="none"/>
<line  x1="264" y1="74" x2="266" y2="71" stroke="#000000" stroke-width="1" fill="none"/>
<line  x1="107" y1="71" x2="266" y2="71" stroke="#000000" stroke-width="1" fill="none"/>
<line  x1="264" y1="195" x2="266" y2="192" stroke="#000000" stroke-width="1" fill="none"/>
<line  x1="266" y1="71" x2="266" y2="192" stroke="#000000" stroke-width="1" fill="none"/>
<rect  x="106" y="75" width="157" height="119" fill="#acead3"/>
<text  x="124" y="89" style="font-size:12; font-family:Dialog.bold; font-weight=bold; fill=#000000">&lt;&lt;MEMORY&gt;&gt;</text>
<text  x="138" y="104" style="font-size:12; font-family:Dialog.plain; fill=#000000">DataMemory</text>
<rect  x="336" y="73" width="161" height="124" fill="none" stroke="#000000" stroke-width="1"/>
<line  x1="336" y1="73" x2="338" y2="70" stroke="#000000" stroke-width="1" fill="none"/>
<line  x1="497" y1="73" x2="499" y2="70" stroke="#000000" stroke-width="1" fill="none"/>
<line  x1="338" y1="70" x2="499" y2="70" stroke="#000000" stroke-width="1" fill="none"/>
<line  x1="497" y1="197" x2="499" y2="194" stroke="#000000" stroke-width="1" fill="none"/>
<line  x1="499" y1="70" x2="499" y2="194" stroke="#000000" stroke-width="1" fill="none"/>
<rect  x="337" y="74" width="159" height="122" fill="#c6ebf9"/>
<text  x="370" y="88" style="font-size:12; font-family:Dialog.bold; font-weight=bold; fill=#000000">&lt;&lt;CPURR&gt;&gt;</text>
<text  x="388" y="103" style="font-size:12; font-family:Dialog.plain; fill=#000000">MainCPU</text>
<line  x1="224" y1="195" x2="282" y2="241" stroke="#000000" stroke-width="1" fill="none"/>
<line  x1="416" y1="197" x2="407" y2="241" stroke="#000000" stroke-width="1" fill="none"/>
<line  x1="540" y1="243" x2="470" y2="253" stroke="#000000" stroke-width="1" fill="none"/>
<line  x1="540" y1="288" x2="470" y2="278" stroke="#000000" stroke-width="1" fill="none"/>
<line  x1="688" y1="243" x2="745" y2="255" stroke="#000000" stroke-width="1" fill="none"/>
<line  x1="688" y1="288" x2="745" y2="280" stroke="#000000" stroke-width="1" fill="none"/>
<line  x1="789" y1="160" x2="807" y2="243" stroke="#000000" stroke-width="1" fill="none"/>
<line  x1="994" y1="160" x2="932" y2="243" stroke="#000000" stroke-width="1" fill="none"/>
</svg>