<?xml version="1.0" standalone="no"?>
<!DOCTYPE svg PUBLIC "-//W3C//DTD SVG 1.1//EN" "http://www.w3.org/Graphics/SVG/1.1/DTD/svg11.dtd">
<svg xmlns="http://www.w3.org/2000/svg" version="1.1">
<rect  x="35" y="136" width="173" height="116" fill="none" stroke="#000000" stroke-width="1"/>
<line  x1="35" y1="136" x2="37" y2="133" stroke="#000000" stroke-width="1" fill="none"/>
<line  x1="208" y1="136" x2="210" y2="133" stroke="#000000" stroke-width="1" fill="none"/>
<line  x1="37" y1="133" x2="210" y2="133" stroke="#000000" stroke-width="1" fill="none"/>
<line  x1="208" y1="252" x2="210" y2="249" stroke="#000000" stroke-width="1" fill="none"/>
<line  x1="210" y1="133" x2="210" y2="249" stroke="#000000" stroke-width="1" fill="none"/>
<rect  x="36" y="137" width="171" height="114" fill="#acead3"/>
<text  x="61" y="151" style="font-size:12; font-family:Dialog.bold; font-weight=bold; fill=#000000">&lt;&lt;MEMORY&gt;&gt;</text>
<text  x="90" y="166" style="font-size:12; font-family:Dialog.plain; fill=#000000">Memory0</text>
<rect  x="564" y="350" width="173" height="116" fill="none" stroke="#000000" stroke-width="1"/>
<line  x1="564" y1="350" x2="566" y2="347" stroke="#000000" stroke-width="1" fill="none"/>
<line  x1="737" y1="350" x2="739" y2="347" stroke="#000000" stroke-width="1" fill="none"/>
<line  x1="566" y1="347" x2="739" y2="347" stroke="#000000" stroke-width="1" fill="none"/>
<line  x1="737" y1="466" x2="739" y2="463" stroke="#000000" stroke-width="1" fill="none"/>
<line  x1="739" y1="347" x2="739" y2="463" stroke="#000000" stroke-width="1" fill="none"/>
<rect  x="565" y="351" width="171" height="114" fill="#acead3"/>
<text  x="590" y="365" style="font-size:12; font-family:Dialog.bold; font-weight=bold; fill=#000000">&lt;&lt;MEMORY&gt;&gt;</text>
<text  x="619" y="380" style="font-size:12; font-family:Dialog.plain; fill=#000000">Memory0</text>
<rect  x="560" y="230" width="178" height="84" fill="none" stroke="#000000" stroke-width="1"/>
<line  x1="560" y1="230" x2="562" y2="227" stroke="#000000" stroke-width="1" fill="none"/>
<line  x1="738" y1="230" x2="740" y2="227" stroke="#000000" stroke-width="1" fill="none"/>
<line  x1="562" y1="227" x2="740" y2="227" stroke="#000000" stroke-width="1" fill="none"/>
<line  x1="738" y1="314" x2="740" y2="311" stroke="#000000" stroke-width="1" fill="none"/>
<line  x1="740" y1="227" x2="740" y2="311" stroke="#000000" stroke-width="1" fill="none"/>
<rect  x="561" y="231" width="176" height="82" fill="#acead3"/>
<text  x="603" y="245" style="font-size:12; font-family:Dialog.bold; font-weight=bold; fill=#000000">&lt;&lt;DMA&gt;&gt;</text>
<text  x="624" y="260" style="font-size:12; font-family:Dialog.plain; fill=#000000">DMA0</text>
<rect  x="254" y="169" width="250" height="50" fill="none" stroke="#000000" stroke-width="1"/>
<line  x1="254" y1="169" x2="256" y2="166" stroke="#000000" stroke-width="1" fill="none"/>
<line  x1="504" y1="169" x2="506" y2="166" stroke="#000000" stroke-width="1" fill="none"/>
<line  x1="256" y1="166" x2="506" y2="166" stroke="#000000" stroke-width="1" fill="none"/>
<line  x1="504" y1="219" x2="506" y2="216" stroke="#000000" stroke-width="1" fill="none"/>
<line  x1="506" y1="166" x2="506" y2="216" stroke="#000000" stroke-width="1" fill="none"/>
<rect  x="255" y="170" width="248" height="48" fill="#d7bc80"/>
<text  x="340" y="184" style="font-size:12; font-family:Dialog.bold; font-weight=bold; fill=#000000">&lt;&lt;BUS&gt;&gt;</text>
<text  x="365" y="199" style="font-size:12; font-family:Dialog.plain; fill=#000000">Bus0</text>
<rect  x="254" y="388" width="250" height="50" fill="none" stroke="#000000" stroke-width="1"/>
<line  x1="254" y1="388" x2="256" y2="385" stroke="#000000" stroke-width="1" fill="none"/>
<line  x1="504" y1="388" x2="506" y2="385" stroke="#000000" stroke-width="1" fill="none"/>
<line  x1="256" y1="385" x2="506" y2="385" stroke="#000000" stroke-width="1" fill="none"/>
<line  x1="504" y1="438" x2="506" y2="435" stroke="#000000" stroke-width="1" fill="none"/>
<line  x1="506" y1="385" x2="506" y2="435" stroke="#000000" stroke-width="1" fill="none"/>
<rect  x="255" y="389" width="248" height="48" fill="#d7bc80"/>
<text  x="340" y="403" style="font-size:12; font-family:Dialog.bold; font-weight=bold; fill=#000000">&lt;&lt;BUS&gt;&gt;</text>
<text  x="365" y="418" style="font-size:12; font-family:Dialog.plain; fill=#000000">Bus0</text>
<rect  x="283" y="267" width="193" height="80" fill="none" stroke="#000000" stroke-width="1"/>
<line  x1="283" y1="267" x2="285" y2="264" stroke="#000000" stroke-width="1" fill="none"/>
<line  x1="476" y1="267" x2="478" y2="264" stroke="#000000" stroke-width="1" fill="none"/>
<line  x1="285" y1="264" x2="478" y2="264" stroke="#000000" stroke-width="1" fill="none"/>
<line  x1="476" y1="347" x2="478" y2="344" stroke="#000000" stroke-width="1" fill="none"/>
<line  x1="478" y1="264" x2="478" y2="344" stroke="#000000" stroke-width="1" fill="none"/>
<rect  x="284" y="268" width="191" height="78" fill="#d7a648"/>
<text  x="323" y="282" style="font-size:12; font-family:Dialog.plain; fill=#000000">&lt;&lt;BRIDGE&gt;&gt;</text>
<text  x="355" y="297" style="font-size:12; font-family:Dialog.plain; fill=#000000">Bridge0</text>
<rect  x="565" y="68" width="162" height="135" fill="none" stroke="#000000" stroke-width="1"/>
<line  x1="565" y1="68" x2="567" y2="65" stroke="#000000" stroke-width="1" fill="none"/>
<line  x1="727" y1="68" x2="729" y2="65" stroke="#000000" stroke-width="1" fill="none"/>
<line  x1="567" y1="65" x2="729" y2="65" stroke="#000000" stroke-width="1" fill="none"/>
<line  x1="727" y1="203" x2="729" y2="200" stroke="#000000" stroke-width="1" fill="none"/>
<line  x1="729" y1="65" x2="729" y2="200" stroke="#000000" stroke-width="1" fill="none"/>
<rect  x="566" y="69" width="160" height="133" fill="#90c9d3"/>
<text  x="600" y="83" style="font-size:12; font-family:Dialog.bold; font-weight=bold; fill=#000000">&lt;&lt;HWA&gt;&gt;</text>
<text  x="625" y="98" style="font-size:12; font-family:Dialog.plain; fill=#000000">HWA0</text>
<rect  x="37" y="321" width="181" height="143" fill="none" stroke="#000000" stroke-width="1"/>
<line  x1="37" y1="321" x2="39" y2="318" stroke="#000000" stroke-width="1" fill="none"/>
<line  x1="218" y1="321" x2="220" y2="318" stroke="#000000" stroke-width="1" fill="none"/>
<line  x1="39" y1="318" x2="220" y2="318" stroke="#000000" stroke-width="1" fill="none"/>
<line  x1="218" y1="464" x2="220" y2="461" stroke="#000000" stroke-width="1" fill="none"/>
<line  x1="220" y1="318" x2="220" y2="461" stroke="#000000" stroke-width="1" fill="none"/>
<rect  x="38" y="322" width="179" height="141" fill="#c6ebf9"/>
<text  x="88" y="336" style="font-size:12; font-family:Dialog.bold; font-weight=bold; fill=#000000">&lt;&lt;CPU&gt;&gt;</text>
<text  x="113" y="351" style="font-size:12; font-family:Dialog.plain; fill=#000000">CPU0</text>
<line  x1="379" y1="347" x2="379" y2="388" stroke="#000000" stroke-width="1" fill="none"/>
<line  x1="379" y1="267" x2="379" y2="219" stroke="#000000" stroke-width="1" fill="none"/>
<line  x1="208" y1="194" x2="254" y2="194" stroke="#000000" stroke-width="1" fill="none"/>
<line  x1="565" y1="169" x2="504" y2="169" stroke="#000000" stroke-width="1" fill="none"/>
<line  x1="560" y1="251" x2="504" y2="219" stroke="#000000" stroke-width="1" fill="none"/>
<line  x1="560" y1="314" x2="504" y2="388" stroke="#000000" stroke-width="1" fill="none"/>
<line  x1="218" y1="392" x2="254" y2="413" stroke="#000000" stroke-width="1" fill="none"/>
<line  x1="564" y1="408" x2="504" y2="413" stroke="#000000" stroke-width="1" fill="none"/>
</svg>