<?xml version="1.0" encoding="UTF-8" standalone="no"?>
<!-- Created with Inkscape (http://www.inkscape.org/) -->

<svg
   xmlns:dc="http://purl.org/dc/elements/1.1/"
   xmlns:cc="http://creativecommons.org/ns#"
   xmlns:rdf="http://www.w3.org/1999/02/22-rdf-syntax-ns#"
   xmlns:svg="http://www.w3.org/2000/svg"
   xmlns="http://www.w3.org/2000/svg"
   xmlns:sodipodi="http://sodipodi.sourceforge.net/DTD/sodipodi-0.dtd"
   xmlns:inkscape="http://www.inkscape.org/namespaces/inkscape"
   id="svg2"
   version="1.1"
   inkscape:version="0.91 r13725"
   width="1950"
   height="390"
   xml:space="preserve"
   sodipodi:docname="CodeGenSimu4.svg"><metadata
     id="metadata8"><rdf:RDF><cc:Work
         rdf:about=""><dc:format>image/svg+xml</dc:format><dc:type
           rdf:resource="http://purl.org/dc/dcmitype/StillImage" /><dc:title></dc:title></cc:Work></rdf:RDF></metadata><defs
     id="defs6"><clipPath
       clipPathUnits="userSpaceOnUse"
       id="clipPath54"><path
         d="m 0,0 0,5422 14670,0 L 14670,0 0,0 Z m 11222.8,3836.43 78.4,0.38 0,45.89 -78.4,-0.38 0,0 45.9,-22.94 -45.9,-22.95 z"
         id="path56"
         inkscape:connector-curvature="0"
         style="clip-rule:evenodd" /></clipPath><clipPath
       clipPathUnits="userSpaceOnUse"
       id="clipPath68"><path
         d="m 0,0 0,5422 14670,0 L 14670,0 0,0 Z m 13408.7,3836.43 78.4,0.38 0,45.89 -78.4,-0.38 0,0 45.9,-22.94 -45.9,-22.95 z"
         id="path70"
         inkscape:connector-curvature="0"
         style="clip-rule:evenodd" /></clipPath><clipPath
       clipPathUnits="userSpaceOnUse"
       id="clipPath82"><path
         d="m 0,0 0,5422 14670,0 L 14670,0 0,0 Z m 9706.3,4293.48 0,-78.02 45.9,0 0,78.02 0,0 -22.95,-45.89 -22.95,45.89 z"
         id="path84"
         inkscape:connector-curvature="0"
         style="clip-rule:evenodd" /></clipPath><clipPath
       clipPathUnits="userSpaceOnUse"
       id="clipPath98"><path
         d="m 0,0 0,5422 14670,0 L 14670,0 0,0 Z m 6179.87,4989.59 78.4,0.38 0,45.9 -78.4,-0.38 0,0 45.89,-22.95 -45.89,-22.95 z"
         id="path100"
         inkscape:connector-curvature="0"
         style="clip-rule:evenodd" /></clipPath><clipPath
       clipPathUnits="userSpaceOnUse"
       id="clipPath116"><path
         d="m 0,0 0,5422 14670,0 L 14670,0 0,0 Z m 8778.79,3836.43 78.41,0.38 0,45.89 -78.41,-0.38 0,0 45.9,-22.94 -45.9,-22.95 z"
         id="path118"
         inkscape:connector-curvature="0"
         style="clip-rule:evenodd" /></clipPath><clipPath
       clipPathUnits="userSpaceOnUse"
       id="clipPath130"><path
         d="m 0,0 0,5422 14670,0 L 14670,0 0,0 Z m 6179.87,3836.43 78.4,0.38 0,45.89 -78.4,-0.38 0,0 45.89,-22.94 -45.89,-22.95 z"
         id="path132"
         inkscape:connector-curvature="0"
         style="clip-rule:evenodd" /></clipPath></defs><sodipodi:namedview
     pagecolor="#ffffff"
     bordercolor="#666666"
     borderopacity="1"
     objecttolerance="10"
     gridtolerance="10"
     guidetolerance="10"
     inkscape:pageopacity="0"
     inkscape:pageshadow="2"
     inkscape:window-width="1295"
     inkscape:window-height="640"
     id="namedview4"
     showgrid="false"
     inkscape:zoom="0.46754967"
     inkscape:cx="1178.689"
     inkscape:cy="342.55465"
     inkscape:window-x="65"
     inkscape:window-y="24"
     inkscape:window-maximized="1"
     inkscape:current-layer="g144" /><g
     id="g10"
     inkscape:groupmode="layer"
     inkscape:label="CodeGenSimu3"
     transform="matrix(1.25,0,0,-1.25,0,390)"><g
       id="g12"
       transform="scale(0.16469,0.16469)"><path
         d="m -93.898319,-53.900707 3.05859,0"
         style="fill:none;stroke:#000000;stroke-width:2.86857009;stroke-linecap:butt;stroke-linejoin:miter;stroke-miterlimit:10;stroke-dasharray:none;stroke-opacity:1"
         id="path38"
         inkscape:connector-curvature="0" /><path
         d="m -93.898319,-53.900707 3.05859,0"
         style="fill:none;stroke:#000000;stroke-width:2.86857009;stroke-linecap:butt;stroke-linejoin:miter;stroke-miterlimit:10;stroke-dasharray:none;stroke-opacity:1"
         id="path40"
         inkscape:connector-curvature="0" /><path
         d="m -93.898319,-53.900707 3.05859,0"
         style="fill:none;stroke:#000000;stroke-width:2.86857009;stroke-linecap:butt;stroke-linejoin:miter;stroke-miterlimit:10;stroke-dasharray:none;stroke-opacity:1"
         id="path42"
         inkscape:connector-curvature="0" /><path
         d="m -93.898319,-53.900707 3.05859,0"
         style="fill:none;stroke:#000000;stroke-width:2.86857009;stroke-linecap:butt;stroke-linejoin:miter;stroke-miterlimit:10;stroke-dasharray:none;stroke-opacity:1"
         id="path44"
         inkscape:connector-curvature="0" /><path
         d="m -93.898319,-53.900707 3.05859,0"
         style="fill:none;stroke:#000000;stroke-width:2.86857009;stroke-linecap:butt;stroke-linejoin:miter;stroke-miterlimit:10;stroke-dasharray:none;stroke-opacity:1"
         id="path46"
         inkscape:connector-curvature="0" /><path
         d="m -93.898319,-53.900707 3.05859,0"
         style="fill:none;stroke:#000000;stroke-width:2.86857009;stroke-linecap:butt;stroke-linejoin:miter;stroke-miterlimit:10;stroke-dasharray:none;stroke-opacity:1"
         id="path48"
         inkscape:connector-curvature="0" /><g
         id="g50"
         transform="translate(-3652.8541,-3437.6775)"><g
           id="g52"
           clip-path="url(#clipPath54)"><path
             d="m 10693.1,3859.75 602.4,0"
             style="fill:none;stroke:#000000;stroke-width:11.47430038;stroke-linecap:butt;stroke-linejoin:miter;stroke-miterlimit:10;stroke-dasharray:none;stroke-opacity:1"
             id="path58"
             inkscape:connector-curvature="0" /></g></g><path
         d="m 7569.9459,398.75239 45.9,22.95 -45.9,22.94 0,-45.89"
         style="fill:#000000;fill-opacity:1;fill-rule:evenodd;stroke:none"
         id="path60"
         inkscape:connector-curvature="0" /><path
         d="m 7569.9459,398.75239 45.9,22.95 -45.9,22.94 0,-45.89 z"
         style="fill:none;stroke:#000000;stroke-width:22.94860077;stroke-linecap:butt;stroke-linejoin:miter;stroke-miterlimit:10;stroke-dasharray:none;stroke-opacity:1"
         id="path62"
         inkscape:connector-curvature="0" /><g
         id="g78"
         transform="matrix(1.0004891,0,0,0.75043034,-3657.2307,-2418.6707)"><g
           id="g80"
           clip-path="url(#clipPath82)"><path
             d="m 9729.25,4221.2 0,791.72 -1566.24,0"
             style="fill:none;stroke:#000000;stroke-width:11.47430038;stroke-linecap:butt;stroke-linejoin:miter;stroke-miterlimit:10;stroke-dasharray:none;stroke-opacity:1"
             id="path86"
             inkscape:connector-curvature="0" /></g></g><path
         d="m 6053.4459,855.80239 22.95,-45.89 22.95,45.89 -45.9,0"
         style="fill:#000000;fill-opacity:1;fill-rule:evenodd;stroke:none"
         id="path88"
         inkscape:connector-curvature="0" /><path
         d="m 6053.4459,855.80239 22.95,-45.89 22.95,45.89 -45.9,0 z"
         style="fill:none;stroke:#000000;stroke-width:22.94860077;stroke-linecap:butt;stroke-linejoin:miter;stroke-miterlimit:10;stroke-dasharray:none;stroke-opacity:1"
         id="path90"
         inkscape:connector-curvature="0" /><path
         d="m 2639.8459,1796.2389 0,0 c -22.18,0 -40.16,-17.99 -40.16,-40.16 l 0,-659.77 c 0,-22.18 17.98,-40.16 40.16,-40.16 l 1830.15,0 c 22.18,0 40.16,17.98 40.16,40.16 l 0,659.77 c 0,22.17 -17.98,40.16 -40.16,40.16 l -1830.15,0 z"
         style="fill:none;stroke:#000000;stroke-width:11.47430038;stroke-linecap:butt;stroke-linejoin:miter;stroke-miterlimit:10;stroke-dasharray:none;stroke-opacity:1"
         id="path92"
         inkscape:connector-curvature="0" /><g
         id="g94"
         transform="matrix(1.0005559,0,0,0.7134583,-3655.8834,-2233.1695)"><g
           id="g96"
           clip-path="url(#clipPath98)"><path
             d="m 4651.87,4221.2 0,791.72 1600.67,0"
             style="fill:none;stroke:#000000;stroke-width:11.47430038;stroke-linecap:butt;stroke-linejoin:miter;stroke-miterlimit:10;stroke-dasharray:none;stroke-opacity:1"
             id="path102"
             inkscape:connector-curvature="0" /></g></g><path
         d="m 2527.0159,1328.4629 45.89,22.95 -45.89,22.95 0,-45.9 z"
         style="fill:none;stroke:#000000;stroke-width:22.94860077;stroke-linecap:butt;stroke-linejoin:miter;stroke-miterlimit:10;stroke-dasharray:none;stroke-opacity:1"
         id="path106"
         inkscape:connector-curvature="0" /><path
         d="m 109.7557,783.52239 0,0 c -22.180006,0 -40.160012,-17.99 -40.160012,-40.16 l 0,-659.770006 c 0,-22.180006 17.980006,-40.160012 40.160012,-40.160012 l 1830.1602,0 c 22.18,0 40.16,17.980006 40.16,40.160012 l 0,659.770006 c 0,22.17 -17.98,40.16 -40.16,40.16 l -1830.1602,0 z"
         style="fill:none;stroke:#000000;stroke-width:11.47430038;stroke-linecap:butt;stroke-linejoin:miter;stroke-miterlimit:10;stroke-dasharray:none;stroke-opacity:1"
         id="path108"
         inkscape:connector-curvature="0" /><path
         d="m 5238.7759,783.52239 0,0 c -22.18,0 -40.17,-17.99 -40.17,-40.16 l 0,-659.770006 c 0,-22.180006 17.99,-40.160012 40.17,-40.160012 l 1744.07,0 c 22.2,0 40.2,17.980006 40.2,40.160012 l 0,659.770006 c 0,22.17 -18,40.16 -40.2,40.16 l -1744.07,0 z"
         style="fill:none;stroke:#000000;stroke-width:11.47430038;stroke-linecap:butt;stroke-linejoin:miter;stroke-miterlimit:10;stroke-dasharray:none;stroke-opacity:1"
         id="path110"
         inkscape:connector-curvature="0" /><g
         id="g112"
         transform="translate(-3652.8541,-3437.6775)"><g
           id="g114"
           clip-path="url(#clipPath116)"><path
             d="m 8163.01,3859.75 688.45,0"
             style="fill:none;stroke:#000000;stroke-width:11.47430038;stroke-linecap:butt;stroke-linejoin:miter;stroke-miterlimit:10;stroke-dasharray:none;stroke-opacity:1"
             id="path120"
             inkscape:connector-curvature="0" /></g></g><path
         d="m 5125.9359,398.75239 45.9,22.95 -45.9,22.94 0,-45.89"
         style="fill:#000000;fill-opacity:1;fill-rule:evenodd;stroke:none"
         id="path122"
         inkscape:connector-curvature="0" /><path
         d="m 5125.9359,398.75239 45.9,22.95 -45.9,22.94 0,-45.89 z"
         style="fill:none;stroke:#000000;stroke-width:22.94860077;stroke-linecap:butt;stroke-linejoin:miter;stroke-miterlimit:10;stroke-dasharray:none;stroke-opacity:1"
         id="path124"
         inkscape:connector-curvature="0" /><g
         id="g126"
         transform="translate(-3652.8541,-3437.6775)"><g
           id="g128"
           clip-path="url(#clipPath130)"><path
             d="m 5650.14,3859.75 602.4,0"
             style="fill:none;stroke:#000000;stroke-width:11.47430038;stroke-linecap:butt;stroke-linejoin:miter;stroke-miterlimit:10;stroke-dasharray:none;stroke-opacity:1"
             id="path134"
             inkscape:connector-curvature="0" /></g></g><path
         d="m 2527.0159,398.75239 45.89,22.95 -45.89,22.94 0,-45.89"
         style="fill:#000000;fill-opacity:1;fill-rule:evenodd;stroke:none"
         id="path136"
         inkscape:connector-curvature="0" /><path
         d="m 2527.0159,398.75239 45.89,22.95 -45.89,22.94 0,-45.89 z"
         style="fill:none;stroke:#000000;stroke-width:22.94860077;stroke-linecap:butt;stroke-linejoin:miter;stroke-miterlimit:10;stroke-dasharray:none;stroke-opacity:1"
         id="path138"
         inkscape:connector-curvature="0" /><path
         d="m 2639.8459,783.52239 0,0 c -22.18,0 -40.16,-17.99 -40.16,-40.16 l 0,-659.770006 c 0,-22.180006 17.98,-40.160012 40.16,-40.160012 l 1830.15,0 c 22.18,0 40.16,17.980006 40.16,40.160012 l 0,659.770006 c 0,22.17 -17.98,40.16 -40.16,40.16 l -1830.15,0 z"
         style="fill:none;stroke:#000000;stroke-width:11.47430038;stroke-linecap:butt;stroke-linejoin:miter;stroke-miterlimit:10;stroke-dasharray:none;stroke-opacity:1"
         id="path140"
         inkscape:connector-curvature="0" /><path
         d="m 7700.0459,783.52239 0,0 c -22.2,0 -40.2,-17.99 -40.2,-40.16 l 0,-659.770006 c 0,-22.180006 18,-40.160012 40.2,-40.160012 l 1485.9,0 c 22.2,0 40.1,17.980006 40.1,40.160012 l 0,659.770006 c 0,22.17 -17.9,40.16 -40.1,40.16 l -1485.9,0 z"
         style="fill:none;stroke:#000000;stroke-width:11.47430038;stroke-linecap:butt;stroke-linejoin:miter;stroke-miterlimit:10;stroke-dasharray:none;stroke-opacity:1"
         id="path142"
         inkscape:connector-curvature="0" /><g
         id="g144"
         transform="scale(6.07202,6.07202)"><text
           transform="scale(1,-1)"
           id="text146"
           x="906.172"
           y="-45.097412"
           style="font-size:12px"><tspan
             style="font-variant:normal;font-weight:normal;font-size:28.34550095px;font-family:Times;-inkscape-font-specification:Times-Roman;writing-mode:lr-tb;fill:#000000;fill-opacity:1;fill-rule:nonzero;stroke:none"
             x="906.172 923.49109 948.69025 966.00934 994.35486 1006.9402 1021.113 1035.2858 1042.3721 1059.6912 1084.8904"
             y="-45.097412"
             sodipodi:role="line"
             id="tspan148">TML and TML</tspan></text>
<text
           transform="scale(1,-1)"
           id="text150"
           x="961.77216"
           y="-25.255413"
           style="font-size:12px"><tspan
             style="font-style:italic;font-variant:normal;font-size:18.89699936px;font-family:Times;-inkscape-font-specification:Times-Italic;writing-mode:lr-tb;fill:#000000;fill-opacity:1;fill-rule:nonzero;stroke:none"
             x="961.77216 974.37646 1109.1682 1120.7142 1132.2603"
             y="-25.255413"
             sodipodi:role="line"
             id="tspan152">CPAPP</tspan></text>
<text
           transform="scale(1,-1)"
           id="text154"
           x="880.66199"
           y="-283.1994"
           style="font-size:12px"><tspan
             style="font-style:italic;font-variant:normal;font-size:28.34550095px;font-family:Times;-inkscape-font-specification:Times-Italic;writing-mode:lr-tb;fill:#000000;fill-opacity:1;fill-rule:nonzero;stroke:none"
             sodipodi:role="line"
             id="tspan156"
             x="880.66199"
             y="-283.1994" /></text>
<text
           transform="scale(1,-1)"
           id="text158"
           x="943.02197"
           y="-274.6954"
           style="font-size:12px"><tspan
             style="font-style:italic;font-variant:normal;font-size:18.89699936px;font-family:Times;-inkscape-font-specification:Times-Italic;writing-mode:lr-tb;fill:#000000;fill-opacity:1;fill-rule:nonzero;stroke:none"
             sodipodi:role="line"
             id="tspan160"
             x="943.02197"
             y="-274.6954" /></text>
<text
           transform="scale(1,-1)"
           id="text162"
           x="1609.142"
           y="76.788589"
           style="font-size:12px"><tspan
             style="font-variant:normal;font-weight:normal;font-size:28.34550095px;font-family:Times;-inkscape-font-specification:Times-Roman;writing-mode:lr-tb;fill:#000000;fill-opacity:1;fill-rule:nonzero;stroke:none"
             x="1609.142"
             sodipodi:role="line"
             id="tspan164"
             y="76.788589" /><tspan
             style="font-variant:normal;font-weight:normal;font-size:28.34550095px;font-family:Times;-inkscape-font-specification:Times-Roman;writing-mode:lr-tb;fill:#000000;fill-opacity:1;fill-rule:nonzero;stroke:none"
             x="1609.142"
             sodipodi:role="line"
             id="tspan166"
             y="112.22047" /><tspan
             style="font-variant:normal;font-weight:normal;font-size:28.34550095px;font-family:Times;-inkscape-font-specification:Times-Roman;writing-mode:lr-tb;fill:#000000;fill-opacity:1;fill-rule:nonzero;stroke:none"
             x="1609.142"
             y="147.65234"
             sodipodi:role="line"
             id="tspan168" /><tspan
             style="font-variant:normal;font-weight:normal;font-size:28.34550095px;font-family:Times;-inkscape-font-specification:Times-Roman;writing-mode:lr-tb;fill:#000000;fill-opacity:1;fill-rule:nonzero;stroke:none"
             x="509.33731 517.21729 526.65637 539.2417 553.41455 564.44092 573.87988 588.05267 597.49176 619.54456 632.12994 640.01001 647.89001 662.06281"
             y="-45.097012"
             sodipodi:role="line"
             id="tspan170">transformation</tspan><tspan
             style="font-variant:normal;font-weight:normal;font-size:28.34550095px;font-family:Times;-inkscape-font-specification:Times-Roman;writing-mode:lr-tb;fill:#000000;fill-opacity:1;fill-rule:nonzero;stroke:none"
             x="55.809227 65.248314 79.421043 87.30117 99.886497 109.32558 131.37833 143.96378 158.13651 166.01663 178.60196 186.48196 199.06741 206.15384 221.91385 236.0867 245.52567 267.57852 280.16385"
             y="-84.780807"
             sodipodi:role="line"
             id="tspan172">Intermediate Format</tspan><tspan
             style="font-variant:normal;font-weight:normal;font-size:28.34550095px;font-family:Times;-inkscape-font-specification:Times-Roman;writing-mode:lr-tb;fill:#000000;fill-opacity:1;fill-rule:nonzero;stroke:none"
             x="52.974144 62.413231 73.439598 86.025047 100.19778 112.7831 119.86953 134.04227 146.62772 154.50772 167.09317 174.17947 185.20596 193.08597 202.52505 216.69778 229.28311 237.16324 251.33597 260.77505 273.36038"
             y="-45.097012"
             sodipodi:role="line"
             id="tspan174">(Java data structure)</tspan><tspan
             style="font-variant:normal;font-weight:normal;font-size:28.34550095px;font-family:Times;-inkscape-font-specification:Times-Roman;writing-mode:lr-tb;fill:#000000;fill-opacity:1;fill-rule:nonzero;stroke:none"
             sodipodi:role="line"
             id="tspan176"
             x="1609.142"
             y="0" /><tspan
             style="font-variant:normal;font-weight:normal;font-size:28.34550095px;font-family:Times;-inkscape-font-specification:Times-Roman;writing-mode:lr-tb;fill:#000000;fill-opacity:1;fill-rule:nonzero;stroke:none"
             sodipodi:role="line"
             id="tspan178"
             x="1609.142"
             y="0" /></text>
<text
           transform="scale(1,-1)"
           id="text180"
           x="354.44504"
           y="-42.262543"
           style="font-size:12px"><tspan
             style="font-style:italic;font-variant:normal;font-size:28.34550095px;font-family:Times;-inkscape-font-specification:Times-Italic;writing-mode:lr-tb;fill:#000000;fill-opacity:1;fill-rule:nonzero;stroke:none"
             x="354.44504 373.3515 390.67059"
             y="-42.262543"
             sodipodi:role="line"
             id="tspan182">CPs</tspan><tspan
             style="font-style:italic;font-variant:normal;font-size:28.34550095px;font-family:Times;-inkscape-font-specification:Times-Italic;writing-mode:lr-tb;fill:#000000;fill-opacity:1;fill-rule:nonzero;stroke:none"
             sodipodi:role="line"
             id="tspan184"
             x="354.44504"
             y="0" /><tspan
             style="font-style:italic;font-variant:normal;font-size:28.34550095px;font-family:Times;-inkscape-font-specification:Times-Italic;writing-mode:lr-tb;fill:#000000;fill-opacity:1;fill-rule:nonzero;stroke:none"
             x="754.11633 769.87646 793.48828"
             y="-42.262543"
             sodipodi:role="line"
             id="tspan186">TML</tspan></text>
<text
           transform="scale(1,-1)"
           id="text188"
           x="810.44226"
           y="-28.45541"
           style="font-size:12px"><tspan
             style="font-style:italic;font-variant:normal;font-size:18.89699936px;font-family:Times;-inkscape-font-specification:Times-Italic;writing-mode:lr-tb;fill:#000000;fill-opacity:1;fill-rule:nonzero;stroke:none"
             x="810.44226 823.04657"
             y="-28.45541"
             sodipodi:role="line"
             id="tspan190">CP</tspan></text>
<text
           transform="scale(1,-1)"
           id="text192"
           x="960.6723"
           y="-84.78141"
           style="font-size:12px"><tspan
             style="font-variant:normal;font-weight:normal;font-size:28.34550095px;font-family:Times;-inkscape-font-specification:Times-Roman;writing-mode:lr-tb;fill:#000000;fill-opacity:1;fill-rule:nonzero;stroke:none"
             x="960.6723 985.87152 998.45685 1007.8958 1022.0686 504.30911 523.21576 538.97583 550.00226 565.98907 573.86914 588.04187 604.02875 621.34784 646.547"
             y="-84.78141"
             sodipodi:role="line"
             id="tspan194">MergeCPs−to−TML</tspan></text>
<text
           transform="scale(1,-1)"
           id="text196"
           x="1165.1252"
           y="-42.263115"
           style="font-size:12px"><tspan
             style="font-style:italic;font-variant:normal;font-size:28.34550095px;font-family:Times;-inkscape-font-specification:Times-Italic;writing-mode:lr-tb;fill:#000000;fill-opacity:1;fill-rule:nonzero;stroke:none"
             x="1165.1252 1180.8854 1204.4972"
             y="-42.263115"
             sodipodi:role="line"
             id="tspan198">TML</tspan></text>
<text
           transform="scale(1,-1)"
           id="text200"
           x="1227.4822"
           y="-33.759415"
           style="font-size:12px"><tspan
             style="font-style:italic;font-variant:normal;font-size:18.89699936px;font-family:Times;-inkscape-font-specification:Times-Italic;writing-mode:lr-tb;fill:#000000;fill-opacity:1;fill-rule:nonzero;stroke:none"
             x="1227.4822 1236.9308 1247.4375"
             y="-33.759415"
             sodipodi:role="line"
             id="tspan202">SYS</tspan></text>
<text
           xml:space="preserve"
           style="font-style:normal;font-weight:normal;font-size:40px;line-height:125%;font-family:Sans;letter-spacing:0px;word-spacing:0px;fill:#000000;fill-opacity:1;stroke:none"
           x="1370.2047"
           y="686.73773"
           id="text3183"
           sodipodi:linespacing="125%"
           transform="matrix(0.79999922,0,0,-0.79999922,0,892.99913)"><tspan
             sodipodi:role="line"
             id="tspan3185"
             x="1370.2047"
             y="686.73773" /></text>
<text
           style="font-size:12px"
           y="-94.280266"
           x="1391.851"
           id="text192-5"
           transform="scale(1,-1)"><tspan
             style="font-variant:normal;font-weight:normal;font-size:28.34550095px;font-family:Times;-inkscape-font-specification:Times-Roman;text-align:center;writing-mode:lr-tb;text-anchor:middle;fill:#000000;fill-opacity:1;fill-rule:nonzero;stroke:none"
             sodipodi:role="line"
             x="1391.851"
             y="-94.280266"
             id="tspan3208">Simulation and</tspan><tspan
             style="font-variant:normal;font-weight:normal;font-size:28.34550095px;font-family:Times;-inkscape-font-specification:Times-Roman;text-align:center;writing-mode:lr-tb;text-anchor:middle;fill:#000000;fill-opacity:1;fill-rule:nonzero;stroke:none"
             sodipodi:role="line"
             x="1391.851"
             y="-58.848389"
             id="tspan3212">formal verification</tspan><tspan
             style="font-variant:normal;font-weight:normal;font-size:28.34550095px;font-family:Times;-inkscape-font-specification:Times-Roman;text-align:center;writing-mode:lr-tb;text-anchor:middle;fill:#000000;fill-opacity:1;fill-rule:nonzero;stroke:none"
             sodipodi:role="line"
             x="1391.851"
             y="-23.416513"
             id="tspan3218">engine</tspan></text>
</g><text
         xml:space="preserve"
         style="font-style:normal;font-variant:normal;font-weight:normal;font-stretch:normal;font-size:194.30445862px;line-height:125%;font-family:'Times New Roman';-inkscape-font-specification:'Times New Roman, ';letter-spacing:0px;word-spacing:0px;fill:#000000;fill-opacity:1;stroke:none;stroke-width:1px;stroke-linecap:butt;stroke-linejoin:miter;stroke-opacity:1"
         x="3564.8293"
         y="-1455.0859"
         id="text3418"
         sodipodi:linespacing="125%"
         transform="scale(1,-1)"><tspan
           sodipodi:role="line"
           id="tspan3420"
           x="3564.8293"
           y="-1455.0859"
           style="font-style:normal;font-variant:normal;font-weight:normal;font-stretch:normal;font-size:172.08088684px;font-family:'Times New Roman';-inkscape-font-specification:'Times New Roman, ';text-align:center;text-anchor:middle">Application-to-TML</tspan><tspan
           sodipodi:role="line"
           x="3564.8293"
           y="-1239.9849"
           id="tspan3422"
           style="font-style:normal;font-variant:normal;font-weight:normal;font-stretch:normal;font-size:172.08088684px;font-family:'Times New Roman';-inkscape-font-specification:'Times New Roman, ';text-align:center;text-anchor:middle">transformation</tspan></text>
<text
         xml:space="preserve"
         style="font-style:normal;font-variant:normal;font-weight:normal;font-stretch:normal;font-size:194.30444336px;line-height:125%;font-family:'Times New Roman';-inkscape-font-specification:'Times New Roman, ';letter-spacing:0px;word-spacing:0px;fill:#000000;fill-opacity:1;stroke:none;stroke-width:1px;stroke-linecap:butt;stroke-linejoin:miter;stroke-opacity:1"
         x="1736.4938"
         y="-1467.0454"
         id="text3418-7"
         sodipodi:linespacing="125%"
         transform="scale(1,-1)"><tspan
           sodipodi:role="line"
           x="1736.4938"
           y="-1467.0454"
           id="tspan3422-1"
           style="font-style:italic;font-variant:normal;font-weight:normal;font-stretch:normal;font-size:172.08088684px;font-family:'Times New Roman';-inkscape-font-specification:'Times New Roman,  Italic';text-align:center;text-anchor:middle">application</tspan></text>
<text
         xml:space="preserve"
         style="font-style:normal;font-variant:normal;font-weight:normal;font-stretch:normal;font-size:194.30444336px;line-height:125%;font-family:'Times New Roman';-inkscape-font-specification:'Times New Roman, ';letter-spacing:0px;word-spacing:0px;fill:#000000;fill-opacity:1;stroke:none;stroke-width:1px;stroke-linecap:butt;stroke-linejoin:miter;stroke-opacity:1"
         x="5127.2109"
         y="-1487.1692"
         id="text3418-7-9"
         sodipodi:linespacing="125%"
         transform="scale(1,-1)"><tspan
           sodipodi:role="line"
           x="5127.2109"
           y="-1487.1692"
           id="tspan3422-1-3"
           style="font-style:italic;font-variant:normal;font-weight:normal;font-stretch:normal;font-size:172.08088684px;font-family:'Times New Roman';-inkscape-font-specification:'Times New Roman,  Italic';text-align:center;text-anchor:middle">TML<tspan
   style="font-size:111.36075592px"
   id="tspan3473"
   dy="88.157898">APP</tspan></tspan></text>
</g></g></svg>