<?xml version="1.0" standalone="no"?>
<!DOCTYPE svg PUBLIC "-//W3C//DTD SVG 1.1//EN" "http://www.w3.org/Graphics/SVG/1.1/DTD/svg11.dtd">
<svg xmlns="http://www.w3.org/2000/svg" version="1.1" width="1264" height="553" viewbox="83 5 1181 548">
<line  x1="134" y1="83" x2="605" y2="83" stroke="#000000" stroke-width="1" fill="none"/>
<line  x1="605" y1="83" x2="596" y2="87" stroke="#000000" stroke-width="1" fill="none"/>
<line  x1="605" y1="83" x2="596" y2="78" stroke="#000000" stroke-width="1" fill="none"/>
<text  x="136" y="78" style="font-size:12; font-family:SansSerif.plain; fill=#000000">TransferRequest(bytesToTransfer, sourceAddress, destinationAddress, ID)</text>
<line  x1="605" y1="123" x2="1081" y2="123" stroke="#000000" stroke-width="1" fill="none"/>
<line  x1="1081" y1="123" x2="1072" y2="127" stroke="#000000" stroke-width="1" fill="none"/>
<line  x1="1081" y1="123" x2="1072" y2="118" stroke="#000000" stroke-width="1" fill="none"/>
<text  x="610" y="118" style="font-size:12; font-family:SansSerif.plain; fill=#000000">TransferRequest(bytesToTransfer, sourceAddress, destinationAddress, ID)</text>
<text  x="88" y="40" style="font-size:12; font-family:SansSerif.plain; fill=#000000">CPU_Controller</text>
<line  x1="88" y1="41" x2="180" y2="41" stroke="#000000" stroke-width="1" fill="none"/>
<line  x1="134" y1="43" x2="134" y2="543" stroke="#000000" stroke-width="1" fill="none"/>
<rect  x="45" y="139" width="179" height="20" rx="5" ry="5" fill="none" stroke="#000000" stroke-width="1"/>
<text  x="50" y="154" style="font-size:12; font-family:SansSerif.plain; fill=#000000">transferTerminated = false</text>
<text  x="1034" y="40" style="font-size:12; font-family:SansSerif.plain; fill=#000000">DMA_Controller</text>
<line  x1="1034" y1="41" x2="1128" y2="41" stroke="#000000" stroke-width="1" fill="none"/>
<line  x1="1081" y1="43" x2="1081" y2="543" stroke="#000000" stroke-width="1" fill="none"/>
<rect  x="992" y="150" width="178" height="20" rx="5" ry="5" fill="none" stroke="#000000" stroke-width="1"/>
<text  x="997" y="165" style="font-size:12; font-family:SansSerif.plain; fill=#000000">counter = bytesToTransfer</text>
<text  x="545" y="40" style="font-size:12; font-family:SansSerif.plain; fill=#000000">TransferInstance_1</text>
<line  x1="545" y1="41" x2="665" y2="41" stroke="#000000" stroke-width="1" fill="none"/>
<line  x1="605" y1="43" x2="605" y2="543" stroke="#000000" stroke-width="1" fill="none"/>
</svg>