<?xml version="1.0" encoding="UTF-8" standalone="no"?>
<svg
   xmlns:dc="http://purl.org/dc/elements/1.1/"
   xmlns:cc="http://creativecommons.org/ns#"
   xmlns:rdf="http://www.w3.org/1999/02/22-rdf-syntax-ns#"
   xmlns:svg="http://www.w3.org/2000/svg"
   xmlns="http://www.w3.org/2000/svg"
   xmlns:sodipodi="http://sodipodi.sourceforge.net/DTD/sodipodi-0.dtd"
   xmlns:inkscape="http://www.inkscape.org/namespaces/inkscape"
   version="1.1"
   id="svg2"
   inkscape:version="0.48.4 r9939"
   width="100%"
   height="100%"
   sodipodi:docname="CP0305.svg">
  <metadata
     id="metadata294">
    <rdf:RDF>
      <cc:Work
         rdf:about="">
        <dc:format>image/svg+xml</dc:format>
        <dc:type
           rdf:resource="http://purl.org/dc/dcmitype/StillImage" />
      </cc:Work>
    </rdf:RDF>
  </metadata>
  <defs
     id="defs292" />
  <sodipodi:namedview
     pagecolor="#ffffff"
     bordercolor="#666666"
     borderopacity="1"
     objecttolerance="10"
     gridtolerance="10"
     guidetolerance="10"
     inkscape:pageopacity="0"
     inkscape:pageshadow="2"
     inkscape:window-width="1366"
     inkscape:window-height="709"
     id="namedview290"
     showgrid="false"
     inkscape:zoom="2.5371828"
     inkscape:cx="222.75576"
     inkscape:cy="449.95541"
     inkscape:window-x="0"
     inkscape:window-y="27"
     inkscape:window-maximized="1"
     inkscape:current-layer="svg2" />
  <line
     x1="233.57173"
     y1="690.13031"
     x2="233.57173"
     y2="730.13031"
     id="line4"
     style="fill:none;stroke:#000000;stroke-width:1" />
  <polygon
     points="291,244 300,244 296,253 "
     id="polygon6"
     transform="translate(-62.428265,477.13031)"
     style="fill:#000000" />
  <polygon
     points="291,244 300,244 296,253 "
     id="polygon8"
     transform="translate(-62.428265,477.13031)"
     style="fill:none;stroke:#000000;stroke-width:1" />
  <line
     x1="233.57173"
     y1="612.13031"
     x2="233.57173"
     y2="660.13031"
     id="line10"
     style="fill:none;stroke:#000000;stroke-width:1" />
  <polygon
     points="291,174 300,174 296,183 "
     id="polygon12"
     transform="translate(-62.428265,477.13031)"
     style="fill:#000000" />
  <polygon
     points="291,174 300,174 296,183 "
     id="polygon14"
     transform="translate(-62.428265,477.13031)"
     style="fill:none;stroke:#000000;stroke-width:1" />
  <line
     x1="233.57173"
     y1="521.13031"
     x2="233.57173"
     y2="567.13031"
     id="line16"
     style="fill:none;stroke:#000000;stroke-width:1" />
  <polygon
     points="291,81 300,81 296,90 "
     id="polygon18"
     transform="translate(-62.428265,477.13031)"
     style="fill:#000000" />
  <polygon
     points="291,81 300,81 296,90 "
     id="polygon20"
     transform="translate(-62.428265,477.13031)"
     style="fill:none;stroke:#000000;stroke-width:1" />
  <line
     x1="233.57173"
     y1="795.13031"
     x2="233.57173"
     y2="923.13031"
     id="line22"
     style="fill:none;stroke:#000000;stroke-width:1" />
  <polygon
     points="291,437 300,437 296,446 "
     id="polygon24"
     transform="translate(-62.428265,477.13031)"
     style="fill:#000000" />
  <polygon
     points="291,437 300,437 296,446 "
     id="polygon26"
     transform="translate(-62.428265,477.13031)"
     style="fill:none;stroke:#000000;stroke-width:1" />
  <line
     x1="233.57173"
     y1="968.13031"
     x2="233.57173"
     y2="1020.1303"
     id="line34"
     style="fill:none;stroke:#000000;stroke-width:1" />
  <polygon
     points="291,534 300,534 296,543 "
     id="polygon36"
     transform="translate(-62.428265,477.13031)"
     style="fill:#000000" />
  <polygon
     points="291,534 300,534 296,543 "
     id="polygon38"
     transform="translate(-62.428265,477.13031)"
     style="fill:none;stroke:#000000;stroke-width:1" />
  <line
     x1="128.57173"
     y1="842.13031"
     x2="128.57173"
     y2="895.13031"
     id="line74"
     style="fill:none;stroke:#000000;stroke-width:1" />
  <line
     x1="128.57173"
     y1="895.13031"
     x2="17.571735"
     y2="895.13031"
     id="line76"
     style="fill:none;stroke:#000000;stroke-width:1" />
  <line
     x1="17.571735"
     y1="895.13031"
     x2="17.571735"
     y2="675.13031"
     id="line78"
     style="fill:none;stroke:#000000;stroke-width:1" />
  <line
     x1="17.571735"
     y1="675.13031"
     x2="218.57173"
     y2="675.13031"
     id="line80"
     style="fill:none;stroke:#000000;stroke-width:1" />
  <polygon
     points="272,202 272,193 281,198 "
     id="polygon82"
     transform="translate(-62.428265,477.13031)"
     style="fill:#000000" />
  <polygon
     points="272,202 272,193 281,198 "
     id="polygon84"
     transform="translate(-62.428265,477.13031)"
     style="fill:none;stroke:#000000;stroke-width:1" />
  <line
     x1="193.57173"
     y1="755.13031"
     x2="128.57173"
     y2="755.13031"
     id="line86"
     style="fill:none;stroke:#000000;stroke-width:1" />
  <line
     x1="128.57173"
     y1="755.13031"
     x2="128.57173"
     y2="797.13031"
     id="line88"
     style="fill:none;stroke:#000000;stroke-width:1" />
  <polygon
     points="186,311 195,311 191,320 "
     id="polygon90"
     transform="translate(-62.428265,477.13031)"
     style="fill:#000000" />
  <polygon
     points="186,311 195,311 191,320 "
     id="polygon92"
     transform="translate(-62.428265,477.13031)"
     style="fill:none;stroke:#000000;stroke-width:1" />
  <ellipse
     cx="296"
     cy="31"
     rx="7"
     ry="7"
     id="ellipse94"
     sodipodi:cx="296"
     sodipodi:cy="31"
     sodipodi:rx="7"
     sodipodi:ry="7"
     transform="translate(-62.428265,485.13031)"
     style="fill:#000000" />
  <line
     x1="233.57173"
     y1="524.13031"
     x2="233.57173"
     y2="529.13031"
     id="line96"
     style="fill:none;stroke:#000000;stroke-width:1" />
  <rect
     x="172.57173"
     y="573.13031"
     width="124"
     height="35"
     id="rect98"
     style="fill:none;stroke:#68e5ff;stroke-width:1" />
  <rect
     x="171.57173"
     y="572.13031"
     width="124"
     height="35"
     id="rect100"
     style="fill:none;stroke:#000000;stroke-width:1" />
  <line
     x1="233.57173"
     y1="572.13031"
     x2="233.57173"
     y2="567.13031"
     id="line102"
     style="fill:none;stroke:#000000;stroke-width:1" />
  <line
     x1="233.57173"
     y1="607.13031"
     x2="233.57173"
     y2="612.13031"
     id="line104"
     style="fill:none;stroke:#000000;stroke-width:1" />
  <text
     x="185.15483"
     y="599.37134"
     style="font-size:12px;font-family:Dialog"
     id="text106">StoreConfigure</text>
  <text
     x="174.57173"
     y="584.13031"
     style="font-size:12px;font-family:Dialog"
     id="text108">sd</text>
  <line
     x1="171.57173"
     y1="587.13031"
     x2="186.57173"
     y2="587.13031"
     id="line110"
     style="fill:none;stroke:#000000;stroke-width:1" />
  <line
     x1="196.57173"
     y1="572.13031"
     x2="196.57173"
     y2="580.13031"
     id="line112"
     style="fill:none;stroke:#000000;stroke-width:1" />
  <line
     x1="186.57173"
     y1="587.13031"
     x2="196.57173"
     y2="580.13031"
     id="line114"
     style="fill:none;stroke:#000000;stroke-width:1" />
  <line
     x1="233.57173"
     y1="660.13031"
     x2="233.57173"
     y2="690.13031"
     id="line116"
     style="fill:none;stroke:#000000;stroke-width:1" />
  <line
     x1="218.57173"
     y1="675.13031"
     x2="248.57173"
     y2="675.13031"
     id="line118"
     style="fill:none;stroke:#000000;stroke-width:1" />
  <rect
     x="67.571732"
     y="803.13031"
     width="124"
     height="35"
     id="rect120"
     style="fill:none;stroke:#68e5ff;stroke-width:1" />
  <rect
     x="66.571732"
     y="802.13031"
     width="124"
     height="35"
     id="rect122"
     style="fill:none;stroke:#000000;stroke-width:1" />
  <line
     x1="128.57173"
     y1="802.13031"
     x2="128.57173"
     y2="797.13031"
     id="line124"
     style="fill:none;stroke:#000000;stroke-width:1" />
  <line
     x1="128.57173"
     y1="837.13031"
     x2="128.57173"
     y2="842.13031"
     id="line126"
     style="fill:none;stroke:#000000;stroke-width:1" />
  <text
     x="72.666214"
     y="831.34204"
     style="font-size:12px;font-family:Dialog"
     id="text128">StoreTransferCycle</text>
  <text
     x="69.571732"
     y="814.13031"
     style="font-size:12px;font-family:Dialog"
     id="text130">sd</text>
  <line
     x1="66.571732"
     y1="817.13031"
     x2="81.571732"
     y2="817.13031"
     id="line132"
     style="fill:none;stroke:#000000;stroke-width:1" />
  <line
     x1="91.571732"
     y1="802.13031"
     x2="91.571732"
     y2="810.13031"
     id="line134"
     style="fill:none;stroke:#000000;stroke-width:1" />
  <line
     x1="81.571732"
     y1="817.13031"
     x2="91.571732"
     y2="810.13031"
     id="line136"
     style="fill:none;stroke:#000000;stroke-width:1" />
  <rect
     x="172.57173"
     y="929.13031"
     width="124"
     height="35"
     id="rect138"
     style="fill:none;stroke:#68e5ff;stroke-width:1" />
  <rect
     x="171.57173"
     y="928.13031"
     width="124"
     height="35"
     id="rect140"
     style="fill:none;stroke:#000000;stroke-width:1" />
  <line
     x1="233.57173"
     y1="928.13031"
     x2="233.57173"
     y2="923.13031"
     id="line142"
     style="fill:none;stroke:#000000;stroke-width:1" />
  <line
     x1="233.57173"
     y1="963.13031"
     x2="233.57173"
     y2="968.13031"
     id="line144"
     style="fill:none;stroke:#000000;stroke-width:1" />
  <text
     x="180.81932"
     y="956.94794"
     style="font-size:12px;font-family:Dialog"
     id="text146">CPforDMATransfer</text>
  <text
     x="174.57173"
     y="940.13031"
     style="font-size:12px;font-family:Dialog"
     id="text148">sd</text>
  <line
     x1="171.57173"
     y1="943.13031"
     x2="186.57173"
     y2="943.13031"
     id="line150"
     style="fill:none;stroke:#000000;stroke-width:1" />
  <line
     x1="196.57173"
     y1="928.13031"
     x2="196.57173"
     y2="936.13031"
     id="line152"
     style="fill:none;stroke:#000000;stroke-width:1" />
  <line
     x1="186.57173"
     y1="943.13031"
     x2="196.57173"
     y2="936.13031"
     id="line154"
     style="fill:none;stroke:#000000;stroke-width:1" />
  <ellipse
     cx="430"
     cy="785"
     rx="8"
     ry="8"
     id="ellipse218"
     sodipodi:cx="430"
     sodipodi:cy="785"
     sodipodi:rx="8"
     sodipodi:ry="8"
     transform="translate(-196.76052,250.27045)"
     style="fill:#000000" />
  <ellipse
     cx="430"
     cy="785"
     rx="10"
     ry="10"
     id="ellipse220"
     sodipodi:cx="430"
     sodipodi:cy="785"
     sodipodi:rx="10"
     sodipodi:ry="10"
     transform="translate(-196.76052,250.27045)"
     style="fill:none;stroke:#000000;stroke-width:1" />
  <line
     x1="233.23949"
     y1="1025.2705"
     x2="233.23949"
     y2="1020.2704"
     id="line222"
     style="fill:none;stroke:#000000;stroke-width:1" />
  <text
     x="504"
     y="148"
     style="font-size:12; font-family:Dialog.plain; fill=#000000"
     id="text244" />
  <line
     x1="233.57173"
     y1="740.13031"
     x2="248.57173"
     y2="755.13031"
     id="line268"
     style="fill:none;stroke:#000000;stroke-width:1" />
  <line
     x1="218.57173"
     y1="755.13031"
     x2="233.57173"
     y2="770.13031"
     id="line270"
     style="fill:none;stroke:#000000;stroke-width:1" />
  <line
     x1="233.57173"
     y1="740.13031"
     x2="218.57173"
     y2="755.13031"
     id="line272"
     style="fill:none;stroke:#000000;stroke-width:1" />
  <line
     x1="248.57173"
     y1="755.13031"
     x2="233.57173"
     y2="770.13031"
     id="line274"
     style="fill:none;stroke:#000000;stroke-width:1" />
  <line
     x1="233.57173"
     y1="740.13031"
     x2="233.57173"
     y2="730.13031"
     id="line276"
     style="fill:none;stroke:#000000;stroke-width:1" />
  <line
     x1="218.57173"
     y1="755.13031"
     x2="193.57173"
     y2="755.13031"
     id="line278"
     style="fill:none;stroke:#000000;stroke-width:1" />
  <line
     x1="248.57173"
     y1="755.13031"
     x2="273.57175"
     y2="755.13031"
     id="line280"
     style="fill:none;stroke:#000000;stroke-width:1" />
  <line
     x1="233.57173"
     y1="770.13031"
     x2="233.57173"
     y2="795.13031"
     id="line282"
     style="fill:none;stroke:#000000;stroke-width:1" />
  <text
     x="73.021042"
     y="748.94788"
     style="font-size:12px;font-family:Dialog"
     id="text284">[ samplesToStore &gt; 0 ]</text>
  <text
     x="253.57173"
     y="750.13031"
     style="font-size:12px;font-family:Dialog"
     id="text286">[ ]</text>
  <text
     x="238.57173"
     y="785.13031"
     style="font-size:12px;font-family:Dialog"
     id="text288">[ else ]</text>
</svg>
