<?xml version="1.0" encoding="UTF-8" standalone="no"?>
<svg
   xmlns:dc="http://purl.org/dc/elements/1.1/"
   xmlns:cc="http://creativecommons.org/ns#"
   xmlns:rdf="http://www.w3.org/1999/02/22-rdf-syntax-ns#"
   xmlns:svg="http://www.w3.org/2000/svg"
   xmlns="http://www.w3.org/2000/svg"
   xmlns:sodipodi="http://sodipodi.sourceforge.net/DTD/sodipodi-0.dtd"
   xmlns:inkscape="http://www.inkscape.org/namespaces/inkscape"
   version="1.1"
   id="svg2"
   inkscape:version="0.48.4 r9939"
   width="370"
   height="500"
   sodipodi:docname="CP13.svg">
  <metadata
     id="metadata192">
    <rdf:RDF>
      <cc:Work
         rdf:about="">
        <dc:format>image/svg+xml</dc:format>
        <dc:type
           rdf:resource="http://purl.org/dc/dcmitype/StillImage" />
      </cc:Work>
    </rdf:RDF>
  </metadata>
  <defs
     id="defs190" />
  <sodipodi:namedview
     pagecolor="#ffffff"
     bordercolor="#666666"
     borderopacity="1"
     objecttolerance="10"
     gridtolerance="10"
     guidetolerance="10"
     inkscape:pageopacity="0"
     inkscape:pageshadow="2"
     inkscape:window-width="1366"
     inkscape:window-height="709"
     id="namedview188"
     showgrid="false"
     inkscape:zoom="1.7940591"
     inkscape:cx="245.68741"
     inkscape:cy="195.04632"
     inkscape:window-x="0"
     inkscape:window-y="27"
     inkscape:window-maximized="1"
     inkscape:current-layer="svg2" />
  <line
     x1="297.66879"
     y1="191.91121"
     x2="229.66881"
     y2="245.91119"
     id="line4"
     style="fill:none;stroke:#000000;stroke-width:1" />
  <polygon
     points="426,290 417,292 420,282 "
     id="polygon6"
     transform="translate(-187.3312,-46.088793)"
     style="fill:#000000" />
  <polygon
     points="426,290 417,292 420,282 "
     id="polygon8"
     transform="translate(-187.3312,-46.088793)"
     style="fill:none;stroke:#000000;stroke-width:1" />
  <rect
     x="11.668797"
     y="152.91121"
     width="123"
     height="35"
     id="rect10"
     style="fill:none;stroke:#d8bbf9;stroke-width:1" />
  <rect
     x="10.668797"
     y="151.91121"
     width="123"
     height="35"
     id="rect12"
     style="fill:none;stroke:#000000;stroke-width:1" />
  <line
     x1="71.6688"
     y1="151.91121"
     x2="71.6688"
     y2="146.91121"
     id="line14"
     style="fill:none;stroke:#000000;stroke-width:1" />
  <line
     x1="71.6688"
     y1="186.91121"
     x2="71.6688"
     y2="191.91121"
     id="line16"
     style="fill:none;stroke:#000000;stroke-width:1" />
  <text
     x="40.095955"
     y="173.55028"
     style="font-size:12px;font-family:Dialog"
     id="text18">Store_CWPI</text>
  <text
     x="13.668797"
     y="163.91121"
     style="font-size:12px;font-family:Dialog"
     id="text20">ad</text>
  <line
     x1="10.668797"
     y1="166.91121"
     x2="25.668797"
     y2="166.91121"
     id="line22"
     style="fill:none;stroke:#000000;stroke-width:1" />
  <line
     x1="35.668797"
     y1="151.91121"
     x2="35.668797"
     y2="159.91121"
     id="line24"
     style="fill:none;stroke:#000000;stroke-width:1" />
  <line
     x1="25.668797"
     y1="166.91121"
     x2="35.668797"
     y2="159.91121"
     id="line26"
     style="fill:none;stroke:#000000;stroke-width:1" />
  <rect
     x="237.66881"
     y="152.91121"
     width="123"
     height="35"
     id="rect28"
     style="fill:none;stroke:#d8bbf9;stroke-width:1" />
  <rect
     x="236.66881"
     y="151.91121"
     width="123"
     height="35"
     id="rect30"
     style="fill:none;stroke:#000000;stroke-width:1" />
  <line
     x1="297.66879"
     y1="151.91121"
     x2="297.66879"
     y2="146.91121"
     id="line32"
     style="fill:none;stroke:#000000;stroke-width:1" />
  <line
     x1="297.66879"
     y1="186.91121"
     x2="297.66879"
     y2="191.91121"
     id="line34"
     style="fill:none;stroke:#000000;stroke-width:1" />
  <text
     x="269.44034"
     y="174.10768"
     style="font-size:12px;font-family:Dialog"
     id="text36">Store_CWPQ</text>
  <text
     x="239.66881"
     y="163.91121"
     style="font-size:12px;font-family:Dialog"
     id="text38">ad</text>
  <line
     x1="236.66881"
     y1="166.91121"
     x2="251.66881"
     y2="166.91121"
     id="line40"
     style="fill:none;stroke:#000000;stroke-width:1" />
  <line
     x1="261.66879"
     y1="151.91121"
     x2="261.66879"
     y2="159.91121"
     id="line42"
     style="fill:none;stroke:#000000;stroke-width:1" />
  <line
     x1="251.66881"
     y1="166.91121"
     x2="261.66879"
     y2="159.91121"
     id="line44"
     style="fill:none;stroke:#000000;stroke-width:1" />
  <line
     x1="180.66879"
     y1="433.91113"
     x2="180.66879"
     y2="463.91113"
     id="line46"
     style="fill:none;stroke:#000000;stroke-width:1" />
  <polygon
     points="372,501 368,510 363,501 "
     id="polygon48"
     transform="translate(-187.3312,-46.088793)"
     style="fill:#000000" />
  <polygon
     points="372,501 368,510 363,501 "
     id="polygon50"
     transform="translate(-187.3312,-46.088793)"
     style="fill:none;stroke:#000000;stroke-width:1" />
  <ellipse
     cx="361"
     cy="63"
     rx="7"
     ry="7"
     id="ellipse52"
     sodipodi:cx="361"
     sodipodi:cy="63"
     sodipodi:rx="7"
     sodipodi:ry="7"
     transform="translate(-187.3312,-46.088793)"
     style="fill:#000000" />
  <line
     x1="173.66879"
     y1="24.911221"
     x2="173.66879"
     y2="29.911224"
     id="line54"
     style="fill:none;stroke:#000000;stroke-width:1" />
  <line
     x1="180.66879"
     y1="428.91113"
     x2="180.66879"
     y2="433.91113"
     id="line80"
     style="fill:none;stroke:#000000;stroke-width:1" />
  <ellipse
     cx="368"
     cy="525"
     rx="8"
     ry="8"
     id="ellipse92"
     sodipodi:cx="368"
     sodipodi:cy="525"
     sodipodi:rx="8"
     sodipodi:ry="8"
     transform="translate(-187.3312,-46.088793)"
     style="fill:#000000" />
  <ellipse
     cx="368"
     cy="525"
     rx="10"
     ry="10"
     id="ellipse94"
     sodipodi:cx="368"
     sodipodi:cy="525"
     sodipodi:rx="10"
     sodipodi:ry="10"
     transform="translate(-187.3312,-46.088793)"
     style="fill:none;stroke:#000000;stroke-width:1" />
  <line
     x1="180.66879"
     y1="468.91113"
     x2="180.66879"
     y2="463.91113"
     id="line96"
     style="fill:none;stroke:#000000;stroke-width:1" />
  <text
     x="720"
     y="-356.36215"
     style="font-size:12px;font-family:Dialog"
     id="text118" />
  <rect
     x="98.6688"
     y="78.911224"
     width="150"
     height="5"
     id="rect144"
     style="fill:none;stroke:#000000;stroke-width:1" />
  <rect
     x="98.6688"
     y="78.911224"
     width="149"
     height="4"
     id="rect146"
     style="fill:#000000" />
  <line
     x1="173.66879"
     y1="29.911224"
     x2="173.66879"
     y2="78.911224"
     id="line148"
     style="fill:none;stroke:#000000;stroke-width:1" />
  <polygon
     points="365,116 361,125 356,116 "
     id="polygon150"
     transform="translate(-187.3312,-46.088793)"
     style="fill:#000000" />
  <polygon
     points="365,116 361,125 356,116 "
     id="polygon152"
     transform="translate(-187.3312,-46.088793)"
     style="fill:none;stroke:#000000;stroke-width:1" />
  <line
     x1="123.66879"
     y1="83.911217"
     x2="71.6688"
     y2="146.91121"
     id="line154"
     style="fill:none;stroke:#000000;stroke-width:1" />
  <polygon
     points="268,189 259,193 260,183 "
     id="polygon156"
     transform="translate(-187.3312,-46.088793)"
     style="fill:#000000" />
  <polygon
     points="268,189 259,193 260,183 "
     id="polygon158"
     transform="translate(-187.3312,-46.088793)"
     style="fill:none;stroke:#000000;stroke-width:1" />
  <line
     x1="222.66879"
     y1="83.911217"
     x2="297.66879"
     y2="146.91121"
     id="line160"
     style="fill:none;stroke:#000000;stroke-width:1" />
  <polygon
     points="481,183 485,193 475,191 "
     id="polygon162"
     transform="translate(-187.3312,-46.088793)"
     style="fill:#000000" />
  <polygon
     points="481,183 485,193 475,191 "
     id="polygon164"
     transform="translate(-187.3312,-46.088793)"
     style="fill:none;stroke:#000000;stroke-width:1" />
  <rect
     x="105.66879"
     y="245.91119"
     width="150"
     height="5"
     id="rect166"
     style="fill:none;stroke:#000000;stroke-width:1" />
  <rect
     x="105.66879"
     y="245.91119"
     width="149"
     height="4"
     id="rect168"
     style="fill:#000000" />
  <line
     x1="71.6688"
     y1="191.91121"
     x2="130.66879"
     y2="245.91119"
     id="line170"
     style="fill:none;stroke:#000000;stroke-width:1" />
  <polygon
     points="314,282 318,292 308,289 "
     id="polygon172"
     transform="translate(-187.3312,-46.088793)"
     style="fill:#000000" />
  <polygon
     points="314,282 318,292 308,289 "
     id="polygon174"
     transform="translate(-187.3312,-46.088793)"
     style="fill:none;stroke:#000000;stroke-width:1" />
  <line
     x1="180.66879"
     y1="250.91119"
     x2="180.66879"
     y2="304.91116"
     id="line176"
     style="fill:none;stroke:#000000;stroke-width:1" />
  <polygon
     points="372,342 368,351 363,342 "
     id="polygon178"
     transform="translate(-187.3312,-46.088793)"
     style="fill:#000000" />
  <polygon
     points="372,342 368,351 363,342 "
     id="polygon180"
     transform="translate(-187.3312,-46.088793)"
     style="fill:none;stroke:#000000;stroke-width:1" />
  <line
     x1="180.66879"
     y1="349.91113"
     x2="180.66879"
     y2="388.91113"
     id="line182"
     style="fill:none;stroke:#000000;stroke-width:1" />
  <polygon
     points="372,426 368,435 363,426 "
     id="polygon184"
     transform="translate(-187.3312,-46.088793)"
     style="fill:#000000" />
  <polygon
     points="372,426 368,435 363,426 "
     id="polygon186"
     transform="translate(-187.3312,-46.088793)"
     style="fill:none;stroke:#000000;stroke-width:1" />
  <rect
     x="120.74841"
     y="311.82227"
     width="123"
     height="35"
     id="rect10-7"
     style="fill:none;stroke:#d8bbf9;stroke-width:1" />
  <rect
     x="119.74841"
     y="310.82227"
     width="123"
     height="35"
     id="rect12-5"
     style="fill:none;stroke:#000000;stroke-width:1" />
  <line
     x1="180.7484"
     y1="310.82227"
     x2="180.7484"
     y2="305.82227"
     id="line14-7"
     style="fill:none;stroke:#000000;stroke-width:1" />
  <line
     x1="180.7484"
     y1="345.82227"
     x2="180.7484"
     y2="350.82227"
     id="line16-3"
     style="fill:none;stroke:#000000;stroke-width:1" />
  <text
     x="149.17555"
     y="332.46133"
     style="font-size:12px;font-family:Dialog"
     id="text18-7">DMAtransfer</text>
  <text
     x="122.74841"
     y="322.82227"
     style="font-size:12px;font-family:Dialog"
     id="text20-9">ad</text>
  <line
     x1="119.74841"
     y1="325.82227"
     x2="134.7484"
     y2="325.82227"
     id="line22-7"
     style="fill:none;stroke:#000000;stroke-width:1" />
  <line
     x1="144.7484"
     y1="310.82227"
     x2="144.7484"
     y2="318.82227"
     id="line24-7"
     style="fill:none;stroke:#000000;stroke-width:1" />
  <line
     x1="134.7484"
     y1="325.82227"
     x2="144.7484"
     y2="318.82227"
     id="line26-0"
     style="fill:none;stroke:#000000;stroke-width:1" />
  <rect
     x="120.71084"
     y="394.31674"
     width="123"
     height="35"
     id="rect10-9"
     style="fill:none;stroke:#d8bbf9;stroke-width:1" />
  <rect
     x="119.71084"
     y="393.31674"
     width="123"
     height="35"
     id="rect12-8"
     style="fill:none;stroke:#000000;stroke-width:1" />
  <line
     x1="180.71085"
     y1="393.31674"
     x2="180.71085"
     y2="388.31674"
     id="line14-5"
     style="fill:none;stroke:#000000;stroke-width:1" />
  <line
     x1="180.71085"
     y1="428.31674"
     x2="180.71085"
     y2="433.31674"
     id="line16-2"
     style="fill:none;stroke:#000000;stroke-width:1" />
  <text
     x="152.02321"
     y="416.07059"
     style="font-size:12px;font-family:Dialog"
     id="text18-8">Load2Sink</text>
  <text
     x="122.71084"
     y="405.31674"
     style="font-size:12px;font-family:Dialog"
     id="text20-5">ad</text>
  <line
     x1="119.71084"
     y1="408.31674"
     x2="134.71085"
     y2="408.31674"
     id="line22-1"
     style="fill:none;stroke:#000000;stroke-width:1" />
  <line
     x1="144.71085"
     y1="393.31674"
     x2="144.71085"
     y2="401.31674"
     id="line24-5"
     style="fill:none;stroke:#000000;stroke-width:1" />
  <line
     x1="134.71085"
     y1="408.31674"
     x2="144.71085"
     y2="401.31674"
     id="line26-5"
     style="fill:none;stroke:#000000;stroke-width:1" />
</svg>
