<?xml version="1.0" encoding="UTF-8" standalone="no"?>
<svg
   xmlns:dc="http://purl.org/dc/elements/1.1/"
   xmlns:cc="http://creativecommons.org/ns#"
   xmlns:rdf="http://www.w3.org/1999/02/22-rdf-syntax-ns#"
   xmlns:svg="http://www.w3.org/2000/svg"
   xmlns="http://www.w3.org/2000/svg"
   xmlns:sodipodi="http://sodipodi.sourceforge.net/DTD/sodipodi-0.dtd"
   xmlns:inkscape="http://www.inkscape.org/namespaces/inkscape"
   version="1.1"
   id="svg2"
   inkscape:version="0.48.4 r9939"
   width="570.09003"
   height="500.35999"
   sodipodi:docname="CPforDMA.svg">
  <metadata
     id="metadata352">
    <rdf:RDF>
      <cc:Work
         rdf:about="">
        <dc:format>image/svg+xml</dc:format>
        <dc:type
           rdf:resource="http://purl.org/dc/dcmitype/StillImage" />
        <dc:title></dc:title>
      </cc:Work>
    </rdf:RDF>
  </metadata>
  <defs
     id="defs350" />
  <sodipodi:namedview
     pagecolor="#ffffff"
     bordercolor="#666666"
     borderopacity="1"
     objecttolerance="10"
     gridtolerance="10"
     guidetolerance="10"
     inkscape:pageopacity="0"
     inkscape:pageshadow="2"
     inkscape:window-width="1366"
     inkscape:window-height="709"
     id="namedview348"
     showgrid="false"
     inkscape:zoom="0.89702957"
     inkscape:cx="263.35417"
     inkscape:cy="272.14534"
     inkscape:window-x="0"
     inkscape:window-y="27"
     inkscape:window-maximized="1"
     inkscape:current-layer="svg2" />
  <line
     style="fill:none;stroke:#000000;stroke-width:2.0474999;stroke-miterlimit:4;stroke-dasharray:none"
     x1="97.620232"
     y1="438.2186"
     x2="97.620232"
     y2="466.2186"
     id="line3710" />
  <polygon
     style="fill:#000000"
     points="292,510 288,519 283,510 "
     id="polygon3712"
     transform="translate(-190.37978,-48.781407)" />
  <polygon
     style="fill:none;stroke:#000000;stroke-width:1"
     points="292,510 288,519 283,510 "
     id="polygon3714"
     transform="translate(-190.37978,-48.781407)" />
  <line
     style="fill:none;stroke:#000000;stroke-width:2.01875;stroke-miterlimit:4;stroke-dasharray:none"
     x1="97.620232"
     y1="297.83646"
     x2="97.620232"
     y2="395.68018"
     id="line3716" />
  <polygon
     style="fill:#000000"
     points="292,437 288,446 283,437 "
     id="polygon3718"
     transform="translate(-190.37978,-48.781407)" />
  <polygon
     style="fill:none;stroke:#000000;stroke-width:1"
     points="292,437 288,446 283,437 "
     id="polygon3720"
     transform="translate(-190.37978,-48.781407)" />
  <line
     style="fill:none;stroke:#000000;stroke-width:2.0475;stroke-miterlimit:4;stroke-dasharray:none"
     x1="249.62024"
     y1="237.2186"
     x2="249.62024"
     y2="272.2186"
     id="line3722" />
  <polygon
     style="fill:#000000"
     points="444,312 440,321 435,312 "
     id="polygon3724"
     transform="translate(-190.37978,-48.781407)" />
  <polygon
     style="fill:none;stroke:#000000;stroke-width:1"
     points="444,312 440,321 435,312 "
     id="polygon3726"
     transform="translate(-190.37978,-48.781407)" />
  <line
     style="fill:none;stroke:#000000;stroke-width:2.0475;stroke-miterlimit:4;stroke-dasharray:none"
     x1="249.62024"
     y1="47.612083"
     x2="249.62024"
     y2="127.13858"
     id="line3728" />
  <line
     style="fill:none;stroke:#000000;stroke-width:2.00771737"
     x1="455.62024"
     y1="380.0434"
     x2="455.62024"
     y2="468.72382"
     id="line3734" />
  <line
     style="fill:none;stroke:#000000;stroke-width:2.0475;stroke-miterlimit:4;stroke-dasharray:none"
     x1="209.62024"
     y1="297.2186"
     x2="97.620232"
     y2="297.2186"
     id="line3740" />
  <line
     style="fill:none;stroke:#000000;stroke-width:1"
     x1="97.620232"
     y1="297.2186"
     x2="97.620232"
     y2="328.2186"
     id="line3742" />
  <line
     style="fill:none;stroke:#000000;stroke-width:2.0475;stroke-miterlimit:4;stroke-dasharray:none"
     x1="455.62024"
     y1="469.2186"
     x2="551.62024"
     y2="469.2186"
     id="line3750" />
  <line
     style="fill:none;stroke:#000000;stroke-width:2.0475;stroke-miterlimit:4;stroke-dasharray:none"
     x1="551.62024"
     y1="469.2186"
     x2="551.62024"
     y2="222.2186"
     id="line3752" />
  <line
     style="fill:none;stroke:#000000;stroke-width:2.0475;stroke-miterlimit:4;stroke-dasharray:none"
     x1="551.62024"
     y1="222.2186"
     x2="264.62024"
     y2="222.2186"
     id="line3754" />
  <polygon
     style="fill:#000000"
     points="463,275 455,271 463,266 "
     id="polygon3756"
     transform="translate(-190.37978,-48.781407)" />
  <polygon
     style="fill:none;stroke:#000000;stroke-width:1"
     points="463,275 455,271 463,266 "
     id="polygon3758"
     transform="translate(-190.37978,-48.781407)" />
  <ellipse
     d="m 447,68 c 0,3.865993 -3.13401,7 -7,7 -3.86599,0 -7,-3.134007 -7,-7 0,-3.865993 3.13401,-7 7,-7 3.86599,0 7,3.134007 7,7 z"
     style="fill:#000000"
     sodipodi:ry="7"
     sodipodi:rx="7"
     sodipodi:cy="68"
     sodipodi:cx="440"
     cx="440"
     cy="68"
     rx="7"
     ry="7"
     id="ellipse3784"
     transform="translate(-190.37978,-26.781407)" />
  <line
     style="fill:none;stroke:#000000;stroke-width:1"
     x1="249.62024"
     y1="49.218594"
     x2="249.62024"
     y2="54.218597"
     id="line3786" />
  <line
     style="fill:none;stroke:#000000;stroke-width:2.0475;stroke-miterlimit:4;stroke-dasharray:none"
     x1="249.62024"
     y1="282.2186"
     x2="264.62024"
     y2="297.2186"
     id="line3826" />
  <line
     style="fill:none;stroke:#000000;stroke-width:2.0475;stroke-miterlimit:4;stroke-dasharray:none"
     x1="234.62024"
     y1="297.2186"
     x2="249.62024"
     y2="312.2186"
     id="line3828" />
  <line
     style="fill:none;stroke:#000000;stroke-width:2.0475;stroke-miterlimit:4;stroke-dasharray:none"
     x1="249.62024"
     y1="282.2186"
     x2="234.62024"
     y2="297.2186"
     id="line3830" />
  <line
     style="fill:none;stroke:#000000;stroke-width:2.0475;stroke-miterlimit:4;stroke-dasharray:none"
     x1="264.62024"
     y1="297.2186"
     x2="249.62024"
     y2="312.2186"
     id="line3832" />
  <line
     style="fill:none;stroke:#000000;stroke-width:2;stroke-miterlimit:4;stroke-dasharray:none"
     x1="249.62024"
     y1="282.2186"
     x2="249.62024"
     y2="272.2186"
     id="line3834" />
  <line
     style="fill:none;stroke:#000000;stroke-width:2.0475;stroke-miterlimit:4;stroke-dasharray:none"
     x1="234.62024"
     y1="297.2186"
     x2="209.62024"
     y2="297.2186"
     id="line3836" />
  <line
     style="fill:none;stroke:#000000;stroke-width:2.0475;stroke-miterlimit:4;stroke-dasharray:none"
     x1="264.62024"
     y1="297.2186"
     x2="289.62024"
     y2="297.2186"
     id="line3838" />
  <line
     style="fill:none;stroke:#000000;stroke-width:2.0475;stroke-miterlimit:4;stroke-dasharray:none"
     x1="249.62024"
     y1="312.2186"
     x2="249.62024"
     y2="337.2186"
     id="line3840" />
  <text
     x="9.3079529"
     y="288.15823"
     style="font-size:12px;font-family:Dialog"
     id="text3842">
    <tspan
       style="font-size:16px"
       id="tspan12274">[ samplesToTransfer == 0 ]</tspan>
  </text>
  <text
     x="267.95633"
     y="288.40427"
     style="font-size:12px;font-family:Dialog"
     id="text3844">
    <tspan
       style="font-size:16px"
       id="tspan12276">[ samplesToTransfer &gt; 0 ]</tspan>
  </text>
  <text
     x="254.62024"
     y="327.2186"
     style="font-size:12px;font-family:Dialog"
     id="text3846">[ ]</text>
  <ellipse
     d="m 296,534 c 0,4.41828 -3.58172,8 -8,8 -4.41828,0 -8,-3.58172 -8,-8 0,-4.41828 3.58172,-8 8,-8 4.41828,0 8,3.58172 8,8 z"
     style="fill:#000000"
     sodipodi:ry="8"
     sodipodi:rx="8"
     sodipodi:cy="534"
     sodipodi:cx="288"
     cx="288"
     cy="534"
     rx="8"
     ry="8"
     id="ellipse3848"
     transform="translate(-190.37978,-48.781407)" />
  <ellipse
     d="m 298,534 c 0,5.52285 -4.47715,10 -10,10 -5.52285,0 -10,-4.47715 -10,-10 0,-5.52285 4.47715,-10 10,-10 5.52285,0 10,4.47715 10,10 z"
     style="fill:none;stroke:#000000;stroke-width:1"
     sodipodi:ry="10"
     sodipodi:rx="10"
     sodipodi:cy="534"
     sodipodi:cx="288"
     cx="288"
     cy="534"
     rx="10"
     ry="10"
     id="ellipse3850"
     transform="translate(-190.37978,-48.781407)" />
  <line
     style="fill:none;stroke:#000000;stroke-width:2.12692881;stroke-miterlimit:4;stroke-dasharray:none"
     x1="97.620232"
     y1="475.13763"
     x2="97.620232"
     y2="469.74216"
     id="line3852" />
  <line
     style="fill:none;stroke:#000000;stroke-width:2.0475;stroke-miterlimit:4;stroke-dasharray:none"
     x1="249.62024"
     y1="207.2186"
     x2="249.62024"
     y2="237.2186"
     id="line3854" />
  <line
     style="fill:none;stroke:#000000;stroke-width:2.0475;stroke-miterlimit:4;stroke-dasharray:none"
     x1="234.62024"
     y1="222.2186"
     x2="264.62024"
     y2="222.2186"
     id="line3856" />
  <rect
     style="fill:none;stroke:#000000;stroke-width:2.095;stroke-miterlimit:4;stroke-dasharray:none"
     x="188.67529"
     y="127.27362"
     width="122.88994"
     height="43.166836"
     id="rect3860" />
  <text
     x="218.04366"
     y="145.15778"
     style="font-size:12px;font-family:Dialog"
     id="text3866">
    <tspan
       style="font-size:16px"
       id="tspan12280">Configure</tspan>
  </text>
  <text
     x="191.62024"
     y="139.2186"
     style="font-size:12px;font-family:Dialog"
     id="text3868">sd</text>
  <line
     style="fill:none;stroke:#000000;stroke-width:2;stroke-miterlimit:4;stroke-dasharray:none"
     x1="188.62024"
     y1="142.2186"
     x2="203.62024"
     y2="142.2186"
     id="line3870" />
  <line
     style="fill:none;stroke:#000000;stroke-width:2;stroke-miterlimit:4;stroke-dasharray:none"
     x1="213.62024"
     y1="127.2186"
     x2="213.62024"
     y2="135.2186"
     id="line3872" />
  <line
     style="fill:none;stroke:#000000;stroke-width:2;stroke-miterlimit:4;stroke-dasharray:none"
     x1="203.62024"
     y1="142.2186"
     x2="213.62024"
     y2="135.2186"
     id="line3874" />
  <rect
     style="fill:none;stroke:#000000;stroke-width:2.095;stroke-miterlimit:4;stroke-dasharray:none"
     x="395.67749"
     y="336.27591"
     width="119.88538"
     height="43.525002"
     id="rect3878" />
  <text
     x="425.85345"
     y="353.9559"
     style="font-size:12px;font-family:Dialog"
     id="text3884">
    <tspan
       style="font-size:16px"
       id="tspan12282">Execute</tspan>
  </text>
  <text
     x="398.62024"
     y="348.2186"
     style="font-size:12px;font-family:Dialog"
     id="text3886">sd</text>
  <line
     style="fill:none;stroke:#000000;stroke-width:2;stroke-miterlimit:4;stroke-dasharray:none"
     x1="395.62024"
     y1="351.2186"
     x2="410.62024"
     y2="351.2186"
     id="line3888" />
  <line
     style="fill:none;stroke:#000000;stroke-width:2;stroke-miterlimit:4;stroke-dasharray:none"
     x1="420.62024"
     y1="336.2186"
     x2="420.62024"
     y2="344.2186"
     id="line3890" />
  <line
     style="fill:none;stroke:#000000;stroke-width:2;stroke-miterlimit:4;stroke-dasharray:none"
     x1="410.62024"
     y1="351.2186"
     x2="420.62024"
     y2="344.2186"
     id="line3892" />
  <rect
     style="fill:none;stroke:#000000;stroke-width:2.095;stroke-miterlimit:4;stroke-dasharray:none"
     x="21.650627"
     y="397.78983"
     width="151.93924"
     height="39.398399"
     id="rect3914" />
  <text
     x="52.31448"
     y="413.84436"
     style="font-size:12px;font-family:Dialog"
     id="text3920">
    <tspan
       style="font-size:16px"
       id="tspan12286">Acknowledge</tspan>
  </text>
  <text
     x="24.620232"
     y="410.2186"
     style="font-size:12px;font-family:Dialog"
     id="text3922">sd</text>
  <line
     style="fill:none;stroke:#000000;stroke-width:2;stroke-miterlimit:4;stroke-dasharray:none"
     x1="21.620232"
     y1="413.2186"
     x2="36.620232"
     y2="413.2186"
     id="line3924" />
  <line
     style="fill:none;stroke:#000000;stroke-width:2;stroke-miterlimit:4;stroke-dasharray:none"
     x1="46.620232"
     y1="398.2186"
     x2="46.620232"
     y2="406.2186"
     id="line3926" />
  <line
     style="fill:none;stroke:#000000;stroke-width:2;stroke-miterlimit:4;stroke-dasharray:none"
     x1="36.620232"
     y1="413.2186"
     x2="46.620232"
     y2="406.2186"
     id="line3928" />
  <line
     style="fill:none;stroke:#000000;stroke-width:2.0475;stroke-miterlimit:4;stroke-dasharray:none"
     x1="249.62024"
     y1="171.2186"
     x2="249.62024"
     y2="207.2186"
     id="line3962" />
  <polygon
     style="fill:#000000"
     points="444,247 440,256 435,247 "
     id="polygon3964"
     transform="translate(-190.37978,-48.781407)" />
  <polygon
     style="fill:none;stroke:#000000;stroke-width:1"
     points="444,247 440,256 435,247 "
     id="polygon3966"
     transform="translate(-190.37978,-48.781407)" />
  <line
     style="fill:none;stroke:#000000;stroke-width:2.0475;stroke-miterlimit:4;stroke-dasharray:none"
     x1="289.62024"
     y1="297.2186"
     x2="455.62024"
     y2="297.2186"
     id="line3968" />
  <line
     style="fill:none;stroke:#000000;stroke-width:2.0475;stroke-miterlimit:4;stroke-dasharray:none"
     x1="455.62024"
     y1="297.2186"
     x2="455.62024"
     y2="335.2186"
     id="line3970" />
  <polygon
     style="fill:#000000"
     points="650,375 646,384 641,375 "
     id="polygon3972"
     transform="translate(-190.37978,-48.781407)" />
  <polygon
     style="fill:none;stroke:#000000;stroke-width:1"
     points="650,375 646,384 641,375 "
     id="polygon3974"
     transform="translate(-190.37978,-48.781407)" />
  <text
     x="66.499184"
     y="431.55377"
     style="font-size:12px;font-family:Dialog"
     id="text3920-0">
    <tspan
       style="font-size:16px"
       id="tspan12288">Transfer</tspan>
  </text>
  <text
     x="423.66718"
     y="372.44797"
     style="font-size:12px;font-family:Dialog"
     id="text3902-9-1">
    <tspan
       style="font-size:16px"
       id="tspan12284">Transfer</tspan>
  </text>
  <text
     x="222.729"
     y="163.99225"
     style="font-size:12px;font-family:Dialog"
     id="text3902-9-8-1">
    <tspan
       style="font-size:16px"
       id="tspan12278">Transfer</tspan>
  </text>
  <polygon
     style="fill:#000000"
     points="650,375 646,384 641,375 "
     id="polygon3972-0"
     transform="translate(-395.94807,-256.98775)" />
  <polygon
     style="fill:none;stroke:#000000;stroke-width:1"
     points="650,375 646,384 641,375 "
     id="polygon3974-8"
     transform="translate(-395.94807,-256.98775)" />
</svg>
