<?xml version="1.0" encoding="UTF-8" standalone="no"?>
<svg
   xmlns:dc="http://purl.org/dc/elements/1.1/"
   xmlns:cc="http://creativecommons.org/ns#"
   xmlns:rdf="http://www.w3.org/1999/02/22-rdf-syntax-ns#"
   xmlns:svg="http://www.w3.org/2000/svg"
   xmlns="http://www.w3.org/2000/svg"
   xmlns:sodipodi="http://sodipodi.sourceforge.net/DTD/sodipodi-0.dtd"
   xmlns:inkscape="http://www.inkscape.org/namespaces/inkscape"
   version="1.1"
   id="svg7052"
   inkscape:version="0.48.4 r9939"
   width="364.09"
   height="302.35999"
   sodipodi:docname="CPforParallelDMA.svg">
  <metadata
     id="metadata7148">
    <rdf:RDF>
      <cc:Work
         rdf:about="">
        <dc:format>image/svg+xml</dc:format>
        <dc:type
           rdf:resource="http://purl.org/dc/dcmitype/StillImage" />
      </cc:Work>
    </rdf:RDF>
  </metadata>
  <defs
     id="defs7146" />
  <sodipodi:namedview
     pagecolor="#ffffff"
     bordercolor="#666666"
     borderopacity="1"
     objecttolerance="10"
     gridtolerance="10"
     guidetolerance="10"
     inkscape:pageopacity="0"
     inkscape:pageshadow="2"
     inkscape:window-width="1366"
     inkscape:window-height="709"
     id="namedview7144"
     showgrid="false"
     inkscape:zoom="0.48557427"
     inkscape:cx="372.04724"
     inkscape:cy="526.18109"
     inkscape:window-x="0"
     inkscape:window-y="27"
     inkscape:window-maximized="1"
     inkscape:current-layer="svg7052" />
  <line
     x1="281.91031"
     y1="172.73445"
     x2="231.91031"
     y2="219.73445"
     id="line7054"
     style="fill:none;stroke:#000000;stroke-width:1" />
  <polygon
     points="341,241 348,248 339,251 "
     id="polygon7056"
     transform="translate(-107.08969,-31.265506)"
     style="fill:#000000" />
  <polygon
     points="341,241 348,248 339,251 "
     id="polygon7058"
     transform="translate(-107.08969,-31.265506)"
     style="fill:none;stroke:#000000;stroke-width:1" />
  <line
     x1="95.910309"
     y1="173.73445"
     x2="132.91031"
     y2="219.73445"
     id="line7060"
     style="fill:none;stroke:#000000;stroke-width:1" />
  <polygon
     points="230,247 238,241 240,251 "
     id="polygon7062"
     transform="translate(-107.08969,-31.265506)"
     style="fill:#000000" />
  <polygon
     points="230,247 238,241 240,251 "
     id="polygon7064"
     transform="translate(-107.08969,-31.265506)"
     style="fill:none;stroke:#000000;stroke-width:1" />
  <line
     x1="133.91031"
     y1="85.734451"
     x2="95.910309"
     y2="128.73445"
     id="line7066"
     style="fill:none;stroke:#000000;stroke-width:1" />
  <polygon
     points="204,150 212,156 203,160 "
     id="polygon7068"
     transform="translate(-107.08969,-31.265506)"
     style="fill:#000000" />
  <polygon
     points="204,150 212,156 203,160 "
     id="polygon7070"
     transform="translate(-107.08969,-31.265506)"
     style="fill:none;stroke:#000000;stroke-width:1" />
  <line
     x1="183.91031"
     y1="40.734451"
     x2="183.91031"
     y2="80.734451"
     id="line7072"
     style="fill:none;stroke:#000000;stroke-width:1" />
  <polygon
     points="286,103 295,103 291,112 "
     id="polygon7074"
     transform="translate(-107.08969,-31.265506)"
     style="fill:#000000" />
  <polygon
     points="286,103 295,103 291,112 "
     id="polygon7076"
     transform="translate(-107.08969,-31.265506)"
     style="fill:none;stroke:#000000;stroke-width:1" />
  <ellipse
     cx="291"
     cy="59"
     rx="7"
     ry="7"
     id="ellipse7078"
     sodipodi:cx="291"
     sodipodi:cy="59"
     sodipodi:rx="7"
     sodipodi:ry="7"
     transform="translate(-107.08969,-31.265506)"
     style="fill:#000000" />
  <line
     x1="183.91031"
     y1="35.734451"
     x2="183.91031"
     y2="40.734451"
     id="line7080"
     style="fill:none;stroke:#000000;stroke-width:1" />
  <rect
     x="108.91031"
     y="80.734451"
     width="150"
     height="5"
     id="rect7082"
     style="fill:none;stroke:#000000;stroke-width:1" />
  <rect
     x="108.91031"
     y="80.734451"
     width="149"
     height="4"
     id="rect7084"
     style="fill:#000000" />
  <rect
     x="35.910305"
     y="134.73445"
     width="123"
     height="35"
     id="rect7086"
     style="fill:none;stroke:#d8bbf9;stroke-width:1" />
  <rect
     x="34.910305"
     y="133.73445"
     width="123"
     height="35"
     id="rect7088"
     style="fill:none;stroke:#000000;stroke-width:1" />
  <line
     x1="95.910309"
     y1="133.73445"
     x2="95.910309"
     y2="128.73445"
     id="line7090"
     style="fill:none;stroke:#000000;stroke-width:1" />
  <line
     x1="95.910309"
     y1="168.73445"
     x2="95.910309"
     y2="173.73445"
     id="line7092"
     style="fill:none;stroke:#000000;stroke-width:1" />
  <text
     x="35.910305"
     y="163.73445"
     style="font-size:12px;font-family:Dialog"
     id="text7094">DMATransfer1</text>
  <text
     x="37.910305"
     y="145.73445"
     style="font-size:12px;font-family:Dialog"
     id="text7096">iod</text>
  <line
     x1="34.910305"
     y1="148.73445"
     x2="49.910305"
     y2="148.73445"
     id="line7098"
     style="fill:none;stroke:#000000;stroke-width:1" />
  <line
     x1="59.910305"
     y1="133.73445"
     x2="59.910305"
     y2="141.73445"
     id="line7100"
     style="fill:none;stroke:#000000;stroke-width:1" />
  <line
     x1="49.910305"
     y1="148.73445"
     x2="59.910305"
     y2="141.73445"
     id="line7102"
     style="fill:none;stroke:#000000;stroke-width:1" />
  <rect
     x="221.91031"
     y="133.73445"
     width="123"
     height="35"
     id="rect7104"
     style="fill:none;stroke:#d8bbf9;stroke-width:1" />
  <rect
     x="220.91031"
     y="132.73445"
     width="123"
     height="35"
     id="rect7106"
     style="fill:none;stroke:#000000;stroke-width:1" />
  <line
     x1="281.91031"
     y1="132.73445"
     x2="281.91031"
     y2="127.73446"
     id="line7108"
     style="fill:none;stroke:#000000;stroke-width:1" />
  <line
     x1="281.91031"
     y1="167.73445"
     x2="281.91031"
     y2="172.73445"
     id="line7110"
     style="fill:none;stroke:#000000;stroke-width:1" />
  <text
     x="221.91031"
     y="162.73445"
     style="font-size:12px;font-family:Dialog"
     id="text7112">DMATransfer2</text>
  <text
     x="223.91031"
     y="144.73445"
     style="font-size:12px;font-family:Dialog"
     id="text7114">iod</text>
  <line
     x1="220.91031"
     y1="147.73445"
     x2="235.91031"
     y2="147.73445"
     id="line7116"
     style="fill:none;stroke:#000000;stroke-width:1" />
  <line
     x1="245.91031"
     y1="132.73445"
     x2="245.91031"
     y2="140.73445"
     id="line7118"
     style="fill:none;stroke:#000000;stroke-width:1" />
  <line
     x1="235.91031"
     y1="147.73445"
     x2="245.91031"
     y2="140.73445"
     id="line7120"
     style="fill:none;stroke:#000000;stroke-width:1" />
  <line
     x1="232.91031"
     y1="85.734451"
     x2="281.91031"
     y2="127.73446"
     id="line7122"
     style="fill:none;stroke:#000000;stroke-width:1" />
  <polygon
     points="379,157 385,149 389,159 "
     id="polygon7124"
     transform="translate(-107.08969,-31.265506)"
     style="fill:#000000" />
  <polygon
     points="379,157 385,149 389,159 "
     id="polygon7126"
     transform="translate(-107.08969,-31.265506)"
     style="fill:none;stroke:#000000;stroke-width:1" />
  <rect
     x="107.91031"
     y="219.73445"
     width="150"
     height="5"
     id="rect7128"
     style="fill:none;stroke:#000000;stroke-width:1" />
  <rect
     x="107.91031"
     y="219.73445"
     width="149"
     height="4"
     id="rect7130"
     style="fill:#000000" />
  <ellipse
     cx="290"
     cy="314"
     rx="8"
     ry="8"
     id="ellipse7132"
     sodipodi:cx="290"
     sodipodi:cy="314"
     sodipodi:rx="8"
     sodipodi:ry="8"
     transform="translate(-107.08969,-31.265506)"
     style="fill:#000000" />
  <ellipse
     cx="290"
     cy="314"
     rx="10"
     ry="10"
     id="ellipse7134"
     sodipodi:cx="290"
     sodipodi:cy="314"
     sodipodi:rx="10"
     sodipodi:ry="10"
     transform="translate(-107.08969,-31.265506)"
     style="fill:none;stroke:#000000;stroke-width:1" />
  <line
     x1="182.91031"
     y1="272.73438"
     x2="182.91031"
     y2="267.73438"
     id="line7136"
     style="fill:none;stroke:#000000;stroke-width:1" />
  <line
     x1="182.91031"
     y1="224.73445"
     x2="182.91031"
     y2="267.73438"
     id="line7138"
     style="fill:none;stroke:#000000;stroke-width:1" />
  <polygon
     points="285,290 294,290 290,299 "
     id="polygon7140"
     transform="translate(-107.08969,-31.265506)"
     style="fill:#000000" />
  <polygon
     points="285,290 294,290 290,299 "
     id="polygon7142"
     transform="translate(-107.08969,-31.265506)"
     style="fill:none;stroke:#000000;stroke-width:1" />
</svg>
