<?xml version="1.0" encoding="UTF-8" standalone="no"?>
<svg
   xmlns:dc="http://purl.org/dc/elements/1.1/"
   xmlns:cc="http://creativecommons.org/ns#"
   xmlns:rdf="http://www.w3.org/1999/02/22-rdf-syntax-ns#"
   xmlns:svg="http://www.w3.org/2000/svg"
   xmlns="http://www.w3.org/2000/svg"
   xmlns:sodipodi="http://sodipodi.sourceforge.net/DTD/sodipodi-0.dtd"
   xmlns:inkscape="http://www.inkscape.org/namespaces/inkscape"
   version="1.1"
   id="svg2"
   inkscape:version="0.48.4 r9939"
   width="680.09003"
   height="250.36"
   sodipodi:docname="CPL1_date.svg">
  <metadata
     id="metadata72">
    <rdf:RDF>
      <cc:Work
         rdf:about="">
        <dc:format>image/svg+xml</dc:format>
        <dc:type
           rdf:resource="http://purl.org/dc/dcmitype/StillImage" />
        <dc:title />
      </cc:Work>
    </rdf:RDF>
  </metadata>
  <defs
     id="defs70" />
  <sodipodi:namedview
     pagecolor="#ffffff"
     bordercolor="#666666"
     borderopacity="1"
     objecttolerance="10"
     gridtolerance="10"
     guidetolerance="10"
     inkscape:pageopacity="0"
     inkscape:pageshadow="2"
     inkscape:window-width="1366"
     inkscape:window-height="709"
     id="namedview68"
     showgrid="false"
     inkscape:zoom="3.5881183"
     inkscape:cx="453.05847"
     inkscape:cy="63.236806"
     inkscape:window-x="0"
     inkscape:window-y="27"
     inkscape:window-maximized="1"
     inkscape:current-layer="svg2" />
  <text
     x="28.885513"
     y="15.993651"
     style="font-size:12px;font-family:Dialog"
     id="text4">SRCstorage</text>
  <line
     x1="4.7518501"
     y1="34.993652"
     x2="123.44263"
     y2="34.993652"
     id="line6"
     style="fill:none;stroke:#000000;stroke-width:1.28393269" />
  <line
     x1="64.885513"
     y1="36.993652"
     x2="64.885513"
     y2="536.99353"
     id="line8"
     style="fill:none;stroke:#000000;stroke-width:1" />
  <text
     x="146.88551"
     y="31.993652"
     style="font-size:12px;font-family:Dialog"
     id="text10">Controller</text>
  <line
     x1="146.88551"
     y1="34.993652"
     x2="206.88551"
     y2="34.993652"
     id="line12"
     style="fill:none;stroke:#000000;stroke-width:1" />
  <line
     x1="176.88551"
     y1="36.993652"
     x2="176.88551"
     y2="527.99353"
     id="line14"
     style="fill:none;stroke:#000000;stroke-width:1" />
  <text
     x="338.8855"
     y="31.993652"
     style="font-size:12px;font-family:Dialog"
     id="text16">Transfer</text>
  <line
     x1="338.8855"
     y1="34.993652"
     x2="390.8855"
     y2="34.993652"
     id="line18"
     style="fill:none;stroke:#000000;stroke-width:1" />
  <line
     x1="364.8855"
     y1="36.993652"
     x2="364.8855"
     y2="533.99353"
     id="line20"
     style="fill:none;stroke:#000000;stroke-width:1" />
  <text
     x="456.14709"
     y="18.083984"
     style="font-size:12px;font-family:Dialog"
     id="text22">DSTstorage1</text>
  <line
     x1="456.7536"
     y1="37.223389"
     x2="528.7536"
     y2="37.223389"
     id="line24"
     style="fill:none;stroke:#000000;stroke-width:1" />
  <line
     x1="492.23718"
     y1="39.358643"
     x2="492.23718"
     y2="539.35828"
     id="line26"
     style="fill:none;stroke:#000000;stroke-width:1" />
  <line
     x1="176.88551"
     y1="66.993652"
     x2="364.8855"
     y2="66.993652"
     id="line28"
     style="fill:none;stroke:#000000;stroke-width:1" />
  <line
     x1="364.8855"
     y1="66.993652"
     x2="355.8855"
     y2="70.993652"
     id="line30"
     style="fill:none;stroke:#000000;stroke-width:1" />
  <line
     x1="364.8855"
     y1="66.993652"
     x2="355.8855"
     y2="61.993652"
     id="line32"
     style="fill:none;stroke:#000000;stroke-width:1" />
  <text
     x="210.88551"
     y="61.993652"
     style="font-size:12px;font-family:Dialog"
     id="text34">TransferRequest(...)</text>
  <line
     x1="364.92087"
     y1="88.99366"
     x2="65.703339"
     y2="88.99366"
     id="line36"
     style="fill:none;stroke:#000000;stroke-width:0.9639746" />
  <polygon
     points="220,119 212,115 220,110 "
     id="polygon38"
     transform="translate(-147.11449,-26.006204)"
     style="fill:#000000" />
  <polygon
     points="212,115 220,110 220,119 "
     id="polygon40"
     transform="translate(-147.39319,-26.006204)"
     style="fill:none;stroke:#000000;stroke-width:1" />
  <text
     x="233.00621"
     y="84.781982"
     style="font-size:12px;font-family:Dialog"
     id="text42">Transfer(...)</text>
  <line
     x1="65.146805"
     y1="110.99365"
     x2="364.92001"
     y2="110.99365"
     id="line44"
     style="fill:none;stroke:#000000;stroke-width:0.96486926" />
  <polygon
     points="525,149 525,140 534,145 "
     id="polygon46"
     transform="translate(-169.11449,-34.006204)"
     style="fill:#000000" />
  <polygon
     points="525,149 525,140 534,145 "
     id="polygon48"
     transform="translate(-169.11449,-34.006204)"
     style="fill:none;stroke:#000000;stroke-width:1" />
  <text
     x="233.25377"
     y="106.41723"
     style="font-size:12px;font-family:Dialog"
     id="text50">Transfer(...)</text>
  <line
     x1="364.80707"
     y1="124.99365"
     x2="492.11859"
     y2="124.99365"
     id="line52"
     style="fill:none;stroke:#000000;stroke-width:0.91821712" />
  <polygon
     points="685,175 676,179 676,170 "
     id="polygon54"
     transform="translate(-193.11449,-50.006204)"
     style="fill:#000000" />
  <polygon
     points="685,175 676,179 676,170 "
     id="polygon56"
     transform="translate(-193.52454,-49.924004)"
     style="fill:none;stroke:#000000;stroke-width:1" />
  <text
     x="391.8855"
     y="119.99365"
     style="font-size:12px;font-family:Dialog"
     id="text58">Transfer(...)</text>
  <line
     x1="364.8855"
     y1="138.99365"
     x2="176.88551"
     y2="138.99365"
     id="line60"
     style="fill:none;stroke:#000000;stroke-width:1" />
  <polygon
     points="354,209 346,205 354,200 "
     id="polygon62"
     transform="translate(-169.11449,-66.006204)"
     style="fill:#000000" />
  <polygon
     points="346,205 354,200 354,209 "
     id="polygon64"
     transform="translate(-169.11449,-66.006204)"
     style="fill:none;stroke:#000000;stroke-width:1" />
  <text
     x="217.88551"
     y="133.99365"
     style="font-size:12px;font-family:Dialog"
     id="text66">TransferDone(...)</text>
  <line
     x1="602.31451"
     y1="39.128906"
     x2="602.31451"
     y2="539.12878"
     id="line8-0"
     style="fill:none;stroke:#000000;stroke-width:1" />
  <text
     x="564.28265"
     y="18.723389"
     style="font-size:12px;font-family:Dialog"
     id="text22-4">DSTstorage2</text>
  <line
     x1="555.48474"
     y1="37.862793"
     x2="651.60223"
     y2="37.862793"
     id="line24-6"
     style="fill:none;stroke:#000000;stroke-width:1.15540636" />
  <line
     x1="177.1579"
     y1="159.98755"
     x2="365.15787"
     y2="159.98755"
     id="line28-9"
     style="fill:none;stroke:#000000;stroke-width:1" />
  <text
     x="217.1579"
     y="154.98755"
     style="font-size:12px;font-family:Dialog"
     id="text34-6">CopyRequest(...)</text>
  <line
     x1="364.05414"
     y1="159.74072"
     x2="355.05414"
     y2="154.74072"
     id="line32-0"
     style="fill:none;stroke:#000000;stroke-width:1" />
  <line
     x1="364.11816"
     y1="160.42505"
     x2="355.11816"
     y2="164.42505"
     id="line30-3"
     style="fill:none;stroke:#000000;stroke-width:1" />
  <line
     x1="365.55457"
     y1="176.26514"
     x2="492.86609"
     y2="176.26514"
     id="line52-6"
     style="fill:none;stroke:#000000;stroke-width:0.91821712" />
  <polygon
     points="676,170 685,175 676,179 "
     id="polygon56-6"
     transform="translate(-192.36699,1.2651946)"
     style="fill:none;stroke:#000000;stroke-width:1" />
  <text
     x="400.633"
     y="171.26514"
     style="font-size:12px;font-family:Dialog"
     id="text58-3">Copy(...)</text>
  <polygon
     points="676,170 685,175 676,179 "
     id="polygon54-1-0"
     transform="translate(-192.43424,1.1530946)"
     style="fill:#000000" />
  <line
     x1="365.21072"
     y1="197.80151"
     x2="492.52222"
     y2="197.80151"
     id="line52-6-8"
     style="fill:none;stroke:#000000;stroke-width:0.91821712" />
  <text
     x="400.62741"
     y="192.52148"
     style="font-size:12px;font-family:Dialog"
     id="text58-3-1">Copy(...)</text>
  <polygon
     points="220,119 212,115 220,110 "
     id="polygon40-0"
     transform="translate(-34.616963,125.38476)"
     style="fill:none;stroke:#000000;stroke-width:1" />
  <polygon
     points="220,119 212,115 220,110 "
     id="polygon38-5"
     transform="translate(-34.895665,125.10616)"
     style="fill:#000000" />
  <polygon
     points="220,110 220,119 212,115 "
     id="polygon40-0-2"
     transform="translate(152.99564,83.022793)"
     style="fill:none;stroke:#000000;stroke-width:1" />
  <polygon
     points="220,119 212,115 220,110 "
     id="polygon38-5-5"
     transform="translate(152.66783,82.744093)"
     style="fill:#000000" />
  <line
     x1="365.62613"
     y1="220.65479"
     x2="601.91382"
     y2="220.65479"
     id="line52-6-8-7"
     style="fill:none;stroke:#000000;stroke-width:1.25092721" />
  <polygon
     points="676,170 685,175 676,179 "
     id="polygon56-2"
     transform="translate(-82.9083,45.563096)"
     style="fill:none;stroke:#000000;stroke-width:1" />
  <polygon
     points="676,179 676,170 685,175 "
     id="polygon54-1-9"
     transform="translate(-82.676509,45.039896)"
     style="fill:#000000" />
  <text
     x="500.97235"
     y="214.58765"
     style="font-size:12px;font-family:Dialog"
     id="text58-3-1-7">Copy(...)</text>
  <text
     x="227.2124"
     y="233.57127"
     style="font-size:12px;font-family:Dialog"
     id="text58-3-1-0">CopyDone(...)</text>
  <line
     x1="176.99232"
     y1="240.55638"
     x2="364.99231"
     y2="240.55638"
     id="line28-9-4"
     style="fill:none;stroke:#000000;stroke-width:1" />
  <text
     x="7.6325874"
     y="30.7384"
     style="font-size:12px;font-family:Dialog"
     id="text4-4">(ADAIFEMmemory)</text>
  <text
     x="459.02338"
     y="33.394028"
     style="font-size:12px;font-family:Dialog"
     id="text4-3">(FEPbank1)</text>
  <text
     x="559.51562"
     y="32.148998"
     style="font-size:12px;font-family:Dialog"
     id="text4-2">(MainMemory)</text>
</svg>
