<?xml version="1.0" encoding="UTF-8" standalone="no"?>
<svg
   xmlns:dc="http://purl.org/dc/elements/1.1/"
   xmlns:cc="http://creativecommons.org/ns#"
   xmlns:rdf="http://www.w3.org/1999/02/22-rdf-syntax-ns#"
   xmlns:svg="http://www.w3.org/2000/svg"
   xmlns="http://www.w3.org/2000/svg"
   xmlns:sodipodi="http://sodipodi.sourceforge.net/DTD/sodipodi-0.dtd"
   xmlns:inkscape="http://www.inkscape.org/namespaces/inkscape"
   version="1.1"
   id="svg2"
   inkscape:version="0.48.4 r9939"
   width="772.35999"
   height="380.09"
   sodipodi:docname="WPD3.svg">
  <metadata
     id="metadata264">
    <rdf:RDF>
      <cc:Work
         rdf:about="">
        <dc:format>image/svg+xml</dc:format>
        <dc:type
           rdf:resource="http://purl.org/dc/dcmitype/StillImage" />
      </cc:Work>
    </rdf:RDF>
  </metadata>
  <defs
     id="defs262" />
  <sodipodi:namedview
     pagecolor="#ffffff"
     bordercolor="#666666"
     borderopacity="1"
     objecttolerance="10"
     gridtolerance="10"
     guidetolerance="10"
     inkscape:pageopacity="0"
     inkscape:pageshadow="2"
     inkscape:window-width="1366"
     inkscape:window-height="709"
     id="namedview260"
     showgrid="false"
     width="752.36px"
     inkscape:zoom="1.2685914"
     inkscape:cx="427.47496"
     inkscape:cy="174.39392"
     inkscape:window-x="0"
     inkscape:window-y="27"
     inkscape:window-maximized="1"
     inkscape:current-layer="svg2" />
  <rect
     x="238.66885"
     y="208.51596"
     width="86"
     height="120"
     id="rect4"
     style="fill:none;stroke:#000000;stroke-width:1" />
  <rect
     x="239.66885"
     y="209.51596"
     width="84"
     height="118"
     id="rect6"
     style="fill:#c9f3bc" />
  <text
     x="254.66885"
     y="237.51596"
     style="font-size:14px;font-family:Dialog"
     id="text8">
    <tspan
       style="font-size:18px"
       id="tspan3255">FORK</tspan>
  </text>
  <rect
     x="311.66885"
     y="232.51596"
     width="26"
     height="26"
     id="rect10"
     style="fill:none;stroke:#000000;stroke-width:1" />
  <rect
     x="312.66885"
     y="233.51596"
     width="24"
     height="24"
     id="rect12"
     style="fill:#68e5ff" />
  <polygon
     points="415,386 435,376 415,366 "
     id="polygon14"
     style="fill:none;stroke:#000000;stroke-width:1"
     transform="translate(-100.33114,-130.48402)" />
  <polygon
     points="415,386 435,376 415,366 "
     id="polygon16"
     style="fill:#000000"
     transform="translate(-100.33114,-130.48402)" />
  <rect
     x="311.66885"
     y="290.51596"
     width="26"
     height="26"
     id="rect20"
     style="fill:none;stroke:#000000;stroke-width:1" />
  <rect
     x="312.66885"
     y="291.51596"
     width="24"
     height="24"
     id="rect22"
     style="fill:#68e5ff" />
  <polygon
     points="415,444 435,434 415,424 "
     id="polygon24"
     style="fill:none;stroke:#000000;stroke-width:1"
     transform="translate(-100.33114,-130.48402)" />
  <polygon
     points="415,444 435,434 415,424 "
     id="polygon26"
     style="fill:#000000"
     transform="translate(-100.33114,-130.48402)" />
  <rect
     x="225.66885"
     y="258.51596"
     width="26"
     height="26"
     id="rect30"
     style="fill:none;stroke:#000000;stroke-width:1" />
  <rect
     x="226.66885"
     y="259.51596"
     width="24"
     height="24"
     id="rect32"
     style="fill:#68e5ff" />
  <polygon
     points="329,412 349,402 329,392 "
     id="polygon34"
     style="fill:none;stroke:#000000;stroke-width:1"
     transform="translate(-100.33114,-130.48402)" />
  <polygon
     points="329,412 349,402 329,392 "
     id="polygon36"
     style="fill:#000000"
     transform="translate(-100.33114,-130.48402)" />
  <rect
     x="56.668861"
     y="219.51596"
     width="108"
     height="93"
     id="rect40"
     style="fill:none;stroke:#000000;stroke-width:1" />
  <rect
     x="57.668861"
     y="220.51596"
     width="106"
     height="91"
     id="rect42"
     style="fill:#c9f3bc" />
  <text
     x="92.668861"
     y="248.51596"
     style="font-size:14px;font-family:Dialog"
     id="text44">
    <tspan
       style="font-size:18px"
       id="tspan3253">CWA</tspan>
  </text>
  <rect
     x="43.668861"
     y="271.51596"
     width="26"
     height="26"
     id="rect46"
     style="fill:none;stroke:#000000;stroke-width:1" />
  <rect
     x="44.668861"
     y="272.51596"
     width="24"
     height="24"
     id="rect48"
     style="fill:#68e5ff" />
  <polygon
     points="147,425 167,415 147,405 "
     id="polygon50"
     style="fill:none;stroke:#000000;stroke-width:1"
     transform="translate(-100.33114,-130.48402)" />
  <polygon
     points="147,425 167,415 147,405 "
     id="polygon52"
     style="fill:#000000"
     transform="translate(-100.33114,-130.48402)" />
  <rect
     x="43.668861"
     y="232.51596"
     width="26"
     height="26"
     id="rect56"
     style="fill:none;stroke:#000000;stroke-width:1" />
  <rect
     x="44.668861"
     y="233.51596"
     width="24"
     height="24"
     id="rect58"
     style="fill:#68e5ff" />
  <polygon
     points="147,386 167,376 147,366 "
     id="polygon60"
     style="fill:none;stroke:#000000;stroke-width:1"
     transform="translate(-100.33114,-130.48402)" />
  <polygon
     points="147,386 167,376 147,366 "
     id="polygon62"
     style="fill:#000000"
     transform="translate(-100.33114,-130.48402)" />
  <rect
     x="151.66885"
     y="258.51596"
     width="26"
     height="26"
     id="rect66"
     style="fill:none;stroke:#000000;stroke-width:1" />
  <rect
     x="152.66885"
     y="259.51596"
     width="24"
     height="24"
     id="rect68"
     style="fill:#68e5ff" />
  <polygon
     points="255,412 275,402 255,392 "
     id="polygon70"
     style="fill:none;stroke:#000000;stroke-width:1"
     transform="translate(-100.33114,-130.48402)" />
  <polygon
     points="255,412 275,402 255,392 "
     id="polygon72"
     style="fill:#000000"
     transform="translate(-100.33114,-130.48402)" />
  <rect
     x="513.66888"
     y="56.515965"
     width="108"
     height="93"
     id="rect76"
     style="fill:none;stroke:#000000;stroke-width:1" />
  <rect
     x="514.66888"
     y="57.515965"
     width="106"
     height="91"
     id="rect78"
     style="fill:#c9f3bc" />
  <text
     x="542.5744"
     y="85.515961"
     style="font-size:14px;font-family:Dialog"
     id="text80">
    <tspan
       style="font-size:18px"
       id="tspan3251">CWM</tspan>
  </text>
  <rect
     x="500.66885"
     y="101.51596"
     width="26"
     height="26"
     id="rect82"
     style="fill:none;stroke:#000000;stroke-width:1" />
  <rect
     x="501.66885"
     y="102.51596"
     width="24"
     height="24"
     id="rect84"
     style="fill:#68e5ff" />
  <polygon
     points="604,255 624,245 604,235 "
     id="polygon86"
     style="fill:none;stroke:#000000;stroke-width:1"
     transform="translate(-100.33114,-130.48402)" />
  <polygon
     points="604,255 624,245 604,235 "
     id="polygon88"
     style="fill:#000000"
     transform="translate(-100.33114,-130.48402)" />
  <rect
     x="608.66888"
     y="111.51596"
     width="26"
     height="26"
     id="rect92"
     style="fill:none;stroke:#000000;stroke-width:1" />
  <rect
     x="609.66888"
     y="112.51596"
     width="24"
     height="24"
     id="rect94"
     style="fill:#68e5ff" />
  <polygon
     points="712,265 732,255 712,245 "
     id="polygon96"
     style="fill:none;stroke:#000000;stroke-width:1"
     transform="translate(-100.33114,-130.48402)" />
  <polygon
     points="712,265 732,255 712,245 "
     id="polygon98"
     style="fill:#000000"
     transform="translate(-100.33114,-130.48402)" />
  <rect
     x="270.66885"
     y="55.515965"
     width="108"
     height="93"
     id="rect102"
     style="fill:none;stroke:#000000;stroke-width:1" />
  <rect
     x="271.66885"
     y="56.515965"
     width="106"
     height="91"
     id="rect104"
     style="fill:#c9f3bc" />
  <text
     x="306.66885"
     y="93.187012"
     style="font-size:14px;font-family:Dialog"
     id="text106">
    <tspan
       style="font-size:18px"
       id="tspan3249">FFT</tspan>
  </text>
  <rect
     x="309.66885"
     y="42.515972"
     width="26"
     height="26"
     id="rect108"
     style="fill:none;stroke:#000000;stroke-width:1" />
  <rect
     x="310.66885"
     y="43.515972"
     width="24"
     height="24"
     id="rect110"
     style="fill:#68e5ff" />
  <polygon
     points="433,196 423,176 413,196 "
     id="polygon112"
     style="fill:none;stroke:#000000;stroke-width:1"
     transform="translate(-100.33114,-130.48402)" />
  <polygon
     points="433,196 423,176 413,196 "
     id="polygon114"
     style="fill:#000000"
     transform="translate(-100.33114,-130.48402)" />
  <rect
     x="257.66885"
     y="99.515961"
     width="26"
     height="26"
     id="rect118"
     style="fill:none;stroke:#000000;stroke-width:1" />
  <rect
     x="258.66885"
     y="100.51596"
     width="24"
     height="24"
     id="rect120"
     style="fill:#68e5ff" />
  <polygon
     points="361,253 381,243 361,233 "
     id="polygon122"
     style="fill:none;stroke:#000000;stroke-width:1"
     transform="translate(-100.33114,-130.48402)" />
  <polygon
     points="361,253 381,243 361,233 "
     id="polygon124"
     style="fill:#000000"
     transform="translate(-100.33114,-130.48402)" />
  <rect
     x="365.66885"
     y="101.51596"
     width="26"
     height="26"
     id="rect128"
     style="fill:none;stroke:#000000;stroke-width:1" />
  <rect
     x="366.66885"
     y="102.51596"
     width="24"
     height="24"
     id="rect130"
     style="fill:#68e5ff" />
  <polygon
     points="469,255 489,245 469,235 "
     id="polygon132"
     style="fill:none;stroke:#000000;stroke-width:1"
     transform="translate(-100.33114,-130.48402)" />
  <polygon
     points="469,255 489,245 469,235 "
     id="polygon134"
     style="fill:#000000"
     transform="translate(-100.33114,-130.48402)" />
  <rect
     x="405.66885"
     y="197.51596"
     width="108"
     height="93"
     id="rect138"
     style="fill:none;stroke:#000000;stroke-width:1" />
  <rect
     x="406.66885"
     y="198.51596"
     width="106"
     height="91"
     id="rect140"
     style="fill:#c9f3bc" />
  <text
     x="441.66885"
     y="226.51596"
     style="font-size:14px;font-family:Dialog"
     id="text142">
    <tspan
       style="font-size:18px"
       id="tspan3257">SUM</tspan>
  </text>
  <rect
     x="392.66885"
     y="232.51596"
     width="26"
     height="26"
     id="rect144"
     style="fill:none;stroke:#000000;stroke-width:1" />
  <rect
     x="393.66885"
     y="233.51596"
     width="24"
     height="24"
     id="rect146"
     style="fill:#68e5ff" />
  <polygon
     points="496,386 516,376 496,366 "
     id="polygon148"
     style="fill:none;stroke:#000000;stroke-width:1"
     transform="translate(-100.33114,-130.48402)" />
  <polygon
     points="496,386 516,376 496,366 "
     id="polygon150"
     style="fill:#000000"
     transform="translate(-100.33114,-130.48402)" />
  <rect
     x="500.66885"
     y="233.51596"
     width="26"
     height="26"
     id="rect154"
     style="fill:none;stroke:#000000;stroke-width:1" />
  <rect
     x="501.66885"
     y="234.51596"
     width="24"
     height="24"
     id="rect156"
     style="fill:#68e5ff" />
  <polygon
     points="604,387 624,377 604,367 "
     id="polygon158"
     style="fill:none;stroke:#000000;stroke-width:1"
     transform="translate(-100.33114,-130.48402)" />
  <polygon
     points="604,387 624,377 604,367 "
     id="polygon160"
     style="fill:#000000"
     transform="translate(-100.33114,-130.48402)" />
  <rect
     x="34.668861"
     y="55.515965"
     width="108"
     height="93"
     id="rect164"
     style="fill:none;stroke:#000000;stroke-width:1" />
  <rect
     x="35.668861"
     y="56.515965"
     width="106"
     height="91"
     id="rect166"
     style="fill:#c9f3bc" />
  <text
     x="70.668861"
     y="84.515961"
     style="font-size:14px;font-family:Dialog"
     id="text168">
    <tspan
       style="font-size:18px"
       id="tspan3247">SRC</tspan>
  </text>
  <rect
     x="129.66885"
     y="99.515961"
     width="26"
     height="26"
     id="rect170"
     style="fill:none;stroke:#000000;stroke-width:1" />
  <rect
     x="130.66885"
     y="100.51596"
     width="24"
     height="24"
     id="rect172"
     style="fill:#68e5ff" />
  <polygon
     points="233,253 253,243 233,233 "
     id="polygon174"
     style="fill:none;stroke:#000000;stroke-width:1"
     transform="translate(-100.33114,-130.48402)" />
  <polygon
     points="233,253 253,243 233,233 "
     id="polygon176"
     style="fill:#000000"
     transform="translate(-100.33114,-130.48402)" />
  <rect
     x="588.66888"
     y="197.51596"
     width="108"
     height="93"
     id="rect180"
     style="fill:none;stroke:#000000;stroke-width:1" />
  <rect
     x="589.66888"
     y="198.51596"
     width="106"
     height="91"
     id="rect182"
     style="fill:#c9f3bc" />
  <text
     x="624.66888"
     y="226.51596"
     style="font-size:14px;font-family:Dialog"
     id="text184">
    <tspan
       style="font-size:18px"
       id="tspan3259">SINK</tspan>
  </text>
  <rect
     x="683.66888"
     y="232.51596"
     width="26"
     height="26"
     id="rect186"
     style="fill:none;stroke:#000000;stroke-width:1" />
  <rect
     x="684.66888"
     y="233.51596"
     width="24"
     height="24"
     id="rect188"
     style="fill:#68e5ff" />
  <polygon
     points="787,386 807,376 787,366 "
     id="polygon190"
     style="fill:none;stroke:#000000;stroke-width:1"
     transform="translate(-100.33114,-130.48402)" />
  <polygon
     points="787,386 807,376 787,366 "
     id="polygon192"
     style="fill:#000000"
     transform="translate(-100.33114,-130.48402)" />
  <rect
     x="575.66888"
     y="233.51596"
     width="26"
     height="26"
     id="rect196"
     style="fill:none;stroke:#000000;stroke-width:1" />
  <rect
     x="576.66888"
     y="234.51596"
     width="24"
     height="24"
     id="rect198"
     style="fill:#68e5ff" />
  <polygon
     points="679,387 699,377 679,367 "
     id="polygon200"
     style="fill:none;stroke:#000000;stroke-width:1"
     transform="translate(-100.33114,-130.48402)" />
  <polygon
     points="679,387 699,377 679,367 "
     id="polygon202"
     style="fill:#000000"
     transform="translate(-100.33114,-130.48402)" />
  <text
     x="191.03369"
     y="105.42148"
     style="font-size:12px;font-family:Dialog"
     id="text206">
    <tspan
       style="font-size:16px"
       id="tspan3245">ed1</tspan>
  </text>
  <line
     x1="155.66885"
     y1="112.51596"
     x2="257.66885"
     y2="112.51596"
     id="line208"
     style="fill:none;stroke:#000000;stroke-width:1" />
  <text
     x="437.12814"
     y="104.26837"
     style="font-size:12px;font-family:Dialog"
     id="text210">
    <tspan
       style="font-size:18px"
       id="tspan3271">ed2</tspan>
  </text>
  <line
     x1="391.66885"
     y1="114.51596"
     x2="500.66885"
     y2="114.51596"
     id="line212"
     style="fill:none;stroke:#000000;stroke-width:1" />
  <text
     x="351.3985"
     y="264.4346"
     style="font-size:12px;font-family:Dialog"
     id="text214">
    <tspan
       style="font-size:18px"
       id="tspan3267">ed6</tspan>
  </text>
  <line
     x1="337.66885"
     y1="245.51596"
     x2="392.66885"
     y2="245.51596"
     id="line216"
     style="fill:none;stroke:#000000;stroke-width:1" />
  <text
     x="538.18683"
     y="263.06979"
     style="font-size:12px;font-family:Dialog"
     id="text218">
    <tspan
       style="font-size:18px"
       id="tspan3269">ed7</tspan>
  </text>
  <line
     x1="526.66888"
     y1="246.51596"
     x2="575.66888"
     y2="246.51596"
     id="line220"
     style="fill:none;stroke:#000000;stroke-width:1" />
  <line
     x1="634.66888"
     y1="124.51596"
     x2="664.66888"
     y2="124.51596"
     id="line222"
     style="fill:none;stroke:#000000;stroke-width:1" />
  <line
     x1="664.66888"
     y1="124.51596"
     x2="664.66888"
     y2="175.51596"
     id="line224"
     style="fill:none;stroke:#000000;stroke-width:1" />
  <line
     x1="664.66888"
     y1="175.51596"
     x2="14.668859"
     y2="175.51596"
     id="line226"
     style="fill:none;stroke:#000000;stroke-width:1" />
  <line
     x1="14.668859"
     y1="175.51596"
     x2="14.668859"
     y2="245.51596"
     id="line228"
     style="fill:none;stroke:#000000;stroke-width:1" />
  <text
     x="22.492987"
     y="199.79599"
     style="font-size:12px;font-family:Dialog"
     id="text230">
    <tspan
       style="font-size:18px"
       id="tspan3263">ed3</tspan>
  </text>
  <line
     x1="14.668859"
     y1="245.51596"
     x2="43.668861"
     y2="245.51596"
     id="line232"
     style="fill:none;stroke:#000000;stroke-width:1" />
  <text
     x="186.82196"
     y="292.79941"
     style="font-size:12px;font-family:Dialog"
     id="text234">
    <tspan
       style="font-size:18px"
       id="tspan3265">ed4</tspan>
  </text>
  <line
     x1="177.66885"
     y1="271.51596"
     x2="225.66885"
     y2="271.51596"
     id="line236"
     style="fill:none;stroke:#000000;stroke-width:1" />
  <line
     x1="337.66885"
     y1="303.51596"
     x2="377.66885"
     y2="303.51596"
     id="line238"
     style="fill:none;stroke:#000000;stroke-width:1" />
  <line
     x1="377.66885"
     y1="303.51596"
     x2="377.66885"
     y2="369.51596"
     id="line240"
     style="fill:none;stroke:#000000;stroke-width:1" />
  <line
     x1="377.66885"
     y1="369.51596"
     x2="11.668859"
     y2="369.51596"
     id="line242"
     style="fill:none;stroke:#000000;stroke-width:1" />
  <line
     x1="11.668859"
     y1="369.51596"
     x2="11.668859"
     y2="284.51596"
     id="line244"
     style="fill:none;stroke:#000000;stroke-width:1" />
  <text
     x="19.522306"
     y="361.37289"
     style="font-size:12px;font-family:Dialog"
     id="text246">
    <tspan
       style="font-size:16px"
       id="tspan3261">ed5</tspan>
  </text>
  <line
     x1="11.668859"
     y1="284.51596"
     x2="43.668861"
     y2="284.51596"
     id="line248"
     style="fill:none;stroke:#000000;stroke-width:1" />
  <line
     x1="322.66885"
     y1="42.515972"
     x2="322.66885"
     y2="14.515972"
     id="line250"
     style="fill:none;stroke:#000000;stroke-width:1" />
  <line
     x1="322.66885"
     y1="14.515972"
     x2="757.66888"
     y2="14.515972"
     id="line252"
     style="fill:none;stroke:#000000;stroke-width:1" />
  <line
     x1="757.66888"
     y1="14.515972"
     x2="757.66888"
     y2="245.51596"
     id="line254"
     style="fill:none;stroke:#000000;stroke-width:1" />
  <text
     x="717.24542"
     y="39.775982"
     style="font-size:12px;font-family:Dialog"
     id="text256">
    <tspan
       style="font-size:18px"
       id="tspan3273">ed8</tspan>
  </text>
  <line
     x1="757.66888"
     y1="245.51596"
     x2="709.66888"
     y2="245.51596"
     id="line258"
     style="fill:none;stroke:#000000;stroke-width:1" />
</svg>
