<?xml version="1.0" encoding="UTF-8" standalone="no"?>
<svg
   xmlns:dc="http://purl.org/dc/elements/1.1/"
   xmlns:cc="http://creativecommons.org/ns#"
   xmlns:rdf="http://www.w3.org/1999/02/22-rdf-syntax-ns#"
   xmlns:svg="http://www.w3.org/2000/svg"
   xmlns="http://www.w3.org/2000/svg"
   xmlns:sodipodi="http://sodipodi.sourceforge.net/DTD/sodipodi-0.dtd"
   xmlns:inkscape="http://www.inkscape.org/namespaces/inkscape"
   version="1.1"
   id="svg2"
   inkscape:version="0.48.4 r9939"
   width="340"
   height="352.35999"
   sodipodi:docname="DMATransfer1.svg">
  <metadata
     id="metadata126">
    <rdf:RDF>
      <cc:Work
         rdf:about="">
        <dc:format>image/svg+xml</dc:format>
        <dc:type
           rdf:resource="http://purl.org/dc/dcmitype/StillImage" />
      </cc:Work>
    </rdf:RDF>
  </metadata>
  <defs
     id="defs124" />
  <sodipodi:namedview
     pagecolor="#ffffff"
     bordercolor="#666666"
     borderopacity="1"
     objecttolerance="10"
     gridtolerance="10"
     guidetolerance="10"
     inkscape:pageopacity="0"
     inkscape:pageshadow="2"
     inkscape:window-width="1366"
     inkscape:window-height="709"
     id="namedview122"
     showgrid="false"
     inkscape:zoom="1.2685914"
     inkscape:cx="372.04724"
     inkscape:cy="179.3397"
     inkscape:window-x="0"
     inkscape:window-y="27"
     inkscape:window-maximized="1"
     inkscape:current-layer="svg2" />
  <line
     x1="87.164124"
     y1="30.560883"
     x2="87.164124"
     y2="69.560883"
     id="line4"
     style="fill:none;stroke:#000000;stroke-width:1" />
  <polygon
     points="260,85 269,85 265,94 "
     id="polygon6"
     transform="translate(-177.83589,-24.439098)"
     style="fill:#000000" />
  <polygon
     points="260,85 269,85 265,94 "
     id="polygon8"
     transform="translate(-177.83589,-24.439098)"
     style="fill:none;stroke:#000000;stroke-width:1" />
  <line
     x1="87.164124"
     y1="114.56088"
     x2="88.164124"
     y2="163.56088"
     id="line10"
     style="fill:none;stroke:#000000;stroke-width:1" />
  <polygon
     points="260,179 270,179 266,188 "
     id="polygon12"
     transform="translate(-177.83589,-24.439098)"
     style="fill:#000000" />
  <polygon
     points="260,179 270,179 266,188 "
     id="polygon14"
     transform="translate(-177.83589,-24.439098)"
     style="fill:none;stroke:#000000;stroke-width:1" />
  <line
     x1="88.164124"
     y1="290.56079"
     x2="88.164124"
     y2="320.56079"
     id="line16"
     style="fill:none;stroke:#000000;stroke-width:1" />
  <polygon
     points="261,336 270,336 266,345 "
     id="polygon18"
     transform="translate(-177.83589,-24.439098)"
     style="fill:#000000" />
  <polygon
     points="261,336 270,336 266,345 "
     id="polygon20"
     transform="translate(-177.83589,-24.439098)"
     style="fill:none;stroke:#000000;stroke-width:1" />
  <line
     x1="269.16412"
     y1="265.56079"
     x2="269.16412"
     y2="307.56079"
     id="line22"
     style="fill:none;stroke:#000000;stroke-width:1" />
  <polygon
     points="442,323 451,323 447,332 "
     id="polygon24"
     transform="translate(-177.83589,-24.439098)"
     style="fill:#000000" />
  <polygon
     points="442,323 451,323 447,332 "
     id="polygon26"
     transform="translate(-177.83589,-24.439098)"
     style="fill:none;stroke:#000000;stroke-width:1" />
  <line
     x1="88.164124"
     y1="193.56088"
     x2="88.164124"
     y2="245.56088"
     id="line28"
     style="fill:none;stroke:#000000;stroke-width:1" />
  <polygon
     points="261,261 270,261 266,270 "
     id="polygon30"
     transform="translate(-177.83589,-24.439098)"
     style="fill:#000000" />
  <polygon
     points="261,261 270,261 266,270 "
     id="polygon32"
     transform="translate(-177.83589,-24.439098)"
     style="fill:none;stroke:#000000;stroke-width:1" />
  <ellipse
     cx="265"
     cy="42"
     rx="7"
     ry="7"
     id="ellipse34"
     sodipodi:cx="265"
     sodipodi:cy="42"
     sodipodi:rx="7"
     sodipodi:ry="7"
     transform="translate(-177.83589,-24.439098)"
     style="fill:#000000" />
  <line
     x1="87.164124"
     y1="25.560883"
     x2="87.164124"
     y2="30.560883"
     id="line36"
     style="fill:none;stroke:#000000;stroke-width:1" />
  <rect
     x="26.164116"
     y="75.560883"
     width="124"
     height="35"
     id="rect38"
     style="fill:none;stroke:#68e5ff;stroke-width:1" />
  <rect
     x="25.164116"
     y="74.560883"
     width="124"
     height="35"
     id="rect40"
     style="fill:none;stroke:#000000;stroke-width:1" />
  <line
     x1="87.164124"
     y1="74.560883"
     x2="87.164124"
     y2="69.560883"
     id="line42"
     style="fill:none;stroke:#000000;stroke-width:1" />
  <line
     x1="87.164124"
     y1="109.56088"
     x2="87.164124"
     y2="114.56088"
     id="line44"
     style="fill:none;stroke:#000000;stroke-width:1" />
  <text
     x="28.164116"
     y="102.56088"
     style="font-size:12px;font-family:Dialog"
     id="text46">ConfigureDMA_SD1</text>
  <text
     x="28.164116"
     y="86.560883"
     style="font-size:12px;font-family:Dialog"
     id="text48">sd</text>
  <line
     x1="25.164116"
     y1="89.560883"
     x2="40.164116"
     y2="89.560883"
     id="line50"
     style="fill:none;stroke:#000000;stroke-width:1" />
  <line
     x1="50.164116"
     y1="74.560883"
     x2="50.164116"
     y2="82.560883"
     id="line52"
     style="fill:none;stroke:#000000;stroke-width:1" />
  <line
     x1="40.164116"
     y1="89.560883"
     x2="50.164116"
     y2="82.560883"
     id="line54"
     style="fill:none;stroke:#000000;stroke-width:1" />
  <rect
     x="27.164116"
     y="251.56088"
     width="124"
     height="35"
     id="rect56"
     style="fill:none;stroke:#68e5ff;stroke-width:1" />
  <rect
     x="26.164116"
     y="250.56088"
     width="124"
     height="35"
     id="rect58"
     style="fill:none;stroke:#000000;stroke-width:1" />
  <line
     x1="88.164124"
     y1="250.56088"
     x2="88.164124"
     y2="245.56088"
     id="line60"
     style="fill:none;stroke:#000000;stroke-width:1" />
  <line
     x1="88.164124"
     y1="285.56079"
     x2="88.164124"
     y2="290.56079"
     id="line62"
     style="fill:none;stroke:#000000;stroke-width:1" />
  <text
     x="29.164116"
     y="278.56079"
     style="font-size:12px;font-family:Dialog"
     id="text64">TerminateDMA_SD1</text>
  <text
     x="29.164116"
     y="262.56079"
     style="font-size:12px;font-family:Dialog"
     id="text66">sd</text>
  <line
     x1="26.164116"
     y1="265.56079"
     x2="41.164116"
     y2="265.56079"
     id="line68"
     style="fill:none;stroke:#000000;stroke-width:1" />
  <line
     x1="51.164124"
     y1="250.56088"
     x2="51.164124"
     y2="258.56079"
     id="line70"
     style="fill:none;stroke:#000000;stroke-width:1" />
  <line
     x1="41.164116"
     y1="265.56079"
     x2="51.164124"
     y2="258.56079"
     id="line72"
     style="fill:none;stroke:#000000;stroke-width:1" />
  <rect
     x="208.16412"
     y="226.56088"
     width="124"
     height="35"
     id="rect74"
     style="fill:none;stroke:#68e5ff;stroke-width:1" />
  <rect
     x="207.16412"
     y="225.56088"
     width="124"
     height="35"
     id="rect76"
     style="fill:none;stroke:#000000;stroke-width:1" />
  <line
     x1="269.16412"
     y1="225.56088"
     x2="269.16412"
     y2="220.56088"
     id="line78"
     style="fill:none;stroke:#000000;stroke-width:1" />
  <line
     x1="269.16412"
     y1="260.56079"
     x2="269.16412"
     y2="265.56079"
     id="line80"
     style="fill:none;stroke:#000000;stroke-width:1" />
  <text
     x="224.16412"
     y="253.56088"
     style="font-size:12px;font-family:Dialog"
     id="text82">DMACycle_SD1</text>
  <text
     x="210.16412"
     y="237.56088"
     style="font-size:12px;font-family:Dialog"
     id="text84">sd</text>
  <line
     x1="207.16412"
     y1="240.56088"
     x2="222.16412"
     y2="240.56088"
     id="line86"
     style="fill:none;stroke:#000000;stroke-width:1" />
  <line
     x1="232.16412"
     y1="225.56088"
     x2="232.16412"
     y2="233.56088"
     id="line88"
     style="fill:none;stroke:#000000;stroke-width:1" />
  <line
     x1="222.16412"
     y1="240.56088"
     x2="232.16412"
     y2="233.56088"
     id="line90"
     style="fill:none;stroke:#000000;stroke-width:1" />
  <ellipse
     cx="266"
     cy="360"
     rx="8"
     ry="8"
     id="ellipse92"
     sodipodi:cx="266"
     sodipodi:cy="360"
     sodipodi:rx="8"
     sodipodi:ry="8"
     transform="translate(-177.83589,-24.439098)"
     style="fill:#000000" />
  <ellipse
     cx="266"
     cy="360"
     rx="10"
     ry="10"
     id="ellipse94"
     sodipodi:cx="266"
     sodipodi:cy="360"
     sodipodi:rx="10"
     sodipodi:ry="10"
     transform="translate(-177.83589,-24.439098)"
     style="fill:none;stroke:#000000;stroke-width:1" />
  <line
     x1="88.164124"
     y1="325.56079"
     x2="88.164124"
     y2="320.56079"
     id="line96"
     style="fill:none;stroke:#000000;stroke-width:1" />
  <rect
     x="6.1641159"
     y="168.56088"
     width="164"
     height="20"
     rx="5"
     ry="5"
     id="rect98"
     style="fill:none;stroke:#000000;stroke-width:1" />
  <line
     x1="88.164124"
     y1="168.56088"
     x2="88.164124"
     y2="163.56088"
     id="line100"
     style="fill:none;stroke:#000000;stroke-width:1" />
  <line
     x1="88.164124"
     y1="188.56088"
     x2="88.164124"
     y2="193.56088"
     id="line102"
     style="fill:none;stroke:#000000;stroke-width:1" />
  <line
     x1="170.16412"
     y1="178.56088"
     x2="175.16412"
     y2="178.56088"
     id="line104"
     style="fill:none;stroke:#000000;stroke-width:1" />
  <text
     x="12.164118"
     y="181.56088"
     style="font-size:12px;font-family:Dialog"
     id="text106">for(i=counter1;i&gt;0;i=i-1)</text>
  <ellipse
     cx="447"
     cy="347"
     rx="8"
     ry="8"
     id="ellipse108"
     sodipodi:cx="447"
     sodipodi:cy="347"
     sodipodi:rx="8"
     sodipodi:ry="8"
     transform="translate(-177.83589,-24.439098)"
     style="fill:#000000" />
  <ellipse
     cx="447"
     cy="347"
     rx="10"
     ry="10"
     id="ellipse110"
     sodipodi:cx="447"
     sodipodi:cy="347"
     sodipodi:rx="10"
     sodipodi:ry="10"
     transform="translate(-177.83589,-24.439098)"
     style="fill:none;stroke:#000000;stroke-width:1" />
  <line
     x1="269.16412"
     y1="312.56079"
     x2="269.16412"
     y2="307.56079"
     id="line112"
     style="fill:none;stroke:#000000;stroke-width:1" />
  <line
     x1="170.16412"
     y1="182.56088"
     x2="269.16412"
     y2="182.56088"
     id="line114"
     style="fill:none;stroke:#000000;stroke-width:1" />
  <line
     x1="269.16412"
     y1="182.56088"
     x2="269.16412"
     y2="220.56088"
     id="line116"
     style="fill:none;stroke:#000000;stroke-width:1" />
  <polygon
     points="442,236 451,236 447,245 "
     id="polygon118"
     transform="translate(-177.83589,-24.439098)"
     style="fill:#000000" />
  <polygon
     points="442,236 451,236 447,245 "
     id="polygon120"
     transform="translate(-177.83589,-24.439098)"
     style="fill:none;stroke:#000000;stroke-width:1" />
</svg>
