<?xml version="1.0" encoding="UTF-8" standalone="no"?>
<svg
   xmlns:dc="http://purl.org/dc/elements/1.1/"
   xmlns:cc="http://creativecommons.org/ns#"
   xmlns:rdf="http://www.w3.org/1999/02/22-rdf-syntax-ns#"
   xmlns:svg="http://www.w3.org/2000/svg"
   xmlns="http://www.w3.org/2000/svg"
   xmlns:sodipodi="http://sodipodi.sourceforge.net/DTD/sodipodi-0.dtd"
   xmlns:inkscape="http://www.inkscape.org/namespaces/inkscape"
   version="1.1"
   id="svg3919"
   inkscape:version="0.48.4 r9939"
   width="2182.3601"
   height="714.09003"
   sodipodi:docname="HOC.svg">
  <metadata
     id="metadata4425">
    <rdf:RDF>
      <cc:Work
         rdf:about="">
        <dc:format>image/svg+xml</dc:format>
        <dc:type
           rdf:resource="http://purl.org/dc/dcmitype/StillImage" />
      </cc:Work>
    </rdf:RDF>
  </metadata>
  <defs
     id="defs4423" />
  <sodipodi:namedview
     pagecolor="#ffffff"
     bordercolor="#666666"
     borderopacity="1"
     objecttolerance="10"
     gridtolerance="10"
     guidetolerance="10"
     inkscape:pageopacity="0"
     inkscape:pageshadow="2"
     inkscape:window-width="1366"
     inkscape:window-height="709"
     id="namedview4421"
     showgrid="false"
     width="1552.36px"
     inkscape:zoom="0.89702958"
     inkscape:cx="537.44829"
     inkscape:cy="253.22152"
     inkscape:window-x="0"
     inkscape:window-y="27"
     inkscape:window-maximized="1"
     inkscape:current-layer="svg3919" />
  <rect
     x="1388.6027"
     y="79.001556"
     width="140"
     height="187"
     id="rect3921"
     style="fill:none;stroke:#000000;stroke-width:1.5;stroke-miterlimit:4;stroke-dasharray:none" />
  <rect
     x="1389.6027"
     y="80.001556"
     width="138"
     height="185"
     id="rect3923"
     style="fill:#c9f3bc" />
  <text
     x="1423.8809"
     y="168.97066"
     style="font-size:14px;font-family:Dialog"
     id="text3925">
    <tspan
       style="font-size:28px"
       id="tspan3273">JOIN1</tspan>
  </text>
  <rect
     x="1372.6027"
     y="144.00156"
     width="31"
     height="31"
     id="rect3927"
     style="fill:#68e5ff" />
  <rect
     x="1372.6027"
     y="144.00156"
     width="32"
     height="32"
     id="rect3929"
     style="fill:none;stroke:#000000;stroke-width:1" />
  <polygon
     points="1504,125 1504,151 1530,138 "
     id="polygon3931"
     transform="translate(-128.39737,22.001571)"
     style="fill:none;stroke:#000000;stroke-width:1" />
  <polygon
     points="1504,125 1504,151 1530,138 "
     id="polygon3933"
     transform="translate(-128.39737,22.001571)"
     style="fill:#000000" />
  <rect
     x="1446.6027"
     y="63.00156"
     width="31"
     height="31"
     id="rect3937"
     style="fill:#68e5ff" />
  <rect
     x="1446.6027"
     y="63.00156"
     width="32"
     height="32"
     id="rect3939"
     style="fill:none;stroke:#000000;stroke-width:1" />
  <polygon
     points="1578,44 1604,44 1591,70 "
     id="polygon3941"
     transform="translate(-128.39737,22.001571)"
     style="fill:none;stroke:#000000;stroke-width:1" />
  <polygon
     points="1578,44 1604,44 1591,70 "
     id="polygon3943"
     transform="translate(-128.39737,22.001571)"
     style="fill:#000000" />
  <rect
     x="1512.6027"
     y="152.00156"
     width="31"
     height="31"
     id="rect3945"
     style="fill:#68e5ff" />
  <rect
     x="1512.6027"
     y="152.00156"
     width="32"
     height="32"
     id="rect3947"
     style="fill:none;stroke:#000000;stroke-width:1" />
  <polygon
     points="1644,133 1644,159 1670,146 "
     id="polygon3949"
     transform="translate(-128.39737,22.001571)"
     style="fill:none;stroke:#000000;stroke-width:1" />
  <polygon
     points="1644,133 1644,159 1670,146 "
     id="polygon3951"
     transform="translate(-128.39737,22.001571)"
     style="fill:#000000" />
  <rect
     x="1446.6027"
     y="250.00159"
     width="31"
     height="31"
     id="rect3955"
     style="fill:#68e5ff" />
  <rect
     x="1446.6027"
     y="250.00159"
     width="32"
     height="32"
     id="rect3957"
     style="fill:none;stroke:#000000;stroke-width:1" />
  <polygon
     points="1578,257 1604,257 1591,231 "
     id="polygon3959"
     transform="translate(-128.39737,22.001571)"
     style="fill:none;stroke:#000000;stroke-width:1" />
  <polygon
     points="1578,257 1604,257 1591,231 "
     id="polygon3961"
     transform="translate(-128.39737,22.001571)"
     style="fill:#000000" />
  <rect
     x="1657.6027"
     y="279.00159"
     width="140"
     height="187"
     id="rect3965"
     style="fill:none;stroke:#000000;stroke-width:1.5;stroke-miterlimit:4;stroke-dasharray:none" />
  <rect
     x="1658.6027"
     y="280.00159"
     width="138"
     height="185"
     id="rect3967"
     style="fill:#c9f3bc" />
  <text
     x="1688.4216"
     y="384.57776"
     style="font-size:14px;font-family:Dialog"
     id="text3969">
    <tspan
       style="font-size:28px"
       id="tspan3271">JOIN2</tspan>
  </text>
  <rect
     x="1706.6027"
     y="263.00159"
     width="31"
     height="31"
     id="rect3971"
     style="fill:#68e5ff" />
  <rect
     x="1706.6027"
     y="263.00159"
     width="32"
     height="32"
     id="rect3973"
     style="fill:none;stroke:#000000;stroke-width:1" />
  <polygon
     points="1838,244 1864,244 1851,270 "
     id="polygon3975"
     transform="translate(-128.39737,22.001571)"
     style="fill:none;stroke:#000000;stroke-width:1" />
  <polygon
     points="1838,244 1864,244 1851,270 "
     id="polygon3977"
     transform="translate(-128.39737,22.001571)"
     style="fill:#000000" />
  <rect
     x="1781.6027"
     y="368.00159"
     width="31"
     height="31"
     id="rect3981"
     style="fill:#68e5ff" />
  <rect
     x="1781.6027"
     y="368.00159"
     width="32"
     height="32"
     id="rect3983"
     style="fill:none;stroke:#000000;stroke-width:1" />
  <polygon
     points="1913,349 1913,375 1939,362 "
     id="polygon3985"
     transform="translate(-128.39737,22.001571)"
     style="fill:none;stroke:#000000;stroke-width:1" />
  <polygon
     points="1913,349 1913,375 1939,362 "
     id="polygon3987"
     transform="translate(-128.39737,22.001571)"
     style="fill:#000000" />
  <rect
     x="1717.6027"
     y="450.00159"
     width="31"
     height="31"
     id="rect3989"
     style="fill:#68e5ff" />
  <rect
     x="1717.6027"
     y="450.00159"
     width="32"
     height="32"
     id="rect3991"
     style="fill:none;stroke:#000000;stroke-width:1" />
  <polygon
     points="1849,457 1875,457 1862,431 "
     id="polygon3993"
     transform="translate(-128.39737,22.001571)"
     style="fill:none;stroke:#000000;stroke-width:1" />
  <polygon
     points="1849,457 1875,457 1862,431 "
     id="polygon3995"
     transform="translate(-128.39737,22.001571)"
     style="fill:#000000" />
  <rect
     x="879.60266"
     y="558.00165"
     width="283"
     height="86"
     id="rect3999"
     style="fill:none;stroke:#000000;stroke-width:1.5;stroke-miterlimit:4;stroke-dasharray:none" />
  <rect
     x="880.60266"
     y="559.00165"
     width="281"
     height="84"
     id="rect4001"
     style="fill:#c9f3bc" />
  <text
     x="949"
     y="610.49677"
     style="font-size:14px;font-family:Dialog"
     id="text4003">
    <tspan
       style="font-size:28px"
       id="tspan3243">Feedback</tspan>
  </text>
  <rect
     x="1011.6027"
     y="628.00165"
     width="31"
     height="31"
     id="rect4005"
     style="fill:#d8bbf9" />
  <rect
     x="1011.6027"
     y="628.00165"
     width="32"
     height="32"
     id="rect4007"
     style="fill:none;stroke:#000000;stroke-width:1" />
  <polygon
     points="1143,609 1169,609 1156,635 "
     id="polygon4009"
     transform="translate(-128.39737,22.001571)"
     style="fill:none;stroke:#000000;stroke-width:1" />
  <polygon
     points="1143,609 1169,609 1156,635 "
     id="polygon4011"
     transform="translate(-128.39737,22.001571)"
     style="fill:#000000" />
  <rect
     x="1146.6027"
     y="588.00165"
     width="31"
     height="31"
     id="rect4015"
     style="fill:#d8bbf9" />
  <rect
     x="1146.6027"
     y="588.00165"
     width="32"
     height="32"
     id="rect4017"
     style="fill:none;stroke:#000000;stroke-width:1" />
  <polygon
     points="1304,569 1304,595 1278,582 "
     id="polygon4019"
     transform="translate(-128.39737,22.001571)"
     style="fill:none;stroke:#000000;stroke-width:1" />
  <polygon
     points="1304,569 1304,595 1278,582 "
     id="polygon4021"
     transform="translate(-128.39737,22.001571)"
     style="fill:#000000" />
  <line
     x1="1149.6027"
     y1="617.00165"
     x2="1149.6027"
     y2="591.00165"
     id="line4023"
     style="fill:none;stroke:#000000;stroke-width:1" />
  <rect
     x="863.60266"
     y="588.00165"
     width="31"
     height="31"
     id="rect4027"
     style="fill:#d8bbf9" />
  <rect
     x="863.60266"
     y="588.00165"
     width="32"
     height="32"
     id="rect4029"
     style="fill:none;stroke:#000000;stroke-width:1" />
  <polygon
     points="995,569 995,595 1021,582 "
     id="polygon4031"
     transform="translate(-128.39737,22.001571)"
     style="fill:none;stroke:#000000;stroke-width:1" />
  <polygon
     points="995,569 995,595 1021,582 "
     id="polygon4033"
     transform="translate(-128.39737,22.001571)"
     style="fill:#000000" />
  <line
     x1="892.60266"
     y1="617.00165"
     x2="892.60266"
     y2="591.00165"
     id="line4035"
     style="fill:none;stroke:#000000;stroke-width:1" />
  <rect
     x="929.60266"
     y="542.00165"
     width="31"
     height="31"
     id="rect4039"
     style="fill:#d8bbf9" />
  <rect
     x="929.60266"
     y="542.00165"
     width="32"
     height="32"
     id="rect4041"
     style="fill:none;stroke:#000000;stroke-width:1" />
  <polygon
     points="1061,523 1087,523 1074,549 "
     id="polygon4043"
     transform="translate(-128.39737,22.001571)"
     style="fill:none;stroke:#000000;stroke-width:1" />
  <polygon
     points="1061,523 1087,523 1074,549 "
     id="polygon4045"
     transform="translate(-128.39737,22.001571)"
     style="fill:#000000" />
  <line
     x1="958.60266"
     y1="571.00165"
     x2="932.60266"
     y2="571.00165"
     id="line4047"
     style="fill:none;stroke:#000000;stroke-width:1" />
  <rect
     x="1062.6027"
     y="542.00165"
     width="31"
     height="31"
     id="rect4051"
     style="fill:#d8bbf9" />
  <rect
     x="1062.6027"
     y="542.00165"
     width="32"
     height="32"
     id="rect4053"
     style="fill:none;stroke:#000000;stroke-width:1" />
  <polygon
     points="1194,523 1220,523 1207,549 "
     id="polygon4055"
     transform="translate(-128.39737,22.001571)"
     style="fill:none;stroke:#000000;stroke-width:1" />
  <polygon
     points="1194,523 1220,523 1207,549 "
     id="polygon4057"
     transform="translate(-128.39737,22.001571)"
     style="fill:#000000" />
  <line
     x1="1091.6027"
     y1="571.00165"
     x2="1065.6027"
     y2="571.00165"
     id="line4059"
     style="fill:none;stroke:#000000;stroke-width:1" />
  <rect
     x="333.60263"
     y="228.00159"
     width="140"
     height="187"
     id="rect4063"
     style="fill:none;stroke:#000000;stroke-width:1.5;stroke-miterlimit:4;stroke-dasharray:none" />
  <rect
     x="334.60263"
     y="229.00159"
     width="138"
     height="185"
     id="rect4065"
     style="fill:#c9f3bc" />
  <text
     x="363.99557"
     y="280.06781"
     style="font-size:14px;font-family:Dialog"
     id="text4067">
    <tspan
       style="font-size:28px"
       id="tspan3235">FORK</tspan>
  </text>
  <rect
     x="317.60263"
     y="309.00159"
     width="31"
     height="31"
     id="rect4069"
     style="fill:#68e5ff" />
  <rect
     x="317.60263"
     y="309.00159"
     width="32"
     height="32"
     id="rect4071"
     style="fill:none;stroke:#000000;stroke-width:1" />
  <polygon
     points="449,290 449,316 475,303 "
     id="polygon4073"
     transform="translate(-128.39737,22.001571)"
     style="fill:none;stroke:#000000;stroke-width:1" />
  <polygon
     points="449,290 449,316 475,303 "
     id="polygon4075"
     transform="translate(-128.39737,22.001571)"
     style="fill:#000000" />
  <rect
     x="457.60263"
     y="254.00159"
     width="31"
     height="31"
     id="rect4079"
     style="fill:#68e5ff" />
  <rect
     x="457.60263"
     y="254.00159"
     width="32"
     height="32"
     id="rect4081"
     style="fill:none;stroke:#000000;stroke-width:1" />
  <polygon
     points="589,235 589,261 615,248 "
     id="polygon4083"
     transform="translate(-128.39737,22.001571)"
     style="fill:none;stroke:#000000;stroke-width:1" />
  <polygon
     points="589,235 589,261 615,248 "
     id="polygon4085"
     transform="translate(-128.39737,22.001571)"
     style="fill:#000000" />
  <rect
     x="457.60263"
     y="325.00159"
     width="31"
     height="31"
     id="rect4089"
     style="fill:#68e5ff" />
  <rect
     x="457.60263"
     y="325.00159"
     width="32"
     height="32"
     id="rect4091"
     style="fill:none;stroke:#000000;stroke-width:1" />
  <polygon
     points="589,306 589,332 615,319 "
     id="polygon4093"
     transform="translate(-128.39737,22.001571)"
     style="fill:none;stroke:#000000;stroke-width:1" />
  <polygon
     points="589,306 589,332 615,319 "
     id="polygon4095"
     transform="translate(-128.39737,22.001571)"
     style="fill:#000000" />
  <rect
     x="390.60263"
     y="399.00159"
     width="31"
     height="31"
     id="rect4099"
     style="fill:#68e5ff" />
  <rect
     x="390.60263"
     y="399.00159"
     width="32"
     height="32"
     id="rect4101"
     style="fill:none;stroke:#000000;stroke-width:1" />
  <polygon
     points="522,380 548,380 535,406 "
     id="polygon4103"
     transform="translate(-128.39737,22.001571)"
     style="fill:none;stroke:#000000;stroke-width:1" />
  <polygon
     points="522,380 548,380 535,406 "
     id="polygon4105"
     transform="translate(-128.39737,22.001571)"
     style="fill:#000000" />
  <rect
     x="1642.6027"
     y="77.001556"
     width="183"
     height="138"
     id="rect4109"
     style="fill:none;stroke:#000000;stroke-width:1.5;stroke-miterlimit:4;stroke-dasharray:none" />
  <rect
     x="1643.6027"
     y="78.001556"
     width="181"
     height="136"
     id="rect4111"
     style="fill:#c9f3bc" />
  <text
     x="1704.4547"
     y="146.90443"
     style="font-size:14px;font-family:Dialog"
     id="text4113">
    <tspan
       style="font-size:28px"
       id="tspan3269">ACC</tspan>
  </text>
  <rect
     x="1626.6027"
     y="152.00156"
     width="31"
     height="31"
     id="rect4115"
     style="fill:#68e5ff" />
  <rect
     x="1626.6027"
     y="152.00156"
     width="32"
     height="32"
     id="rect4117"
     style="fill:none;stroke:#000000;stroke-width:1" />
  <polygon
     points="1758,133 1758,159 1784,146 "
     id="polygon4119"
     transform="translate(-128.39737,22.001571)"
     style="fill:none;stroke:#000000;stroke-width:1" />
  <polygon
     points="1758,133 1758,159 1784,146 "
     id="polygon4121"
     transform="translate(-128.39737,22.001571)"
     style="fill:#000000" />
  <rect
     x="1706.6027"
     y="199.00159"
     width="31"
     height="31"
     id="rect4125"
     style="fill:#68e5ff" />
  <rect
     x="1706.6027"
     y="199.00159"
     width="32"
     height="32"
     id="rect4127"
     style="fill:none;stroke:#000000;stroke-width:1" />
  <polygon
     points="1838,180 1864,180 1851,206 "
     id="polygon4129"
     transform="translate(-128.39737,22.001571)"
     style="fill:none;stroke:#000000;stroke-width:1" />
  <polygon
     points="1838,180 1864,180 1851,206 "
     id="polygon4131"
     transform="translate(-128.39737,22.001571)"
     style="fill:#000000" />
  <rect
     x="1809.6027"
     y="130.00156"
     width="31"
     height="31"
     id="rect4135"
     style="fill:#d8bbf9" />
  <rect
     x="1809.6027"
     y="130.00156"
     width="32"
     height="32"
     id="rect4137"
     style="fill:none;stroke:#000000;stroke-width:1" />
  <polygon
     points="1967,111 1967,137 1941,124 "
     id="polygon4139"
     transform="translate(-128.39737,22.001571)"
     style="fill:none;stroke:#000000;stroke-width:1" />
  <polygon
     points="1967,111 1967,137 1941,124 "
     id="polygon4141"
     transform="translate(-128.39737,22.001571)"
     style="fill:#000000" />
  <line
     x1="1812.6027"
     y1="159.00156"
     x2="1812.6027"
     y2="133.00156"
     id="line4143"
     style="fill:none;stroke:#000000;stroke-width:1" />
  <rect
     x="1984.6027"
     y="310.00159"
     width="183"
     height="138"
     id="rect4147"
     style="fill:none;stroke:#000000;stroke-width:1.5;stroke-miterlimit:4;stroke-dasharray:none" />
  <rect
     x="1985.6027"
     y="311.00159"
     width="181"
     height="136"
     id="rect4149"
     style="fill:#c9f3bc" />
  <text
     x="2044.2251"
     y="393.28195"
     style="font-size:14px;font-family:Dialog"
     id="text4151">
    <tspan
       style="font-size:28px"
       id="tspan3275">Sink</tspan>
  </text>
  <rect
     x="1968.6027"
     y="367.00159"
     width="31"
     height="31"
     id="rect4153"
     style="fill:#68e5ff" />
  <rect
     x="1968.6027"
     y="367.00159"
     width="32"
     height="32"
     id="rect4155"
     style="fill:none;stroke:#000000;stroke-width:1" />
  <polygon
     points="2100,348 2100,374 2126,361 "
     id="polygon4157"
     transform="translate(-128.39737,22.001571)"
     style="fill:none;stroke:#000000;stroke-width:1" />
  <polygon
     points="2100,348 2100,374 2126,361 "
     id="polygon4159"
     transform="translate(-128.39737,22.001571)"
     style="fill:#000000" />
  <rect
     x="2058.6025"
     y="432.00159"
     width="31"
     height="31"
     id="rect4161"
     style="fill:#d8bbf9" />
  <rect
     x="2058.6025"
     y="432.00159"
     width="32"
     height="32"
     id="rect4163"
     style="fill:none;stroke:#000000;stroke-width:1" />
  <polygon
     points="2190,413 2216,413 2203,439 "
     id="polygon4165"
     transform="translate(-128.39737,22.001571)"
     style="fill:none;stroke:#000000;stroke-width:1" />
  <polygon
     points="2190,413 2216,413 2203,439 "
     id="polygon4167"
     transform="translate(-128.39737,22.001571)"
     style="fill:#000000" />
  <rect
     x="2058.6025"
     y="294.00159"
     width="31"
     height="31"
     id="rect4171"
     style="fill:#d8bbf9" />
  <rect
     x="2058.6025"
     y="294.00159"
     width="32"
     height="32"
     id="rect4173"
     style="fill:none;stroke:#000000;stroke-width:1" />
  <polygon
     points="2190,301 2216,301 2203,275 "
     id="polygon4175"
     transform="translate(-128.39737,22.001571)"
     style="fill:none;stroke:#000000;stroke-width:1" />
  <polygon
     points="2190,301 2216,301 2203,275 "
     id="polygon4177"
     transform="translate(-128.39737,22.001571)"
     style="fill:#000000" />
  <rect
     x="1034.6027"
     y="80.001556"
     width="183"
     height="138"
     id="rect4181"
     style="fill:none;stroke:#000000;stroke-width:1.5;stroke-miterlimit:4;stroke-dasharray:none" />
  <rect
     x="1035.6027"
     y="81.001556"
     width="181"
     height="136"
     id="rect4183"
     style="fill:#c9f3bc" />
  <text
     x="1079.3069"
     y="126.49384"
     style="font-size:14px;font-family:Dialog"
     id="text4185">
    <tspan
       style="font-size:28px"
       id="tspan3245">CWM2</tspan>
  </text>
  <rect
     x="1018.6027"
     y="142.00156"
     width="31"
     height="31"
     id="rect4187"
     style="fill:#68e5ff" />
  <rect
     x="1018.6027"
     y="142.00156"
     width="32"
     height="32"
     id="rect4189"
     style="fill:none;stroke:#000000;stroke-width:1" />
  <polygon
     points="1150,123 1150,149 1176,136 "
     id="polygon4191"
     transform="translate(-128.39737,22.001571)"
     style="fill:none;stroke:#000000;stroke-width:1" />
  <polygon
     points="1150,123 1150,149 1176,136 "
     id="polygon4193"
     transform="translate(-128.39737,22.001571)"
     style="fill:#000000" />
  <rect
     x="1201.6027"
     y="144.00156"
     width="31"
     height="31"
     id="rect4197"
     style="fill:#68e5ff" />
  <rect
     x="1201.6027"
     y="144.00156"
     width="32"
     height="32"
     id="rect4199"
     style="fill:none;stroke:#000000;stroke-width:1" />
  <polygon
     points="1333,125 1333,151 1359,138 "
     id="polygon4201"
     transform="translate(-128.39737,22.001571)"
     style="fill:none;stroke:#000000;stroke-width:1" />
  <polygon
     points="1333,125 1333,151 1359,138 "
     id="polygon4203"
     transform="translate(-128.39737,22.001571)"
     style="fill:#000000" />
  <rect
     x="1062.6027"
     y="202.00159"
     width="31"
     height="31"
     id="rect4207"
     style="fill:#d8bbf9" />
  <rect
     x="1062.6027"
     y="202.00159"
     width="32"
     height="32"
     id="rect4209"
     style="fill:none;stroke:#000000;stroke-width:1" />
  <polygon
     points="1194,183 1220,183 1207,209 "
     id="polygon4211"
     transform="translate(-128.39737,22.001571)"
     style="fill:none;stroke:#000000;stroke-width:1" />
  <polygon
     points="1194,183 1220,183 1207,209 "
     id="polygon4213"
     transform="translate(-128.39737,22.001571)"
     style="fill:#000000" />
  <rect
     x="629.60266"
     y="259.00159"
     width="183"
     height="138"
     id="rect4217"
     style="fill:none;stroke:#000000;stroke-width:1.5;stroke-miterlimit:4;stroke-dasharray:none" />
  <rect
     x="630.60266"
     y="260.00159"
     width="181"
     height="136"
     id="rect4219"
     style="fill:#c9f3bc" />
  <text
     x="685.8808"
     y="298.80511"
     style="font-size:14px;font-family:Dialog"
     id="text4221">
    <tspan
       style="font-size:28px"
       id="tspan3239">CWS</tspan>
  </text>
  <rect
     x="613.60266"
     y="325.00159"
     width="31"
     height="31"
     id="rect4223"
     style="fill:#68e5ff" />
  <rect
     x="613.60266"
     y="325.00159"
     width="32"
     height="32"
     id="rect4225"
     style="fill:none;stroke:#000000;stroke-width:1" />
  <polygon
     points="745,306 745,332 771,319 "
     id="polygon4227"
     transform="translate(-128.39737,22.001571)"
     style="fill:none;stroke:#000000;stroke-width:1" />
  <polygon
     points="745,306 745,332 771,319 "
     id="polygon4229"
     transform="translate(-128.39737,22.001571)"
     style="fill:#000000" />
  <rect
     x="796.60266"
     y="315.00159"
     width="31"
     height="31"
     id="rect4233"
     style="fill:#68e5ff" />
  <rect
     x="796.60266"
     y="315.00159"
     width="32"
     height="32"
     id="rect4235"
     style="fill:none;stroke:#000000;stroke-width:1" />
  <polygon
     points="928,296 928,322 954,309 "
     id="polygon4237"
     transform="translate(-128.39737,22.001571)"
     style="fill:none;stroke:#000000;stroke-width:1" />
  <polygon
     points="928,296 928,322 954,309 "
     id="polygon4239"
     transform="translate(-128.39737,22.001571)"
     style="fill:#000000" />
  <rect
     x="702.60266"
     y="381.00159"
     width="31"
     height="31"
     id="rect4243"
     style="fill:#d8bbf9" />
  <rect
     x="702.60266"
     y="381.00159"
     width="32"
     height="32"
     id="rect4245"
     style="fill:none;stroke:#000000;stroke-width:1" />
  <polygon
     points="834,362 860,362 847,388 "
     id="polygon4247"
     transform="translate(-128.39737,22.001571)"
     style="fill:none;stroke:#000000;stroke-width:1" />
  <polygon
     points="834,362 860,362 847,388 "
     id="polygon4249"
     transform="translate(-128.39737,22.001571)"
     style="fill:#000000" />
  <rect
     x="633.60266"
     y="77.001556"
     width="183"
     height="138"
     id="rect4253"
     style="fill:none;stroke:#000000;stroke-width:1.5;stroke-miterlimit:4;stroke-dasharray:none" />
  <rect
     x="634.60266"
     y="78.001556"
     width="181"
     height="136"
     id="rect4255"
     style="fill:#c9f3bc" />
  <text
     x="679.42163"
     y="129.06778"
     style="font-size:14px;font-family:Dialog"
     id="text4257">
    <tspan
       style="font-size:28px"
       id="tspan3241">CWM1</tspan>
  </text>
  <rect
     x="617.60266"
     y="130.00156"
     width="31"
     height="31"
     id="rect4259"
     style="fill:#68e5ff" />
  <rect
     x="617.60266"
     y="130.00156"
     width="32"
     height="32"
     id="rect4261"
     style="fill:none;stroke:#000000;stroke-width:1" />
  <polygon
     points="749,111 749,137 775,124 "
     id="polygon4263"
     transform="translate(-128.39737,22.001571)"
     style="fill:none;stroke:#000000;stroke-width:1" />
  <polygon
     points="749,111 749,137 775,124 "
     id="polygon4265"
     transform="translate(-128.39737,22.001571)"
     style="fill:#000000" />
  <rect
     x="800.60266"
     y="100.00156"
     width="31"
     height="31"
     id="rect4269"
     style="fill:#68e5ff" />
  <rect
     x="800.60266"
     y="100.00156"
     width="32"
     height="32"
     id="rect4271"
     style="fill:none;stroke:#000000;stroke-width:1" />
  <polygon
     points="932,81 932,107 958,94 "
     id="polygon4273"
     transform="translate(-128.39737,22.001571)"
     style="fill:none;stroke:#000000;stroke-width:1" />
  <polygon
     points="932,81 932,107 958,94 "
     id="polygon4275"
     transform="translate(-128.39737,22.001571)"
     style="fill:#000000" />
  <rect
     x="800.60266"
     y="143.00156"
     width="31"
     height="31"
     id="rect4277"
     style="fill:#68e5ff" />
  <rect
     x="800.60266"
     y="143.00156"
     width="32"
     height="32"
     id="rect4279"
     style="fill:none;stroke:#000000;stroke-width:1" />
  <polygon
     points="932,124 932,150 958,137 "
     id="polygon4281"
     transform="translate(-128.39737,22.001571)"
     style="fill:none;stroke:#000000;stroke-width:1" />
  <polygon
     points="932,124 932,150 958,137 "
     id="polygon4283"
     transform="translate(-128.39737,22.001571)"
     style="fill:#000000" />
  <rect
     x="800.60266"
     y="190.00159"
     width="31"
     height="31"
     id="rect4287"
     style="fill:#d8bbf9" />
  <rect
     x="800.60266"
     y="190.00159"
     width="32"
     height="32"
     id="rect4289"
     style="fill:none;stroke:#000000;stroke-width:1" />
  <polygon
     points="932,171 932,197 958,184 "
     id="polygon4291"
     transform="translate(-128.39737,22.001571)"
     style="fill:none;stroke:#000000;stroke-width:1" />
  <polygon
     points="932,171 932,197 958,184 "
     id="polygon4293"
     transform="translate(-128.39737,22.001571)"
     style="fill:#000000" />
  <rect
     x="10.602633"
     y="247.00159"
     width="183"
     height="138"
     id="rect4297"
     style="fill:none;stroke:#000000;stroke-width:1.5;stroke-miterlimit:4;stroke-dasharray:none" />
  <rect
     x="11.602633"
     y="248.00159"
     width="181"
     height="136"
     id="rect4299"
     style="fill:#c9f3bc" />
  <text
     x="51.536404"
     y="326.93756"
     style="font-size:14px;font-family:Dialog"
     id="text4301">
    <tspan
       style="font-size:28px"
       id="tspan3231">Source</tspan>
  </text>
  <rect
     x="177.60263"
     y="309.00159"
     width="31"
     height="31"
     id="rect4303"
     style="fill:#68e5ff" />
  <rect
     x="177.60263"
     y="309.00159"
     width="32"
     height="32"
     id="rect4305"
     style="fill:none;stroke:#000000;stroke-width:1" />
  <polygon
     points="309,290 309,316 335,303 "
     id="polygon4307"
     transform="translate(-128.39737,22.001571)"
     style="fill:none;stroke:#000000;stroke-width:1" />
  <polygon
     points="309,290 309,316 335,303 "
     id="polygon4309"
     transform="translate(-128.39737,22.001571)"
     style="fill:#000000" />
  <rect
     x="85.602631"
     y="369.00159"
     width="31"
     height="31"
     id="rect4313"
     style="fill:#d8bbf9" />
  <rect
     x="85.602631"
     y="369.00159"
     width="32"
     height="32"
     id="rect4315"
     style="fill:none;stroke:#000000;stroke-width:1" />
  <polygon
     points="217,376 243,376 230,350 "
     id="polygon4317"
     transform="translate(-128.39737,22.001571)"
     style="fill:none;stroke:#000000;stroke-width:1" />
  <polygon
     points="217,376 243,376 230,350 "
     id="polygon4319"
     transform="translate(-128.39737,22.001571)"
     style="fill:#000000" />
  <line
     x1="114.60263"
     y1="372.00159"
     x2="88.602631"
     y2="372.00159"
     id="line4321"
     style="fill:none;stroke:#000000;stroke-width:1" />
  <text
     x="216.05389"
     y="315.43021"
     style="font-size:15px;font-family:Dialog"
     id="text4325">
    <tspan
       style="font-size:28px"
       id="tspan3233">ch1</tspan>
  </text>
  <line
     x1="209.60263"
     y1="325.00159"
     x2="317.60263"
     y2="325.00159"
     id="line4327"
     style="fill:none;stroke:#000000;stroke-width:1.5;stroke-miterlimit:4;stroke-dasharray:none" />
  <line
     x1="489.60263"
     y1="270.00159"
     x2="549.60266"
     y2="270.00159"
     id="line4329"
     style="fill:none;stroke:#000000;stroke-width:1.5;stroke-miterlimit:4;stroke-dasharray:none" />
  <line
     x1="549.60266"
     y1="270.00159"
     x2="549.60266"
     y2="147.00156"
     id="line4331"
     style="fill:none;stroke:#000000;stroke-width:1.5;stroke-miterlimit:4;stroke-dasharray:none" />
  <text
     x="485.33774"
     y="245.21791"
     style="font-size:15px;font-family:Dialog"
     id="text4333">
    <tspan
       style="font-size:28px"
       id="tspan3249">ch2</tspan>
  </text>
  <line
     x1="549.60266"
     y1="147.00156"
     x2="617.60266"
     y2="146.00156"
     id="line4335"
     style="fill:none;stroke:#000000;stroke-width:1.5;stroke-miterlimit:4;stroke-dasharray:none" />
  <text
     x="519.11041"
     y="333.19806"
     style="font-size:15px;font-family:Dialog"
     id="text4337">
    <tspan
       style="font-size:28px"
       id="tspan3237">ch3</tspan>
  </text>
  <line
     x1="489.60263"
     y1="341.00159"
     x2="613.60266"
     y2="341.00159"
     id="line4339"
     style="fill:none;stroke:#000000;stroke-width:1.5;stroke-miterlimit:4;stroke-dasharray:none" />
  <text
     x="848.51874"
     y="147.96843"
     style="font-size:15px;font-family:Dialog"
     id="text4341">
    <tspan
       style="font-size:28px"
       id="tspan3247">ch4</tspan>
  </text>
  <line
     x1="832.60266"
     y1="159.00156"
     x2="1018.6027"
     y2="158.00156"
     id="line4343"
     style="fill:none;stroke:#000000;stroke-width:1.5;stroke-miterlimit:4;stroke-dasharray:none" />
  <line
     x1="832.60266"
     y1="116.00156"
     x2="953.60266"
     y2="117.00156"
     id="line4345"
     style="fill:none;stroke:#000000;stroke-width:1.5;stroke-miterlimit:4;stroke-dasharray:none" />
  <line
     x1="953.60266"
     y1="117.00156"
     x2="953.60266"
     y2="30.001564"
     id="line4347"
     style="fill:none;stroke:#000000;stroke-width:1.5;stroke-miterlimit:4;stroke-dasharray:none" />
  <line
     x1="953.60266"
     y1="30.001564"
     x2="1462.6027"
     y2="30.001564"
     id="line4349"
     style="fill:none;stroke:#000000;stroke-width:1.5;stroke-miterlimit:4;stroke-dasharray:none" />
  <text
     x="847.76373"
     y="102.85587"
     style="font-size:15px;font-family:Dialog"
     id="text4351">
    <tspan
       style="font-size:28px"
       id="tspan3265">ch11</tspan>
  </text>
  <line
     x1="1462.6027"
     y1="30.001564"
     x2="1462.6027"
     y2="63.00156"
     id="line4353"
     style="fill:none;stroke:#000000;stroke-width:1.5;stroke-miterlimit:4;stroke-dasharray:none" />
  <text
     x="1244.4702"
     y="147.73886"
     style="font-size:15px;font-family:Dialog"
     id="text4355">
    <tspan
       style="font-size:28px"
       id="tspan3263">ch5</tspan>
  </text>
  <line
     x1="1233.6027"
     y1="160.00156"
     x2="1372.6027"
     y2="160.00156"
     id="line4357"
     style="fill:none;stroke:#000000;stroke-width:1.5;stroke-miterlimit:4;stroke-dasharray:none" />
  <text
     x="1551.9956"
     y="157.96844"
     style="font-size:15px;font-family:Dialog"
     id="text4359">
    <tspan
       style="font-size:28px"
       id="tspan3267">ch6</tspan>
  </text>
  <line
     x1="1544.6027"
     y1="168.00156"
     x2="1626.6027"
     y2="168.00156"
     id="line4361"
     style="fill:none;stroke:#000000;stroke-width:1.5;stroke-miterlimit:4;stroke-dasharray:none" />
  <text
     x="1745.1177"
     y="248.03716"
     style="font-size:15px;font-family:Dialog"
     id="text4363">
    <tspan
       style="font-size:28px"
       id="tspan3281">ch7</tspan>
  </text>
  <line
     x1="1722.6027"
     y1="231.00159"
     x2="1722.6027"
     y2="263.00159"
     id="line4365"
     style="fill:none;stroke:#000000;stroke-width:1.5;stroke-miterlimit:4;stroke-dasharray:none" />
  <text
     x="1820.5001"
     y="374.08325"
     style="font-size:15px;font-family:Dialog"
     id="text4367">
    <tspan
       style="font-size:28px"
       id="tspan3283">ch10</tspan>
  </text>
  <line
     x1="1813.6027"
     y1="384.00159"
     x2="1968.6027"
     y2="383.00159"
     id="line4369"
     style="fill:none;stroke:#000000;stroke-width:1.5;stroke-miterlimit:4;stroke-dasharray:none" />
  <line
     x1="828.60266"
     y1="331.00159"
     x2="1463.6027"
     y2="332.00159"
     id="line4371"
     style="fill:none;stroke:#000000;stroke-width:1.5;stroke-miterlimit:4;stroke-dasharray:none" />
  <text
     x="840.38623"
     y="318.14948"
     style="font-size:15px;font-family:Dialog"
     id="text4373">
    <tspan
       style="font-size:28px"
       id="tspan3261">ch9</tspan>
  </text>
  <line
     x1="1463.6027"
     y1="332.00159"
     x2="1462.6027"
     y2="282.00159"
     id="line4375"
     style="fill:none;stroke:#000000;stroke-width:1.5;stroke-miterlimit:4;stroke-dasharray:none" />
  <line
     x1="406.60263"
     y1="431.00159"
     x2="406.60263"
     y2="504.00162"
     id="line4377"
     style="fill:none;stroke:#000000;stroke-width:1.5;stroke-miterlimit:4;stroke-dasharray:none" />
  <line
     x1="406.60263"
     y1="504.00162"
     x2="1733.6027"
     y2="503.00162"
     id="line4379"
     style="fill:none;stroke:#000000;stroke-width:1.5;stroke-miterlimit:4;stroke-dasharray:none" />
  <text
     x="420.21622"
     y="461.90225"
     style="font-size:15px;font-family:Dialog"
     id="text4381">
    <tspan
       style="font-size:28px"
       id="tspan3279">ch8</tspan>
  </text>
  <line
     x1="1733.6027"
     y1="503.00162"
     x2="1733.6027"
     y2="482.00159"
     id="line4383"
     style="fill:none;stroke:#000000;stroke-width:1.5;stroke-miterlimit:4;stroke-dasharray:none" />
  <line
     x1="101.60263"
     y1="401.00159"
     x2="101.60263"
     y2="706.00165"
     id="line4385"
     style="fill:none;stroke:#000000;stroke-width:1.5;stroke-miterlimit:4;stroke-dasharray:none" />
  <line
     x1="101.60263"
     y1="706.00165"
     x2="1027.6027"
     y2="705.00165"
     id="line4387"
     style="fill:none;stroke:#000000;stroke-width:1.5;stroke-miterlimit:4;stroke-dasharray:none" />
  <text
     x="1043.0464"
     y="694.26434"
     style="font-size:15px;font-family:Dialog"
     id="text4389">
    <tspan
       style="font-size:28px"
       id="tspan3257">ed1</tspan>
  </text>
  <line
     x1="1027.6027"
     y1="705.00165"
     x2="1027.6027"
     y2="660.00165"
     id="line4391"
     style="fill:none;stroke:#000000;stroke-width:1.5;stroke-miterlimit:4;stroke-dasharray:none" />
  <line
     x1="2074.6025"
     y1="464.00159"
     x2="2074.6025"
     y2="601.00165"
     id="line4393"
     style="fill:none;stroke:#000000;stroke-width:1.5;stroke-miterlimit:4;stroke-dasharray:none" />
  <text
     x="2082.3887"
     y="494.98178"
     style="font-size:15px;font-family:Dialog"
     id="text4395">
    <tspan
       style="font-size:28px"
       id="tspan3259">ed2</tspan>
  </text>
  <line
     x1="2074.6025"
     y1="601.00165"
     x2="1178.6027"
     y2="604.00165"
     id="line4397"
     style="fill:none;stroke:#000000;stroke-width:1.5;stroke-miterlimit:4;stroke-dasharray:none" />
  <line
     x1="718.60266"
     y1="413.00159"
     x2="718.60266"
     y2="605.00165"
     id="line4399"
     style="fill:none;stroke:#000000;stroke-width:1.5;stroke-miterlimit:4;stroke-dasharray:none" />
  <text
     x="729.12585"
     y="445.70139"
     style="font-size:15px;font-family:Dialog"
     id="text4401">
    <tspan
       style="font-size:28px"
       id="tspan3255">ed3</tspan>
  </text>
  <line
     x1="718.60266"
     y1="605.00165"
     x2="863.60266"
     y2="604.00165"
     id="line4403"
     style="fill:none;stroke:#000000;stroke-width:1.5;stroke-miterlimit:4;stroke-dasharray:none" />
  <line
     x1="832.60266"
     y1="206.00159"
     x2="946.60266"
     y2="207.00159"
     id="line4405"
     style="fill:none;stroke:#000000;stroke-width:1.5;stroke-miterlimit:4;stroke-dasharray:none" />
  <text
     x="849.56732"
     y="195.6351"
     style="font-size:15px;font-family:Dialog"
     id="text4407">
    <tspan
       style="font-size:28px"
       id="tspan3251">ed4</tspan>
  </text>
  <line
     x1="946.60266"
     y1="207.00159"
     x2="945.60266"
     y2="542.00165"
     id="line4409"
     style="fill:none;stroke:#000000;stroke-width:1.5;stroke-miterlimit:4;stroke-dasharray:none" />
  <text
     x="1091.8168"
     y="268.71902"
     style="font-size:15px;font-family:Dialog"
     id="text4411">
    <tspan
       style="font-size:28px"
       id="tspan3253">ed5</tspan>
  </text>
  <line
     x1="1078.6027"
     y1="234.00159"
     x2="1078.6027"
     y2="542.00165"
     id="line4413"
     style="fill:none;stroke:#000000;stroke-width:1.5;stroke-miterlimit:4;stroke-dasharray:none" />
  <line
     x1="1841.6027"
     y1="146.00156"
     x2="2074.6025"
     y2="146.00156"
     id="line4415"
     style="fill:none;stroke:#000000;stroke-width:1.5;stroke-miterlimit:4;stroke-dasharray:none" />
  <text
     x="2098.9646"
     y="288.00378"
     style="font-size:15px;font-family:Dialog"
     id="text4417">
    <tspan
       style="font-size:28px"
       id="tspan3277">ed6</tspan>
  </text>
  <line
     x1="2074.6025"
     y1="146.00156"
     x2="2074.6025"
     y2="294.00159"
     id="line4419"
     style="fill:none;stroke:#000000;stroke-width:1.5;stroke-miterlimit:4;stroke-dasharray:none" />
  <text
     x="1920.1262"
     y="131.26352"
     style="font-size:15px;font-family:Dialog"
     id="text4417-5">
    <tspan
       style="font-size:28px"
       id="tspan3277-4">set_period(...)</tspan>
  </text>
  <text
     x="113.60058"
     y="691.55524"
     style="font-size:15px;font-family:Dialog"
     id="text4417-5-2">
    <tspan
       style="font-size:28px"
       id="tspan3277-4-0">start(), stop()</tspan>
  </text>
</svg>
