<?xml version="1.0" standalone="no"?>
<!DOCTYPE svg PUBLIC "-//W3C//DTD SVG 1.1//EN" "http://www.w3.org/Graphics/SVG/1.1/DTD/svg11.dtd">
<svg xmlns="http://www.w3.org/2000/svg" version="1.1">
<line  x1="141" y1="118" x2="372" y2="118" stroke="#000000" stroke-width="1" fill="none"/>
<line  x1="372" y1="118" x2="363" y2="122" stroke="#000000" stroke-width="1" fill="none"/>
<line  x1="372" y1="118" x2="363" y2="113" stroke="#000000" stroke-width="1" fill="none"/>
<text  x="173" y="113" style="font-size:12; font-family:Dialog.plain; fill=#000000">Read(sourceAddress, size)</text>
<line  x1="372" y1="148" x2="623" y2="148" stroke="#000000" stroke-width="1" fill="none"/>
<line  x1="623" y1="148" x2="614" y2="152" stroke="#000000" stroke-width="1" fill="none"/>
<line  x1="623" y1="148" x2="614" y2="143" stroke="#000000" stroke-width="1" fill="none"/>
<text  x="414" y="143" style="font-size:12; font-family:Dialog.plain; fill=#000000">Read(sourceAddress, size)</text>
<line  x1="623" y1="178" x2="372" y2="178" stroke="#000000" stroke-width="1" fill="none"/>
<line  x1="372" y1="178" x2="380" y2="173" stroke="#000000" stroke-width="1" fill="none"/>
<line  x1="372" y1="178" x2="380" y2="182" stroke="#000000" stroke-width="1" fill="none"/>
<text  x="455" y="173" style="font-size:12; font-family:Dialog.plain; fill=#000000">Transfer(size)</text>
<line  x1="372" y1="208" x2="141" y2="208" stroke="#000000" stroke-width="1" fill="none"/>
<line  x1="141" y1="208" x2="149" y2="203" stroke="#000000" stroke-width="1" fill="none"/>
<line  x1="141" y1="208" x2="149" y2="212" stroke="#000000" stroke-width="1" fill="none"/>
<text  x="214" y="203" style="font-size:12; font-family:Dialog.plain; fill=#000000">Transfer(size)</text>
<text  x="111" y="55" style="font-size:12; font-family:Dialog.plain; fill=#000000">CPU_Load</text>
<line  x1="111" y1="56" x2="171" y2="56" stroke="#000000" stroke-width="1" fill="none"/>
<line  x1="141" y1="58" x2="141" y2="558" stroke="#000000" stroke-width="1" fill="none"/>
<rect  x="13" y="237" width="257" height="20" rx="5" ry="5" fill="none" stroke="#000000" stroke-width="1"/>
<text  x="4" y="252" style="font-size:12; font-family:Dialog.plain; fill=#000000">samplesToLoad = samplesToLoad - size</text>
<text  x="567" y="55" style="font-size:12; font-family:Dialog.plain; fill=#000000">Src_Storage_Load</text>
<line  x1="567" y1="56" x2="679" y2="56" stroke="#000000" stroke-width="1" fill="none"/>
<line  x1="623" y1="58" x2="623" y2="558" stroke="#000000" stroke-width="1" fill="none"/>
<text  x="328" y="55" style="font-size:12; font-family:Dialog.plain; fill=#000000">Transfer_Load</text>
<line  x1="328" y1="56" x2="416" y2="56" stroke="#000000" stroke-width="1" fill="none"/>
<line  x1="372" y1="58" x2="372" y2="558" stroke="#000000" stroke-width="1" fill="none"/>
</svg>