<?xml version="1.0" encoding="UTF-8" standalone="no"?>
<svg
   xmlns:dc="http://purl.org/dc/elements/1.1/"
   xmlns:cc="http://creativecommons.org/ns#"
   xmlns:rdf="http://www.w3.org/1999/02/22-rdf-syntax-ns#"
   xmlns:svg="http://www.w3.org/2000/svg"
   xmlns="http://www.w3.org/2000/svg"
   xmlns:sodipodi="http://sodipodi.sourceforge.net/DTD/sodipodi-0.dtd"
   xmlns:inkscape="http://www.inkscape.org/namespaces/inkscape"
   version="1.1"
   id="svg2"
   inkscape:version="0.48.4 r9939"
   width="1400"
   height="744.09448"
   sodipodi:docname="Load_CP.svg">
  <metadata
     id="metadata140">
    <rdf:RDF>
      <cc:Work
         rdf:about="">
        <dc:format>image/svg+xml</dc:format>
        <dc:type
           rdf:resource="http://purl.org/dc/dcmitype/StillImage" />
      </cc:Work>
    </rdf:RDF>
  </metadata>
  <defs
     id="defs138" />
  <sodipodi:namedview
     pagecolor="#ffffff"
     bordercolor="#666666"
     borderopacity="1"
     objecttolerance="10"
     gridtolerance="10"
     guidetolerance="10"
     inkscape:pageopacity="0"
     inkscape:pageshadow="2"
     inkscape:window-width="1366"
     inkscape:window-height="709"
     id="namedview136"
     showgrid="false"
     width="1352.36px"
     inkscape:zoom="0.44851479"
     inkscape:cx="531.55704"
     inkscape:cy="258.18747"
     inkscape:window-x="0"
     inkscape:window-y="27"
     inkscape:window-maximized="1"
     inkscape:current-layer="svg2" />
  <line
     x1="260.66885"
     y1="203.8074"
     x2="260.66885"
     y2="243.8074"
     id="line4"
     style="fill:none;stroke:#000000;stroke-width:1" />
  <polygon
     points="356,251 365,251 361,260 "
     id="polygon6"
     style="fill:#000000"
     transform="translate(-100.33114,-16.192603)" />
  <polygon
     points="356,251 365,251 361,260 "
     id="polygon8"
     style="fill:none;stroke:#000000;stroke-width:1"
     transform="translate(-100.33114,-16.192603)" />
  <line
     x1="260.66885"
     y1="125.8074"
     x2="260.66885"
     y2="173.8074"
     id="line10"
     style="fill:none;stroke:#000000;stroke-width:1" />
  <polygon
     points="356,181 365,181 361,190 "
     id="polygon12"
     style="fill:#000000"
     transform="translate(-100.33114,-16.192603)" />
  <polygon
     points="356,181 365,181 361,190 "
     id="polygon14"
     style="fill:none;stroke:#000000;stroke-width:1"
     transform="translate(-100.33114,-16.192603)" />
  <line
     x1="260.66885"
     y1="34.807396"
     x2="260.66885"
     y2="80.807396"
     id="line16"
     style="fill:none;stroke:#000000;stroke-width:1" />
  <polygon
     points="356,88 365,88 361,97 "
     id="polygon18"
     style="fill:#000000"
     transform="translate(-100.33114,-16.192603)" />
  <polygon
     points="356,88 365,88 361,97 "
     id="polygon20"
     style="fill:none;stroke:#000000;stroke-width:1"
     transform="translate(-100.33114,-16.192603)" />
  <line
     x1="260.66885"
     y1="308.8074"
     x2="260.66885"
     y2="401.8074"
     id="line22"
     style="fill:none;stroke:#000000;stroke-width:1" />
  <polygon
     points="356,409 365,409 361,418 "
     id="polygon24"
     style="fill:#000000"
     transform="translate(-100.33114,-16.192603)" />
  <polygon
     points="356,409 365,409 361,418 "
     id="polygon26"
     style="fill:none;stroke:#000000;stroke-width:1"
     transform="translate(-100.33114,-16.192603)" />
  <line
     x1="155.66885"
     y1="359.8074"
     x2="155.66885"
     y2="408.8074"
     id="line28"
     style="fill:none;stroke:#000000;stroke-width:1" />
  <line
     x1="155.66885"
     y1="408.8074"
     x2="44.668861"
     y2="408.8074"
     id="line30"
     style="fill:none;stroke:#000000;stroke-width:1" />
  <line
     x1="44.668861"
     y1="408.8074"
     x2="44.668861"
     y2="188.8074"
     id="line32"
     style="fill:none;stroke:#000000;stroke-width:1" />
  <line
     x1="44.668861"
     y1="188.8074"
     x2="245.66885"
     y2="188.8074"
     id="line34"
     style="fill:none;stroke:#000000;stroke-width:1" />
  <polygon
     points="337,209 337,200 346,205 "
     id="polygon36"
     style="fill:#000000"
     transform="translate(-100.33114,-16.192603)" />
  <polygon
     points="337,209 337,200 346,205 "
     id="polygon38"
     style="fill:none;stroke:#000000;stroke-width:1"
     transform="translate(-100.33114,-16.192603)" />
  <line
     x1="220.66885"
     y1="268.8074"
     x2="155.66885"
     y2="268.8074"
     id="line40"
     style="fill:none;stroke:#000000;stroke-width:1" />
  <line
     x1="155.66885"
     y1="268.8074"
     x2="155.66885"
     y2="314.8074"
     id="line42"
     style="fill:none;stroke:#000000;stroke-width:1" />
  <polygon
     points="251,322 260,322 256,331 "
     id="polygon44"
     style="fill:#000000"
     transform="translate(-100.33114,-16.192603)" />
  <polygon
     points="251,322 260,322 256,331 "
     id="polygon46"
     style="fill:none;stroke:#000000;stroke-width:1"
     transform="translate(-100.33114,-16.192603)" />
  <ellipse
     cx="361"
     cy="38"
     rx="7"
     ry="7"
     id="ellipse48"
     sodipodi:cx="361"
     sodipodi:cy="38"
     sodipodi:rx="7"
     sodipodi:ry="7"
     style="fill:#000000"
     transform="translate(-100.33114,-16.192603)" />
  <line
     x1="260.66885"
     y1="29.807398"
     x2="260.66885"
     y2="34.807396"
     id="line50"
     style="fill:none;stroke:#000000;stroke-width:1" />
  <rect
     x="94.668861"
     y="320.8074"
     width="124"
     height="35"
     id="rect52"
     style="fill:none;stroke:#68e5ff;stroke-width:1" />
  <rect
     x="93.668861"
     y="319.8074"
     width="124"
     height="35"
     id="rect54"
     style="fill:none;stroke:#000000;stroke-width:1" />
  <line
     x1="155.66885"
     y1="319.8074"
     x2="155.66885"
     y2="314.8074"
     id="line56"
     style="fill:none;stroke:#000000;stroke-width:1" />
  <line
     x1="155.66885"
     y1="354.8074"
     x2="155.66885"
     y2="359.8074"
     id="line58"
     style="fill:none;stroke:#000000;stroke-width:1" />
  <text
     x="92.668861"
     y="349.8074"
     style="font-size:12px;font-family:Dialog"
     id="text60">LoadTransferCycle</text>
  <text
     x="96.668861"
     y="331.8074"
     style="font-size:12px;font-family:Dialog"
     id="text62">sd</text>
  <line
     x1="93.668861"
     y1="334.8074"
     x2="108.66886"
     y2="334.8074"
     id="line64"
     style="fill:none;stroke:#000000;stroke-width:1" />
  <line
     x1="118.66886"
     y1="319.8074"
     x2="118.66886"
     y2="327.8074"
     id="line66"
     style="fill:none;stroke:#000000;stroke-width:1" />
  <line
     x1="108.66886"
     y1="334.8074"
     x2="118.66886"
     y2="327.8074"
     id="line68"
     style="fill:none;stroke:#000000;stroke-width:1" />
  <ellipse
     cx="361"
     cy="433"
     rx="8"
     ry="8"
     id="ellipse70"
     sodipodi:cx="361"
     sodipodi:cy="433"
     sodipodi:rx="8"
     sodipodi:ry="8"
     style="fill:#000000"
     transform="translate(-100.33114,-16.192603)" />
  <ellipse
     cx="361"
     cy="433"
     rx="10"
     ry="10"
     id="ellipse72"
     sodipodi:cx="361"
     sodipodi:cy="433"
     sodipodi:rx="10"
     sodipodi:ry="10"
     style="fill:none;stroke:#000000;stroke-width:1"
     transform="translate(-100.33114,-16.192603)" />
  <line
     x1="260.66885"
     y1="406.8074"
     x2="260.66885"
     y2="401.8074"
     id="line74"
     style="fill:none;stroke:#000000;stroke-width:1" />
  <rect
     x="199.66885"
     y="86.807396"
     width="124"
     height="35"
     id="rect76"
     style="fill:none;stroke:#68e5ff;stroke-width:1" />
  <rect
     x="198.66885"
     y="85.807396"
     width="124"
     height="35"
     id="rect78"
     style="fill:none;stroke:#000000;stroke-width:1" />
  <line
     x1="260.66885"
     y1="85.807396"
     x2="260.66885"
     y2="80.807396"
     id="line80"
     style="fill:none;stroke:#000000;stroke-width:1" />
  <line
     x1="260.66885"
     y1="120.8074"
     x2="260.66885"
     y2="125.8074"
     id="line82"
     style="fill:none;stroke:#000000;stroke-width:1" />
  <text
     x="197.66885"
     y="115.8074"
     style="font-size:12px;font-family:Dialog"
     id="text84">LoadConfigure</text>
  <text
     x="201.66885"
     y="97.807396"
     style="font-size:12px;font-family:Dialog"
     id="text86">sd</text>
  <line
     x1="198.66885"
     y1="100.8074"
     x2="213.66885"
     y2="100.8074"
     id="line88"
     style="fill:none;stroke:#000000;stroke-width:1" />
  <line
     x1="223.66885"
     y1="85.807396"
     x2="223.66885"
     y2="93.807396"
     id="line90"
     style="fill:none;stroke:#000000;stroke-width:1" />
  <line
     x1="213.66885"
     y1="100.8074"
     x2="223.66885"
     y2="93.807396"
     id="line92"
     style="fill:none;stroke:#000000;stroke-width:1" />
  <line
     x1="260.66885"
     y1="173.8074"
     x2="260.66885"
     y2="203.8074"
     id="line94"
     style="fill:none;stroke:#000000;stroke-width:1" />
  <line
     x1="245.66885"
     y1="188.8074"
     x2="275.66885"
     y2="188.8074"
     id="line96"
     style="fill:none;stroke:#000000;stroke-width:1" />
  <line
     x1="260.66885"
     y1="253.8074"
     x2="275.66885"
     y2="268.8074"
     id="line114"
     style="fill:none;stroke:#000000;stroke-width:1" />
  <line
     x1="245.66885"
     y1="268.8074"
     x2="260.66885"
     y2="283.8074"
     id="line116"
     style="fill:none;stroke:#000000;stroke-width:1" />
  <line
     x1="260.66885"
     y1="253.8074"
     x2="245.66885"
     y2="268.8074"
     id="line118"
     style="fill:none;stroke:#000000;stroke-width:1" />
  <line
     x1="275.66885"
     y1="268.8074"
     x2="260.66885"
     y2="283.8074"
     id="line120"
     style="fill:none;stroke:#000000;stroke-width:1" />
  <line
     x1="260.66885"
     y1="253.8074"
     x2="260.66885"
     y2="243.8074"
     id="line122"
     style="fill:none;stroke:#000000;stroke-width:1" />
  <line
     x1="245.66885"
     y1="268.8074"
     x2="220.66885"
     y2="268.8074"
     id="line124"
     style="fill:none;stroke:#000000;stroke-width:1" />
  <line
     x1="275.66885"
     y1="268.8074"
     x2="300.66885"
     y2="268.8074"
     id="line126"
     style="fill:none;stroke:#000000;stroke-width:1" />
  <line
     x1="260.66885"
     y1="283.8074"
     x2="260.66885"
     y2="308.8074"
     id="line128"
     style="fill:none;stroke:#000000;stroke-width:1" />
  <text
     x="170.66885"
     y="263.8074"
     style="font-size:12px;font-family:Dialog"
     id="text130">[ samplesToLoad &gt; 0 ]</text>
  <text
     x="280.66885"
     y="263.8074"
     style="font-size:12px;font-family:Dialog"
     id="text132">[ ]</text>
  <text
     x="265.66885"
     y="298.8074"
     style="font-size:12px;font-family:Dialog"
     id="text134">[ else ]</text>
  <g
     id="g3279"
     transform="translate(-87.90297,457.51014)">
    <line
       id="line3219"
       y2="118"
       x2="372"
       y1="118"
       x1="141"
       style="fill:none;stroke:#000000;stroke-width:1" />
    <line
       id="line3221"
       y2="122"
       x2="363"
       y1="118"
       x1="372"
       style="fill:none;stroke:#000000;stroke-width:1" />
    <line
       id="line3223"
       y2="113"
       x2="363"
       y1="118"
       x1="372"
       style="fill:none;stroke:#000000;stroke-width:1" />
    <text
       id="text3225"
       style="font-size:12px;font-family:Dialog"
       y="113"
       x="173">Read(sourceAddress, size)</text>
    <line
       id="line3227"
       y2="148"
       x2="623"
       y1="148"
       x1="372"
       style="fill:none;stroke:#000000;stroke-width:1" />
    <line
       id="line3229"
       y2="152"
       x2="614"
       y1="148"
       x1="623"
       style="fill:none;stroke:#000000;stroke-width:1" />
    <line
       id="line3231"
       y2="143"
       x2="614"
       y1="148"
       x1="623"
       style="fill:none;stroke:#000000;stroke-width:1" />
    <text
       id="text3233"
       style="font-size:12px;font-family:Dialog"
       y="143"
       x="414">Read(sourceAddress, size)</text>
    <line
       id="line3235"
       y2="178"
       x2="372"
       y1="178"
       x1="623"
       style="fill:none;stroke:#000000;stroke-width:1" />
    <line
       id="line3237"
       y2="173"
       x2="380"
       y1="178"
       x1="372"
       style="fill:none;stroke:#000000;stroke-width:1" />
    <line
       id="line3239"
       y2="182"
       x2="380"
       y1="178"
       x1="372"
       style="fill:none;stroke:#000000;stroke-width:1" />
    <text
       id="text3241"
       style="font-size:12px;font-family:Dialog"
       y="173"
       x="455">Transfer(size)</text>
    <line
       id="line3243"
       y2="208"
       x2="141"
       y1="208"
       x1="372"
       style="fill:none;stroke:#000000;stroke-width:1" />
    <line
       id="line3245"
       y2="203"
       x2="149"
       y1="208"
       x1="141"
       style="fill:none;stroke:#000000;stroke-width:1" />
    <line
       id="line3247"
       y2="212"
       x2="149"
       y1="208"
       x1="141"
       style="fill:none;stroke:#000000;stroke-width:1" />
    <text
       id="text3249"
       style="font-size:12px;font-family:Dialog"
       y="203"
       x="214">Transfer(size)</text>
    <text
       id="text3251"
       style="font-size:12px;font-family:Dialog"
       y="55"
       x="111">CPU_Load</text>
    <line
       id="line3253"
       y2="56"
       x2="171"
       y1="56"
       x1="111"
       style="fill:none;stroke:#000000;stroke-width:1" />
    <line
       id="line3255"
       y2="558"
       x2="141"
       y1="58"
       x1="141"
       style="fill:none;stroke:#000000;stroke-width:1" />
    <rect
       id="rect3257"
       ry="5"
       rx="5"
       height="20"
       width="257"
       y="237"
       x="13"
       style="fill:none;stroke:#000000;stroke-width:1" />
    <text
       id="text3259"
       style="font-size:12px;font-family:Dialog"
       y="252"
       x="4">samplesToLoad = samplesToLoad - size</text>
    <text
       id="text3261"
       style="font-size:12px;font-family:Dialog"
       y="55"
       x="567">Src_Storage_Load</text>
    <line
       id="line3263"
       y2="56"
       x2="679"
       y1="56"
       x1="567"
       style="fill:none;stroke:#000000;stroke-width:1" />
    <line
       id="line3265"
       y2="558"
       x2="623"
       y1="58"
       x1="623"
       style="fill:none;stroke:#000000;stroke-width:1" />
    <text
       id="text3267"
       style="font-size:12px;font-family:Dialog"
       y="55"
       x="328">Transfer_Load</text>
    <line
       id="line3269"
       y2="56"
       x2="416"
       y1="56"
       x1="328"
       style="fill:none;stroke:#000000;stroke-width:1" />
    <line
       id="line3271"
       y2="558"
       x2="372"
       y1="58"
       x1="372"
       style="fill:none;stroke:#000000;stroke-width:1" />
  </g>
  <line
     style="fill:none;stroke:#000000;stroke-width:1"
     x1="973.71985"
     y1="197.78076"
     x2="973.71985"
     y2="237.78076"
     id="line3488" />
  <polygon
     style="fill:#000000"
     points="362,263 358,272 353,263 "
     id="polygon3490"
     transform="translate(615.71983,-34.219224)" />
  <polygon
     style="fill:none;stroke:#000000;stroke-width:1"
     points="362,263 358,272 353,263 "
     id="polygon3492"
     transform="translate(615.71983,-34.219224)" />
  <line
     style="fill:none;stroke:#000000;stroke-width:1"
     x1="973.71985"
     y1="119.78077"
     x2="973.71985"
     y2="167.78076"
     id="line3494" />
  <polygon
     style="fill:#000000"
     points="362,193 358,202 353,193 "
     id="polygon3496"
     transform="translate(615.71983,-34.219224)" />
  <polygon
     style="fill:none;stroke:#000000;stroke-width:1"
     points="362,193 358,202 353,193 "
     id="polygon3498"
     transform="translate(615.71983,-34.219224)" />
  <line
     style="fill:none;stroke:#000000;stroke-width:1"
     x1="973.71985"
     y1="28.780769"
     x2="973.71985"
     y2="74.780769"
     id="line3500" />
  <polygon
     style="fill:#000000"
     points="362,100 358,109 353,100 "
     id="polygon3502"
     transform="translate(615.71983,-34.219224)" />
  <polygon
     style="fill:none;stroke:#000000;stroke-width:1"
     points="362,100 358,109 353,100 "
     id="polygon3504"
     transform="translate(615.71983,-34.219224)" />
  <line
     style="fill:none;stroke:#000000;stroke-width:1"
     x1="973.71985"
     y1="302.78076"
     x2="973.71985"
     y2="395.78076"
     id="line3506" />
  <polygon
     style="fill:#000000"
     points="362,421 358,430 353,421 "
     id="polygon3508"
     transform="translate(615.71983,-34.219224)" />
  <polygon
     style="fill:none;stroke:#000000;stroke-width:1"
     points="362,421 358,430 353,421 "
     id="polygon3510"
     transform="translate(615.71983,-34.219224)" />
  <line
     style="fill:none;stroke:#000000;stroke-width:1"
     x1="933.71985"
     y1="262.78076"
     x2="868.71985"
     y2="262.78076"
     id="line3512" />
  <line
     style="fill:none;stroke:#000000;stroke-width:1"
     x1="868.71985"
     y1="262.78076"
     x2="868.71985"
     y2="304.78076"
     id="line3514" />
  <polygon
     style="fill:#000000"
     points="257,330 253,339 248,330 "
     id="polygon3516"
     transform="translate(615.71983,-34.219224)" />
  <polygon
     style="fill:none;stroke:#000000;stroke-width:1"
     points="257,330 253,339 248,330 "
     id="polygon3518"
     transform="translate(615.71983,-34.219224)" />
  <line
     style="fill:none;stroke:#000000;stroke-width:1"
     x1="868.71985"
     y1="349.78076"
     x2="868.71985"
     y2="402.78076"
     id="line3520" />
  <line
     style="fill:none;stroke:#000000;stroke-width:1"
     x1="868.71985"
     y1="402.78076"
     x2="757.71985"
     y2="402.78076"
     id="line3522" />
  <line
     style="fill:none;stroke:#000000;stroke-width:1"
     x1="757.71985"
     y1="402.78076"
     x2="757.71985"
     y2="182.78076"
     id="line3524" />
  <line
     style="fill:none;stroke:#000000;stroke-width:1"
     x1="757.71985"
     y1="182.78076"
     x2="958.71985"
     y2="182.78076"
     id="line3526" />
  <polygon
     style="fill:#000000"
     points="334,212 343,217 334,221 "
     id="polygon3528"
     transform="translate(615.71983,-34.219224)" />
  <polygon
     style="fill:none;stroke:#000000;stroke-width:1"
     points="334,212 343,217 334,221 "
     id="polygon3530"
     transform="translate(615.71983,-34.219224)" />
  <ellipse
     d="m 365,50 c 0,3.865993 -3.13401,7 -7,7 -3.86599,0 -7,-3.134007 -7,-7 0,-3.865993 3.13401,-7 7,-7 3.86599,0 7,3.134007 7,7 z"
     style="fill:#000000"
     sodipodi:ry="7"
     sodipodi:rx="7"
     sodipodi:cy="50"
     sodipodi:cx="358"
     cx="358"
     cy="50"
     rx="7"
     ry="7"
     id="ellipse3532"
     transform="translate(615.71983,-34.219224)" />
  <line
     style="fill:none;stroke:#000000;stroke-width:1"
     x1="973.71985"
     y1="23.780769"
     x2="973.71985"
     y2="28.780769"
     id="line3534" />
  <ellipse
     d="m 366,445 c 0,4.41828 -3.58172,8 -8,8 -4.41828,0 -8,-3.58172 -8,-8 0,-4.41828 3.58172,-8 8,-8 4.41828,0 8,3.58172 8,8 z"
     style="fill:#000000"
     sodipodi:ry="8"
     sodipodi:rx="8"
     sodipodi:cy="445"
     sodipodi:cx="358"
     cx="358"
     cy="445"
     rx="8"
     ry="8"
     id="ellipse3536"
     transform="translate(615.71983,-34.219224)" />
  <ellipse
     d="m 368,445 c 0,5.52285 -4.47715,10 -10,10 -5.52285,0 -10,-4.47715 -10,-10 0,-5.52285 4.47715,-10 10,-10 5.52285,0 10,4.47715 10,10 z"
     style="fill:none;stroke:#000000;stroke-width:1"
     sodipodi:ry="10"
     sodipodi:rx="10"
     sodipodi:cy="445"
     sodipodi:cx="358"
     cx="358"
     cy="445"
     rx="10"
     ry="10"
     id="ellipse3538"
     transform="translate(615.71983,-34.219224)" />
  <line
     style="fill:none;stroke:#000000;stroke-width:1"
     x1="973.71985"
     y1="400.78076"
     x2="973.71985"
     y2="395.78076"
     id="line3540" />
  <rect
     style="fill:none;stroke:#68e5ff;stroke-width:1"
     x="912.71985"
     y="80.780769"
     width="124"
     height="35"
     id="rect3542" />
  <rect
     style="fill:none;stroke:#000000;stroke-width:1"
     x="911.71985"
     y="79.780769"
     width="124"
     height="35"
     id="rect3544" />
  <line
     style="fill:none;stroke:#000000;stroke-width:1"
     x1="973.71985"
     y1="79.780769"
     x2="973.71985"
     y2="74.780769"
     id="line3546" />
  <line
     style="fill:none;stroke:#000000;stroke-width:1"
     x1="973.71985"
     y1="114.78077"
     x2="973.71985"
     y2="119.78077"
     id="line3548" />
  <text
     x="910.71985"
     y="109.78077"
     style="font-size:12px;font-family:Dialog"
     id="text3550">StoreConfigure</text>
  <text
     x="914.71985"
     y="91.780769"
     style="font-size:12px;font-family:Dialog"
     id="text3552">sd</text>
  <line
     style="fill:none;stroke:#000000;stroke-width:1"
     x1="911.71985"
     y1="94.780769"
     x2="926.71985"
     y2="94.780769"
     id="line3554" />
  <line
     style="fill:none;stroke:#000000;stroke-width:1"
     x1="936.71985"
     y1="79.780769"
     x2="936.71985"
     y2="87.780769"
     id="line3556" />
  <line
     style="fill:none;stroke:#000000;stroke-width:1"
     x1="926.71985"
     y1="94.780769"
     x2="936.71985"
     y2="87.780769"
     id="line3558" />
  <line
     style="fill:none;stroke:#000000;stroke-width:1"
     x1="973.71985"
     y1="167.78076"
     x2="973.71985"
     y2="197.78076"
     id="line3560" />
  <line
     style="fill:none;stroke:#000000;stroke-width:1"
     x1="958.71985"
     y1="182.78076"
     x2="988.71985"
     y2="182.78076"
     id="line3562" />
  <rect
     style="fill:none;stroke:#68e5ff;stroke-width:1"
     x="807.71985"
     y="310.78076"
     width="124"
     height="35"
     id="rect3564" />
  <rect
     style="fill:none;stroke:#000000;stroke-width:1"
     x="806.71985"
     y="309.78076"
     width="124"
     height="35"
     id="rect3566" />
  <line
     style="fill:none;stroke:#000000;stroke-width:1"
     x1="868.71985"
     y1="309.78076"
     x2="868.71985"
     y2="304.78076"
     id="line3568" />
  <line
     style="fill:none;stroke:#000000;stroke-width:1"
     x1="868.71985"
     y1="344.78076"
     x2="868.71985"
     y2="349.78076"
     id="line3570" />
  <text
     x="805.71985"
     y="339.78076"
     style="font-size:12px;font-family:Dialog"
     id="text3572">StoreTransferCycle</text>
  <text
     x="809.71985"
     y="321.78076"
     style="font-size:12px;font-family:Dialog"
     id="text3574">sd</text>
  <line
     style="fill:none;stroke:#000000;stroke-width:1"
     x1="806.71985"
     y1="324.78076"
     x2="821.71985"
     y2="324.78076"
     id="line3576" />
  <line
     style="fill:none;stroke:#000000;stroke-width:1"
     x1="831.71985"
     y1="309.78076"
     x2="831.71985"
     y2="317.78076"
     id="line3578" />
  <line
     style="fill:none;stroke:#000000;stroke-width:1"
     x1="821.71985"
     y1="324.78076"
     x2="831.71985"
     y2="317.78076"
     id="line3580" />
  <line
     style="fill:none;stroke:#000000;stroke-width:1"
     x1="973.71985"
     y1="247.78076"
     x2="988.71985"
     y2="262.78076"
     id="line3582" />
  <line
     style="fill:none;stroke:#000000;stroke-width:1"
     x1="958.71985"
     y1="262.78076"
     x2="973.71985"
     y2="277.78076"
     id="line3584" />
  <line
     style="fill:none;stroke:#000000;stroke-width:1"
     x1="973.71985"
     y1="247.78076"
     x2="958.71985"
     y2="262.78076"
     id="line3586" />
  <line
     style="fill:none;stroke:#000000;stroke-width:1"
     x1="988.71985"
     y1="262.78076"
     x2="973.71985"
     y2="277.78076"
     id="line3588" />
  <line
     style="fill:none;stroke:#000000;stroke-width:1"
     x1="973.71985"
     y1="247.78076"
     x2="973.71985"
     y2="237.78076"
     id="line3590" />
  <line
     style="fill:none;stroke:#000000;stroke-width:1"
     x1="958.71985"
     y1="262.78076"
     x2="933.71985"
     y2="262.78076"
     id="line3592" />
  <line
     style="fill:none;stroke:#000000;stroke-width:1"
     x1="988.71985"
     y1="262.78076"
     x2="1013.7198"
     y2="262.78076"
     id="line3594" />
  <line
     style="fill:none;stroke:#000000;stroke-width:1"
     x1="973.71985"
     y1="277.78076"
     x2="973.71985"
     y2="302.78076"
     id="line3596" />
  <text
     x="883.71985"
     y="257.78076"
     style="font-size:12px;font-family:Dialog"
     id="text3598">[ samplesToStore &gt; 0 ]</text>
  <text
     x="993.71985"
     y="257.78076"
     style="font-size:12px;font-family:Dialog"
     id="text3600">[ ]</text>
  <text
     x="978.71985"
     y="292.78076"
     style="font-size:12px;font-family:Dialog"
     id="text3602">[ else ]</text>
  <g
     id="g3824"
     transform="translate(597.90949,429.51015)">
    <line
       id="line3780"
       y2="116"
       x2="491"
       y1="116"
       x1="232"
       style="fill:none;stroke:#000000;stroke-width:1" />
    <line
       id="line3782"
       y2="120"
       x2="482"
       y1="116"
       x1="491"
       style="fill:none;stroke:#000000;stroke-width:1" />
    <line
       id="line3784"
       y2="111"
       x2="482"
       y1="116"
       x1="491"
       style="fill:none;stroke:#000000;stroke-width:1" />
    <text
       id="text3786"
       style="font-size:12px;font-family:Dialog"
       y="111"
       x="264">Write(destinationAddress, size)</text>
    <line
       id="line3788"
       y2="146"
       x2="725"
       y1="146"
       x1="491"
       style="fill:none;stroke:#000000;stroke-width:1" />
    <line
       id="line3790"
       y2="150"
       x2="716"
       y1="146"
       x1="725"
       style="fill:none;stroke:#000000;stroke-width:1" />
    <line
       id="line3792"
       y2="141"
       x2="716"
       y1="146"
       x1="725"
       style="fill:none;stroke:#000000;stroke-width:1" />
    <text
       id="text3794"
       style="font-size:12px;font-family:Dialog"
       y="141"
       x="511">Write(destinationAddress, size)</text>
    <text
       id="text3796"
       style="font-size:12px;font-family:Dialog"
       y="83"
       x="186">CPU_Controller</text>
    <line
       id="line3798"
       y2="84"
       x2="278"
       y1="84"
       x1="186"
       style="fill:none;stroke:#000000;stroke-width:1" />
    <line
       id="line3800"
       y2="586"
       x2="232"
       y1="86"
       x1="232"
       style="fill:none;stroke:#000000;stroke-width:1" />
    <rect
       id="rect3802"
       ry="5"
       rx="5"
       height="20"
       width="265"
       y="159"
       x="100"
       style="fill:none;stroke:#000000;stroke-width:1" />
    <text
       id="text3804"
       style="font-size:12px;font-family:Dialog"
       y="174"
       x="88">samplesToStore = samplesToStore - size</text>
    <text
       id="text3806"
       style="font-size:12px;font-family:Dialog"
       y="83"
       x="438">TransferInstance</text>
    <line
       id="line3808"
       y2="84"
       x2="544"
       y1="84"
       x1="438"
       style="fill:none;stroke:#000000;stroke-width:1" />
    <line
       id="line3810"
       y2="586"
       x2="491"
       y1="86"
       x1="491"
       style="fill:none;stroke:#000000;stroke-width:1" />
    <text
       id="text3812"
       style="font-size:12px;font-family:Dialog"
       y="83"
       x="657">DESTINATION_Storage</text>
    <line
       id="line3814"
       y2="84"
       x2="793"
       y1="84"
       x1="657"
       style="fill:none;stroke:#000000;stroke-width:1" />
    <line
       id="line3816"
       y2="586"
       x2="725"
       y1="86"
       x1="725"
       style="fill:none;stroke:#000000;stroke-width:1" />
  </g>
</svg>
