<?xml version="1.0" encoding="UTF-8" standalone="no"?>
<svg
   xmlns:dc="http://purl.org/dc/elements/1.1/"
   xmlns:cc="http://creativecommons.org/ns#"
   xmlns:rdf="http://www.w3.org/1999/02/22-rdf-syntax-ns#"
   xmlns:svg="http://www.w3.org/2000/svg"
   xmlns="http://www.w3.org/2000/svg"
   xmlns:sodipodi="http://sodipodi.sourceforge.net/DTD/sodipodi-0.dtd"
   xmlns:inkscape="http://www.inkscape.org/namespaces/inkscape"
   version="1.1"
   id="svg2"
   inkscape:version="0.48.4 r9939"
   width="1400"
   height="800"
   sodipodi:docname="LoadStoreCP.svg">
  <metadata
     id="metadata140">
    <rdf:RDF>
      <cc:Work
         rdf:about="">
        <dc:format>image/svg+xml</dc:format>
        <dc:type
           rdf:resource="http://purl.org/dc/dcmitype/StillImage" />
        <dc:title></dc:title>
      </cc:Work>
    </rdf:RDF>
  </metadata>
  <defs
     id="defs138" />
  <sodipodi:namedview
     pagecolor="#ffffff"
     bordercolor="#666666"
     borderopacity="1"
     objecttolerance="10"
     gridtolerance="10"
     guidetolerance="10"
     inkscape:pageopacity="0"
     inkscape:pageshadow="2"
     inkscape:window-width="1366"
     inkscape:window-height="709"
     id="namedview136"
     showgrid="false"
     width="1352.36px"
     inkscape:zoom="0.63429569"
     inkscape:cx="735.48514"
     inkscape:cy="291.95935"
     inkscape:window-x="0"
     inkscape:window-y="27"
     inkscape:window-maximized="1"
     inkscape:current-layer="svg2" />
  <line
     x1="274.66885"
     y1="259.71292"
     x2="274.66885"
     y2="299.71292"
     id="line4"
     style="fill:none;stroke:#000000;stroke-width:1" />
  <polygon
     points="365,251 361,260 356,251 "
     id="polygon6"
     style="fill:#000000"
     transform="translate(-86.33114,39.712915)" />
  <polygon
     points="365,251 361,260 356,251 "
     id="polygon8"
     style="fill:none;stroke:#000000;stroke-width:1"
     transform="translate(-86.33114,39.712915)" />
  <line
     x1="274.66885"
     y1="181.71292"
     x2="274.66885"
     y2="229.71292"
     id="line10"
     style="fill:none;stroke:#000000;stroke-width:1" />
  <polygon
     points="365,181 361,190 356,181 "
     id="polygon12"
     style="fill:#000000"
     transform="translate(-86.33114,39.712915)" />
  <polygon
     points="365,181 361,190 356,181 "
     id="polygon14"
     style="fill:none;stroke:#000000;stroke-width:1"
     transform="translate(-86.33114,39.712915)" />
  <line
     x1="274.66885"
     y1="90.712914"
     x2="274.66885"
     y2="136.71292"
     id="line16"
     style="fill:none;stroke:#000000;stroke-width:1" />
  <polygon
     points="365,88 361,97 356,88 "
     id="polygon18"
     style="fill:#000000"
     transform="translate(-86.33114,39.712915)" />
  <polygon
     points="365,88 361,97 356,88 "
     id="polygon20"
     style="fill:none;stroke:#000000;stroke-width:1"
     transform="translate(-86.33114,39.712915)" />
  <line
     x1="274.66885"
     y1="364.71292"
     x2="274.66885"
     y2="457.71292"
     id="line22"
     style="fill:none;stroke:#000000;stroke-width:1" />
  <polygon
     points="365,409 361,418 356,409 "
     id="polygon24"
     style="fill:#000000"
     transform="translate(-86.33114,39.712915)" />
  <polygon
     points="365,409 361,418 356,409 "
     id="polygon26"
     style="fill:none;stroke:#000000;stroke-width:1"
     transform="translate(-86.33114,39.712915)" />
  <line
     x1="169.66885"
     y1="415.71292"
     x2="169.66885"
     y2="464.71292"
     id="line28"
     style="fill:none;stroke:#000000;stroke-width:1" />
  <line
     x1="169.66885"
     y1="464.71292"
     x2="58.668861"
     y2="464.71292"
     id="line30"
     style="fill:none;stroke:#000000;stroke-width:1" />
  <line
     x1="58.668861"
     y1="464.71292"
     x2="58.668861"
     y2="244.71292"
     id="line32"
     style="fill:none;stroke:#000000;stroke-width:1" />
  <line
     x1="58.668861"
     y1="244.71292"
     x2="259.66885"
     y2="244.71292"
     id="line34"
     style="fill:none;stroke:#000000;stroke-width:1" />
  <polygon
     points="337,200 346,205 337,209 "
     id="polygon36"
     style="fill:#000000"
     transform="translate(-86.33114,39.712915)" />
  <polygon
     points="337,200 346,205 337,209 "
     id="polygon38"
     style="fill:none;stroke:#000000;stroke-width:1"
     transform="translate(-86.33114,39.712915)" />
  <line
     x1="234.66885"
     y1="324.71292"
     x2="169.66885"
     y2="324.71292"
     id="line40"
     style="fill:none;stroke:#000000;stroke-width:1" />
  <line
     x1="169.66885"
     y1="324.71292"
     x2="169.66885"
     y2="370.71292"
     id="line42"
     style="fill:none;stroke:#000000;stroke-width:1" />
  <polygon
     points="260,322 256,331 251,322 "
     id="polygon44"
     style="fill:#000000"
     transform="translate(-86.33114,39.712915)" />
  <polygon
     points="260,322 256,331 251,322 "
     id="polygon46"
     style="fill:none;stroke:#000000;stroke-width:1"
     transform="translate(-86.33114,39.712915)" />
  <ellipse
     cx="361"
     cy="38"
     rx="7"
     ry="7"
     id="ellipse48"
     sodipodi:cx="361"
     sodipodi:cy="38"
     sodipodi:rx="7"
     sodipodi:ry="7"
     style="fill:#000000"
     transform="translate(-86.33114,39.712915)" />
  <line
     x1="274.66885"
     y1="85.712914"
     x2="274.66885"
     y2="90.712914"
     id="line50"
     style="fill:none;stroke:#000000;stroke-width:1" />
  <rect
     x="108.66886"
     y="376.71292"
     width="124"
     height="35"
     id="rect52"
     style="fill:none;stroke:#68e5ff;stroke-width:1" />
  <rect
     x="107.66886"
     y="375.71292"
     width="124"
     height="35"
     id="rect54"
     style="fill:none;stroke:#000000;stroke-width:1" />
  <line
     x1="169.66885"
     y1="375.71292"
     x2="169.66885"
     y2="370.71292"
     id="line56"
     style="fill:none;stroke:#000000;stroke-width:1" />
  <line
     x1="169.66885"
     y1="410.71292"
     x2="169.66885"
     y2="415.71292"
     id="line58"
     style="fill:none;stroke:#000000;stroke-width:1" />
  <text
     x="114.4724"
     y="404.59814"
     style="font-size:12px;font-family:Dialog"
     id="text60">LoadTransferCycle</text>
  <text
     x="110.66886"
     y="387.71292"
     style="font-size:12px;font-family:Dialog"
     id="text62">sd</text>
  <line
     x1="107.66886"
     y1="390.71292"
     x2="122.66886"
     y2="390.71292"
     id="line64"
     style="fill:none;stroke:#000000;stroke-width:1" />
  <line
     x1="132.66885"
     y1="375.71292"
     x2="132.66885"
     y2="383.71292"
     id="line66"
     style="fill:none;stroke:#000000;stroke-width:1" />
  <line
     x1="122.66886"
     y1="390.71292"
     x2="132.66885"
     y2="383.71292"
     id="line68"
     style="fill:none;stroke:#000000;stroke-width:1" />
  <ellipse
     cx="361"
     cy="433"
     rx="8"
     ry="8"
     id="ellipse70"
     sodipodi:cx="361"
     sodipodi:cy="433"
     sodipodi:rx="8"
     sodipodi:ry="8"
     style="fill:#000000"
     transform="translate(-86.33114,39.712915)" />
  <ellipse
     cx="361"
     cy="433"
     rx="10"
     ry="10"
     id="ellipse72"
     sodipodi:cx="361"
     sodipodi:cy="433"
     sodipodi:rx="10"
     sodipodi:ry="10"
     style="fill:none;stroke:#000000;stroke-width:1"
     transform="translate(-86.33114,39.712915)" />
  <line
     x1="274.66885"
     y1="462.71292"
     x2="274.66885"
     y2="457.71292"
     id="line74"
     style="fill:none;stroke:#000000;stroke-width:1" />
  <rect
     x="213.66885"
     y="142.71292"
     width="124"
     height="35"
     id="rect76"
     style="fill:none;stroke:#68e5ff;stroke-width:1" />
  <rect
     x="212.66885"
     y="141.71292"
     width="124"
     height="35"
     id="rect78"
     style="fill:none;stroke:#000000;stroke-width:1" />
  <line
     x1="274.66885"
     y1="141.71292"
     x2="274.66885"
     y2="136.71292"
     id="line80"
     style="fill:none;stroke:#000000;stroke-width:1" />
  <line
     x1="274.66885"
     y1="176.71292"
     x2="274.66885"
     y2="181.71292"
     id="line82"
     style="fill:none;stroke:#000000;stroke-width:1" />
  <text
     x="231.66885"
     y="167.71292"
     style="font-size:12px;font-family:Dialog"
     id="text84">LoadConfigure</text>
  <text
     x="215.66885"
     y="153.71292"
     style="font-size:12px;font-family:Dialog"
     id="text86">sd</text>
  <line
     x1="212.66885"
     y1="156.71292"
     x2="227.66885"
     y2="156.71292"
     id="line88"
     style="fill:none;stroke:#000000;stroke-width:1" />
  <line
     x1="237.66885"
     y1="141.71292"
     x2="237.66885"
     y2="149.71292"
     id="line90"
     style="fill:none;stroke:#000000;stroke-width:1" />
  <line
     x1="227.66885"
     y1="156.71292"
     x2="237.66885"
     y2="149.71292"
     id="line92"
     style="fill:none;stroke:#000000;stroke-width:1" />
  <line
     x1="274.66885"
     y1="229.71292"
     x2="274.66885"
     y2="259.71292"
     id="line94"
     style="fill:none;stroke:#000000;stroke-width:1" />
  <line
     x1="259.66885"
     y1="244.71292"
     x2="289.66885"
     y2="244.71292"
     id="line96"
     style="fill:none;stroke:#000000;stroke-width:1" />
  <line
     x1="274.66885"
     y1="309.71292"
     x2="289.66885"
     y2="324.71292"
     id="line114"
     style="fill:none;stroke:#000000;stroke-width:1" />
  <line
     x1="259.66885"
     y1="324.71292"
     x2="274.66885"
     y2="339.71292"
     id="line116"
     style="fill:none;stroke:#000000;stroke-width:1" />
  <line
     x1="274.66885"
     y1="309.71292"
     x2="259.66885"
     y2="324.71292"
     id="line118"
     style="fill:none;stroke:#000000;stroke-width:1" />
  <line
     x1="289.66885"
     y1="324.71292"
     x2="274.66885"
     y2="339.71292"
     id="line120"
     style="fill:none;stroke:#000000;stroke-width:1" />
  <line
     x1="274.66885"
     y1="309.71292"
     x2="274.66885"
     y2="299.71292"
     id="line122"
     style="fill:none;stroke:#000000;stroke-width:1" />
  <line
     x1="259.66885"
     y1="324.71292"
     x2="234.66885"
     y2="324.71292"
     id="line124"
     style="fill:none;stroke:#000000;stroke-width:1" />
  <line
     x1="289.66885"
     y1="324.71292"
     x2="314.66885"
     y2="324.71292"
     id="line126"
     style="fill:none;stroke:#000000;stroke-width:1" />
  <line
     x1="274.66885"
     y1="339.71292"
     x2="274.66885"
     y2="364.71292"
     id="line128"
     style="fill:none;stroke:#000000;stroke-width:1" />
  <text
     x="114.43706"
     y="317.48334"
     style="font-size:12px;font-family:Dialog"
     id="text130">[ samplesToLoad &gt; 0 ]</text>
  <text
     x="294.66885"
     y="319.71292"
     style="font-size:12px;font-family:Dialog"
     id="text132">[ ]</text>
  <text
     x="279.66885"
     y="354.71292"
     style="font-size:12px;font-family:Dialog"
     id="text134">[ else ]</text>
  <line
     style="fill:none;stroke:#000000;stroke-width:1"
     x1="67.097031"
     y1="643.41565"
     x2="298.09702"
     y2="643.41565"
     id="line3219" />
  <line
     style="fill:none;stroke:#000000;stroke-width:1"
     x1="298.09702"
     y1="643.41565"
     x2="289.09702"
     y2="647.41565"
     id="line3221" />
  <line
     style="fill:none;stroke:#000000;stroke-width:1"
     x1="298.09702"
     y1="643.41565"
     x2="289.09702"
     y2="638.41565"
     id="line3223" />
  <text
     x="99.097031"
     y="638.41565"
     style="font-size:12px;font-family:Dialog"
     id="text3225">Read(sourceAddress, size)</text>
  <line
     style="fill:none;stroke:#000000;stroke-width:1"
     x1="298.09702"
     y1="673.41565"
     x2="549.09705"
     y2="673.41565"
     id="line3227" />
  <line
     style="fill:none;stroke:#000000;stroke-width:1"
     x1="549.09705"
     y1="673.41565"
     x2="540.09705"
     y2="677.41565"
     id="line3229" />
  <line
     style="fill:none;stroke:#000000;stroke-width:1"
     x1="549.09705"
     y1="673.41565"
     x2="540.09705"
     y2="668.41565"
     id="line3231" />
  <text
     x="340.09702"
     y="668.41565"
     style="font-size:12px;font-family:Dialog"
     id="text3233">Read(sourceAddress, size)</text>
  <line
     style="fill:none;stroke:#000000;stroke-width:1"
     x1="549.09705"
     y1="703.41565"
     x2="298.09702"
     y2="703.41565"
     id="line3235" />
  <line
     style="fill:none;stroke:#000000;stroke-width:1"
     x1="298.09702"
     y1="703.41565"
     x2="306.09702"
     y2="698.41565"
     id="line3237" />
  <line
     style="fill:none;stroke:#000000;stroke-width:1"
     x1="298.09702"
     y1="703.41565"
     x2="306.09702"
     y2="707.41565"
     id="line3239" />
  <text
     x="381.09702"
     y="698.41565"
     style="font-size:12px;font-family:Dialog"
     id="text3241">Transfer(size)</text>
  <line
     style="fill:none;stroke:#000000;stroke-width:1"
     x1="298.09702"
     y1="733.41565"
     x2="67.097031"
     y2="733.41565"
     id="line3243" />
  <line
     style="fill:none;stroke:#000000;stroke-width:1"
     x1="67.097031"
     y1="733.41565"
     x2="75.097031"
     y2="728.41565"
     id="line3245" />
  <line
     style="fill:none;stroke:#000000;stroke-width:1"
     x1="67.097031"
     y1="733.41565"
     x2="75.097031"
     y2="737.41565"
     id="line3247" />
  <text
     x="140.09703"
     y="728.41565"
     style="font-size:12px;font-family:Dialog"
     id="text3249">Transfer(size)</text>
  <text
     x="37.097031"
     y="574.41565"
     style="font-size:12px;font-family:Dialog"
     id="text3251">CPU_Load</text>
  <line
     style="fill:none;stroke:#000000;stroke-width:1"
     x1="37.097031"
     y1="581.41565"
     x2="97.097031"
     y2="581.41565"
     id="line3253" />
  <line
     style="fill:none;stroke:#000000;stroke-width:1"
     x1="67.097031"
     y1="583.41565"
     x2="67.097031"
     y2="1083.4155"
     id="line3255" />
  <rect
     style="fill:none;stroke:#000000;stroke-width:1"
     x="7.0992479"
     y="766.87482"
     width="257"
     height="20"
     rx="5"
     ry="5"
     id="rect3257" />
  <text
     x="14.099248"
     y="781.87482"
     style="font-size:12px;font-family:Dialog"
     id="text3259">samplesToLoad = samplesToLoad - size</text>
  <text
     x="493.09702"
     y="574.41565"
     style="font-size:12px;font-family:Dialog"
     id="text3261">SRC_StorageInstance</text>
  <line
     style="fill:none;stroke:#000000;stroke-width:1"
     x1="493.09702"
     y1="581.41565"
     x2="605.09705"
     y2="581.41565"
     id="line3263" />
  <line
     style="fill:none;stroke:#000000;stroke-width:1"
     x1="549.09705"
     y1="583.41565"
     x2="549.09705"
     y2="1083.4155"
     id="line3265" />
  <text
     x="254.09703"
     y="574.41565"
     style="font-size:12px;font-family:Dialog"
     id="text3267">TransferInstance</text>
  <line
     style="fill:none;stroke:#000000;stroke-width:1"
     x1="254.09703"
     y1="581.41565"
     x2="342.09702"
     y2="581.41565"
     id="line3269" />
  <line
     style="fill:none;stroke:#000000;stroke-width:1"
     x1="298.09702"
     y1="583.41565"
     x2="298.09702"
     y2="1083.4155"
     id="line3271" />
  <line
     style="fill:none;stroke:#000000;stroke-width:1"
     x1="1113.844"
     y1="259.99249"
     x2="1113.844"
     y2="299.99249"
     id="line3488" />
  <polygon
     style="fill:#000000"
     points="353,263 362,263 358,272 "
     id="polygon3490"
     transform="translate(755.84397,27.992501)" />
  <polygon
     style="fill:none;stroke:#000000;stroke-width:1"
     points="353,263 362,263 358,272 "
     id="polygon3492"
     transform="translate(755.84397,27.992501)" />
  <line
     style="fill:none;stroke:#000000;stroke-width:1"
     x1="1113.844"
     y1="181.99249"
     x2="1113.844"
     y2="229.99249"
     id="line3494" />
  <polygon
     style="fill:#000000"
     points="353,193 362,193 358,202 "
     id="polygon3496"
     transform="translate(755.84397,27.992501)" />
  <polygon
     style="fill:none;stroke:#000000;stroke-width:1"
     points="353,193 362,193 358,202 "
     id="polygon3498"
     transform="translate(755.84397,27.992501)" />
  <line
     style="fill:none;stroke:#000000;stroke-width:1"
     x1="1113.844"
     y1="90.992493"
     x2="1113.844"
     y2="136.99249"
     id="line3500" />
  <polygon
     style="fill:#000000"
     points="353,100 362,100 358,109 "
     id="polygon3502"
     transform="translate(755.84397,27.992501)" />
  <polygon
     style="fill:none;stroke:#000000;stroke-width:1"
     points="353,100 362,100 358,109 "
     id="polygon3504"
     transform="translate(755.84397,27.992501)" />
  <line
     style="fill:none;stroke:#000000;stroke-width:1"
     x1="1113.844"
     y1="364.99249"
     x2="1113.844"
     y2="457.99249"
     id="line3506" />
  <polygon
     style="fill:#000000"
     points="353,421 362,421 358,430 "
     id="polygon3508"
     transform="translate(755.84397,27.992501)" />
  <polygon
     style="fill:none;stroke:#000000;stroke-width:1"
     points="353,421 362,421 358,430 "
     id="polygon3510"
     transform="translate(755.84397,27.992501)" />
  <line
     style="fill:none;stroke:#000000;stroke-width:1"
     x1="1073.844"
     y1="324.99249"
     x2="1008.844"
     y2="324.99249"
     id="line3512" />
  <line
     style="fill:none;stroke:#000000;stroke-width:1"
     x1="1008.844"
     y1="324.99249"
     x2="1008.844"
     y2="366.99249"
     id="line3514" />
  <polygon
     style="fill:#000000"
     points="248,330 257,330 253,339 "
     id="polygon3516"
     transform="translate(755.84397,27.992501)" />
  <polygon
     style="fill:none;stroke:#000000;stroke-width:1"
     points="248,330 257,330 253,339 "
     id="polygon3518"
     transform="translate(755.84397,27.992501)" />
  <line
     style="fill:none;stroke:#000000;stroke-width:1"
     x1="1008.844"
     y1="411.99249"
     x2="1008.844"
     y2="464.99249"
     id="line3520" />
  <line
     style="fill:none;stroke:#000000;stroke-width:1"
     x1="1008.844"
     y1="464.99249"
     x2="897.84399"
     y2="464.99249"
     id="line3522" />
  <line
     style="fill:none;stroke:#000000;stroke-width:1"
     x1="897.84399"
     y1="464.99249"
     x2="897.84399"
     y2="244.99249"
     id="line3524" />
  <line
     style="fill:none;stroke:#000000;stroke-width:1"
     x1="897.84399"
     y1="244.99249"
     x2="1098.844"
     y2="244.99249"
     id="line3526" />
  <polygon
     style="fill:#000000"
     points="334,221 334,212 343,217 "
     id="polygon3528"
     transform="translate(755.84397,27.992501)" />
  <polygon
     style="fill:none;stroke:#000000;stroke-width:1"
     points="334,221 334,212 343,217 "
     id="polygon3530"
     transform="translate(755.84397,27.992501)" />
  <ellipse
     d="m 365,50 c 0,3.865993 -3.13401,7 -7,7 -3.86599,0 -7,-3.134007 -7,-7 0,-3.865993 3.13401,-7 7,-7 3.86599,0 7,3.134007 7,7 z"
     style="fill:#000000"
     sodipodi:ry="7"
     sodipodi:rx="7"
     sodipodi:cy="50"
     sodipodi:cx="358"
     cx="358"
     cy="50"
     rx="7"
     ry="7"
     id="ellipse3532"
     transform="translate(755.84397,27.992501)" />
  <line
     style="fill:none;stroke:#000000;stroke-width:1"
     x1="1113.844"
     y1="85.992493"
     x2="1113.844"
     y2="90.992493"
     id="line3534" />
  <ellipse
     d="m 366,445 c 0,4.41828 -3.58172,8 -8,8 -4.41828,0 -8,-3.58172 -8,-8 0,-4.41828 3.58172,-8 8,-8 4.41828,0 8,3.58172 8,8 z"
     style="fill:#000000"
     sodipodi:ry="8"
     sodipodi:rx="8"
     sodipodi:cy="445"
     sodipodi:cx="358"
     cx="358"
     cy="445"
     rx="8"
     ry="8"
     id="ellipse3536"
     transform="translate(755.84397,27.992501)" />
  <ellipse
     d="m 368,445 c 0,5.52285 -4.47715,10 -10,10 -5.52285,0 -10,-4.47715 -10,-10 0,-5.52285 4.47715,-10 10,-10 5.52285,0 10,4.47715 10,10 z"
     style="fill:none;stroke:#000000;stroke-width:1"
     sodipodi:ry="10"
     sodipodi:rx="10"
     sodipodi:cy="445"
     sodipodi:cx="358"
     cx="358"
     cy="445"
     rx="10"
     ry="10"
     id="ellipse3538"
     transform="translate(755.84397,27.992501)" />
  <line
     style="fill:none;stroke:#000000;stroke-width:1"
     x1="1113.844"
     y1="462.99249"
     x2="1113.844"
     y2="457.99249"
     id="line3540" />
  <rect
     style="fill:none;stroke:#68e5ff;stroke-width:1"
     x="1052.844"
     y="142.99249"
     width="124"
     height="35"
     id="rect3542" />
  <rect
     style="fill:none;stroke:#000000;stroke-width:1"
     x="1051.844"
     y="141.99249"
     width="124"
     height="35"
     id="rect3544" />
  <line
     style="fill:none;stroke:#000000;stroke-width:1"
     x1="1113.844"
     y1="141.99249"
     x2="1113.844"
     y2="136.99249"
     id="line3546" />
  <line
     style="fill:none;stroke:#000000;stroke-width:1"
     x1="1113.844"
     y1="176.99249"
     x2="1113.844"
     y2="181.99249"
     id="line3548" />
  <text
     x="1068.6807"
     y="169.76291"
     style="font-size:12px;font-family:Dialog"
     id="text3550">StoreConfigure</text>
  <text
     x="1054.844"
     y="153.99249"
     style="font-size:12px;font-family:Dialog"
     id="text3552">sd</text>
  <line
     style="fill:none;stroke:#000000;stroke-width:1"
     x1="1051.844"
     y1="156.99249"
     x2="1066.844"
     y2="156.99249"
     id="line3554" />
  <line
     style="fill:none;stroke:#000000;stroke-width:1"
     x1="1076.844"
     y1="141.99249"
     x2="1076.844"
     y2="149.99249"
     id="line3556" />
  <line
     style="fill:none;stroke:#000000;stroke-width:1"
     x1="1066.844"
     y1="156.99249"
     x2="1076.844"
     y2="149.99249"
     id="line3558" />
  <line
     style="fill:none;stroke:#000000;stroke-width:1"
     x1="1113.844"
     y1="229.99249"
     x2="1113.844"
     y2="259.99249"
     id="line3560" />
  <line
     style="fill:none;stroke:#000000;stroke-width:1"
     x1="1098.844"
     y1="244.99249"
     x2="1128.844"
     y2="244.99249"
     id="line3562" />
  <rect
     style="fill:none;stroke:#68e5ff;stroke-width:1"
     x="947.84399"
     y="372.99249"
     width="124"
     height="35"
     id="rect3564" />
  <rect
     style="fill:none;stroke:#000000;stroke-width:1"
     x="946.84399"
     y="371.99249"
     width="124"
     height="35"
     id="rect3566" />
  <line
     style="fill:none;stroke:#000000;stroke-width:1"
     x1="1008.844"
     y1="371.99249"
     x2="1008.844"
     y2="366.99249"
     id="line3568" />
  <line
     style="fill:none;stroke:#000000;stroke-width:1"
     x1="1008.844"
     y1="406.99249"
     x2="1008.844"
     y2="411.99249"
     id="line3570" />
  <text
     x="953.64752"
     y="399.76291"
     style="font-size:12px;font-family:Dialog"
     id="text3572">StoreTransferCycle</text>
  <text
     x="949.84399"
     y="383.99249"
     style="font-size:12px;font-family:Dialog"
     id="text3574">sd</text>
  <line
     style="fill:none;stroke:#000000;stroke-width:1"
     x1="946.84399"
     y1="386.99249"
     x2="961.84399"
     y2="386.99249"
     id="line3576" />
  <line
     style="fill:none;stroke:#000000;stroke-width:1"
     x1="971.84399"
     y1="371.99249"
     x2="971.84399"
     y2="379.99249"
     id="line3578" />
  <line
     style="fill:none;stroke:#000000;stroke-width:1"
     x1="961.84399"
     y1="386.99249"
     x2="971.84399"
     y2="379.99249"
     id="line3580" />
  <line
     style="fill:none;stroke:#000000;stroke-width:1"
     x1="1113.844"
     y1="309.99249"
     x2="1128.844"
     y2="324.99249"
     id="line3582" />
  <line
     style="fill:none;stroke:#000000;stroke-width:1"
     x1="1098.844"
     y1="324.99249"
     x2="1113.844"
     y2="339.99249"
     id="line3584" />
  <line
     style="fill:none;stroke:#000000;stroke-width:1"
     x1="1113.844"
     y1="309.99249"
     x2="1098.844"
     y2="324.99249"
     id="line3586" />
  <line
     style="fill:none;stroke:#000000;stroke-width:1"
     x1="1128.844"
     y1="324.99249"
     x2="1113.844"
     y2="339.99249"
     id="line3588" />
  <line
     style="fill:none;stroke:#000000;stroke-width:1"
     x1="1113.844"
     y1="309.99249"
     x2="1113.844"
     y2="299.99249"
     id="line3590" />
  <line
     style="fill:none;stroke:#000000;stroke-width:1"
     x1="1098.844"
     y1="324.99249"
     x2="1073.844"
     y2="324.99249"
     id="line3592" />
  <line
     style="fill:none;stroke:#000000;stroke-width:1"
     x1="1128.844"
     y1="324.99249"
     x2="1153.8439"
     y2="324.99249"
     id="line3594" />
  <line
     style="fill:none;stroke:#000000;stroke-width:1"
     x1="1113.844"
     y1="339.99249"
     x2="1113.844"
     y2="364.99249"
     id="line3596" />
  <text
     x="954.72699"
     y="314.41855"
     style="font-size:12px;font-family:Dialog"
     id="text3598">[ samplesToStore &gt; 0 ]</text>
  <text
     x="1133.844"
     y="319.99249"
     style="font-size:12px;font-family:Dialog"
     id="text3600">[ ]</text>
  <text
     x="1118.844"
     y="354.99249"
     style="font-size:12px;font-family:Dialog"
     id="text3602">[ else ]</text>
  <line
     style="fill:none;stroke:#000000;stroke-width:1"
     x1="843.90948"
     y1="613.41565"
     x2="1102.9095"
     y2="613.41565"
     id="line3780" />
  <line
     style="fill:none;stroke:#000000;stroke-width:1"
     x1="1102.9095"
     y1="613.41565"
     x2="1093.9095"
     y2="617.41565"
     id="line3782" />
  <line
     style="fill:none;stroke:#000000;stroke-width:1"
     x1="1102.9095"
     y1="613.41565"
     x2="1093.9095"
     y2="608.41565"
     id="line3784" />
  <text
     x="875.90948"
     y="608.41565"
     style="font-size:12px;font-family:Dialog"
     id="text3786">Write(destinationAddress, size)</text>
  <line
     style="fill:none;stroke:#000000;stroke-width:1"
     x1="1102.9095"
     y1="643.41565"
     x2="1336.9095"
     y2="643.41565"
     id="line3788" />
  <line
     style="fill:none;stroke:#000000;stroke-width:1"
     x1="1336.9095"
     y1="643.41565"
     x2="1327.9095"
     y2="647.41565"
     id="line3790" />
  <line
     style="fill:none;stroke:#000000;stroke-width:1"
     x1="1336.9095"
     y1="643.41565"
     x2="1327.9095"
     y2="638.41565"
     id="line3792" />
  <text
     x="1122.9095"
     y="638.41565"
     style="font-size:12px;font-family:Dialog"
     id="text3794">Write(destinationAddress, size)</text>
  <text
     x="797.90948"
     y="574.41565"
     style="font-size:12px;font-family:Dialog"
     id="text3796">CPU_Store</text>
  <line
     style="fill:none;stroke:#000000;stroke-width:1"
     x1="797.90948"
     y1="581.41565"
     x2="889.90948"
     y2="581.41565"
     id="line3798" />
  <line
     style="fill:none;stroke:#000000;stroke-width:1"
     x1="843.90948"
     y1="583.41565"
     x2="843.90948"
     y2="1083.4155"
     id="line3800" />
  <rect
     style="fill:none;stroke:#000000;stroke-width:1"
     x="711.90948"
     y="656.41565"
     width="265"
     height="20"
     rx="5"
     ry="5"
     id="rect3802" />
  <text
     x="717.90948"
     y="671.41565"
     style="font-size:12px;font-family:Dialog"
     id="text3804">samplesToStore = samplesToStore - size</text>
  <text
     x="1049.9095"
     y="574.41565"
     style="font-size:12px;font-family:Dialog"
     id="text3806">TransferInstance</text>
  <line
     style="fill:none;stroke:#000000;stroke-width:1"
     x1="1049.9095"
     y1="581.41565"
     x2="1155.9095"
     y2="581.41565"
     id="line3808" />
  <line
     style="fill:none;stroke:#000000;stroke-width:1"
     x1="1102.9095"
     y1="583.41565"
     x2="1102.9095"
     y2="1083.4155"
     id="line3810" />
  <text
     x="1268.9095"
     y="574.41565"
     style="font-size:12px;font-family:Dialog"
     id="text3812">DST_StorageInstance</text>
  <line
     style="fill:none;stroke:#000000;stroke-width:1"
     x1="1268.9095"
     y1="581.41565"
     x2="1404.9095"
     y2="581.41565"
     id="line3814" />
  <line
     style="fill:none;stroke:#000000;stroke-width:1"
     x1="1336.9095"
     y1="583.41565"
     x2="1336.9095"
     y2="1083.4155"
     id="line3816" />
  <text
     x="85.019081"
     y="529.26855"
     style="font-size:12px;font-family:Dialog"
     id="text84-3">
    <tspan
       style="font-size:16px"
       id="tspan4167">(b) LoadTransferCycle Sequence Diagram</tspan>
  </text>
  <text
     x="85.019081"
     y="53.056572"
     style="font-size:12px;font-family:Dialog"
     id="text84-3-1">
    <tspan
       style="font-size:16px"
       id="tspan4165">(a) main Activity Diagram for a load operation CP</tspan>
  </text>
  <text
     x="932.53644"
     y="53.056572"
     style="font-size:12px;font-family:Dialog"
     id="text84-3-1-8">
    <tspan
       style="font-size:16px"
       id="tspan4161">(c) main Activity Diagram for a store operation CP</tspan>
  </text>
  <text
     x="932.53644"
     y="529.26855"
     style="font-size:12px;font-family:Dialog"
     id="text84-3-14">
    <tspan
       style="font-size:16px"
       id="tspan4163">(d) StoreTransferCycle Sequence Diagram</tspan>
  </text>
</svg>
