<?xml version="1.0" encoding="UTF-8" standalone="no"?>
<svg
   xmlns:dc="http://purl.org/dc/elements/1.1/"
   xmlns:cc="http://creativecommons.org/ns#"
   xmlns:rdf="http://www.w3.org/1999/02/22-rdf-syntax-ns#"
   xmlns:svg="http://www.w3.org/2000/svg"
   xmlns="http://www.w3.org/2000/svg"
   xmlns:sodipodi="http://sodipodi.sourceforge.net/DTD/sodipodi-0.dtd"
   xmlns:inkscape="http://www.inkscape.org/namespaces/inkscape"
   version="1.1"
   id="svg2"
   inkscape:version="0.48.4 r9939"
   width="400.09"
   height="400.35999"
   sodipodi:docname="mainCPPollingDMA.svg">
  <metadata
     id="metadata148">
    <rdf:RDF>
      <cc:Work
         rdf:about="">
        <dc:format>image/svg+xml</dc:format>
        <dc:type
           rdf:resource="http://purl.org/dc/dcmitype/StillImage" />
      </cc:Work>
    </rdf:RDF>
  </metadata>
  <defs
     id="defs146" />
  <sodipodi:namedview
     pagecolor="#ffffff"
     bordercolor="#666666"
     borderopacity="1"
     objecttolerance="10"
     gridtolerance="10"
     guidetolerance="10"
     inkscape:pageopacity="0"
     inkscape:pageshadow="2"
     inkscape:window-width="1366"
     inkscape:window-height="709"
     id="namedview144"
     showgrid="false"
     inkscape:zoom="0.89702957"
     inkscape:cx="372.04724"
     inkscape:cy="273.93281"
     inkscape:window-x="0"
     inkscape:window-y="27"
     inkscape:window-maximized="1"
     inkscape:current-layer="svg2" />
  <line
     x1="319.47861"
     y1="263.88889"
     x2="244.47861"
     y2="320.88885"
     id="line4"
     style="fill:none;stroke:#000000;stroke-width:1" />
  <polygon
     points="314,345 305,347 308,337 "
     id="polygon6"
     transform="translate(-60.521382,-26.11107)"
     style="fill:#000000" />
  <polygon
     points="314,345 305,347 308,337 "
     id="polygon8"
     transform="translate(-60.521382,-26.11107)"
     style="fill:none;stroke:#000000;stroke-width:1" />
  <line
     x1="191.47861"
     y1="118.88892"
     x2="191.47861"
     y2="159.88892"
     id="line10"
     style="fill:none;stroke:#000000;stroke-width:1" />
  <polygon
     points="256,177 252,186 247,177 "
     id="polygon12"
     transform="translate(-60.521382,-26.11107)"
     style="fill:#000000" />
  <polygon
     points="256,177 252,186 247,177 "
     id="polygon14"
     transform="translate(-60.521382,-26.11107)"
     style="fill:none;stroke:#000000;stroke-width:1" />
  <line
     x1="191.47861"
     y1="35.888931"
     x2="191.47861"
     y2="73.888931"
     id="line16"
     style="fill:none;stroke:#000000;stroke-width:1" />
  <polygon
     points="256,91 252,100 247,91 "
     id="polygon18"
     transform="translate(-60.521382,-26.11107)"
     style="fill:#000000" />
  <polygon
     points="256,91 252,100 247,91 "
     id="polygon20"
     transform="translate(-60.521382,-26.11107)"
     style="fill:none;stroke:#000000;stroke-width:1" />
  <ellipse
     cx="252"
     cy="49"
     rx="7"
     ry="7"
     id="ellipse22"
     sodipodi:cx="252"
     sodipodi:cy="49"
     sodipodi:rx="7"
     sodipodi:ry="7"
     transform="translate(-60.521382,-26.11107)"
     style="fill:#000000" />
  <line
     x1="191.47861"
     y1="30.888931"
     x2="191.47861"
     y2="35.888931"
     id="line24"
     style="fill:none;stroke:#000000;stroke-width:1" />
  <rect
     x="130.47862"
     y="79.888931"
     width="124"
     height="35"
     id="rect26"
     style="fill:none;stroke:#68e5ff;stroke-width:1" />
  <rect
     x="129.47862"
     y="78.888931"
     width="124"
     height="35"
     id="rect28"
     style="fill:none;stroke:#000000;stroke-width:1" />
  <line
     x1="191.47861"
     y1="78.888931"
     x2="191.47861"
     y2="73.888931"
     id="line30"
     style="fill:none;stroke:#000000;stroke-width:1" />
  <line
     x1="191.47861"
     y1="113.88892"
     x2="191.47861"
     y2="118.88892"
     id="line32"
     style="fill:none;stroke:#000000;stroke-width:1" />
  <text
     x="138.47862"
     y="108.88892"
     style="font-size:12px;font-family:Dialog"
     id="text34">ConfigureTransfer</text>
  <text
     x="132.47862"
     y="90.888931"
     style="font-size:12px;font-family:Dialog"
     id="text36">sd</text>
  <line
     x1="129.47862"
     y1="93.888931"
     x2="144.47862"
     y2="93.888931"
     id="line38"
     style="fill:none;stroke:#000000;stroke-width:1" />
  <line
     x1="154.47862"
     y1="78.888931"
     x2="154.47862"
     y2="86.888931"
     id="line40"
     style="fill:none;stroke:#000000;stroke-width:1" />
  <line
     x1="144.47862"
     y1="93.888931"
     x2="154.47862"
     y2="86.888931"
     id="line42"
     style="fill:none;stroke:#000000;stroke-width:1" />
  <rect
     x="23.478621"
     y="225.88892"
     width="124"
     height="35"
     id="rect44"
     style="fill:none;stroke:#68e5ff;stroke-width:1" />
  <rect
     x="22.478621"
     y="224.88892"
     width="124"
     height="35"
     id="rect46"
     style="fill:none;stroke:#000000;stroke-width:1" />
  <line
     x1="84.478622"
     y1="224.88892"
     x2="84.478622"
     y2="219.88892"
     id="line48"
     style="fill:none;stroke:#000000;stroke-width:1" />
  <line
     x1="84.478622"
     y1="259.88889"
     x2="84.478622"
     y2="264.88889"
     id="line50"
     style="fill:none;stroke:#000000;stroke-width:1" />
  <text
     x="43.478622"
     y="248.8889"
     style="font-size:12px;font-family:Dialog"
     id="text52">TransferCycle</text>
  <text
     x="25.478621"
     y="236.88892"
     style="font-size:12px;font-family:Dialog"
     id="text54">sd</text>
  <line
     x1="22.478621"
     y1="239.88892"
     x2="37.478622"
     y2="239.88892"
     id="line56"
     style="fill:none;stroke:#000000;stroke-width:1" />
  <line
     x1="47.478622"
     y1="224.88892"
     x2="47.478622"
     y2="232.88892"
     id="line58"
     style="fill:none;stroke:#000000;stroke-width:1" />
  <line
     x1="37.478622"
     y1="239.88892"
     x2="47.478622"
     y2="232.88892"
     id="line60"
     style="fill:none;stroke:#000000;stroke-width:1" />
  <ellipse
     cx="256"
     cy="409"
     rx="8"
     ry="8"
     id="ellipse62"
     sodipodi:cx="256"
     sodipodi:cy="409"
     sodipodi:rx="8"
     sodipodi:ry="8"
     transform="translate(-60.521382,-26.11107)"
     style="fill:#000000" />
  <ellipse
     cx="256"
     cy="409"
     rx="10"
     ry="10"
     id="ellipse64"
     sodipodi:cx="256"
     sodipodi:cy="409"
     sodipodi:rx="10"
     sodipodi:ry="10"
     transform="translate(-60.521382,-26.11107)"
     style="fill:none;stroke:#000000;stroke-width:1" />
  <line
     x1="195.47861"
     y1="372.88879"
     x2="195.47861"
     y2="367.88892"
     id="line66"
     style="fill:none;stroke:#000000;stroke-width:1" />
  <text
     x="541"
     y="-530.0022"
     style="font-size:12px;font-family:Dialog"
     id="text88" />
  <rect
     x="116.47862"
     y="159.88892"
     width="150"
     height="5"
     id="rect94"
     style="fill:none;stroke:#000000;stroke-width:1" />
  <rect
     x="116.47862"
     y="159.88892"
     width="149"
     height="4"
     id="rect96"
     style="fill:#000000" />
  <line
     x1="141.47862"
     y1="164.88892"
     x2="84.478622"
     y2="219.88892"
     id="line98"
     style="fill:none;stroke:#000000;stroke-width:1" />
  <polygon
     points="154,243 145,246 147,236 "
     id="polygon100"
     transform="translate(-60.521382,-26.11107)"
     style="fill:#000000" />
  <polygon
     points="154,243 145,246 147,236 "
     id="polygon102"
     transform="translate(-60.521382,-26.11107)"
     style="fill:none;stroke:#000000;stroke-width:1" />
  <line
     x1="240.47861"
     y1="164.88892"
     x2="319.47861"
     y2="218.88892"
     id="line104"
     style="fill:none;stroke:#000000;stroke-width:1" />
  <polygon
     points="375,235 380,245 370,244 "
     id="polygon106"
     transform="translate(-60.521382,-26.11107)"
     style="fill:#000000" />
  <polygon
     points="375,235 380,245 370,244 "
     id="polygon108"
     transform="translate(-60.521382,-26.11107)"
     style="fill:none;stroke:#000000;stroke-width:1" />
  <rect
     x="120.47862"
     y="320.88885"
     width="150"
     height="5"
     id="rect110"
     style="fill:none;stroke:#000000;stroke-width:1" />
  <rect
     x="120.47862"
     y="320.88885"
     width="149"
     height="4"
     id="rect112"
     style="fill:#000000" />
  <line
     x1="84.478622"
     y1="264.88889"
     x2="145.47862"
     y2="320.88885"
     id="line114"
     style="fill:none;stroke:#000000;stroke-width:1" />
  <polygon
     points="203,337 206,347 196,344 "
     id="polygon116"
     transform="translate(-60.521382,-26.11107)"
     style="fill:#000000" />
  <polygon
     points="203,337 206,347 196,344 "
     id="polygon118"
     transform="translate(-60.521382,-26.11107)"
     style="fill:none;stroke:#000000;stroke-width:1" />
  <line
     x1="195.47861"
     y1="325.88885"
     x2="195.47861"
     y2="367.88892"
     id="line120"
     style="fill:none;stroke:#000000;stroke-width:1" />
  <polygon
     points="260,385 256,394 251,385 "
     id="polygon122"
     transform="translate(-60.521382,-26.11107)"
     style="fill:#000000" />
  <polygon
     points="260,385 256,394 251,385 "
     id="polygon124"
     transform="translate(-60.521382,-26.11107)"
     style="fill:none;stroke:#000000;stroke-width:1" />
  <rect
     x="259.47861"
     y="224.88892"
     width="123"
     height="35"
     id="rect126"
     style="fill:none;stroke:#d8bbf9;stroke-width:1" />
  <rect
     x="258.47861"
     y="223.88892"
     width="123"
     height="35"
     id="rect128"
     style="fill:none;stroke:#000000;stroke-width:1" />
  <line
     x1="319.47861"
     y1="223.88892"
     x2="319.47861"
     y2="218.88892"
     id="line130"
     style="fill:none;stroke:#000000;stroke-width:1" />
  <line
     x1="319.47861"
     y1="258.88889"
     x2="319.47861"
     y2="263.88889"
     id="line132"
     style="fill:none;stroke:#000000;stroke-width:1" />
  <text
     x="285.47861"
     y="247.88892"
     style="font-size:12px;font-family:Dialog"
     id="text134">PollingCycle</text>
  <text
     x="261.47861"
     y="235.88892"
     style="font-size:12px;font-family:Dialog"
     id="text136">iod</text>
  <line
     x1="258.47861"
     y1="238.88892"
     x2="273.47861"
     y2="238.88892"
     id="line138"
     style="fill:none;stroke:#000000;stroke-width:1" />
  <line
     x1="283.47861"
     y1="223.88892"
     x2="283.47861"
     y2="231.88892"
     id="line140"
     style="fill:none;stroke:#000000;stroke-width:1" />
  <line
     x1="273.47861"
     y1="238.88892"
     x2="283.47861"
     y2="231.88892"
     id="line142"
     style="fill:none;stroke:#000000;stroke-width:1" />
</svg>
