<?xml version="1.0" encoding="UTF-8" standalone="no"?>
<svg
   xmlns:dc="http://purl.org/dc/elements/1.1/"
   xmlns:cc="http://creativecommons.org/ns#"
   xmlns:rdf="http://www.w3.org/1999/02/22-rdf-syntax-ns#"
   xmlns:svg="http://www.w3.org/2000/svg"
   xmlns="http://www.w3.org/2000/svg"
   xmlns:sodipodi="http://sodipodi.sourceforge.net/DTD/sodipodi-0.dtd"
   xmlns:inkscape="http://www.inkscape.org/namespaces/inkscape"
   version="1.1"
   id="svg2"
   inkscape:version="0.48.4 r9939"
   width="970"
   height="320"
   sodipodi:docname="Merge2.svg">
  <metadata
     id="metadata122">
    <rdf:RDF>
      <cc:Work
         rdf:about="">
        <dc:format>image/svg+xml</dc:format>
        <dc:type
           rdf:resource="http://purl.org/dc/dcmitype/StillImage" />
        <dc:title />
      </cc:Work>
    </rdf:RDF>
  </metadata>
  <defs
     id="defs120" />
  <sodipodi:namedview
     pagecolor="#ffffff"
     bordercolor="#666666"
     borderopacity="1"
     objecttolerance="10"
     gridtolerance="10"
     guidetolerance="10"
     inkscape:pageopacity="0"
     inkscape:pageshadow="2"
     inkscape:window-width="1301"
     inkscape:window-height="744"
     id="namedview118"
     showgrid="false"
     inkscape:zoom="0.6342957"
     inkscape:cx="677.38088"
     inkscape:cy="171.36083"
     inkscape:window-x="65"
     inkscape:window-y="24"
     inkscape:window-maximized="1"
     inkscape:current-layer="svg2" />
  <line
     x1="90.602638"
     y1="116.34875"
     x2="90.602638"
     y2="148.34875"
     id="line4"
     style="fill:none;stroke:#000000;stroke-width:1" />
  <polygon
     points="218,171 227,171 223,180 "
     id="polygon6"
     transform="translate(-132.39737,-31.65123)"
     style="fill:#000000" />
  <polygon
     points="218,171 227,171 223,180 "
     id="polygon8"
     transform="translate(-132.39737,-31.65123)"
     style="fill:none;stroke:#000000;stroke-width:1" />
  <line
     x1="90.602638"
     y1="25.348793"
     x2="90.602638"
     y2="71.348747"
     id="line10"
     style="fill:none;stroke:#000000;stroke-width:1" />
  <polygon
     points="218,94 227,94 223,103 "
     id="polygon12"
     transform="translate(-132.39737,-31.65123)"
     style="fill:#000000" />
  <polygon
     points="218,94 227,94 223,103 "
     id="polygon14"
     transform="translate(-132.39737,-31.65123)"
     style="fill:none;stroke:#000000;stroke-width:1" />
  <line
     x1="90.602638"
     y1="178.34875"
     x2="90.602638"
     y2="243.34875"
     id="line16"
     style="fill:none;stroke:#000000;stroke-width:1" />
  <polygon
     points="218,266 227,266 223,275 "
     id="polygon18"
     transform="translate(-132.39737,-31.65123)"
     style="fill:#000000" />
  <polygon
     points="218,266 227,266 223,275 "
     id="polygon20"
     transform="translate(-132.39737,-31.65123)"
     style="fill:none;stroke:#000000;stroke-width:1" />
  <line
     x1="267.60263"
     y1="233.11136"
     x2="267.60263"
     y2="260.94592"
     id="line22"
     style="fill:none;stroke:#000000;stroke-width:1;stroke-miterlimit:4;stroke-dasharray:none" />
  <polygon
     points="400,338 395,329 404,329 "
     id="polygon24"
     transform="translate(-132.39737,-79.65123)"
     style="fill:#000000" />
  <polygon
     points="400,338 395,329 404,329 "
     id="polygon26"
     transform="translate(-132.39737,-79.65123)"
     style="fill:none;stroke:#000000;stroke-width:1" />
  <line
     x1="172.60263"
     y1="167.34875"
     x2="267.60263"
     y2="167.34875"
     id="line28"
     style="fill:none;stroke:#000000;stroke-width:1" />
  <line
     x1="267.60263"
     y1="167.11322"
     x2="267.60263"
     y2="188.79681"
     id="line30"
     style="fill:none;stroke:#000000;stroke-width:1;stroke-miterlimit:4;stroke-dasharray:none" />
  <polygon
     points="404,231 400,240 395,231 "
     id="polygon32"
     transform="translate(-132.39737,-51.65123)"
     style="fill:#000000" />
  <polygon
     points="404,231 400,240 395,231 "
     id="polygon34"
     transform="translate(-132.39737,-51.65123)"
     style="fill:none;stroke:#000000;stroke-width:1" />
  <ellipse
     cx="223"
     cy="44"
     rx="7"
     ry="7"
     id="ellipse36"
     sodipodi:cx="223"
     sodipodi:cy="44"
     sodipodi:rx="7"
     sodipodi:ry="7"
     transform="translate(-132.39737,-11.65123)"
     style="fill:#000000" />
  <line
     x1="90.602638"
     y1="40.348793"
     x2="90.602638"
     y2="45.348793"
     id="line38"
     style="fill:none;stroke:#000000;stroke-width:1" />
  <rect
     x="206.60263"
     y="194.34875"
     width="124"
     height="35"
     id="rect40"
     style="fill:none;stroke:#68e5ff;stroke-width:1" />
  <rect
     x="205.60263"
     y="193.34875"
     width="124"
     height="35"
     id="rect42"
     style="fill:none;stroke:#000000;stroke-width:1" />
  <line
     x1="267.60263"
     y1="193.34875"
     x2="267.60263"
     y2="188.34875"
     id="line44"
     style="fill:none;stroke:#000000;stroke-width:1" />
  <line
     x1="267.60263"
     y1="228.34875"
     x2="267.60263"
     y2="233.34875"
     id="line46"
     style="fill:none;stroke:#000000;stroke-width:1" />
  <text
     x="230.60263"
     y="221.34875"
     style="font-size:12px;font-family:Dialog"
     id="text48">TransferCycle</text>
  <text
     x="208.60263"
     y="205.34875"
     style="font-size:12px;font-family:Dialog"
     id="text50">sd</text>
  <line
     x1="205.60263"
     y1="208.34875"
     x2="220.60263"
     y2="208.34875"
     id="line52"
     style="fill:none;stroke:#000000;stroke-width:1" />
  <line
     x1="230.60262"
     y1="193.34875"
     x2="230.60262"
     y2="201.34875"
     id="line54"
     style="fill:none;stroke:#000000;stroke-width:1" />
  <line
     x1="220.60263"
     y1="208.34875"
     x2="230.60262"
     y2="201.34875"
     id="line56"
     style="fill:none;stroke:#000000;stroke-width:1" />
  <ellipse
     cx="223"
     cy="290"
     rx="8"
     ry="8"
     id="ellipse58"
     sodipodi:cx="223"
     sodipodi:cy="290"
     sodipodi:rx="8"
     sodipodi:ry="8"
     transform="translate(-132.39737,-31.65123)"
     style="fill:#000000" />
  <ellipse
     cx="223"
     cy="290"
     rx="10"
     ry="10"
     id="ellipse60"
     sodipodi:cx="223"
     sodipodi:cy="290"
     sodipodi:rx="10"
     sodipodi:ry="10"
     transform="translate(-132.39737,-31.65123)"
     style="fill:none;stroke:#000000;stroke-width:1" />
  <line
     x1="90.602638"
     y1="248.34875"
     x2="90.602638"
     y2="243.34875"
     id="line62"
     style="fill:none;stroke:#000000;stroke-width:1" />
  <rect
     x="29.602631"
     y="77.348747"
     width="124"
     height="35"
     id="rect64"
     style="fill:none;stroke:#68e5ff;stroke-width:1" />
  <rect
     x="28.602631"
     y="76.348747"
     width="124"
     height="35"
     id="rect66"
     style="fill:none;stroke:#000000;stroke-width:1" />
  <line
     x1="90.602638"
     y1="76.348747"
     x2="90.602638"
     y2="71.348747"
     id="line68"
     style="fill:none;stroke:#000000;stroke-width:1" />
  <line
     x1="90.602638"
     y1="111.34879"
     x2="90.602638"
     y2="116.34875"
     id="line70"
     style="fill:none;stroke:#000000;stroke-width:1" />
  <text
     x="63.602631"
     y="104.34879"
     style="font-size:12px;font-family:Dialog"
     id="text72">Configure</text>
  <text
     x="31.602631"
     y="88.348793"
     style="font-size:12px;font-family:Dialog"
     id="text74">sd</text>
  <line
     x1="28.602631"
     y1="91.348793"
     x2="43.602634"
     y2="91.348793"
     id="line76"
     style="fill:none;stroke:#000000;stroke-width:1" />
  <line
     x1="53.602638"
     y1="76.348747"
     x2="53.602638"
     y2="84.348747"
     id="line78"
     style="fill:none;stroke:#000000;stroke-width:1" />
  <line
     x1="43.602634"
     y1="91.348793"
     x2="53.602638"
     y2="84.348747"
     id="line80"
     style="fill:none;stroke:#000000;stroke-width:1" />
  <line
     x1="559"
     y1="-623.36218"
     x2="913"
     y2="-623.36218"
     id="line82"
     style="fill:none;stroke:#000000;stroke-width:1" />
  <line
     x1="559"
     y1="-623.36218"
     x2="559"
     y2="-558.36218"
     id="line84"
     style="fill:none;stroke:#000000;stroke-width:1" />
  <line
     x1="559"
     y1="-558.36218"
     x2="898"
     y2="-558.36218"
     id="line86"
     style="fill:none;stroke:#000000;stroke-width:1" />
  <line
     x1="913"
     y1="-623.36218"
     x2="913"
     y2="-573.36218"
     id="line88"
     style="fill:none;stroke:#000000;stroke-width:1" />
  <polygon
     points="560,174 560,110 913,110 913,159 898,174 "
     id="polygon90"
     style="fill:#adbeea"
     transform="translate(0,-732.36216)" />
  <polygon
     points="903,161 898,174 913,159 909,162 "
     id="polygon92"
     style="fill:none;stroke:#000000;stroke-width:1"
     transform="translate(0,-732.36216)" />
  <polygon
     points="903,161 898,174 913,159 909,162 "
     id="polygon94"
     style="fill:#c0c0c0"
     transform="translate(0,-732.36216)" />
  <text
     x="564"
     y="-603.36218"
     style="font-size:12px;font-family:Dialog"
     id="text96">Some parameters are mapping dependent:</text>
  <text
     x="564"
     y="-585.36218"
     style="font-size:12px;font-family:Dialog"
     id="text98">- samplesToLoad (depends on the application model)</text>
  <text
     x="564"
     y="-567.36218"
     style="font-size:12px;font-family:Dialog"
     id="text100">- the source and destination addresses</text>
  <rect
     x="8.6026306"
     y="153.34875"
     width="164"
     height="20"
     rx="5"
     ry="5"
     id="rect102"
     style="fill:none;stroke:#000000;stroke-width:1" />
  <line
     x1="90.602638"
     y1="153.34875"
     x2="90.602638"
     y2="148.34875"
     id="line104"
     style="fill:none;stroke:#000000;stroke-width:1" />
  <line
     x1="90.602638"
     y1="173.34875"
     x2="90.602638"
     y2="178.34875"
     id="line106"
     style="fill:none;stroke:#000000;stroke-width:1" />
  <line
     x1="172.60263"
     y1="163.34875"
     x2="177.60263"
     y2="163.34875"
     id="line108"
     style="fill:none;stroke:#000000;stroke-width:1" />
  <text
     x="12.602631"
     y="168.34875"
     style="font-size:12px;font-family:Dialog"
     id="text110">for(i=counter;i&gt;0;i = i-1)</text>
  <ellipse
     cx="400"
     cy="353"
     rx="8"
     ry="8"
     id="ellipse112"
     sodipodi:cx="400"
     sodipodi:cy="353"
     sodipodi:rx="8"
     sodipodi:ry="8"
     transform="translate(-132.39737,-79.65123)"
     style="fill:#000000" />
  <ellipse
     cx="400"
     cy="353"
     rx="10"
     ry="10"
     id="ellipse114"
     sodipodi:cx="400"
     sodipodi:cy="353"
     sodipodi:rx="10"
     sodipodi:ry="10"
     transform="translate(-132.39737,-79.65123)"
     style="fill:none;stroke:#000000;stroke-width:1" />
  <line
     x1="267.60263"
     y1="263.34875"
     x2="267.60263"
     y2="258.34869"
     id="line116"
     style="fill:none;stroke:#000000;stroke-width:1" />
  <line
     x1="446.43277"
     y1="50.062477"
     x2="446.43277"
     y2="84.0625"
     id="line4-4"
     style="fill:none;stroke:#000000;stroke-width:1" />
  <polygon
     points="239,125 248,125 244,134 "
     id="polygon6-5"
     transform="translate(202.43275,-49.9375)"
     style="fill:#000000" />
  <polygon
     points="239,125 248,125 244,134 "
     id="polygon8-9"
     transform="translate(202.43275,-49.9375)"
     style="fill:none;stroke:#000000;stroke-width:1" />
  <line
     x1="446.43277"
     y1="129.06247"
     x2="446.43277"
     y2="175.0625"
     id="line10-1"
     style="fill:none;stroke:#000000;stroke-width:1" />
  <polygon
     points="239,216 248,216 244,225 "
     id="polygon12-2"
     transform="translate(202.43275,-49.9375)"
     style="fill:#000000" />
  <polygon
     points="239,216 248,216 244,225 "
     id="polygon14-4"
     transform="translate(202.43275,-49.9375)"
     style="fill:none;stroke:#000000;stroke-width:1" />
  <line
     x1="446.43277"
     y1="220.0625"
     x2="446.43277"
     y2="261.06244"
     id="line16-9"
     style="fill:none;stroke:#000000;stroke-width:1" />
  <polygon
     points="239,302 248,302 244,311 "
     id="polygon18-7"
     transform="translate(202.43275,-49.9375)"
     style="fill:#000000" />
  <polygon
     points="239,302 248,302 244,311 "
     id="polygon20-6"
     transform="translate(202.43275,-49.9375)"
     style="fill:none;stroke:#000000;stroke-width:1" />
  <rect
     x="386.43277"
     y="90.0625"
     width="123"
     height="35"
     id="rect22"
     style="fill:none;stroke:#d8bbf9;stroke-width:1" />
  <rect
     x="385.43277"
     y="89.0625"
     width="123"
     height="35"
     id="rect24"
     style="fill:none;stroke:#000000;stroke-width:1" />
  <line
     x1="446.43277"
     y1="89.0625"
     x2="446.43277"
     y2="84.0625"
     id="line26"
     style="fill:none;stroke:#000000;stroke-width:1" />
  <line
     x1="446.43277"
     y1="124.06247"
     x2="446.43277"
     y2="129.06247"
     id="line28-7"
     style="fill:none;stroke:#000000;stroke-width:1" />
  <text
     x="404.43277"
     y="117.06247"
     style="font-size:12px;font-family:Dialog"
     id="text30">DMATransfer1</text>
  <text
     x="388.43277"
     y="101.0625"
     style="font-size:12px;font-family:Dialog"
     id="text32">ad</text>
  <line
     x1="385.43277"
     y1="104.0625"
     x2="400.43277"
     y2="104.0625"
     id="line34"
     style="fill:none;stroke:#000000;stroke-width:1" />
  <line
     x1="410.43277"
     y1="89.0625"
     x2="410.43277"
     y2="97.0625"
     id="line36"
     style="fill:none;stroke:#000000;stroke-width:1" />
  <line
     x1="400.43277"
     y1="104.0625"
     x2="410.43277"
     y2="97.0625"
     id="line38-1"
     style="fill:none;stroke:#000000;stroke-width:1" />
  <rect
     x="386.43277"
     y="181.0625"
     width="123"
     height="35"
     id="rect40-8"
     style="fill:none;stroke:#d8bbf9;stroke-width:1" />
  <rect
     x="385.43277"
     y="180.0625"
     width="123"
     height="35"
     id="rect42-6"
     style="fill:none;stroke:#000000;stroke-width:1" />
  <line
     x1="446.43277"
     y1="180.0625"
     x2="446.43277"
     y2="175.0625"
     id="line44-9"
     style="fill:none;stroke:#000000;stroke-width:1" />
  <line
     x1="446.43277"
     y1="215.0625"
     x2="446.43277"
     y2="220.0625"
     id="line46-3"
     style="fill:none;stroke:#000000;stroke-width:1" />
  <text
     x="404.43277"
     y="208.0625"
     style="font-size:12px;font-family:Dialog"
     id="text48-1">DMATransfer2</text>
  <text
     x="388.43277"
     y="192.0625"
     style="font-size:12px;font-family:Dialog"
     id="text50-1">ad</text>
  <line
     x1="385.43277"
     y1="195.0625"
     x2="400.43277"
     y2="195.0625"
     id="line52-3"
     style="fill:none;stroke:#000000;stroke-width:1" />
  <line
     x1="410.43277"
     y1="180.0625"
     x2="410.43277"
     y2="188.0625"
     id="line54-8"
     style="fill:none;stroke:#000000;stroke-width:1" />
  <line
     x1="400.43277"
     y1="195.0625"
     x2="410.43277"
     y2="188.0625"
     id="line56-9"
     style="fill:none;stroke:#000000;stroke-width:1" />
  <text
     x="758.35828"
     y="-489.59406"
     style="font-size:12px;font-family:Dialog"
     id="text78" />
  <ellipse
     d="m 251,87 c 0,3.865993 -3.13401,7 -7,7 -3.86599,0 -7,-3.134007 -7,-7 0,-3.865993 3.13401,-7 7,-7 3.86599,0 7,3.134007 7,7 z"
     cx="244"
     cy="87"
     rx="7"
     ry="7"
     id="ellipse84"
     sodipodi:cx="244"
     sodipodi:cy="87"
     sodipodi:rx="7"
     sodipodi:ry="7"
     transform="translate(202.43275,-49.9375)"
     style="fill:#000000" />
  <line
     x1="446.43277"
     y1="45.0625"
     x2="446.43277"
     y2="50.062477"
     id="line86-4"
     style="fill:none;stroke:#000000;stroke-width:1" />
  <ellipse
     d="m 252,326 c 0,4.41828 -3.58172,8 -8,8 -4.41828,0 -8,-3.58172 -8,-8 0,-4.41828 3.58172,-8 8,-8 4.41828,0 8,3.58172 8,8 z"
     cx="244"
     cy="326"
     rx="8"
     ry="8"
     id="ellipse88"
     sodipodi:cx="244"
     sodipodi:cy="326"
     sodipodi:rx="8"
     sodipodi:ry="8"
     transform="translate(202.43275,-49.9375)"
     style="fill:#000000" />
  <ellipse
     d="m 254,326 c 0,5.52285 -4.47715,10 -10,10 -5.52285,0 -10,-4.47715 -10,-10 0,-5.52285 4.47715,-10 10,-10 5.52285,0 10,4.47715 10,10 z"
     cx="244"
     cy="326"
     rx="10"
     ry="10"
     id="ellipse90"
     sodipodi:cx="244"
     sodipodi:cy="326"
     sodipodi:rx="10"
     sodipodi:ry="10"
     transform="translate(202.43275,-49.9375)"
     style="fill:none;stroke:#000000;stroke-width:1" />
  <line
     x1="446.43277"
     y1="266.06253"
     x2="446.43277"
     y2="261.06244"
     id="line92"
     style="fill:none;stroke:#000000;stroke-width:1" />
  <line
     x1="709.67206"
     y1="26.444313"
     x2="709.67206"
     y2="65.444313"
     id="line4-0"
     style="fill:none;stroke:#000000;stroke-width:1" />
  <polygon
     points="265,94 260,85 269,85 "
     id="polygon6-0"
     transform="translate(444.67207,-28.55568)"
     style="fill:#000000" />
  <polygon
     points="265,94 260,85 269,85 "
     id="polygon8-2"
     transform="translate(444.67207,-28.55568)"
     style="fill:none;stroke:#000000;stroke-width:1" />
  <line
     x1="709.67206"
     y1="110.44431"
     x2="710.67206"
     y2="159.44431"
     id="line10-3"
     style="fill:none;stroke:#000000;stroke-width:1" />
  <polygon
     points="266,188 260,179 270,179 "
     id="polygon12-4"
     transform="translate(444.67207,-28.55568)"
     style="fill:#000000" />
  <polygon
     points="266,188 260,179 270,179 "
     id="polygon14-0"
     transform="translate(444.67207,-28.55568)"
     style="fill:none;stroke:#000000;stroke-width:1" />
  <line
     x1="710.67206"
     y1="260.44421"
     x2="710.67206"
     y2="290.44421"
     id="line16-2"
     style="fill:none;stroke:#000000;stroke-width:1" />
  <polygon
     points="261,336 270,336 266,345 "
     id="polygon18-4"
     transform="translate(444.67207,-54.55568)"
     style="fill:#000000" />
  <polygon
     points="261,336 270,336 266,345 "
     id="polygon20-7"
     transform="translate(444.67207,-54.55568)"
     style="fill:none;stroke:#000000;stroke-width:1" />
  <line
     x1="891.67206"
     y1="261.44421"
     x2="891.67206"
     y2="303.44421"
     id="line22-8"
     style="fill:none;stroke:#000000;stroke-width:1" />
  <polygon
     points="447,332 442,323 451,323 "
     id="polygon24-5"
     transform="translate(444.67207,-42.55568)"
     style="fill:#000000" />
  <polygon
     points="447,332 442,323 451,323 "
     id="polygon26-6"
     transform="translate(444.67207,-42.55568)"
     style="fill:none;stroke:#000000;stroke-width:1" />
  <line
     x1="710.67206"
     y1="189.1814"
     x2="710.67206"
     y2="213.83746"
     id="line28-5"
     style="fill:none;stroke:#000000;stroke-width:1;stroke-miterlimit:4;stroke-dasharray:none" />
  <polygon
     points="261,261 270,261 266,270 "
     id="polygon30"
     transform="translate(444.67207,-54.55568)"
     style="fill:#000000" />
  <polygon
     points="261,261 270,261 266,270 "
     id="polygon32-0"
     transform="translate(444.67207,-54.55568)"
     style="fill:none;stroke:#000000;stroke-width:1" />
  <ellipse
     d="m 272,42 c 0,3.865993 -3.13401,7 -7,7 -3.86599,0 -7,-3.134007 -7,-7 0,-3.865993 3.13401,-7 7,-7 3.86599,0 7,3.134007 7,7 z"
     cx="265"
     cy="42"
     rx="7"
     ry="7"
     id="ellipse34"
     sodipodi:cx="265"
     sodipodi:cy="42"
     sodipodi:rx="7"
     sodipodi:ry="7"
     transform="translate(444.67207,-18.55568)"
     style="fill:#000000" />
  <line
     x1="709.67206"
     y1="31.444313"
     x2="709.67206"
     y2="36.444313"
     id="line36-8"
     style="fill:none;stroke:#000000;stroke-width:1" />
  <rect
     x="648.67206"
     y="71.444313"
     width="124"
     height="35"
     id="rect38"
     style="fill:none;stroke:#68e5ff;stroke-width:1" />
  <rect
     x="647.67206"
     y="70.444313"
     width="124"
     height="35"
     id="rect40-5"
     style="fill:none;stroke:#000000;stroke-width:1" />
  <line
     x1="709.67206"
     y1="70.444313"
     x2="709.67206"
     y2="65.444313"
     id="line42"
     style="fill:none;stroke:#000000;stroke-width:1" />
  <line
     x1="709.67206"
     y1="105.44431"
     x2="709.67206"
     y2="110.44431"
     id="line44-6"
     style="fill:none;stroke:#000000;stroke-width:1" />
  <text
     x="650.67206"
     y="98.444313"
     style="font-size:12px;font-family:Dialog"
     id="text46">ConfigureDMA_SD1</text>
  <text
     x="650.67206"
     y="82.444313"
     style="font-size:12px;font-family:Dialog"
     id="text48-0">sd</text>
  <line
     x1="647.67206"
     y1="85.444313"
     x2="662.67206"
     y2="85.444313"
     id="line50"
     style="fill:none;stroke:#000000;stroke-width:1" />
  <line
     x1="672.67206"
     y1="70.444313"
     x2="672.67206"
     y2="78.444313"
     id="line52-8"
     style="fill:none;stroke:#000000;stroke-width:1" />
  <line
     x1="662.67206"
     y1="85.444313"
     x2="672.67206"
     y2="78.444313"
     id="line54-5"
     style="fill:none;stroke:#000000;stroke-width:1" />
  <rect
     x="649.67206"
     y="221.44431"
     width="124"
     height="35"
     id="rect56"
     style="fill:none;stroke:#68e5ff;stroke-width:1" />
  <rect
     x="648.67206"
     y="220.44431"
     width="124"
     height="35"
     id="rect58"
     style="fill:none;stroke:#000000;stroke-width:1" />
  <line
     x1="710.67206"
     y1="220.44431"
     x2="710.67206"
     y2="215.44431"
     id="line60"
     style="fill:none;stroke:#000000;stroke-width:1" />
  <line
     x1="710.67206"
     y1="255.44421"
     x2="710.67206"
     y2="260.44421"
     id="line62-5"
     style="fill:none;stroke:#000000;stroke-width:1" />
  <text
     x="651.67206"
     y="248.44421"
     style="font-size:12px;font-family:Dialog"
     id="text64">TerminateDMA_SD1</text>
  <text
     x="651.67206"
     y="232.44421"
     style="font-size:12px;font-family:Dialog"
     id="text66">sd</text>
  <line
     x1="648.67206"
     y1="235.44421"
     x2="663.67206"
     y2="235.44421"
     id="line68-7"
     style="fill:none;stroke:#000000;stroke-width:1" />
  <line
     x1="673.67206"
     y1="220.44431"
     x2="673.67206"
     y2="228.44421"
     id="line70-1"
     style="fill:none;stroke:#000000;stroke-width:1" />
  <line
     x1="663.67206"
     y1="235.44421"
     x2="673.67206"
     y2="228.44421"
     id="line72"
     style="fill:none;stroke:#000000;stroke-width:1" />
  <rect
     x="830.67206"
     y="222.44431"
     width="124"
     height="35"
     id="rect74"
     style="fill:none;stroke:#68e5ff;stroke-width:1" />
  <rect
     x="829.67206"
     y="221.44431"
     width="124"
     height="35"
     id="rect76"
     style="fill:none;stroke:#000000;stroke-width:1" />
  <line
     x1="891.67206"
     y1="221.44431"
     x2="891.67206"
     y2="216.44431"
     id="line78-3"
     style="fill:none;stroke:#000000;stroke-width:1" />
  <line
     x1="891.67206"
     y1="256.44421"
     x2="891.67206"
     y2="261.44421"
     id="line80-1"
     style="fill:none;stroke:#000000;stroke-width:1" />
  <text
     x="846.67206"
     y="249.44431"
     style="font-size:12px;font-family:Dialog"
     id="text82">DMACycle_SD1</text>
  <text
     x="832.67206"
     y="233.44431"
     style="font-size:12px;font-family:Dialog"
     id="text84">sd</text>
  <line
     x1="829.67206"
     y1="236.44431"
     x2="844.67206"
     y2="236.44431"
     id="line86-9"
     style="fill:none;stroke:#000000;stroke-width:1" />
  <line
     x1="854.67206"
     y1="221.44431"
     x2="854.67206"
     y2="229.44431"
     id="line88-5"
     style="fill:none;stroke:#000000;stroke-width:1" />
  <line
     x1="844.67206"
     y1="236.44431"
     x2="854.67206"
     y2="229.44431"
     id="line90"
     style="fill:none;stroke:#000000;stroke-width:1" />
  <ellipse
     d="m 274,360 c 0,4.41828 -3.58172,8 -8,8 -4.41828,0 -8,-3.58172 -8,-8 0,-4.41828 3.58172,-8 8,-8 4.41828,0 8,3.58172 8,8 z"
     cx="266"
     cy="360"
     rx="8"
     ry="8"
     id="ellipse92"
     sodipodi:cx="266"
     sodipodi:cy="360"
     sodipodi:rx="8"
     sodipodi:ry="8"
     transform="translate(444.67207,-54.55568)"
     style="fill:#000000" />
  <ellipse
     d="m 276,360 c 0,5.52285 -4.47715,10 -10,10 -5.52285,0 -10,-4.47715 -10,-10 0,-5.52285 4.47715,-10 10,-10 5.52285,0 10,4.47715 10,10 z"
     cx="266"
     cy="360"
     rx="10"
     ry="10"
     id="ellipse94"
     sodipodi:cx="266"
     sodipodi:cy="360"
     sodipodi:rx="10"
     sodipodi:ry="10"
     transform="translate(444.67207,-54.55568)"
     style="fill:none;stroke:#000000;stroke-width:1" />
  <line
     x1="710.67206"
     y1="295.44421"
     x2="710.67206"
     y2="290.44421"
     id="line96"
     style="fill:none;stroke:#000000;stroke-width:1" />
  <rect
     x="628.67206"
     y="164.44431"
     width="164"
     height="20"
     rx="5"
     ry="5"
     id="rect98"
     style="fill:none;stroke:#000000;stroke-width:1" />
  <line
     x1="710.67206"
     y1="164.44431"
     x2="710.67206"
     y2="159.44431"
     id="line100"
     style="fill:none;stroke:#000000;stroke-width:1" />
  <line
     x1="710.67206"
     y1="184.44431"
     x2="710.67206"
     y2="189.44431"
     id="line102"
     style="fill:none;stroke:#000000;stroke-width:1" />
  <line
     x1="792.67206"
     y1="174.44431"
     x2="797.67206"
     y2="174.44431"
     id="line104-7"
     style="fill:none;stroke:#000000;stroke-width:1" />
  <text
     x="634.67206"
     y="177.44431"
     style="font-size:12px;font-family:Dialog"
     id="text106">for(i=counter1;i&gt;0;i=i-1)</text>
  <ellipse
     d="m 455,347 c 0,4.41828 -3.58172,8 -8,8 -4.41828,0 -8,-3.58172 -8,-8 0,-4.41828 3.58172,-8 8,-8 4.41828,0 8,3.58172 8,8 z"
     cx="447"
     cy="347"
     rx="8"
     ry="8"
     id="ellipse108"
     sodipodi:cx="447"
     sodipodi:cy="347"
     sodipodi:rx="8"
     sodipodi:ry="8"
     transform="translate(444.67207,-42.55568)"
     style="fill:#000000" />
  <ellipse
     d="m 457,347 c 0,5.52285 -4.47715,10 -10,10 -5.52285,0 -10,-4.47715 -10,-10 0,-5.52285 4.47715,-10 10,-10 5.52285,0 10,4.47715 10,10 z"
     cx="447"
     cy="347"
     rx="10"
     ry="10"
     id="ellipse110"
     sodipodi:cx="447"
     sodipodi:cy="347"
     sodipodi:rx="10"
     sodipodi:ry="10"
     transform="translate(444.67207,-42.55568)"
     style="fill:none;stroke:#000000;stroke-width:1" />
  <line
     x1="891.67206"
     y1="294.44421"
     x2="891.67206"
     y2="289.44421"
     id="line112"
     style="fill:none;stroke:#000000;stroke-width:1" />
  <line
     x1="792.67206"
     y1="178.44431"
     x2="891.67206"
     y2="178.44431"
     id="line114"
     style="fill:none;stroke:#000000;stroke-width:1" />
  <line
     x1="891.67206"
     y1="178.44431"
     x2="891.67206"
     y2="216.44431"
     id="line116-6"
     style="fill:none;stroke:#000000;stroke-width:1" />
  <polygon
     points="447,245 442,236 451,236 "
     id="polygon118"
     transform="translate(444.67207,-28.55568)"
     style="fill:#000000" />
  <polygon
     points="447,245 442,236 451,236 "
     id="polygon120"
     transform="translate(444.67207,-28.55568)"
     style="fill:none;stroke:#000000;stroke-width:1" />
  <text
     xml:space="preserve"
     style="font-size:40px;font-style:italic;font-weight:normal;line-height:125%;letter-spacing:0px;word-spacing:0px;fill:#000000;fill-opacity:1;stroke:none;font-family:Sans;-inkscape-font-specification:Sans Italic"
     x="472.2457"
     y="36.264771"
     id="text3323"
     sodipodi:linespacing="125%"><tspan
       sodipodi:role="line"
       id="tspan3325"
       x="472.2457"
       y="36.264771"
       style="font-size:26px;font-style:normal;-inkscape-font-specification:Sans">(b)</tspan></text>
  <text
     xml:space="preserve"
     style="font-size:40px;font-style:italic;font-weight:normal;line-height:125%;letter-spacing:0px;word-spacing:0px;fill:#000000;fill-opacity:1;stroke:none;font-family:Sans;-inkscape-font-specification:Sans Italic"
     x="798.67841"
     y="36.264771"
     id="text3327"
     sodipodi:linespacing="125%"><tspan
       sodipodi:role="line"
       id="tspan3329"
       x="798.67841"
       y="36.264771"
       style="font-size:26px;font-style:normal;-inkscape-font-specification:Sans">(c)</tspan></text>
  <text
     xml:space="preserve"
     style="font-size:40px;font-style:italic;font-weight:normal;line-height:125%;letter-spacing:0px;word-spacing:0px;fill:#000000;fill-opacity:1;stroke:none;font-family:Sans;-inkscape-font-specification:Sans Italic"
     x="194.0285"
     y="36.264771"
     id="text3323-6"
     sodipodi:linespacing="125%"><tspan
       sodipodi:role="line"
       id="tspan3325-5"
       x="194.0285"
       y="36.264771"
       style="font-size:26px;font-style:normal;-inkscape-font-specification:Sans">(a)</tspan></text>
</svg>
