<?xml version="1.0" standalone="no"?>
<!DOCTYPE svg PUBLIC "-//W3C//DTD SVG 1.1//EN" "http://www.w3.org/Graphics/SVG/1.1/DTD/svg11.dtd">
<svg xmlns="http://www.w3.org/2000/svg" version="1.1" width="725" height="568" viewbox="107 13 618 555">
<line  x1="158" y1="123" x2="419" y2="123" stroke="#000000" stroke-width="1" fill="none"/>
<line  x1="419" y1="123" x2="410" y2="127" stroke="#000000" stroke-width="1" fill="none"/>
<line  x1="419" y1="123" x2="410" y2="118" stroke="#000000" stroke-width="1" fill="none"/>
<text  x="166" y="118" style="font-size:12; font-family:SansSerif.plain; fill=#000000">PollingRequest(ID, transferTerminated)</text>
<line  x1="419" y1="143" x2="673" y2="143" stroke="#000000" stroke-width="1" fill="none"/>
<line  x1="673" y1="143" x2="664" y2="147" stroke="#000000" stroke-width="1" fill="none"/>
<line  x1="673" y1="143" x2="664" y2="138" stroke="#000000" stroke-width="1" fill="none"/>
<text  x="424" y="138" style="font-size:12; font-family:SansSerif.plain; fill=#000000">PollingRequest(ID, transferTerminated)</text>
<line  x1="673" y1="183" x2="419" y2="183" stroke="#000000" stroke-width="1" fill="none"/>
<line  x1="419" y1="183" x2="427" y2="178" stroke="#000000" stroke-width="1" fill="none"/>
<line  x1="419" y1="183" x2="427" y2="187" stroke="#000000" stroke-width="1" fill="none"/>
<text  x="450" y="178" style="font-size:12; font-family:SansSerif.plain; fill=#000000">Polling(ID, transferTerminated)</text>
<line  x1="419" y1="223" x2="158" y2="223" stroke="#000000" stroke-width="1" fill="none"/>
<line  x1="158" y1="223" x2="166" y2="218" stroke="#000000" stroke-width="1" fill="none"/>
<line  x1="158" y1="223" x2="166" y2="227" stroke="#000000" stroke-width="1" fill="none"/>
<text  x="192" y="218" style="font-size:12; font-family:SansSerif.plain; fill=#000000">Polling(ID, transferTerminated)</text>
<text  x="112" y="60" style="font-size:12; font-family:SansSerif.plain; fill=#000000">CPU_Controller</text>
<line  x1="112" y1="61" x2="204" y2="61" stroke="#000000" stroke-width="1" fill="none"/>
<line  x1="158" y1="63" x2="158" y2="563" stroke="#000000" stroke-width="1" fill="none"/>
<rect  x="97" y="79" width="122" height="20" rx="5" ry="5" fill="none" stroke="#000000" stroke-width="1"/>
<text  x="102" y="94" style="font-size:12; font-family:SansSerif.plain; fill=#000000">wait(waiting_time)</text>
<text  x="626" y="60" style="font-size:12; font-family:SansSerif.plain; fill=#000000">DMA_Controller</text>
<line  x1="626" y1="61" x2="720" y2="61" stroke="#000000" stroke-width="1" fill="none"/>
<line  x1="673" y1="63" x2="673" y2="563" stroke="#000000" stroke-width="1" fill="none"/>
<text  x="359" y="60" style="font-size:12; font-family:SansSerif.plain; fill=#000000">TransferInstance_4</text>
<line  x1="359" y1="61" x2="479" y2="61" stroke="#000000" stroke-width="1" fill="none"/>
<line  x1="419" y1="63" x2="419" y2="563" stroke="#000000" stroke-width="1" fill="none"/>
</svg>