<?xml version="1.0" encoding="UTF-8" standalone="no"?>
<!-- Created with Inkscape (http://www.inkscape.org/) -->

<svg
   xmlns:dc="http://purl.org/dc/elements/1.1/"
   xmlns:cc="http://creativecommons.org/ns#"
   xmlns:rdf="http://www.w3.org/1999/02/22-rdf-syntax-ns#"
   xmlns:svg="http://www.w3.org/2000/svg"
   xmlns="http://www.w3.org/2000/svg"
   xmlns:sodipodi="http://sodipodi.sourceforge.net/DTD/sodipodi-0.dtd"
   xmlns:inkscape="http://www.inkscape.org/namespaces/inkscape"
   width="500.09"
   height="432.35999"
   id="svg3795"
   version="1.1"
   inkscape:version="0.48.4 r9939"
   sodipodi:docname="New document 6">
  <defs
     id="defs3797" />
  <sodipodi:namedview
     id="base"
     pagecolor="#ffffff"
     bordercolor="#666666"
     borderopacity="1.0"
     inkscape:pageopacity="0.0"
     inkscape:pageshadow="2"
     inkscape:zoom="0.98994949"
     inkscape:cx="375"
     inkscape:cy="196.75119"
     inkscape:document-units="px"
     inkscape:current-layer="layer1"
     showgrid="false"
     inkscape:window-width="1366"
     inkscape:window-height="709"
     inkscape:window-x="0"
     inkscape:window-y="27"
     inkscape:window-maximized="1" />
  <metadata
     id="metadata3800">
    <rdf:RDF>
      <cc:Work
         rdf:about="">
        <dc:format>image/svg+xml</dc:format>
        <dc:type
           rdf:resource="http://purl.org/dc/dcmitype/StillImage" />
        <dc:title></dc:title>
      </cc:Work>
    </rdf:RDF>
  </metadata>
  <g
     inkscape:label="Layer 1"
     inkscape:groupmode="layer"
     id="layer1"
     transform="translate(0,-620.00215)">
    <line
       style="fill:none;stroke:#000000;stroke-width:1"
       x1="214.07143"
       y1="824.96936"
       x2="214.07143"
       y2="859.96936"
       id="line4748" />
    <polygon
       style="fill:#000000"
       points="371,237 380,237 376,246 "
       id="polygon4750"
       transform="translate(-161.92858,613.96933)" />
    <polygon
       style="fill:none;stroke:#000000;stroke-width:1"
       points="371,237 380,237 376,246 "
       id="polygon4752"
       transform="translate(-161.92858,613.96933)" />
    <line
       style="fill:none;stroke:#000000;stroke-width:1"
       x1="214.07143"
       y1="654.96936"
       x2="214.07143"
       y2="703.96936"
       id="line4754" />
    <polygon
       style="fill:#000000"
       points="371,81 380,81 376,90 "
       id="polygon4756"
       transform="translate(-161.92858,613.96933)" />
    <polygon
       style="fill:none;stroke:#000000;stroke-width:1"
       points="371,81 380,81 376,90 "
       id="polygon4758"
       transform="translate(-161.92858,613.96933)" />
    <line
       style="fill:none;stroke:#000000;stroke-width:1"
       x1="174.07143"
       y1="884.96936"
       x2="94.071419"
       y2="884.96936"
       id="line4760" />
    <line
       style="fill:none;stroke:#000000;stroke-width:1"
       x1="94.071419"
       y1="884.96936"
       x2="94.071419"
       y2="936.96936"
       id="line4762" />
    <polygon
       style="fill:#000000"
       points="251,314 260,314 256,323 "
       id="polygon4764"
       transform="translate(-161.92858,613.96933)" />
    <polygon
       style="fill:none;stroke:#000000;stroke-width:1"
       points="251,314 260,314 256,323 "
       id="polygon4766"
       transform="translate(-161.92858,613.96933)" />
    <line
       style="fill:none;stroke:#000000;stroke-width:1"
       x1="254.07141"
       y1="884.96936"
       x2="363.07141"
       y2="884.96936"
       id="line4768" />
    <line
       style="fill:none;stroke:#000000;stroke-width:1"
       x1="363.07141"
       y1="884.96936"
       x2="363.07141"
       y2="939.96936"
       id="line4770" />
    <polygon
       style="fill:#000000"
       points="520,317 529,317 525,326 "
       id="polygon4772"
       transform="translate(-161.92858,613.96933)" />
    <polygon
       style="fill:none;stroke:#000000;stroke-width:1"
       points="520,317 529,317 525,326 "
       id="polygon4774"
       transform="translate(-161.92858,613.96933)" />
    <line
       style="fill:none;stroke:#000000;stroke-width:1"
       x1="94.071419"
       y1="981.96936"
       x2="94.071419"
       y2="1021.9694"
       id="line4776" />
    <polygon
       style="fill:#000000"
       points="251,399 260,399 256,408 "
       id="polygon4778"
       transform="translate(-161.92858,613.96933)" />
    <polygon
       style="fill:none;stroke:#000000;stroke-width:1"
       points="251,399 260,399 256,408 "
       id="polygon4780"
       transform="translate(-161.92858,613.96933)" />
    <line
       style="fill:none;stroke:#000000;stroke-width:1"
       x1="363.07141"
       y1="984.96936"
       x2="363.07141"
       y2="1032.9694"
       id="line4782" />
    <line
       style="fill:none;stroke:#000000;stroke-width:1"
       x1="363.07141"
       y1="1032.9694"
       x2="482.07141"
       y2="1032.9694"
       id="line4784" />
    <line
       style="fill:none;stroke:#000000;stroke-width:1"
       x1="482.07141"
       y1="1032.9694"
       x2="482.07141"
       y2="809.96936"
       id="line4786" />
    <line
       style="fill:none;stroke:#000000;stroke-width:1"
       x1="482.07141"
       y1="809.96936"
       x2="229.07143"
       y2="809.96936"
       id="line4788" />
    <polygon
       style="fill:#000000"
       points="399,191 399,200 391,196 "
       id="polygon4790"
       transform="translate(-161.92858,613.96933)" />
    <polygon
       style="fill:none;stroke:#000000;stroke-width:1"
       points="399,191 399,200 391,196 "
       id="polygon4792"
       transform="translate(-161.92858,613.96933)" />
    <line
       style="fill:none;stroke:#000000;stroke-width:1"
       x1="214.07143"
       y1="748.96936"
       x2="214.07143"
       y2="794.96936"
       id="line4794" />
    <polygon
       style="fill:#000000"
       points="371,172 380,172 376,181 "
       id="polygon4796"
       transform="translate(-161.92858,613.96933)" />
    <polygon
       style="fill:none;stroke:#000000;stroke-width:1"
       points="371,172 380,172 376,181 "
       id="polygon4798"
       transform="translate(-161.92858,613.96933)" />
    <ellipse
       d="m 383,28 c 0,3.865993 -3.13401,7 -7,7 -3.86599,0 -7,-3.134007 -7,-7 0,-3.865993 3.13401,-7 7,-7 3.86599,0 7,3.134007 7,7 z"
       style="fill:#000000"
       sodipodi:ry="7"
       sodipodi:rx="7"
       sodipodi:cy="28"
       sodipodi:cx="376"
       cx="376"
       cy="28"
       rx="7"
       ry="7"
       id="ellipse4800"
       transform="translate(-161.92858,613.96933)" />
    <line
       style="fill:none;stroke:#000000;stroke-width:1"
       x1="214.07143"
       y1="649.96936"
       x2="214.07143"
       y2="654.96936"
       id="line4802" />
    <rect
       style="fill:none;stroke:#68e5ff;stroke-width:1"
       x="170.07143"
       y="709.96936"
       width="90"
       height="35"
       id="rect4804" />
    <rect
       style="fill:none;stroke:#000000;stroke-width:1"
       x="169.07143"
       y="708.96936"
       width="90"
       height="35"
       id="rect4806" />
    <line
       style="fill:none;stroke:#000000;stroke-width:1"
       x1="214.07143"
       y1="708.96936"
       x2="214.07143"
       y2="703.96936"
       id="line4808" />
    <line
       style="fill:none;stroke:#000000;stroke-width:1"
       x1="214.07143"
       y1="743.96936"
       x2="214.07143"
       y2="748.96936"
       id="line4810" />
    <text
       x="174.07143"
       y="736.96936"
       style="font-size:12px;font-family:Dialog"
       id="text4812">ProgramDMA</text>
    <text
       x="172.07143"
       y="720.96936"
       style="font-size:12px;font-family:Dialog"
       id="text4814">sd</text>
    <line
       style="fill:none;stroke:#000000;stroke-width:1"
       x1="169.07143"
       y1="723.96936"
       x2="184.07143"
       y2="723.96936"
       id="line4816" />
    <line
       style="fill:none;stroke:#000000;stroke-width:1"
       x1="194.07143"
       y1="708.96936"
       x2="194.07143"
       y2="716.96936"
       id="line4818" />
    <line
       style="fill:none;stroke:#000000;stroke-width:1"
       x1="184.07143"
       y1="723.96936"
       x2="194.07143"
       y2="716.96936"
       id="line4820" />
    <rect
       style="fill:none;stroke:#68e5ff;stroke-width:1"
       x="19.071421"
       y="942.96936"
       width="153"
       height="35"
       id="rect4822" />
    <rect
       style="fill:none;stroke:#000000;stroke-width:1"
       x="18.071421"
       y="941.96936"
       width="153"
       height="35"
       id="rect4824" />
    <line
       style="fill:none;stroke:#000000;stroke-width:1"
       x1="94.071419"
       y1="941.96936"
       x2="94.071419"
       y2="936.96936"
       id="line4826" />
    <line
       style="fill:none;stroke:#000000;stroke-width:1"
       x1="94.071419"
       y1="976.96936"
       x2="94.071419"
       y2="981.96936"
       id="line4828" />
    <text
       x="26.071421"
       y="969.96936"
       style="font-size:12px;font-family:Dialog"
       id="text4830">AcknoledgeCompletion</text>
    <text
       x="21.071421"
       y="953.96936"
       style="font-size:12px;font-family:Dialog"
       id="text4832">sd</text>
    <line
       style="fill:none;stroke:#000000;stroke-width:1"
       x1="18.071421"
       y1="956.96936"
       x2="33.071419"
       y2="956.96936"
       id="line4834" />
    <line
       style="fill:none;stroke:#000000;stroke-width:1"
       x1="43.071419"
       y1="941.96936"
       x2="43.071419"
       y2="949.96936"
       id="line4836" />
    <line
       style="fill:none;stroke:#000000;stroke-width:1"
       x1="33.071419"
       y1="956.96936"
       x2="43.071419"
       y2="949.96936"
       id="line4838" />
    <line
       style="fill:none;stroke:#000000;stroke-width:1"
       x1="7.0714197"
       y1="655.96936"
       x2="99.071419"
       y2="655.96936"
       id="line4840" />
    <line
       style="fill:none;stroke:#000000;stroke-width:1"
       x1="7.0714197"
       y1="655.96936"
       x2="7.0714197"
       y2="690.96936"
       id="line4842" />
    <line
       style="fill:none;stroke:#000000;stroke-width:1"
       x1="7.0714197"
       y1="690.96936"
       x2="84.071419"
       y2="690.96936"
       id="line4844" />
    <line
       style="fill:none;stroke:#000000;stroke-width:1"
       x1="99.071419"
       y1="655.96936"
       x2="99.071419"
       y2="675.96936"
       id="line4846" />
    <polygon
       style="fill:#adbeea"
       points="261,62 246,77 170,77 170,43 261,43 "
       id="polygon4848"
       transform="translate(-161.92858,613.96933)" />
    <polygon
       style="fill:none;stroke:#000000;stroke-width:1"
       points="246,77 261,62 257,65 251,64 "
       id="polygon4850"
       transform="translate(-161.92858,613.96933)" />
    <polygon
       style="fill:#c0c0c0"
       points="246,77 261,62 257,65 251,64 "
       id="polygon4852"
       transform="translate(-161.92858,613.96933)" />
    <text
       x="12.071421"
       y="675.96936"
       style="font-size:12px;font-family:Dialog"
       id="text4854">int samples</text>
    <rect
       style="fill:none;stroke:#68e5ff;stroke-width:1"
       x="310.07141"
       y="945.96936"
       width="108"
       height="35"
       id="rect4856" />
    <rect
       style="fill:none;stroke:#000000;stroke-width:1"
       x="309.07141"
       y="944.96936"
       width="108"
       height="35"
       id="rect4858" />
    <line
       style="fill:none;stroke:#000000;stroke-width:1"
       x1="363.07141"
       y1="944.96936"
       x2="363.07141"
       y2="939.96936"
       id="line4860" />
    <line
       style="fill:none;stroke:#000000;stroke-width:1"
       x1="363.07141"
       y1="979.96936"
       x2="363.07141"
       y2="984.96936"
       id="line4862" />
    <text
       x="316.07141"
       y="972.96936"
       style="font-size:12px;font-family:Dialog"
       id="text4864">TransferSample</text>
    <text
       x="312.07141"
       y="956.96936"
       style="font-size:12px;font-family:Dialog"
       id="text4866">sd</text>
    <line
       style="fill:none;stroke:#000000;stroke-width:1"
       x1="309.07141"
       y1="959.96936"
       x2="324.07141"
       y2="959.96936"
       id="line4868" />
    <line
       style="fill:none;stroke:#000000;stroke-width:1"
       x1="334.07141"
       y1="944.96936"
       x2="334.07141"
       y2="952.96936"
       id="line4870" />
    <line
       style="fill:none;stroke:#000000;stroke-width:1"
       x1="324.07141"
       y1="959.96936"
       x2="334.07141"
       y2="952.96936"
       id="line4872" />
    <line
       style="fill:none;stroke:#000000;stroke-width:1"
       x1="214.07143"
       y1="869.96936"
       x2="229.07143"
       y2="884.96936"
       id="line4874" />
    <line
       style="fill:none;stroke:#000000;stroke-width:1"
       x1="199.07143"
       y1="884.96936"
       x2="214.07143"
       y2="899.96936"
       id="line4876" />
    <line
       style="fill:none;stroke:#000000;stroke-width:1"
       x1="214.07143"
       y1="869.96936"
       x2="199.07143"
       y2="884.96936"
       id="line4878" />
    <line
       style="fill:none;stroke:#000000;stroke-width:1"
       x1="229.07143"
       y1="884.96936"
       x2="214.07143"
       y2="899.96936"
       id="line4880" />
    <line
       style="fill:none;stroke:#000000;stroke-width:1"
       x1="214.07143"
       y1="869.96936"
       x2="214.07143"
       y2="859.96936"
       id="line4882" />
    <line
       style="fill:none;stroke:#000000;stroke-width:1"
       x1="199.07143"
       y1="884.96936"
       x2="174.07143"
       y2="884.96936"
       id="line4884" />
    <line
       style="fill:none;stroke:#000000;stroke-width:1"
       x1="229.07143"
       y1="884.96936"
       x2="254.07141"
       y2="884.96936"
       id="line4886" />
    <line
       style="fill:none;stroke:#000000;stroke-width:1"
       x1="214.07143"
       y1="899.96936"
       x2="214.07143"
       y2="924.96936"
       id="line4888" />
    <text
       x="124.07143"
       y="904.96936"
       style="font-size:12px;font-family:Dialog"
       id="text4890">[samples==0]</text>
    <text
       x="234.07143"
       y="879.96936"
       style="font-size:12px;font-family:Dialog"
       id="text4892">[samples &gt; 0]</text>
    <text
       x="219.07143"
       y="914.96936"
       style="font-size:12px;font-family:Dialog"
       id="text4894">[ ]</text>
    <ellipse
       d="m 264,423 c 0,4.41828 -3.58172,8 -8,8 -4.41828,0 -8,-3.58172 -8,-8 0,-4.41828 3.58172,-8 8,-8 4.41828,0 8,3.58172 8,8 z"
       style="fill:#000000"
       sodipodi:ry="8"
       sodipodi:rx="8"
       sodipodi:cy="423"
       sodipodi:cx="256"
       cx="256"
       cy="423"
       rx="8"
       ry="8"
       id="ellipse4896"
       transform="translate(-161.92858,613.96933)" />
    <ellipse
       d="m 266,423 c 0,5.52285 -4.47715,10 -10,10 -5.52285,0 -10,-4.47715 -10,-10 0,-5.52285 4.47715,-10 10,-10 5.52285,0 10,4.47715 10,10 z"
       style="fill:none;stroke:#000000;stroke-width:1"
       sodipodi:ry="10"
       sodipodi:rx="10"
       sodipodi:cy="423"
       sodipodi:cx="256"
       cx="256"
       cy="423"
       rx="10"
       ry="10"
       id="ellipse4898"
       transform="translate(-161.92858,613.96933)" />
    <line
       style="fill:none;stroke:#000000;stroke-width:1"
       x1="94.071419"
       y1="1026.9695"
       x2="94.071419"
       y2="1021.9694"
       id="line4900" />
    <line
       style="fill:none;stroke:#000000;stroke-width:1"
       x1="214.07143"
       y1="794.96936"
       x2="214.07143"
       y2="824.96936"
       id="line4902" />
    <line
       style="fill:none;stroke:#000000;stroke-width:1"
       x1="199.07143"
       y1="809.96936"
       x2="229.07143"
       y2="809.96936"
       id="line4904" />
  </g>
</svg>
