<?xml version="1.0" standalone="no"?>
<!DOCTYPE svg PUBLIC "-//W3C//DTD SVG 1.1//EN" "http://www.w3.org/Graphics/SVG/1.1/DTD/svg11.dtd">
<svg xmlns="http://www.w3.org/2000/svg" version="1.1">
<line  x1="358" y1="232" x2="358" y2="272" stroke="#000000" stroke-width="1" fill="none"/>
<polygon  points="358,272 353,263 362,263 " fill="#000000"/>
<polygon  points="358,272 353,263 362,263 " fill="none" stroke="#000000" stroke-width="1"/>
<line  x1="358" y1="154" x2="358" y2="202" stroke="#000000" stroke-width="1" fill="none"/>
<polygon  points="358,202 353,193 362,193 " fill="#000000"/>
<polygon  points="358,202 353,193 362,193 " fill="none" stroke="#000000" stroke-width="1"/>
<line  x1="358" y1="63" x2="358" y2="109" stroke="#000000" stroke-width="1" fill="none"/>
<polygon  points="358,109 353,100 362,100 " fill="#000000"/>
<polygon  points="358,109 353,100 362,100 " fill="none" stroke="#000000" stroke-width="1"/>
<line  x1="358" y1="337" x2="358" y2="430" stroke="#000000" stroke-width="1" fill="none"/>
<polygon  points="358,430 353,421 362,421 " fill="#000000"/>
<polygon  points="358,430 353,421 362,421 " fill="none" stroke="#000000" stroke-width="1"/>
<line  x1="318" y1="297" x2="253" y2="297" stroke="#000000" stroke-width="1" fill="none"/>
<line  x1="253" y1="297" x2="253" y2="339" stroke="#000000" stroke-width="1" fill="none"/>
<polygon  points="253,339 248,330 257,330 " fill="#000000"/>
<polygon  points="253,339 248,330 257,330 " fill="none" stroke="#000000" stroke-width="1"/>
<line  x1="253" y1="384" x2="253" y2="437" stroke="#000000" stroke-width="1" fill="none"/>
<line  x1="253" y1="437" x2="142" y2="437" stroke="#000000" stroke-width="1" fill="none"/>
<line  x1="142" y1="437" x2="142" y2="217" stroke="#000000" stroke-width="1" fill="none"/>
<line  x1="142" y1="217" x2="343" y2="217" stroke="#000000" stroke-width="1" fill="none"/>
<polygon  points="343,217 334,221 334,212 " fill="#000000"/>
<polygon  points="343,217 334,221 334,212 " fill="none" stroke="#000000" stroke-width="1"/>
<ellipse  cx="358" cy="50" rx="7" ry="7" fill="#000000"/>
<line  x1="358" y1="58" x2="358" y2="63" stroke="#000000" stroke-width="1" fill="none"/>
<ellipse  cx="358" cy="445" rx="8" ry="8" fill="#000000"/>
<ellipse  cx="358" cy="445" rx="10" ry="10" fill="none" stroke="#000000" stroke-width="1"/>
<line  x1="358" y1="435" x2="358" y2="430" stroke="#000000" stroke-width="1" fill="none"/>
<rect  x="297" y="115" width="124" height="35" fill="none" stroke="#68e5ff" stroke-width="1"/>
<rect  x="296" y="114" width="124" height="35" fill="none" stroke="#000000" stroke-width="1"/>
<line  x1="358" y1="114" x2="358" y2="109" stroke="#000000" stroke-width="1" fill="none"/>
<line  x1="358" y1="149" x2="358" y2="154" stroke="#000000" stroke-width="1" fill="none"/>
<text  x="295" y="144" style="font-size:12; font-family:Dialog.plain; fill=#000000">StoreConfigure</text>
<text  x="299" y="126" style="font-size:12; font-family:Dialog.plain; fill=#000000">sd</text>
<line  x1="296" y1="129" x2="311" y2="129" stroke="#000000" stroke-width="1" fill="none"/>
<line  x1="321" y1="114" x2="321" y2="122" stroke="#000000" stroke-width="1" fill="none"/>
<line  x1="311" y1="129" x2="321" y2="122" stroke="#000000" stroke-width="1" fill="none"/>
<line  x1="358" y1="202" x2="358" y2="232" stroke="#000000" stroke-width="1" fill="none"/>
<line  x1="343" y1="217" x2="373" y2="217" stroke="#000000" stroke-width="1" fill="none"/>
<rect  x="192" y="345" width="124" height="35" fill="none" stroke="#68e5ff" stroke-width="1"/>
<rect  x="191" y="344" width="124" height="35" fill="none" stroke="#000000" stroke-width="1"/>
<line  x1="253" y1="344" x2="253" y2="339" stroke="#000000" stroke-width="1" fill="none"/>
<line  x1="253" y1="379" x2="253" y2="384" stroke="#000000" stroke-width="1" fill="none"/>
<text  x="190" y="374" style="font-size:12; font-family:Dialog.plain; fill=#000000">StoreTransferCycle</text>
<text  x="194" y="356" style="font-size:12; font-family:Dialog.plain; fill=#000000">sd</text>
<line  x1="191" y1="359" x2="206" y2="359" stroke="#000000" stroke-width="1" fill="none"/>
<line  x1="216" y1="344" x2="216" y2="352" stroke="#000000" stroke-width="1" fill="none"/>
<line  x1="206" y1="359" x2="216" y2="352" stroke="#000000" stroke-width="1" fill="none"/>
<line  x1="358" y1="282" x2="373" y2="297" stroke="#000000" stroke-width="1" fill="none"/>
<line  x1="343" y1="297" x2="358" y2="312" stroke="#000000" stroke-width="1" fill="none"/>
<line  x1="358" y1="282" x2="343" y2="297" stroke="#000000" stroke-width="1" fill="none"/>
<line  x1="373" y1="297" x2="358" y2="312" stroke="#000000" stroke-width="1" fill="none"/>
<line  x1="358" y1="282" x2="358" y2="272" stroke="#000000" stroke-width="1" fill="none"/>
<line  x1="343" y1="297" x2="318" y2="297" stroke="#000000" stroke-width="1" fill="none"/>
<line  x1="373" y1="297" x2="398" y2="297" stroke="#000000" stroke-width="1" fill="none"/>
<line  x1="358" y1="312" x2="358" y2="337" stroke="#000000" stroke-width="1" fill="none"/>
<text  x="268" y="292" style="font-size:12; font-family:Dialog.plain; fill=#000000">[ samplesToStore &gt; 0 ]</text>
<text  x="378" y="292" style="font-size:12; font-family:Dialog.plain; fill=#000000">[ ]</text>
<text  x="363" y="327" style="font-size:12; font-family:Dialog.plain; fill=#000000">[ else ]</text>
<line  x1="591" y1="97" x2="859" y2="97" stroke="#000000" stroke-width="1" fill="none"/>
<line  x1="591" y1="97" x2="591" y2="132" stroke="#000000" stroke-width="1" fill="none"/>
<line  x1="591" y1="132" x2="844" y2="132" stroke="#000000" stroke-width="1" fill="none"/>
<line  x1="859" y1="97" x2="859" y2="117" stroke="#000000" stroke-width="1" fill="none"/>
<polygon  points="592,98 859,98 859,117 844,132 592,132 " fill="#adbeea"/>
<polygon  points="859,117 855,120 849,119 844,132 " fill="none" stroke="#000000" stroke-width="1"/>
<polygon  points="859,117 855,120 849,119 844,132 " fill="#c0c0c0"/>
<text  x="596" y="117" style="font-size:12; font-family:Dialog.plain; fill=#000000">Task TX_source storing the output data</text>
</svg>