<?xml version="1.0" encoding="UTF-8" standalone="no"?>
<svg
   xmlns:dc="http://purl.org/dc/elements/1.1/"
   xmlns:cc="http://creativecommons.org/ns#"
   xmlns:rdf="http://www.w3.org/1999/02/22-rdf-syntax-ns#"
   xmlns:svg="http://www.w3.org/2000/svg"
   xmlns="http://www.w3.org/2000/svg"
   xmlns:sodipodi="http://sodipodi.sourceforge.net/DTD/sodipodi-0.dtd"
   xmlns:inkscape="http://www.inkscape.org/namespaces/inkscape"
   version="1.1"
   id="svg2"
   inkscape:version="0.48.4 r9939"
   width="710"
   height="700"
   sodipodi:docname="StoreCP.svg">
  <metadata
     id="metadata140">
    <rdf:RDF>
      <cc:Work
         rdf:about="">
        <dc:format>image/svg+xml</dc:format>
        <dc:type
           rdf:resource="http://purl.org/dc/dcmitype/StillImage" />
        <dc:title></dc:title>
      </cc:Work>
    </rdf:RDF>
  </metadata>
  <defs
     id="defs138" />
  <sodipodi:namedview
     pagecolor="#ffffff"
     bordercolor="#666666"
     borderopacity="1"
     objecttolerance="10"
     gridtolerance="10"
     guidetolerance="10"
     inkscape:pageopacity="0"
     inkscape:pageshadow="2"
     inkscape:window-width="1366"
     inkscape:window-height="709"
     id="namedview136"
     showgrid="false"
     width="1352.36px"
     inkscape:zoom="0.89702957"
     inkscape:cx="735.48514"
     inkscape:cy="379.38456"
     inkscape:window-x="0"
     inkscape:window-y="27"
     inkscape:window-maximized="1"
     inkscape:current-layer="svg2" />
  <line
     style="fill:none;stroke:#000000;stroke-width:1"
     x1="413.84399"
     y1="251.99249"
     x2="413.84399"
     y2="291.99249"
     id="line3488" />
  <polygon
     style="fill:#000000"
     points="353,263 362,263 358,272 "
     id="polygon3490"
     transform="translate(55.84397,19.9925)" />
  <polygon
     style="fill:none;stroke:#000000;stroke-width:1"
     points="353,263 362,263 358,272 "
     id="polygon3492"
     transform="translate(55.84397,19.9925)" />
  <line
     style="fill:none;stroke:#000000;stroke-width:1"
     x1="413.84399"
     y1="173.99249"
     x2="413.84399"
     y2="221.99249"
     id="line3494" />
  <polygon
     style="fill:#000000"
     points="353,193 362,193 358,202 "
     id="polygon3496"
     transform="translate(55.84397,19.9925)" />
  <polygon
     style="fill:none;stroke:#000000;stroke-width:1"
     points="353,193 362,193 358,202 "
     id="polygon3498"
     transform="translate(55.84397,19.9925)" />
  <line
     style="fill:none;stroke:#000000;stroke-width:1"
     x1="413.84399"
     y1="82.992493"
     x2="413.84399"
     y2="128.99249"
     id="line3500" />
  <polygon
     style="fill:#000000"
     points="353,100 362,100 358,109 "
     id="polygon3502"
     transform="translate(55.84397,19.9925)" />
  <polygon
     style="fill:none;stroke:#000000;stroke-width:1"
     points="353,100 362,100 358,109 "
     id="polygon3504"
     transform="translate(55.84397,19.9925)" />
  <line
     style="fill:none;stroke:#000000;stroke-width:1"
     x1="413.84399"
     y1="356.99249"
     x2="413.84399"
     y2="449.99249"
     id="line3506" />
  <polygon
     style="fill:#000000"
     points="353,421 362,421 358,430 "
     id="polygon3508"
     transform="translate(55.84397,19.9925)" />
  <polygon
     style="fill:none;stroke:#000000;stroke-width:1"
     points="353,421 362,421 358,430 "
     id="polygon3510"
     transform="translate(55.84397,19.9925)" />
  <line
     style="fill:none;stroke:#000000;stroke-width:1"
     x1="373.84399"
     y1="316.99249"
     x2="308.84399"
     y2="316.99249"
     id="line3512" />
  <line
     style="fill:none;stroke:#000000;stroke-width:1"
     x1="308.84399"
     y1="316.99249"
     x2="308.84399"
     y2="358.99249"
     id="line3514" />
  <polygon
     style="fill:#000000"
     points="248,330 257,330 253,339 "
     id="polygon3516"
     transform="translate(55.84397,19.9925)" />
  <polygon
     style="fill:none;stroke:#000000;stroke-width:1"
     points="248,330 257,330 253,339 "
     id="polygon3518"
     transform="translate(55.84397,19.9925)" />
  <line
     style="fill:none;stroke:#000000;stroke-width:1"
     x1="308.84399"
     y1="403.99249"
     x2="308.84399"
     y2="456.99249"
     id="line3520" />
  <line
     style="fill:none;stroke:#000000;stroke-width:1"
     x1="308.84399"
     y1="456.99249"
     x2="197.84399"
     y2="456.99249"
     id="line3522" />
  <line
     style="fill:none;stroke:#000000;stroke-width:1"
     x1="197.84399"
     y1="456.99249"
     x2="197.84399"
     y2="236.99249"
     id="line3524" />
  <line
     style="fill:none;stroke:#000000;stroke-width:1"
     x1="197.84399"
     y1="236.99249"
     x2="398.84399"
     y2="236.99249"
     id="line3526" />
  <polygon
     style="fill:#000000"
     points="334,221 334,212 343,217 "
     id="polygon3528"
     transform="translate(55.84397,19.9925)" />
  <polygon
     style="fill:none;stroke:#000000;stroke-width:1"
     points="334,221 334,212 343,217 "
     id="polygon3530"
     transform="translate(55.84397,19.9925)" />
  <ellipse
     d="m 365,50 c 0,3.865993 -3.13401,7 -7,7 -3.86599,0 -7,-3.134007 -7,-7 0,-3.865993 3.13401,-7 7,-7 3.86599,0 7,3.134007 7,7 z"
     style="fill:#000000"
     sodipodi:ry="7"
     sodipodi:rx="7"
     sodipodi:cy="50"
     sodipodi:cx="358"
     cx="358"
     cy="50"
     rx="7"
     ry="7"
     id="ellipse3532"
     transform="translate(55.84397,19.9925)" />
  <line
     style="fill:none;stroke:#000000;stroke-width:1"
     x1="413.84399"
     y1="77.992493"
     x2="413.84399"
     y2="82.992493"
     id="line3534" />
  <ellipse
     d="m 366,445 c 0,4.41828 -3.58172,8 -8,8 -4.41828,0 -8,-3.58172 -8,-8 0,-4.41828 3.58172,-8 8,-8 4.41828,0 8,3.58172 8,8 z"
     style="fill:#000000"
     sodipodi:ry="8"
     sodipodi:rx="8"
     sodipodi:cy="445"
     sodipodi:cx="358"
     cx="358"
     cy="445"
     rx="8"
     ry="8"
     id="ellipse3536"
     transform="translate(55.84397,19.9925)" />
  <ellipse
     d="m 368,445 c 0,5.52285 -4.47715,10 -10,10 -5.52285,0 -10,-4.47715 -10,-10 0,-5.52285 4.47715,-10 10,-10 5.52285,0 10,4.47715 10,10 z"
     style="fill:none;stroke:#000000;stroke-width:1"
     sodipodi:ry="10"
     sodipodi:rx="10"
     sodipodi:cy="445"
     sodipodi:cx="358"
     cx="358"
     cy="445"
     rx="10"
     ry="10"
     id="ellipse3538"
     transform="translate(55.84397,19.9925)" />
  <line
     style="fill:none;stroke:#000000;stroke-width:1"
     x1="413.84399"
     y1="454.99249"
     x2="413.84399"
     y2="449.99249"
     id="line3540" />
  <rect
     style="fill:none;stroke:#68e5ff;stroke-width:1"
     x="352.84399"
     y="134.99249"
     width="124"
     height="35"
     id="rect3542" />
  <rect
     style="fill:none;stroke:#000000;stroke-width:1"
     x="351.84399"
     y="133.99249"
     width="124"
     height="35"
     id="rect3544" />
  <line
     style="fill:none;stroke:#000000;stroke-width:1"
     x1="413.84399"
     y1="133.99249"
     x2="413.84399"
     y2="128.99249"
     id="line3546" />
  <line
     style="fill:none;stroke:#000000;stroke-width:1"
     x1="413.84399"
     y1="168.99249"
     x2="413.84399"
     y2="173.99249"
     id="line3548" />
  <text
     x="368.68073"
     y="161.76291"
     style="font-size:12px;font-family:Dialog"
     id="text3550">StoreConfigure</text>
  <text
     x="354.84399"
     y="145.99249"
     style="font-size:12px;font-family:Dialog"
     id="text3552">sd</text>
  <line
     style="fill:none;stroke:#000000;stroke-width:1"
     x1="351.84399"
     y1="148.99249"
     x2="366.84399"
     y2="148.99249"
     id="line3554" />
  <line
     style="fill:none;stroke:#000000;stroke-width:1"
     x1="376.84399"
     y1="133.99249"
     x2="376.84399"
     y2="141.99249"
     id="line3556" />
  <line
     style="fill:none;stroke:#000000;stroke-width:1"
     x1="366.84399"
     y1="148.99249"
     x2="376.84399"
     y2="141.99249"
     id="line3558" />
  <line
     style="fill:none;stroke:#000000;stroke-width:1"
     x1="413.84399"
     y1="221.99249"
     x2="413.84399"
     y2="251.99249"
     id="line3560" />
  <line
     style="fill:none;stroke:#000000;stroke-width:1"
     x1="398.84399"
     y1="236.99249"
     x2="428.84399"
     y2="236.99249"
     id="line3562" />
  <rect
     style="fill:none;stroke:#68e5ff;stroke-width:1"
     x="247.84399"
     y="364.99249"
     width="124"
     height="35"
     id="rect3564" />
  <rect
     style="fill:none;stroke:#000000;stroke-width:1"
     x="246.84399"
     y="363.99249"
     width="124"
     height="35"
     id="rect3566" />
  <line
     style="fill:none;stroke:#000000;stroke-width:1"
     x1="308.84399"
     y1="363.99249"
     x2="308.84399"
     y2="358.99249"
     id="line3568" />
  <line
     style="fill:none;stroke:#000000;stroke-width:1"
     x1="308.84399"
     y1="398.99249"
     x2="308.84399"
     y2="403.99249"
     id="line3570" />
  <text
     x="253.64752"
     y="391.76291"
     style="font-size:12px;font-family:Dialog"
     id="text3572">StoreTransferCycle</text>
  <text
     x="249.84399"
     y="375.99249"
     style="font-size:12px;font-family:Dialog"
     id="text3574">sd</text>
  <line
     style="fill:none;stroke:#000000;stroke-width:1"
     x1="246.84399"
     y1="378.99249"
     x2="261.84399"
     y2="378.99249"
     id="line3576" />
  <line
     style="fill:none;stroke:#000000;stroke-width:1"
     x1="271.84399"
     y1="363.99249"
     x2="271.84399"
     y2="371.99249"
     id="line3578" />
  <line
     style="fill:none;stroke:#000000;stroke-width:1"
     x1="261.84399"
     y1="378.99249"
     x2="271.84399"
     y2="371.99249"
     id="line3580" />
  <line
     style="fill:none;stroke:#000000;stroke-width:1"
     x1="413.84399"
     y1="301.99249"
     x2="428.84399"
     y2="316.99249"
     id="line3582" />
  <line
     style="fill:none;stroke:#000000;stroke-width:1"
     x1="398.84399"
     y1="316.99249"
     x2="413.84399"
     y2="331.99249"
     id="line3584" />
  <line
     style="fill:none;stroke:#000000;stroke-width:1"
     x1="413.84399"
     y1="301.99249"
     x2="398.84399"
     y2="316.99249"
     id="line3586" />
  <line
     style="fill:none;stroke:#000000;stroke-width:1"
     x1="428.84399"
     y1="316.99249"
     x2="413.84399"
     y2="331.99249"
     id="line3588" />
  <line
     style="fill:none;stroke:#000000;stroke-width:1"
     x1="413.84399"
     y1="301.99249"
     x2="413.84399"
     y2="291.99249"
     id="line3590" />
  <line
     style="fill:none;stroke:#000000;stroke-width:1"
     x1="398.84399"
     y1="316.99249"
     x2="373.84399"
     y2="316.99249"
     id="line3592" />
  <line
     style="fill:none;stroke:#000000;stroke-width:1"
     x1="428.84399"
     y1="316.99249"
     x2="453.84387"
     y2="316.99249"
     id="line3594" />
  <line
     style="fill:none;stroke:#000000;stroke-width:1"
     x1="413.84399"
     y1="331.99249"
     x2="413.84399"
     y2="356.99249"
     id="line3596" />
  <text
     x="254.72699"
     y="306.41855"
     style="font-size:12px;font-family:Dialog"
     id="text3598">[ samplesToStore &gt; 0 ]</text>
  <text
     x="433.84399"
     y="311.99249"
     style="font-size:12px;font-family:Dialog"
     id="text3600">[ ]</text>
  <text
     x="418.84399"
     y="346.99249"
     style="font-size:12px;font-family:Dialog"
     id="text3602">[ else ]</text>
  <line
     style="fill:none;stroke:#000000;stroke-width:1"
     x1="143.90948"
     y1="605.41565"
     x2="402.90948"
     y2="605.41565"
     id="line3780" />
  <line
     style="fill:none;stroke:#000000;stroke-width:1"
     x1="402.90948"
     y1="605.41565"
     x2="393.90948"
     y2="609.41565"
     id="line3782" />
  <line
     style="fill:none;stroke:#000000;stroke-width:1"
     x1="402.90948"
     y1="605.41565"
     x2="393.90948"
     y2="600.41565"
     id="line3784" />
  <text
     x="175.90948"
     y="600.41565"
     style="font-size:12px;font-family:Dialog"
     id="text3786">Write(destinationAddress, size)</text>
  <line
     style="fill:none;stroke:#000000;stroke-width:1"
     x1="402.90948"
     y1="635.41565"
     x2="636.90948"
     y2="635.41565"
     id="line3788" />
  <line
     style="fill:none;stroke:#000000;stroke-width:1"
     x1="636.90948"
     y1="635.41565"
     x2="627.90948"
     y2="639.41565"
     id="line3790" />
  <line
     style="fill:none;stroke:#000000;stroke-width:1"
     x1="636.90948"
     y1="635.41565"
     x2="627.90948"
     y2="630.41565"
     id="line3792" />
  <text
     x="422.90948"
     y="630.41565"
     style="font-size:12px;font-family:Dialog"
     id="text3794">Write(destinationAddress, size)</text>
  <text
     x="97.909477"
     y="566.41565"
     style="font-size:12px;font-family:Dialog"
     id="text3796">CPU_Store</text>
  <line
     style="fill:none;stroke:#000000;stroke-width:1"
     x1="97.909477"
     y1="573.41565"
     x2="189.90948"
     y2="573.41565"
     id="line3798" />
  <line
     style="fill:none;stroke:#000000;stroke-width:1"
     x1="143.90948"
     y1="575.41565"
     x2="143.90948"
     y2="1075.4155"
     id="line3800" />
  <rect
     style="fill:none;stroke:#000000;stroke-width:1"
     x="11.909477"
     y="648.41565"
     width="265"
     height="20"
     rx="5"
     ry="5"
     id="rect3802" />
  <text
     x="17.909477"
     y="663.41565"
     style="font-size:12px;font-family:Dialog"
     id="text3804">samplesToStore = samplesToStore - size</text>
  <text
     x="349.90948"
     y="566.41565"
     style="font-size:12px;font-family:Dialog"
     id="text3806">TransferInstance</text>
  <line
     style="fill:none;stroke:#000000;stroke-width:1"
     x1="349.90948"
     y1="573.41565"
     x2="455.90948"
     y2="573.41565"
     id="line3808" />
  <line
     style="fill:none;stroke:#000000;stroke-width:1"
     x1="402.90948"
     y1="575.41565"
     x2="402.90948"
     y2="1075.4155"
     id="line3810" />
  <text
     x="568.90948"
     y="566.41565"
     style="font-size:12px;font-family:Dialog"
     id="text3812">DST_StorageInstance</text>
  <line
     style="fill:none;stroke:#000000;stroke-width:1"
     x1="568.90948"
     y1="573.41565"
     x2="704.90948"
     y2="573.41565"
     id="line3814" />
  <line
     style="fill:none;stroke:#000000;stroke-width:1"
     x1="636.90948"
     y1="575.41565"
     x2="636.90948"
     y2="1075.4155"
     id="line3816" />
  <text
     x="232.53644"
     y="45.05658"
     style="font-size:12px;font-family:Dialog"
     id="text84-3-1-8">
    <tspan
       style="font-size:16px"
       id="tspan4161">(a) main Activity Diagram for a store operation CP</tspan>
  </text>
  <text
     x="232.53644"
     y="521.26855"
     style="font-size:12px;font-family:Dialog"
     id="text84-3-14">
    <tspan
       style="font-size:16px"
       id="tspan4163">(b) StoreTransferCycle Sequence Diagram</tspan>
  </text>
</svg>
