<?xml version="1.0" standalone="no"?>
<!DOCTYPE svg PUBLIC "-//W3C//DTD SVG 1.1//EN" "http://www.w3.org/Graphics/SVG/1.1/DTD/svg11.dtd">
<svg xmlns="http://www.w3.org/2000/svg" version="1.1" width="621" height="560" viewbox="60 5 561 555">
<line  x1="562" y1="82" x2="337" y2="82" stroke="#000000" stroke-width="1" fill="none"/>
<line  x1="337" y1="82" x2="345" y2="77" stroke="#000000" stroke-width="1" fill="none"/>
<line  x1="337" y1="82" x2="345" y2="86" stroke="#000000" stroke-width="1" fill="none"/>
<text  x="383" y="77" style="font-size:12; font-family:SansSerif.plain; fill=#000000">TransferTerminated()</text>
<line  x1="337" y1="112" x2="118" y2="112" stroke="#000000" stroke-width="1" fill="none"/>
<line  x1="118" y1="112" x2="126" y2="107" stroke="#000000" stroke-width="1" fill="none"/>
<line  x1="118" y1="112" x2="126" y2="116" stroke="#000000" stroke-width="1" fill="none"/>
<text  x="161" y="107" style="font-size:12; font-family:SansSerif.plain; fill=#000000">TransferTerminated()</text>
<text  x="65" y="49" style="font-size:12; font-family:SansSerif.plain; fill=#000000">CPU_Controller_1</text>
<line  x1="65" y1="50" x2="171" y2="50" stroke="#000000" stroke-width="1" fill="none"/>
<line  x1="118" y1="52" x2="118" y2="552" stroke="#000000" stroke-width="1" fill="none"/>
<text  x="508" y="49" style="font-size:12; font-family:SansSerif.plain; fill=#000000">DMA_Controller_1</text>
<line  x1="508" y1="50" x2="616" y2="50" stroke="#000000" stroke-width="1" fill="none"/>
<line  x1="562" y1="52" x2="562" y2="552" stroke="#000000" stroke-width="1" fill="none"/>
<text  x="274" y="49" style="font-size:12; font-family:SansSerif.plain; fill=#000000">Transfer_Instance_4</text>
<line  x1="274" y1="50" x2="400" y2="50" stroke="#000000" stroke-width="1" fill="none"/>
<line  x1="337" y1="52" x2="337" y2="552" stroke="#000000" stroke-width="1" fill="none"/>
</svg>