<?xml version="1.0" encoding="UTF-8" standalone="no"?>
<svg
   xmlns:dc="http://purl.org/dc/elements/1.1/"
   xmlns:cc="http://creativecommons.org/ns#"
   xmlns:rdf="http://www.w3.org/1999/02/22-rdf-syntax-ns#"
   xmlns:svg="http://www.w3.org/2000/svg"
   xmlns="http://www.w3.org/2000/svg"
   xmlns:sodipodi="http://sodipodi.sourceforge.net/DTD/sodipodi-0.dtd"
   xmlns:inkscape="http://www.inkscape.org/namespaces/inkscape"
   version="1.1"
   id="svg2"
   inkscape:version="0.48.4 r9939"
   width="1000.36"
   height="487.09"
   sodipodi:docname="WPD_DiploDFApp.svg">
  <metadata
     id="metadata428">
    <rdf:RDF>
      <cc:Work
         rdf:about="">
        <dc:format>image/svg+xml</dc:format>
        <dc:type
           rdf:resource="http://purl.org/dc/dcmitype/StillImage" />
      </cc:Work>
    </rdf:RDF>
  </metadata>
  <defs
     id="defs426" />
  <sodipodi:namedview
     pagecolor="#ffffff"
     bordercolor="#666666"
     borderopacity="1"
     objecttolerance="10"
     gridtolerance="10"
     guidetolerance="10"
     inkscape:pageopacity="0"
     inkscape:pageshadow="2"
     inkscape:window-width="1366"
     inkscape:window-height="709"
     id="namedview424"
     showgrid="false"
     width="1052.36px"
     inkscape:zoom="0.6342957"
     inkscape:cx="560.01174"
     inkscape:cy="290.16242"
     inkscape:window-x="0"
     inkscape:window-y="27"
     inkscape:window-maximized="1"
     inkscape:current-layer="svg2" />
  <rect
     x="746.38849"
     y="411.62793"
     width="81"
     height="57"
     id="rect4"
     style="fill:none;stroke:#000000;stroke-width:1" />
  <rect
     x="747.38849"
     y="412.62793"
     width="79"
     height="55"
     id="rect6"
     style="fill:#c9f3bc" />
  <text
     x="758.44708"
     y="449.29895"
     style="font-size:14px;font-family:Dialog"
     id="text8">
    <tspan
       style="font-size:20px"
       id="tspan3217">SINK</tspan>
  </text>
  <rect
     x="817.38849"
     y="431.62793"
     width="21"
     height="21"
     id="rect10"
     style="fill:none;stroke:#000000;stroke-width:1" />
  <rect
     x="818.38849"
     y="432.62793"
     width="19"
     height="19"
     id="rect12"
     style="fill:#68e5ff" />
  <polygon
     points="987,540 972,532 987,525 "
     id="polygon14"
     style="fill:none;stroke:#000000;stroke-width:1"
     transform="translate(-151.6115,-90.372307)" />
  <polygon
     points="987,540 972,532 987,525 "
     id="polygon16"
     style="fill:#000000"
     transform="translate(-151.6115,-90.372307)" />
  <text
     x="969"
     y="-44.273052"
     style="font-size:8px;font-family:Dialog"
     id="text18" />
  <rect
     x="876.38849"
     y="252.6275"
     width="102"
     height="151"
     id="rect20"
     style="fill:none;stroke:#000000;stroke-width:1" />
  <rect
     x="877.38849"
     y="253.6275"
     width="100"
     height="149"
     id="rect22"
     style="fill:#fbfcc8" />
  <text
     x="902.63605"
     y="287.99277"
     style="font-size:18px;font-family:Dialog"
     id="text24">ACC</text>
  <rect
     x="919.38849"
     y="393.62793"
     width="21"
     height="21"
     id="rect26"
     style="fill:none;stroke:#000000;stroke-width:1" />
  <rect
     x="920.38849"
     y="394.62793"
     width="19"
     height="19"
     id="rect28"
     style="fill:#68e5ff" />
  <polygon
     points="1089,487 1081,502 1074,487 "
     id="polygon30"
     style="fill:none;stroke:#000000;stroke-width:1"
     transform="translate(-151.6115,-90.372307)" />
  <polygon
     points="1089,487 1081,502 1074,487 "
     id="polygon32"
     style="fill:#000000"
     transform="translate(-151.6115,-90.372307)" />
  <rect
     x="866.38849"
     y="320.62793"
     width="21"
     height="21"
     id="rect34"
     style="fill:none;stroke:#000000;stroke-width:1" />
  <rect
     x="867.38849"
     y="321.62793"
     width="19"
     height="19"
     id="rect36"
     style="fill:#68e5ff" />
  <polygon
     points="1021,429 1036,421 1021,414 "
     id="polygon38"
     style="fill:none;stroke:#000000;stroke-width:1"
     transform="translate(-151.6115,-90.372307)" />
  <polygon
     points="1021,429 1036,421 1021,414 "
     id="polygon40"
     style="fill:#000000"
     transform="translate(-151.6115,-90.372307)" />
  <rect
     x="745.38849"
     y="310.62793"
     width="80"
     height="57"
     id="rect42"
     style="fill:none;stroke:#000000;stroke-width:1" />
  <rect
     x="746.38849"
     y="311.62793"
     width="78"
     height="55"
     id="rect44"
     style="fill:#c9f3bc" />
  <text
     x="765.3299"
     y="337.26309"
     style="font-size:14px;font-family:Dialog"
     id="text46">
    <tspan
       style="font-size:20px"
       id="tspan3215">RES</tspan>
  </text>
  <rect
     x="735.38849"
     y="319.62793"
     width="21"
     height="21"
     id="rect48"
     style="fill:none;stroke:#000000;stroke-width:1" />
  <rect
     x="736.38849"
     y="320.62793"
     width="19"
     height="19"
     id="rect50"
     style="fill:#68e5ff" />
  <polygon
     points="890,428 905,420 890,413 "
     id="polygon52"
     style="fill:none;stroke:#000000;stroke-width:1"
     transform="translate(-151.6115,-90.372307)" />
  <polygon
     points="890,428 905,420 890,413 "
     id="polygon54"
     style="fill:#000000"
     transform="translate(-151.6115,-90.372307)" />
  <text
     x="887"
     y="-156.27321"
     style="font-size:8px;font-family:Dialog"
     id="text56" />
  <rect
     x="815.38849"
     y="320.62793"
     width="21"
     height="21"
     id="rect58"
     style="fill:none;stroke:#000000;stroke-width:1" />
  <rect
     x="816.38849"
     y="321.62793"
     width="19"
     height="19"
     id="rect60"
     style="fill:#68e5ff" />
  <polygon
     points="970,429 985,421 970,414 "
     id="polygon62"
     style="fill:none;stroke:#000000;stroke-width:1"
     transform="translate(-151.6115,-90.372307)" />
  <polygon
     points="970,429 985,421 970,414 "
     id="polygon64"
     style="fill:#000000"
     transform="translate(-151.6115,-90.372307)" />
  <text
     x="967"
     y="-155.27321"
     style="font-size:8px;font-family:Dialog"
     id="text66" />
  <rect
     x="601.38849"
     y="247.6275"
     width="91"
     height="151"
     id="rect68"
     style="fill:none;stroke:#000000;stroke-width:1" />
  <rect
     x="602.38849"
     y="248.6275"
     width="89"
     height="149"
     id="rect70"
     style="fill:#fbfcc8" />
  <text
     x="625.27124"
     y="286.35757"
     style="font-size:19px;font-family:Dialog"
     id="text72">
    <tspan
       style="font-size:20px"
       id="tspan3211">SUM</tspan>
  </text>
  <rect
     x="682.38849"
     y="319.62793"
     width="21"
     height="21"
     id="rect74"
     style="fill:none;stroke:#000000;stroke-width:1" />
  <rect
     x="683.38849"
     y="320.62793"
     width="19"
     height="19"
     id="rect76"
     style="fill:#68e5ff" />
  <polygon
     points="837,428 852,420 837,413 "
     id="polygon78"
     style="fill:none;stroke:#000000;stroke-width:1"
     transform="translate(-151.6115,-90.372307)" />
  <polygon
     points="837,428 852,420 837,413 "
     id="polygon80"
     style="fill:#000000"
     transform="translate(-151.6115,-90.372307)" />
  <rect
     x="591.38849"
     y="320.62793"
     width="21"
     height="21"
     id="rect82"
     style="fill:none;stroke:#000000;stroke-width:1" />
  <rect
     x="592.38849"
     y="321.62793"
     width="19"
     height="19"
     id="rect84"
     style="fill:#68e5ff" />
  <polygon
     points="746,429 761,421 746,414 "
     id="polygon86"
     style="fill:none;stroke:#000000;stroke-width:1"
     transform="translate(-151.6115,-90.372307)" />
  <polygon
     points="746,429 761,421 746,414 "
     id="polygon88"
     style="fill:#000000"
     transform="translate(-151.6115,-90.372307)" />
  <rect
     x="192.3885"
     y="282.62793"
     width="89"
     height="147"
     id="rect90"
     style="fill:none;stroke:#000000;stroke-width:1" />
  <rect
     x="193.3885"
     y="283.62793"
     width="87"
     height="145"
     id="rect92"
     style="fill:#fbfcc8" />
  <text
     x="209.17677"
     y="339.85275"
     style="font-size:17px;font-family:Dialog"
     id="text94">
    <tspan
       style="font-size:20px"
       id="tspan3201">CWA</tspan>
  </text>
  <rect
     x="182.3885"
     y="294.62793"
     width="21"
     height="21"
     id="rect96"
     style="fill:none;stroke:#000000;stroke-width:1" />
  <rect
     x="183.3885"
     y="295.62793"
     width="19"
     height="19"
     id="rect98"
     style="fill:#68e5ff" />
  <polygon
     points="337,403 352,395 337,388 "
     id="polygon100"
     style="fill:none;stroke:#000000;stroke-width:1"
     transform="translate(-151.6115,-90.372307)" />
  <polygon
     points="337,403 352,395 337,388 "
     id="polygon102"
     style="fill:#000000"
     transform="translate(-151.6115,-90.372307)" />
  <rect
     x="182.3885"
     y="348.62793"
     width="21"
     height="21"
     id="rect104"
     style="fill:none;stroke:#000000;stroke-width:1" />
  <rect
     x="183.3885"
     y="349.62793"
     width="19"
     height="19"
     id="rect106"
     style="fill:#68e5ff" />
  <polygon
     points="337,457 352,449 337,442 "
     id="polygon108"
     style="fill:none;stroke:#000000;stroke-width:1"
     transform="translate(-151.6115,-90.372307)" />
  <polygon
     points="337,457 352,449 337,442 "
     id="polygon110"
     style="fill:#000000"
     transform="translate(-151.6115,-90.372307)" />
  <rect
     x="271.38849"
     y="318.62793"
     width="21"
     height="21"
     id="rect112"
     style="fill:none;stroke:#000000;stroke-width:1" />
  <rect
     x="272.38849"
     y="319.62793"
     width="19"
     height="19"
     id="rect114"
     style="fill:#68e5ff" />
  <polygon
     points="426,427 441,419 426,412 "
     id="polygon116"
     style="fill:none;stroke:#000000;stroke-width:1"
     transform="translate(-151.6115,-90.372307)" />
  <polygon
     points="426,427 441,419 426,412 "
     id="polygon118"
     style="fill:#000000"
     transform="translate(-151.6115,-90.372307)" />
  <rect
     x="667.38849"
     y="29.627644"
     width="101"
     height="151"
     id="rect120"
     style="fill:none;stroke:#000000;stroke-width:1" />
  <rect
     x="668.38849"
     y="30.62764"
     width="99"
     height="149"
     id="rect122"
     style="fill:#fbfcc8" />
  <text
     x="692.05951"
     y="76.451645"
     style="font-size:20px;font-family:Dialog"
     id="text124">CWM</text>
  <rect
     x="758.38849"
     y="100.6275"
     width="21"
     height="21"
     id="rect126"
     style="fill:none;stroke:#000000;stroke-width:1" />
  <rect
     x="759.38849"
     y="101.6275"
     width="19"
     height="19"
     id="rect128"
     style="fill:#68e5ff" />
  <polygon
     points="913,209 928,201 913,194 "
     id="polygon130"
     style="fill:none;stroke:#000000;stroke-width:1"
     transform="translate(-151.6115,-90.372307)" />
  <polygon
     points="913,209 928,201 913,194 "
     id="polygon132"
     style="fill:#000000"
     transform="translate(-151.6115,-90.372307)" />
  <rect
     x="657.38849"
     y="99.627502"
     width="21"
     height="21"
     id="rect134"
     style="fill:none;stroke:#000000;stroke-width:1" />
  <rect
     x="658.38849"
     y="100.6275"
     width="19"
     height="19"
     id="rect136"
     style="fill:#68e5ff" />
  <polygon
     points="812,208 827,200 812,193 "
     id="polygon138"
     style="fill:none;stroke:#000000;stroke-width:1"
     transform="translate(-151.6115,-90.372307)" />
  <polygon
     points="812,208 827,200 812,193 "
     id="polygon140"
     style="fill:#000000"
     transform="translate(-151.6115,-90.372307)" />
  <rect
     x="271.38849"
     y="22.62767"
     width="91"
     height="151"
     id="rect142"
     style="fill:none;stroke:#000000;stroke-width:1" />
  <rect
     x="272.38849"
     y="23.627666"
     width="89"
     height="149"
     id="rect144"
     style="fill:#fbfcc8" />
  <text
     x="294.48297"
     y="73.757889"
     style="font-size:18px;font-family:Dialog"
     id="text146">
    <tspan
       style="font-size:20px"
       id="tspan3209">FFT1</tspan>
  </text>
  <rect
     x="352.38849"
     y="94.62751"
     width="21"
     height="21"
     id="rect148"
     style="fill:none;stroke:#000000;stroke-width:1" />
  <rect
     x="353.38849"
     y="95.62751"
     width="19"
     height="19"
     id="rect150"
     style="fill:#68e5ff" />
  <polygon
     points="507,203 522,195 507,188 "
     id="polygon152"
     style="fill:none;stroke:#000000;stroke-width:1"
     transform="translate(-151.6115,-90.372307)" />
  <polygon
     points="507,203 522,195 507,188 "
     id="polygon154"
     style="fill:#000000"
     transform="translate(-151.6115,-90.372307)" />
  <rect
     x="261.38849"
     y="94.62751"
     width="21"
     height="21"
     id="rect156"
     style="fill:none;stroke:#000000;stroke-width:1" />
  <rect
     x="262.38849"
     y="95.62751"
     width="19"
     height="19"
     id="rect158"
     style="fill:#68e5ff" />
  <polygon
     points="416,203 431,195 416,188 "
     id="polygon160"
     style="fill:none;stroke:#000000;stroke-width:1"
     transform="translate(-151.6115,-90.372307)" />
  <polygon
     points="416,203 431,195 416,188 "
     id="polygon162"
     style="fill:#000000"
     transform="translate(-151.6115,-90.372307)" />
  <rect
     x="531.38849"
     y="27.627651"
     width="91"
     height="151"
     id="rect164"
     style="fill:none;stroke:#000000;stroke-width:1" />
  <rect
     x="532.38849"
     y="28.627647"
     width="89"
     height="149"
     id="rect166"
     style="fill:#fbfcc8" />
  <text
     x="556.84778"
     y="76.028206"
     style="font-size:20px;font-family:Dialog"
     id="text168">FFT2</text>
  <rect
     x="612.38849"
     y="99.627502"
     width="21"
     height="21"
     id="rect170"
     style="fill:none;stroke:#000000;stroke-width:1" />
  <rect
     x="613.38849"
     y="100.6275"
     width="19"
     height="19"
     id="rect172"
     style="fill:#68e5ff" />
  <polygon
     points="767,208 782,200 767,193 "
     id="polygon174"
     style="fill:none;stroke:#000000;stroke-width:1"
     transform="translate(-151.6115,-90.372307)" />
  <polygon
     points="767,208 782,200 767,193 "
     id="polygon176"
     style="fill:#000000"
     transform="translate(-151.6115,-90.372307)" />
  <rect
     x="521.38849"
     y="119.6275"
     width="21"
     height="21"
     id="rect178"
     style="fill:none;stroke:#000000;stroke-width:1" />
  <rect
     x="522.38849"
     y="120.6275"
     width="19"
     height="19"
     id="rect180"
     style="fill:#68e5ff" />
  <polygon
     points="676,228 691,220 676,213 "
     id="polygon182"
     style="fill:none;stroke:#000000;stroke-width:1"
     transform="translate(-151.6115,-90.372307)" />
  <polygon
     points="676,228 691,220 676,213 "
     id="polygon184"
     style="fill:#000000"
     transform="translate(-151.6115,-90.372307)" />
  <rect
     x="145.3885"
     y="84.62751"
     width="86"
     height="57"
     id="rect186"
     style="fill:none;stroke:#000000;stroke-width:1" />
  <rect
     x="146.3885"
     y="85.62751"
     width="84"
     height="55"
     id="rect188"
     style="fill:#c9f3bc" />
  <text
     x="161.3885"
     y="113.6275"
     style="font-size:14px;font-family:Dialog"
     id="text190">
    <tspan
       style="font-size:20px"
       id="tspan3197">FEED</tspan>
  </text>
  <rect
     x="135.3885"
     y="93.62751"
     width="21"
     height="21"
     id="rect192"
     style="fill:none;stroke:#000000;stroke-width:1" />
  <rect
     x="136.3885"
     y="94.62751"
     width="19"
     height="19"
     id="rect194"
     style="fill:#68e5ff" />
  <polygon
     points="290,202 305,194 290,187 "
     id="polygon196"
     style="fill:none;stroke:#000000;stroke-width:1"
     transform="translate(-151.6115,-90.372307)" />
  <polygon
     points="290,202 305,194 290,187 "
     id="polygon198"
     style="fill:#000000"
     transform="translate(-151.6115,-90.372307)" />
  <text
     x="287"
     y="-382.27322"
     style="font-size:8px;font-family:Dialog"
     id="text200" />
  <rect
     x="221.3885"
     y="94.62751"
     width="21"
     height="21"
     id="rect202"
     style="fill:none;stroke:#000000;stroke-width:1" />
  <rect
     x="222.3885"
     y="95.62751"
     width="19"
     height="19"
     id="rect204"
     style="fill:#68e5ff" />
  <polygon
     points="376,203 391,195 376,188 "
     id="polygon206"
     style="fill:none;stroke:#000000;stroke-width:1"
     transform="translate(-151.6115,-90.372307)" />
  <polygon
     points="376,203 391,195 376,188 "
     id="polygon208"
     style="fill:#000000"
     transform="translate(-151.6115,-90.372307)" />
  <rect
     x="464.38849"
     y="311.62793"
     width="87"
     height="57"
     id="rect212"
     style="fill:none;stroke:#000000;stroke-width:1" />
  <rect
     x="465.38849"
     y="312.62793"
     width="85"
     height="55"
     id="rect214"
     style="fill:#c9f3bc" />
  <text
     x="489.84781"
     y="340.62793"
     style="font-size:14px;font-family:Dialog"
     id="text216">
    <tspan
       style="font-size:20px"
       id="tspan3207">REP</tspan>
  </text>
  <rect
     x="454.38849"
     y="320.62793"
     width="21"
     height="21"
     id="rect218"
     style="fill:none;stroke:#000000;stroke-width:1" />
  <rect
     x="455.38849"
     y="321.62793"
     width="19"
     height="19"
     id="rect220"
     style="fill:#68e5ff" />
  <polygon
     points="609,429 624,421 609,414 "
     id="polygon222"
     style="fill:none;stroke:#000000;stroke-width:1"
     transform="translate(-151.6115,-90.372307)" />
  <polygon
     points="609,429 624,421 609,414 "
     id="polygon224"
     style="fill:#000000"
     transform="translate(-151.6115,-90.372307)" />
  <text
     x="606"
     y="-155.27321"
     style="font-size:8px;font-family:Dialog"
     id="text226" />
  <rect
     x="541.38849"
     y="320.62793"
     width="21"
     height="21"
     id="rect228"
     style="fill:none;stroke:#000000;stroke-width:1" />
  <rect
     x="542.38849"
     y="321.62793"
     width="19"
     height="19"
     id="rect230"
     style="fill:#68e5ff" />
  <polygon
     points="696,429 711,421 696,414 "
     id="polygon232"
     style="fill:none;stroke:#000000;stroke-width:1"
     transform="translate(-151.6115,-90.372307)" />
  <polygon
     points="696,429 711,421 696,414 "
     id="polygon234"
     style="fill:#000000"
     transform="translate(-151.6115,-90.372307)" />
  <text
     x="693"
     y="-155.27321"
     style="font-size:8px;font-family:Dialog"
     id="text236" />
  <rect
     x="328.38849"
     y="314.62793"
     width="93"
     height="55"
     id="rect238"
     style="fill:none;stroke:#000000;stroke-width:1" />
  <rect
     x="329.38849"
     y="315.62793"
     width="91"
     height="53"
     id="rect240"
     style="fill:#c9f3bc" />
  <text
     x="344.38849"
     y="343.62793"
     style="font-size:14px;font-family:Dialog"
     id="text242">
    <tspan
       style="font-size:20px"
       id="tspan3205">DMX1</tspan>
  </text>
  <rect
     x="318.38849"
     y="318.62793"
     width="21"
     height="21"
     id="rect244"
     style="fill:none;stroke:#000000;stroke-width:1" />
  <rect
     x="319.38849"
     y="319.62793"
     width="19"
     height="19"
     id="rect246"
     style="fill:#68e5ff" />
  <polygon
     points="473,427 488,419 473,412 "
     id="polygon248"
     style="fill:none;stroke:#000000;stroke-width:1"
     transform="translate(-151.6115,-90.372307)" />
  <polygon
     points="473,427 488,419 473,412 "
     id="polygon250"
     style="fill:#000000"
     transform="translate(-151.6115,-90.372307)" />
  <text
     x="470"
     y="-157.27321"
     style="font-size:8px;font-family:Dialog"
     id="text252" />
  <rect
     x="411.38849"
     y="320.62793"
     width="21"
     height="21"
     id="rect254"
     style="fill:none;stroke:#000000;stroke-width:1" />
  <rect
     x="412.38849"
     y="321.62793"
     width="19"
     height="19"
     id="rect256"
     style="fill:#68e5ff" />
  <polygon
     points="566,429 581,421 566,414 "
     id="polygon258"
     style="fill:none;stroke:#000000;stroke-width:1"
     transform="translate(-151.6115,-90.372307)" />
  <polygon
     points="566,429 581,421 566,414 "
     id="polygon260"
     style="fill:#000000"
     transform="translate(-151.6115,-90.372307)" />
  <text
     x="563"
     y="-155.27321"
     style="font-size:8px;font-family:Dialog"
     id="text262" />
  <rect
     x="72.388496"
     y="342.62793"
     width="74"
     height="53"
     id="rect264"
     style="fill:none;stroke:#000000;stroke-width:1" />
  <rect
     x="73.388496"
     y="343.62793"
     width="72"
     height="51"
     id="rect266"
     style="fill:#c9f3bc" />
  <text
     x="93.906425"
     y="371.62793"
     style="font-size:14px;font-family:Dialog"
     id="text268">
    <tspan
       style="font-size:20px"
       id="tspan3203">MX</tspan>
  </text>
  <rect
     x="136.3885"
     y="348.62793"
     width="21"
     height="21"
     id="rect270"
     style="fill:none;stroke:#000000;stroke-width:1" />
  <rect
     x="137.3885"
     y="349.62793"
     width="19"
     height="19"
     id="rect272"
     style="fill:#68e5ff" />
  <polygon
     points="291,457 306,449 291,442 "
     id="polygon274"
     style="fill:none;stroke:#000000;stroke-width:1"
     transform="translate(-151.6115,-90.372307)" />
  <polygon
     points="291,457 306,449 291,442 "
     id="polygon276"
     style="fill:#000000"
     transform="translate(-151.6115,-90.372307)" />
  <text
     x="288"
     y="-127.27322"
     style="font-size:8px;font-family:Dialog"
     id="text278" />
  <rect
     x="62.3885"
     y="348.62793"
     width="21"
     height="21"
     id="rect280"
     style="fill:none;stroke:#000000;stroke-width:1" />
  <rect
     x="63.3885"
     y="349.62793"
     width="19"
     height="19"
     id="rect282"
     style="fill:#68e5ff" />
  <polygon
     points="217,457 232,449 217,442 "
     id="polygon284"
     style="fill:none;stroke:#000000;stroke-width:1"
     transform="translate(-151.6115,-90.372307)" />
  <polygon
     points="217,457 232,449 217,442 "
     id="polygon286"
     style="fill:#000000"
     transform="translate(-151.6115,-90.372307)" />
  <line
     x1="80.388496"
     y1="366.62793"
     x2="80.388496"
     y2="351.62793"
     id="line288"
     style="fill:none;stroke:#000000;stroke-width:1" />
  <text
     x="214"
     y="-127.27322"
     style="font-size:8px;font-family:Dialog"
     id="text290" />
  <rect
     x="813.38849"
     y="61.627522"
     width="83"
     height="108"
     id="rect292"
     style="fill:none;stroke:#000000;stroke-width:1" />
  <rect
     x="814.38849"
     y="62.627518"
     width="81"
     height="106"
     id="rect294"
     style="fill:#c9f3bc" />
  <text
     x="827.81195"
     y="87.474403"
     style="font-size:14px;font-family:Dialog"
     id="text296">
    <tspan
       style="font-size:20px"
       id="tspan3213">DMX</tspan>
  </text>
  <rect
     x="803.38849"
     y="100.6275"
     width="21"
     height="21"
     id="rect298"
     style="fill:none;stroke:#000000;stroke-width:1" />
  <rect
     x="804.38849"
     y="101.6275"
     width="19"
     height="19"
     id="rect300"
     style="fill:#68e5ff" />
  <polygon
     points="958,209 973,201 958,194 "
     id="polygon302"
     style="fill:none;stroke:#000000;stroke-width:1"
     transform="translate(-151.6115,-90.372307)" />
  <polygon
     points="958,209 973,201 958,194 "
     id="polygon304"
     style="fill:#000000"
     transform="translate(-151.6115,-90.372307)" />
  <text
     x="955"
     y="-375.27322"
     style="font-size:8px;font-family:Dialog"
     id="text306" />
  <rect
     x="886.38849"
     y="70.627518"
     width="21"
     height="21"
     id="rect308"
     style="fill:none;stroke:#000000;stroke-width:1" />
  <rect
     x="887.38849"
     y="71.627518"
     width="19"
     height="19"
     id="rect310"
     style="fill:#68e5ff" />
  <polygon
     points="1041,179 1056,171 1041,164 "
     id="polygon312"
     style="fill:none;stroke:#000000;stroke-width:1"
     transform="translate(-151.6115,-90.372307)" />
  <polygon
     points="1041,179 1056,171 1041,164 "
     id="polygon314"
     style="fill:#000000"
     transform="translate(-151.6115,-90.372307)" />
  <text
     x="1038"
     y="-405.27322"
     style="font-size:8px;font-family:Dialog"
     id="text316" />
  <rect
     x="886.38849"
     y="119.6275"
     width="21"
     height="21"
     id="rect318"
     style="fill:none;stroke:#000000;stroke-width:1" />
  <rect
     x="887.38849"
     y="120.6275"
     width="19"
     height="19"
     id="rect320"
     style="fill:#68e5ff" />
  <polygon
     points="1041,228 1056,220 1041,213 "
     id="polygon322"
     style="fill:none;stroke:#000000;stroke-width:1"
     transform="translate(-151.6115,-90.372307)" />
  <polygon
     points="1041,228 1056,220 1041,213 "
     id="polygon324"
     style="fill:#000000"
     transform="translate(-151.6115,-90.372307)" />
  <text
     x="1038"
     y="-356.27322"
     style="font-size:8px;font-family:Dialog"
     id="text326" />
  <rect
     x="402.38849"
     y="87.62751"
     width="86"
     height="71"
     id="rect328"
     style="fill:none;stroke:#000000;stroke-width:1" />
  <rect
     x="403.38849"
     y="88.62751"
     width="84"
     height="69"
     id="rect330"
     style="fill:#c9f3bc" />
  <text
     x="418.38849"
     y="116.6275"
     style="font-size:14px;font-family:Dialog"
     id="text332">
    <tspan
       style="font-size:20px"
       id="tspan3199">OVLP</tspan>
  </text>
  <rect
     x="392.38849"
     y="94.62751"
     width="21"
     height="21"
     id="rect334"
     style="fill:none;stroke:#000000;stroke-width:1" />
  <rect
     x="393.38849"
     y="95.62751"
     width="19"
     height="19"
     id="rect336"
     style="fill:#68e5ff" />
  <polygon
     points="547,203 562,195 547,188 "
     id="polygon338"
     style="fill:none;stroke:#000000;stroke-width:1"
     transform="translate(-151.6115,-90.372307)" />
  <polygon
     points="547,203 562,195 547,188 "
     id="polygon340"
     style="fill:#000000"
     transform="translate(-151.6115,-90.372307)" />
  <text
     x="544"
     y="-381.27322"
     style="font-size:8px;font-family:Dialog"
     id="text342" />
  <rect
     x="478.38849"
     y="119.6275"
     width="21"
     height="21"
     id="rect344"
     style="fill:none;stroke:#000000;stroke-width:1" />
  <rect
     x="479.38849"
     y="120.6275"
     width="19"
     height="19"
     id="rect346"
     style="fill:#68e5ff" />
  <polygon
     points="633,228 648,220 633,213 "
     id="polygon348"
     style="fill:none;stroke:#000000;stroke-width:1"
     transform="translate(-151.6115,-90.372307)" />
  <polygon
     points="633,228 648,220 633,213 "
     id="polygon350"
     style="fill:#000000"
     transform="translate(-151.6115,-90.372307)" />
  <rect
     x="16.388498"
     y="86.62751"
     width="82"
     height="55"
     id="rect354"
     style="fill:none;stroke:#000000;stroke-width:1" />
  <rect
     x="17.388498"
     y="87.62751"
     width="80"
     height="53"
     id="rect356"
     style="fill:#c9f3bc" />
  <text
     x="32.3885"
     y="115.6275"
     style="font-size:14px;font-family:Dialog"
     id="text358">
    <tspan
       style="font-size:20px"
       id="tspan3195">SRC</tspan>
  </text>
  <rect
     x="88.388496"
     y="93.62751"
     width="21"
     height="21"
     id="rect360"
     style="fill:none;stroke:#000000;stroke-width:1" />
  <rect
     x="89.388496"
     y="94.62751"
     width="19"
     height="19"
     id="rect362"
     style="fill:#68e5ff" />
  <polygon
     points="243,202 258,194 243,187 "
     id="polygon364"
     style="fill:none;stroke:#000000;stroke-width:1"
     transform="translate(-151.6115,-90.372307)" />
  <polygon
     points="243,202 258,194 243,187 "
     id="polygon366"
     style="fill:#000000"
     transform="translate(-151.6115,-90.372307)" />
  <text
     x="240"
     y="-382.27322"
     style="font-size:8px;font-family:Dialog"
     id="text368" />
  <text
     x="274"
     y="-371.27322"
     style="font-size:12px;font-family:Dialog"
     id="text370" />
  <line
     x1="109.3885"
     y1="103.6275"
     x2="135.3885"
     y2="103.6275"
     id="line372"
     style="fill:none;stroke:#000000;stroke-width:1" />
  <line
     x1="242.3885"
     y1="104.6275"
     x2="261.38849"
     y2="104.6275"
     id="line374"
     style="fill:none;stroke:#000000;stroke-width:1" />
  <line
     x1="373.38849"
     y1="104.6275"
     x2="392.38849"
     y2="104.6275"
     id="line376"
     style="fill:none;stroke:#000000;stroke-width:1" />
  <line
     x1="499.38849"
     y1="129.6275"
     x2="521.38849"
     y2="129.6275"
     id="line378"
     style="fill:none;stroke:#000000;stroke-width:1" />
  <line
     x1="633.38849"
     y1="109.6275"
     x2="657.38849"
     y2="109.6275"
     id="line380"
     style="fill:none;stroke:#000000;stroke-width:1" />
  <line
     x1="779.38849"
     y1="110.6275"
     x2="803.38849"
     y2="110.6275"
     id="line382"
     style="fill:none;stroke:#000000;stroke-width:1" />
  <line
     x1="907.38849"
     y1="80.627518"
     x2="953.38849"
     y2="80.627518"
     id="line384"
     style="fill:none;stroke:#000000;stroke-width:1" />
  <line
     x1="953.38849"
     y1="80.627518"
     x2="953.38849"
     y2="238.6275"
     id="line386"
     style="fill:none;stroke:#000000;stroke-width:1" />
  <line
     x1="953.38849"
     y1="238.6275"
     x2="151.3885"
     y2="238.6275"
     id="line388"
     style="fill:none;stroke:#000000;stroke-width:1" />
  <line
     x1="151.3885"
     y1="238.6275"
     x2="151.3885"
     y2="304.62793"
     id="line390"
     style="fill:none;stroke:#000000;stroke-width:1" />
  <line
     x1="151.3885"
     y1="304.62793"
     x2="182.3885"
     y2="304.62793"
     id="line392"
     style="fill:none;stroke:#000000;stroke-width:1" />
  <line
     x1="157.3885"
     y1="358.62793"
     x2="182.3885"
     y2="358.62793"
     id="line394"
     style="fill:none;stroke:#000000;stroke-width:1" />
  <line
     x1="292.38849"
     y1="328.62793"
     x2="318.38849"
     y2="328.62793"
     id="line396"
     style="fill:none;stroke:#000000;stroke-width:1" />
  <text
     x="595"
     y="-144.27321"
     style="font-size:12px;font-family:Dialog"
     id="text398" />
  <line
     x1="432.38849"
     y1="330.62793"
     x2="454.38849"
     y2="330.62793"
     id="line400"
     style="fill:none;stroke:#000000;stroke-width:1" />
  <line
     x1="562.38849"
     y1="330.62793"
     x2="591.38849"
     y2="330.62793"
     id="line402"
     style="fill:none;stroke:#000000;stroke-width:1" />
  <line
     x1="703.38849"
     y1="329.62793"
     x2="735.38849"
     y2="329.62793"
     id="line404"
     style="fill:none;stroke:#000000;stroke-width:1" />
  <line
     x1="836.38849"
     y1="330.62793"
     x2="866.38849"
     y2="330.62793"
     id="line406"
     style="fill:none;stroke:#000000;stroke-width:1" />
  <line
     x1="907.38849"
     y1="129.6275"
     x2="932.38849"
     y2="129.6275"
     id="line408"
     style="fill:none;stroke:#000000;stroke-width:1" />
  <line
     x1="932.38849"
     y1="129.6275"
     x2="932.38849"
     y2="201.6275"
     id="line410"
     style="fill:none;stroke:#000000;stroke-width:1" />
  <line
     x1="932.38849"
     y1="201.6275"
     x2="25.388498"
     y2="201.6275"
     id="line412"
     style="fill:none;stroke:#000000;stroke-width:1" />
  <line
     x1="25.388498"
     y1="201.6275"
     x2="25.388498"
     y2="358.62793"
     id="line414"
     style="fill:none;stroke:#000000;stroke-width:1" />
  <text
     x="195"
     y="-116.27322"
     style="font-size:12px;font-family:Dialog"
     id="text416" />
  <line
     x1="25.388498"
     y1="358.62793"
     x2="62.3885"
     y2="358.62793"
     id="line418"
     style="fill:none;stroke:#000000;stroke-width:1" />
  <line
     x1="929.38849"
     y1="414.62793"
     x2="929.38849"
     y2="441.62793"
     id="line420"
     style="fill:none;stroke:#000000;stroke-width:1" />
  <line
     x1="929.38849"
     y1="441.62793"
     x2="838.38849"
     y2="441.62793"
     id="line422"
     style="fill:none;stroke:#000000;stroke-width:1" />
</svg>
