<?xml version="1.0" encoding="UTF-8" standalone="no"?>
<!-- Created with Inkscape (http://www.inkscape.org/) -->

<svg
   xmlns:dc="http://purl.org/dc/elements/1.1/"
   xmlns:cc="http://creativecommons.org/ns#"
   xmlns:rdf="http://www.w3.org/1999/02/22-rdf-syntax-ns#"
   xmlns:svg="http://www.w3.org/2000/svg"
   xmlns="http://www.w3.org/2000/svg"
   xmlns:sodipodi="http://sodipodi.sourceforge.net/DTD/sodipodi-0.dtd"
   xmlns:inkscape="http://www.inkscape.org/namespaces/inkscape"
   id="svg2"
   version="1.1"
   inkscape:version="0.91 r13725"
   width="1680.25"
   height="1200"
   xml:space="preserve"
   sodipodi:docname="YChartDIPLO2.svg"><metadata
     id="metadata8"><rdf:RDF><cc:Work
         rdf:about=""><dc:format>image/svg+xml</dc:format><dc:type
           rdf:resource="http://purl.org/dc/dcmitype/StillImage" /><dc:title /></cc:Work></rdf:RDF></metadata><defs
     id="defs6"><clipPath
       clipPathUnits="userSpaceOnUse"
       id="clipPath18"><path
         d="m 0,0 0,9384 14670,0 L 14670,0 0,0 Z m 8390.66,3987.44 -147.18,96.15 -68.25,-104.46 147.18,-95.55 0,0 -70.62,119.88 138.87,-16.02 z"
         id="path20"
         inkscape:connector-curvature="0"
         style="clip-rule:evenodd" /></clipPath><clipPath
       clipPathUnits="userSpaceOnUse"
       id="clipPath32"><path
         d="m 0,0 0,9384 14670,0 L 14670,0 0,0 Z m 8362.77,6232.61 -173.89,20.18 -14.25,-124.04 173.89,-20.18 0,0 -116.91,75.97 131.16,48.07 z"
         id="path34"
         inkscape:connector-curvature="0"
         style="clip-rule:evenodd" /></clipPath><clipPath
       clipPathUnits="userSpaceOnUse"
       id="clipPath46"><path
         d="m 0,0 0,9384 14670,0 L 14670,0 0,0 Z m 11295.8,7757.88 -134.1,113.36 -80.8,-94.96 134.2,-113.36 0,0 -55.2,128.2 135.9,-33.24 z"
         id="path48"
         inkscape:connector-curvature="0"
         style="clip-rule:evenodd" /></clipPath><clipPath
       clipPathUnits="userSpaceOnUse"
       id="clipPath60"><path
         d="m 0,0 0,9384 14670,0 L 14670,0 0,0 Z m 2242.11,3262.79 78.93,155.5 -110.98,56.37 -78.93,-155.49 0,0 111.57,82.49 -0.59,-138.87 z"
         id="path62"
         inkscape:connector-curvature="0"
         style="clip-rule:evenodd" /></clipPath><clipPath
       clipPathUnits="userSpaceOnUse"
       id="clipPath74"><path
         d="m 0,0 0,9384 14670,0 L 14670,0 0,0 Z m 2157.83,7724.05 162.03,66.47 -46.89,115.14 -162.02,-65.88 0,0 138.87,-10.68 -91.99,-105.05 z"
         id="path76"
         inkscape:connector-curvature="0"
         style="clip-rule:evenodd" /></clipPath><clipPath
       clipPathUnits="userSpaceOnUse"
       id="clipPath104"><path
         d="m 0,0 0,9384 14670,0 L 14670,0 0,0 Z m 5054.66,6795.24 142.43,-100.89 71.82,101.48 -141.85,101.49 0,0 65.29,-123.44 -137.69,21.36 z"
         id="path106"
         inkscape:connector-curvature="0"
         style="clip-rule:evenodd" /></clipPath><clipPath
       clipPathUnits="userSpaceOnUse"
       id="clipPath118"><path
         d="m 0,0 0,9384 14670,0 L 14670,0 0,0 Z m 6579.33,4672.92 -0.59,-175.08 124.63,0 0.59,175.08 0,0 -62.31,-124.63 -62.32,124.63 z"
         id="path120"
         inkscape:connector-curvature="0"
         style="clip-rule:evenodd" /></clipPath><clipPath
       clipPathUnits="userSpaceOnUse"
       id="clipPath132"><path
         d="m 0,0 0,9384 14670,0 L 14670,0 0,0 Z m 8284.43,6901.47 -138.88,-106.83 75.97,-99.1 138.87,106.82 0,0 -137.09,-26.7 61.13,125.81 z"
         id="path134"
         inkscape:connector-curvature="0"
         style="clip-rule:evenodd" /></clipPath><clipPath
       clipPathUnits="userSpaceOnUse"
       id="clipPath148"><path
         d="m 0,0 0,9384 14670,0 L 14670,0 0,0 Z m 6606.04,2456.24 -0.59,-175.08 124.63,0 0.59,175.08 0,0 -62.31,-124.63 -62.32,124.63 z"
         id="path150"
         inkscape:connector-curvature="0"
         style="clip-rule:evenodd" /></clipPath><clipPath
       clipPathUnits="userSpaceOnUse"
       id="clipPath162"><path
         d="m 0,0 0,9384 14670,0 L 14670,0 0,0 Z m 6606.04,212.848 -0.59,-175.0824 124.63,0 0.59,175.0824 0,0 -62.31,-124.6332 -62.32,124.6332 z"
         id="path164"
         inkscape:connector-curvature="0"
         style="clip-rule:evenodd" /></clipPath><clipPath
       clipPathUnits="userSpaceOnUse"
       id="clipPath178"><path
         d="m 0,0 0,9384 14670,0 L 14670,0 0,0 Z m 5102.73,2265.13 162.61,-62.91 44.52,116.33 -162.62,62.91 0,0 93.77,-103.27 -138.28,-13.06 z"
         id="path180"
         inkscape:connector-curvature="0"
         style="clip-rule:evenodd" /></clipPath><clipPath
       clipPathUnits="userSpaceOnUse"
       id="clipPath194"><path
         d="m 0,0 0,9384 14670,0 L 14670,0 0,0 Z m 2199.97,4710.31 -78.34,-156.68 111.58,-55.79 78.34,157.28 0,0 -111.58,-84.28 0,139.47 z"
         id="path196"
         inkscape:connector-curvature="0"
         style="clip-rule:evenodd" /></clipPath><clipPath
       clipPathUnits="userSpaceOnUse"
       id="clipPath210"><path
         d="m 0,0 0,9384 14670,0 L 14670,0 0,0 Z m 5086.7,3963.7 174.49,0 0,124.63 -174.49,0 0,0 124.64,-62.31 -124.64,-62.32 z"
         id="path212"
         inkscape:connector-curvature="0"
         style="clip-rule:evenodd" /></clipPath><clipPath
       clipPathUnits="userSpaceOnUse"
       id="clipPath224"><path
         d="m 0,0 0,9384 14670,0 L 14670,0 0,0 Z m 3852.84,4710.31 -140.66,-105.64 75.37,-99.11 140.07,105.05 0,0 -137.1,-25.52 62.32,125.22 z"
         id="path226"
         inkscape:connector-curvature="0"
         style="clip-rule:evenodd" /></clipPath></defs><sodipodi:namedview
     pagecolor="#ffffff"
     bordercolor="#666666"
     borderopacity="1"
     objecttolerance="10"
     gridtolerance="10"
     guidetolerance="10"
     inkscape:pageopacity="0"
     inkscape:pageshadow="2"
     inkscape:window-width="1295"
     inkscape:window-height="640"
     id="namedview4"
     showgrid="false"
     inkscape:zoom="0.50283149"
     inkscape:cx="973.125"
     inkscape:cy="570.17402"
     inkscape:window-x="65"
     inkscape:window-y="24"
     inkscape:window-maximized="1"
     inkscape:current-layer="g12" /><g
     id="g10"
     inkscape:groupmode="layer"
     inkscape:label="YChartDIPLO2"
     transform="matrix(1.25,0,0,-1.25,0,1200)"><g
       id="g12"
       transform="scale(0.106135,0.106135)"><g
         id="g14"><g
           id="g16"
           clip-path="url(#clipPath18)"><path
             d="m 8243.46,1542.27 c 431.56,261.46 695.17,729.39 695.17,1233.98 0,515.65 -275.21,992.11 -721.88,1249.76"
             style="fill:none;stroke:#000000;stroke-width:35.6094017;stroke-linecap:butt;stroke-linejoin:miter;stroke-miterlimit:10;stroke-dasharray:none;stroke-opacity:1"
             id="path22"
             inkscape:connector-curvature="0" /></g></g><path
         d="m 8390.66,3987.44 -138.87,16.02 70.62,-119.88 68.25,103.86"
         style="fill:#000000;fill-opacity:1;fill-rule:evenodd;stroke:none"
         id="path24"
         inkscape:connector-curvature="0" /><path
         d="m 8390.66,3987.44 -138.87,16.02 70.62,-119.88 68.25,103.86 z"
         style="fill:none;stroke:#000000;stroke-width:35.6094017;stroke-linecap:butt;stroke-linejoin:miter;stroke-miterlimit:10;stroke-dasharray:none;stroke-opacity:1"
         id="path26"
         inkscape:connector-curvature="0" /><g
         id="g28"><g
           id="g30"
           clip-path="url(#clipPath32)"><path
             d="m 8270.18,1542.28 c 1178.19,135.95 2067.32,1133.57 2067.32,2319.58 0,1216.84 -934.53,2229.69 -2147.44,2327.42"
             style="fill:none;stroke:#000000;stroke-width:35.6094017;stroke-linecap:butt;stroke-linejoin:miter;stroke-miterlimit:10;stroke-dasharray:none;stroke-opacity:1"
             id="path36"
             inkscape:connector-curvature="0" /></g></g><path
         d="m 8362.77,6232.61 -131.16,-48.07 116.91,-75.97 14.25,124.04"
         style="fill:#000000;fill-opacity:1;fill-rule:evenodd;stroke:none"
         id="path38"
         inkscape:connector-curvature="0" /><path
         d="m 8362.77,6232.61 -131.16,-48.07 116.91,-75.97 14.25,124.04 z"
         style="fill:none;stroke:#000000;stroke-width:35.6094017;stroke-linecap:butt;stroke-linejoin:miter;stroke-miterlimit:10;stroke-dasharray:none;stroke-opacity:1"
         id="path40"
         inkscape:connector-curvature="0" /><g
         id="g42"><g
           id="g44"
           clip-path="url(#clipPath46)"><path
             d="m 8296.88,1622.41 c 203.72,-36.3 410.25,-54.57 617.18,-54.57 1942.54,0 3517.34,1574.76 3517.34,3517.32 0,1061.07 -479,2065.45 -1303.6,2733.27"
             style="fill:none;stroke:#000000;stroke-width:35.6094017;stroke-linecap:butt;stroke-linejoin:miter;stroke-miterlimit:10;stroke-dasharray:none;stroke-opacity:1"
             id="path50"
             inkscape:connector-curvature="0" /></g></g><path
         d="m 11295.8,7757.88 -135.9,33.24 55.2,-128.2 80.7,94.96"
         style="fill:#000000;fill-opacity:1;fill-rule:evenodd;stroke:none"
         id="path52"
         inkscape:connector-curvature="0" /><path
         d="m 11295.8,7757.88 -135.9,33.24 55.2,-128.2 80.7,94.96 z"
         style="fill:none;stroke:#000000;stroke-width:35.6094017;stroke-linecap:butt;stroke-linejoin:miter;stroke-miterlimit:10;stroke-dasharray:none;stroke-opacity:1"
         id="path54"
         inkscape:connector-curvature="0" /><g
         id="g56"><g
           id="g58"
           clip-path="url(#clipPath60)"><path
             d="M 5252.31,1568.97 C 4922.72,1091.41 4379.5,806.277 3799.25,806.277 c -975.06,0 -1765.52,790.453 -1765.52,1765.513 0,303.64 78.32,602.15 227.37,866.68"
             style="fill:none;stroke:#000000;stroke-width:35.6094017;stroke-linecap:butt;stroke-linejoin:miter;stroke-miterlimit:10;stroke-dasharray:none;stroke-opacity:1"
             id="path64"
             inkscape:connector-curvature="0" /></g></g><path
         d="m 2242.11,3262.79 0.59,138.87 -111.57,-82.49 110.98,-56.38"
         style="fill:#000000;fill-opacity:1;fill-rule:evenodd;stroke:none"
         id="path66"
         inkscape:connector-curvature="0" /><path
         d="m 2242.11,3262.79 0.59,138.87 -111.57,-82.49 110.98,-56.38 z"
         style="fill:none;stroke:#000000;stroke-width:35.6094017;stroke-linecap:butt;stroke-linejoin:miter;stroke-miterlimit:10;stroke-dasharray:none;stroke-opacity:1"
         id="path68"
         inkscape:connector-curvature="0" /><g
         id="g70"><g
           id="g72"
           clip-path="url(#clipPath74)"><path
             d="M 5252.31,1542.23 C 4724.01,1239.96 4125.89,1080.95 3517.22,1080.95 1587.64,1080.95 23.4063,2645.18 23.4063,4574.76 23.4063,6030.1 925.551,7333.02 2287.82,7845.13"
             style="fill:none;stroke:#000000;stroke-width:35.6094017;stroke-linecap:butt;stroke-linejoin:miter;stroke-miterlimit:10;stroke-dasharray:none;stroke-opacity:1"
             id="path78"
             inkscape:connector-curvature="0" /></g></g><path
         d="m 2157.83,7724.05 91.99,105.05 -138.87,10.68 46.88,-115.73"
         style="fill:#000000;fill-opacity:1;fill-rule:evenodd;stroke:none"
         id="path80"
         inkscape:connector-curvature="0" /><path
         d="m 2157.83,7724.05 91.99,105.05 -138.87,10.68 46.88,-115.73 z"
         style="fill:none;stroke:#000000;stroke-width:35.6094017;stroke-linecap:butt;stroke-linejoin:miter;stroke-miterlimit:10;stroke-dasharray:none;stroke-opacity:1"
         id="path82"
         inkscape:connector-curvature="0" /><path
         d="m 3113.35,5975.63 4.75,0"
         style="fill:none;stroke:#000000;stroke-width:4.45116997;stroke-linecap:butt;stroke-linejoin:miter;stroke-miterlimit:10;stroke-dasharray:none;stroke-opacity:1"
         id="path84"
         inkscape:connector-curvature="0" /><path
         d="m 3113.35,5975.63 4.75,0"
         style="fill:none;stroke:#000000;stroke-width:4.45116997;stroke-linecap:butt;stroke-linejoin:miter;stroke-miterlimit:10;stroke-dasharray:none;stroke-opacity:1"
         id="path86"
         inkscape:connector-curvature="0" /><path
         d="m 3113.35,5975.63 4.75,0"
         style="fill:none;stroke:#000000;stroke-width:4.45116997;stroke-linecap:butt;stroke-linejoin:miter;stroke-miterlimit:10;stroke-dasharray:none;stroke-opacity:1"
         id="path88"
         inkscape:connector-curvature="0" /><path
         d="m 3113.35,5975.63 4.75,0"
         style="fill:none;stroke:#000000;stroke-width:4.45116997;stroke-linecap:butt;stroke-linejoin:miter;stroke-miterlimit:10;stroke-dasharray:none;stroke-opacity:1"
         id="path90"
         inkscape:connector-curvature="0" /><path
         d="m 3113.35,5975.63 4.75,0"
         style="fill:none;stroke:#000000;stroke-width:4.45116997;stroke-linecap:butt;stroke-linejoin:miter;stroke-miterlimit:10;stroke-dasharray:none;stroke-opacity:1"
         id="path92"
         inkscape:connector-curvature="0" /><path
         d="m 3113.35,5975.63 4.75,0"
         style="fill:none;stroke:#000000;stroke-width:4.45116997;stroke-linecap:butt;stroke-linejoin:miter;stroke-miterlimit:10;stroke-dasharray:none;stroke-opacity:1"
         id="path94"
         inkscape:connector-curvature="0" /><path
         d="m 8252.38,8913.41 0,0 c -34.42,0 -62.32,-27.91 -62.32,-62.32 l 0,-970.36 c 0,-34.41 27.9,-62.32 62.32,-62.32 l 2839.82,0 c 34.4,0 62.3,27.91 62.3,62.32 l 0,970.36 c 0,34.41 -27.9,62.32 -62.3,62.32 l -2839.82,0 z"
         style="fill:none;stroke:#000000;stroke-width:35.6094017;stroke-linecap:butt;stroke-linejoin:miter;stroke-miterlimit:10;stroke-dasharray:none;stroke-opacity:1"
         id="path96"
         inkscape:connector-curvature="0" /><path
         d="m 5287.9,6750.13 0,0 c -34.42,0 -62.32,-27.9 -62.32,-62.31 l 0,-970.36 c 0,-34.41 27.9,-62.32 62.32,-62.32 l 2839.85,0 c 34.41,0 62.31,27.91 62.31,62.32 l 0,970.36 c 0,34.41 -27.9,62.31 -62.31,62.31 l -2839.85,0 z"
         style="fill:none;stroke:#000000;stroke-width:35.6094017;stroke-linecap:butt;stroke-linejoin:miter;stroke-miterlimit:10;stroke-dasharray:none;stroke-opacity:1"
         id="path98"
         inkscape:connector-curvature="0" /><g
         id="g100"><g
           id="g102"
           clip-path="url(#clipPath104)"><path
             d="M 3756.7,7791.71 5225.58,6750.13"
             style="fill:none;stroke:#000000;stroke-width:35.6094017;stroke-linecap:butt;stroke-linejoin:miter;stroke-miterlimit:10;stroke-dasharray:none;stroke-opacity:1"
             id="path108"
             inkscape:connector-curvature="0" /></g></g><path
         d="m 5054.66,6795.24 137.69,-21.36 -65.29,123.44 -72.4,-102.08"
         style="fill:#000000;fill-opacity:1;fill-rule:evenodd;stroke:none"
         id="path110"
         inkscape:connector-curvature="0" /><path
         d="m 5054.66,6795.24 137.69,-21.36 -65.29,123.44 -72.4,-102.08 z"
         style="fill:none;stroke:#000000;stroke-width:35.6094017;stroke-linecap:butt;stroke-linejoin:miter;stroke-miterlimit:10;stroke-dasharray:none;stroke-opacity:1"
         id="path112"
         inkscape:connector-curvature="0" /><g
         id="g114"><g
           id="g116"
           clip-path="url(#clipPath118)"><path
             d="m 6641.05,5628.44 0,-1121.7"
             style="fill:none;stroke:#000000;stroke-width:35.6094017;stroke-linecap:butt;stroke-linejoin:miter;stroke-miterlimit:10;stroke-dasharray:none;stroke-opacity:1"
             id="path122"
             inkscape:connector-curvature="0" /></g></g><path
         d="m 6579.33,4672.92 62.32,-124.63 62.31,124.63 -124.63,0"
         style="fill:#000000;fill-opacity:1;fill-rule:evenodd;stroke:none"
         id="path124"
         inkscape:connector-curvature="0" /><path
         d="m 6579.33,4672.92 62.32,-124.63 62.31,124.63 -124.63,0 z"
         style="fill:none;stroke:#000000;stroke-width:35.6094017;stroke-linecap:butt;stroke-linejoin:miter;stroke-miterlimit:10;stroke-dasharray:none;stroke-opacity:1"
         id="path126"
         inkscape:connector-curvature="0" /><g
         id="g128"><g
           id="g130"
           clip-path="url(#clipPath132)"><path
             d="M 9578.83,7818.41 8190.06,6750.13"
             style="fill:none;stroke:#000000;stroke-width:35.6094017;stroke-linecap:butt;stroke-linejoin:miter;stroke-miterlimit:10;stroke-dasharray:none;stroke-opacity:1"
             id="path136"
             inkscape:connector-curvature="0" /></g></g><path
         d="m 8284.43,6901.47 -61.13,-125.81 137.09,26.7 -75.96,99.11"
         style="fill:#000000;fill-opacity:1;fill-rule:evenodd;stroke:none"
         id="path138"
         inkscape:connector-curvature="0" /><path
         d="m 8284.43,6901.47 -61.13,-125.81 137.09,26.7 -75.96,99.11 z"
         style="fill:none;stroke:#000000;stroke-width:35.6094017;stroke-linecap:butt;stroke-linejoin:miter;stroke-miterlimit:10;stroke-dasharray:none;stroke-opacity:1"
         id="path140"
         inkscape:connector-curvature="0" /><path
         d="m 2323.42,8886.7 0,0 c -34.42,0 -62.32,-27.9 -62.32,-62.32 l 0,-970.36 c 0,-34.41 27.9,-62.31 62.32,-62.31 l 2839.85,0 c 34.41,0 62.31,27.9 62.31,62.31 l 0,970.36 c 0,34.42 -27.9,62.32 -62.31,62.32 l -2839.85,0 z"
         style="fill:none;stroke:#000000;stroke-width:35.6094017;stroke-linecap:butt;stroke-linejoin:miter;stroke-miterlimit:10;stroke-dasharray:none;stroke-opacity:1"
         id="path142"
         inkscape:connector-curvature="0" /><g
         id="g144"><g
           id="g146"
           clip-path="url(#clipPath148)"><path
             d="m 6667.76,3385.05 0,-1094.99"
             style="fill:none;stroke:#000000;stroke-width:35.6094017;stroke-linecap:butt;stroke-linejoin:miter;stroke-miterlimit:10;stroke-dasharray:none;stroke-opacity:1"
             id="path152"
             inkscape:connector-curvature="0" /></g></g><path
         d="m 6606.04,2456.24 62.32,-124.63 62.31,124.63 -124.63,0"
         style="fill:#000000;fill-opacity:1;fill-rule:evenodd;stroke:none"
         id="path154"
         inkscape:connector-curvature="0" /><path
         d="m 6606.04,2456.24 62.32,-124.63 62.31,124.63 -124.63,0 z"
         style="fill:none;stroke:#000000;stroke-width:35.6094017;stroke-linecap:butt;stroke-linejoin:miter;stroke-miterlimit:10;stroke-dasharray:none;stroke-opacity:1"
         id="path156"
         inkscape:connector-curvature="0" /><g
         id="g158"
         transform="matrix(1,0,0,0.59615012,0,461.05926)"><g
           id="g160"
           clip-path="url(#clipPath162)"><path
             d="m 6667.76,1141.66 0,-1094.992"
             style="fill:none;stroke:#000000;stroke-width:35.6094017;stroke-linecap:butt;stroke-linejoin:miter;stroke-miterlimit:10;stroke-dasharray:none;stroke-opacity:1"
             id="path166"
             inkscape:connector-curvature="0" /></g></g><path
         d="m 6606.04,544.50108 62.32,-124.6332 62.31,124.6332 -124.63,0"
         style="fill:#000000;fill-opacity:1;fill-rule:evenodd;stroke:none"
         id="path168"
         inkscape:connector-curvature="0" /><path
         d="m 6606.04,544.50108 62.32,-124.6332 62.31,124.6332 -124.63,0 z"
         style="fill:none;stroke:#000000;stroke-width:35.6094017;stroke-linecap:butt;stroke-linejoin:miter;stroke-miterlimit:10;stroke-dasharray:none;stroke-opacity:1"
         id="path170"
         inkscape:connector-curvature="0" /><path
         d="m 5341.31,2263.35 0,0 c -34.41,0 -62.31,-27.9 -62.31,-62.31 l 0,-970.36 c 0,-34.41 27.9,-62.32 62.31,-62.32 l 2839.85,0 c 34.41,0 62.32,27.91 62.32,62.32 l 0,970.36 c 0,34.41 -27.91,62.31 -62.32,62.31 l -2839.85,0 z"
         style="fill:none;stroke:#000000;stroke-width:35.6094017;stroke-linecap:butt;stroke-linejoin:miter;stroke-miterlimit:10;stroke-dasharray:none;stroke-opacity:1"
         id="path172"
         inkscape:connector-curvature="0" /><path
         d="m 854.531,4560.16 0,0 c -34.414,0 -62.316,-27.91 -62.316,-62.32 l 0,-970.36 c 0,-34.41 27.902,-62.31 62.316,-62.31 l 2839.849,0 c 34.41,0 62.32,27.9 62.32,62.31 l 0,970.36 c 0,34.41 -27.91,62.32 -62.32,62.32 l -2839.849,0 z"
         style="fill:none;stroke:#000000;stroke-width:35.6094017;stroke-linecap:butt;stroke-linejoin:miter;stroke-miterlimit:10;stroke-dasharray:none;stroke-opacity:1"
         id="path188"
         inkscape:connector-curvature="0" /><g
         id="g190"><g
           id="g192"
           clip-path="url(#clipPath194)"><path
             d="M 3783.4,7765 2180.98,4533.45"
             style="fill:none;stroke:#000000;stroke-width:35.6094017;stroke-linecap:butt;stroke-linejoin:miter;stroke-miterlimit:10;stroke-dasharray:106.828;stroke-dashoffset:0;stroke-opacity:1"
             id="path198"
             inkscape:connector-curvature="0" /></g></g><path
         d="m 2199.97,4710.31 0,-139.47 111.58,84.28 -111.58,55.19"
         style="fill:#000000;fill-opacity:1;fill-rule:evenodd;stroke:none"
         id="path200"
         inkscape:connector-curvature="0" /><path
         d="m 2199.97,4710.31 0,-139.47 111.58,84.28 -111.58,55.19 z"
         style="fill:none;stroke:#000000;stroke-width:35.6094017;stroke-linecap:butt;stroke-linejoin:miter;stroke-miterlimit:10;stroke-dasharray:none;stroke-opacity:1"
         id="path202"
         inkscape:connector-curvature="0" /><path
         d="m 5314.61,4506.74 0,0 c -34.42,0 -62.32,-27.9 -62.32,-62.31 l 0,-970.36 c 0,-34.41 27.9,-62.32 62.32,-62.32 l 2839.84,0 c 34.42,0 62.32,27.91 62.32,62.32 l 0,970.36 c 0,34.41 -27.9,62.31 -62.32,62.31 l -2839.84,0 z"
         style="fill:none;stroke:#000000;stroke-width:35.6094017;stroke-linecap:butt;stroke-linejoin:miter;stroke-miterlimit:10;stroke-dasharray:none;stroke-opacity:1"
         id="path204"
         inkscape:connector-curvature="0" /><g
         id="g206"><g
           id="g208"
           clip-path="url(#clipPath210)"><path
             d="m 3783.4,4026.02 1468.89,0"
             style="fill:none;stroke:#000000;stroke-width:35.6094017;stroke-linecap:butt;stroke-linejoin:miter;stroke-miterlimit:10;stroke-dasharray:106.828;stroke-dashoffset:0;stroke-opacity:1"
             id="path214"
             inkscape:connector-curvature="0" /></g></g><path
         d="m 5086.7,3963.7 124.64,62.32 -124.64,62.31 0,-124.63"
         style="fill:#000000;fill-opacity:1;fill-rule:evenodd;stroke:none"
         id="path216"
         inkscape:connector-curvature="0" /><path
         d="m 5086.7,3963.7 124.64,62.32 -124.64,62.31 0,-124.63 z"
         style="fill:none;stroke:#000000;stroke-width:35.6094017;stroke-linecap:butt;stroke-linejoin:miter;stroke-miterlimit:10;stroke-dasharray:none;stroke-opacity:1"
         id="path218"
         inkscape:connector-curvature="0" /><g
         id="g220"><g
           id="g222"
           clip-path="url(#clipPath224)"><path
             d="M 5283.74,5709.75 3756.7,4560.16"
             style="fill:none;stroke:#000000;stroke-width:35.6094017;stroke-linecap:butt;stroke-linejoin:miter;stroke-miterlimit:10;stroke-dasharray:106.828;stroke-dashoffset:0;stroke-opacity:1"
             id="path228"
             inkscape:connector-curvature="0" /></g></g><path
         d="m 3852.84,4710.31 -62.32,-125.22 137.1,25.52 -74.78,99.7"
         style="fill:#000000;fill-opacity:1;fill-rule:evenodd;stroke:none"
         id="path230"
         inkscape:connector-curvature="0" /><path
         d="m 3852.84,4710.31 -62.32,-125.22 137.1,25.52 -74.78,99.7 z"
         style="fill:none;stroke:#000000;stroke-width:35.6094017;stroke-linecap:butt;stroke-linejoin:miter;stroke-miterlimit:10;stroke-dasharray:none;stroke-opacity:1"
         id="path232"
         inkscape:connector-curvature="0" /><g
         id="g234"
         transform="scale(9.42197,9.42197)"><text
           transform="scale(1,-1)"
           id="text236"
           x="1139.1934"
           y="-556.35645"><tspan
             style="font-variant:normal;font-weight:normal;font-size:32.12490082px;font-family:Times;-inkscape-font-specification:Times-Roman;writing-mode:lr-tb;fill:#000000;fill-opacity:1;fill-rule:nonzero;stroke:none"
             x="1139.1934 1148.124 1173.1172 1189.1797 1199.8772 1215.9397 1232.0022 1246.2656 1271.2588 1285.5222 1301.5847"
             y="-556.35645"
             sodipodi:role="line"
             id="tspan238">improvement</tspan><tspan
             style="font-variant:normal;font-weight:normal;font-size:32.12490082px;font-family:Times;-inkscape-font-specification:Times-Roman;writing-mode:lr-tb;fill:#000000;fill-opacity:1;fill-rule:nonzero;stroke:none"
             x="1178.8771 1207.436 1223.4985 1239.5609 1253.8245 1262.7551"
             y="-598.87408"
             sodipodi:role="line"
             id="tspan240">Models</tspan></text>
<text
           transform="scale(1,-1)"
           id="text242"
           x="1212.9032"
           y="-513.83893"><tspan
             style="font-variant:normal;font-weight:normal;font-size:34.01459885px;font-family:Times;-inkscape-font-specification:Times-Roman;writing-mode:lr-tb;fill:#000000;fill-opacity:1;fill-rule:nonzero;stroke:none"
             x="1212.9032"
             sodipodi:role="line"
             id="tspan244"
             y="-513.83893" /></text>
<text
           transform="matrix(1,0,0,-1,772.8729,53.1397)"
           id="text246"><tspan
             style="font-variant:normal;font-weight:normal;font-size:32.12490082px;font-family:Times;-inkscape-font-specification:Times-Roman;writing-mode:lr-tb;fill:#000000;fill-opacity:1;fill-rule:nonzero;stroke:none"
             sodipodi:role="line"
             id="tspan250"
             x="0"
             y="0" /><tspan
             style="font-variant:normal;font-weight:normal;font-size:32.12490082px;font-family:Times;-inkscape-font-specification:Times-Roman;writing-mode:lr-tb;fill:#000000;fill-opacity:1;fill-rule:nonzero;stroke:none"
             x="170.073 193.26718 203.96477 218.22823 234.29068 243.22139 252.15211 266.41559 280.67902 289.60974 305.67221 316.36978"
             y="-839.02679"
             sodipodi:role="line"
             id="tspan252">Architecture</tspan><tspan
             style="font-variant:normal;font-weight:normal;font-size:32.12490082px;font-family:Times;-inkscape-font-specification:Times-Roman;writing-mode:lr-tb;fill:#000000;fill-opacity:1;fill-rule:nonzero;stroke:none"
             x="206.9221 231.91527 247.97772 264.04016 278.30362"
             y="-799.34271"
             sodipodi:role="line"
             id="tspan254">model</tspan></text>
<text
           transform="matrix(1,0,0,-1,378.882,968.6994)"
           id="text256"><tspan
             style="font-variant:normal;font-weight:normal;font-size:34.01459885px;font-family:Times;-inkscape-font-specification:Times-Roman;writing-mode:lr-tb;fill:#000000;fill-opacity:1;fill-rule:nonzero;stroke:none"
             x="0"
             sodipodi:role="line"
             id="tspan258"
             y="0" /><tspan
             style="font-variant:normal;font-weight:normal;font-size:34.01459885px;font-family:Times;-inkscape-font-specification:Times-Roman;writing-mode:lr-tb;fill:#000000;fill-opacity:1;fill-rule:nonzero;stroke:none"
             x="0"
             sodipodi:role="line"
             id="tspan260"
             y="42.51825" /></text>
<text
           transform="matrix(1,0,0,-1,350.525,852.4824)"
           id="text262"><tspan
             style="font-variant:normal;font-weight:normal;font-size:32.12490082px;font-family:Times;-inkscape-font-specification:Times-Roman;writing-mode:lr-tb;fill:#000000;fill-opacity:1;fill-rule:nonzero;stroke:none"
             x="0 24.993172 41.055622 57.118073 71.381531"
             y="0"
             sodipodi:role="line"
             id="tspan264">model</tspan><tspan
             style="font-variant:normal;font-weight:normal;font-size:32.12490082px;font-family:Times;-inkscape-font-specification:Times-Roman;writing-mode:lr-tb;fill:#000000;fill-opacity:1;fill-rule:nonzero;stroke:none"
             x="294.793 319.78616 334.04962 350.11209 366.17453 375.10526 391.16769"
             y="226.76401"
             sodipodi:role="line"
             id="tspan266">mapping</tspan><tspan
             style="font-variant:normal;font-weight:normal;font-size:32.12490082px;font-family:Times;-inkscape-font-specification:Times-Roman;writing-mode:lr-tb;fill:#000000;fill-opacity:1;fill-rule:nonzero;stroke:none"
             x="-73.697998 -55.836555 -39.774105 -29.076513 -14.813058 -6.7818332 7.4816222 23.544073 39.606522 48.537243 57.467968 71.731422 85.994881 94.925598 103.85632 119.91877"
             y="-39.683998"
             sodipodi:role="line"
             id="tspan268">Pure application</tspan><tspan
             style="font-variant:normal;font-weight:normal;font-size:32.12490082px;font-family:Times;-inkscape-font-specification:Times-Roman;writing-mode:lr-tb;fill:#000000;fill-opacity:1;fill-rule:nonzero;stroke:none"
             x="311.80099 329.66245 343.9259 354.6235 363.5542 372.48492 386.74838"
             y="184.246"
             sodipodi:role="line"
             id="tspan270">Partial</tspan><tspan
             style="font-variant:normal;font-weight:normal;font-size:32.12490082px;font-family:Times;-inkscape-font-specification:Times-Roman;writing-mode:lr-tb;fill:#000000;fill-opacity:1;fill-rule:nonzero;stroke:none"
             x="297.6283 322.62146 336.88492 352.94739 369.00983 377.94055 394.00299"
             y="464.866"
             sodipodi:role="line"
             id="tspan272">mapping</tspan></text>
<text
           transform="matrix(1,0,0,-1,733.2014,500.9984)"
           id="text274"><tspan
             style="font-variant:normal;font-weight:normal;font-size:34.01459885px;font-family:Times;-inkscape-font-specification:Times-Roman;writing-mode:lr-tb;fill:#000000;fill-opacity:1;fill-rule:nonzero;stroke:none"
             x="0"
             sodipodi:role="line"
             id="tspan278"
             y="0" /></text>
<text
           transform="matrix(1,0,0,-1,639.6496,424.4654)"
           id="text280"><tspan
             style="font-variant:normal;font-weight:normal;font-size:32.12490082px;font-family:Times;-inkscape-font-specification:Times-Roman;writing-mode:lr-tb;fill:#000000;fill-opacity:1;fill-rule:nonzero;stroke:none"
             x="0 21.427309 37.489758 62.482929 78.54538 87.476105 101.73956 110.67028"
             y="0"
             sodipodi:role="line"
             id="tspan282">Complete</tspan></text>
<text
           transform="matrix(1,0,0,-1,271.1696,506.6673)"
           id="text284"><tspan
             style="font-variant:normal;font-weight:normal;font-size:34.01459885px;font-family:Times;-inkscape-font-specification:Times-Roman;writing-mode:lr-tb;fill:#000000;fill-opacity:1;fill-rule:nonzero;stroke:none"
             x="0"
             sodipodi:role="line"
             id="tspan286"
             y="0" /></text>
<text
           transform="matrix(1,0,0,-1,103.9196,435.8036)"
           id="text288"><tspan
             style="font-variant:normal;font-weight:normal;font-size:32.12490082px;font-family:Times;-inkscape-font-specification:Times-Roman;writing-mode:lr-tb;fill:#000000;fill-opacity:1;fill-rule:nonzero;stroke:none"
             x="0 23.194178 39.256626 55.319077 66.01667 74.947395 91.009842 99.041069 113.30452 129.36697 145.42943 154.36014 163.29086 177.55432 191.81778 200.7485 209.67923 225.74167"
             y="0"
             sodipodi:role="line"
             id="tspan290">Hybrid application</tspan><tspan
             style="font-variant:normal;font-weight:normal;font-size:32.12490082px;font-family:Times;-inkscape-font-specification:Times-Roman;writing-mode:lr-tb;fill:#000000;fill-opacity:1;fill-rule:nonzero;stroke:none"
             x="85.036499 110.02967 126.09212 142.15457 156.41803"
             y="42.5182"
             sodipodi:role="line"
             id="tspan292">model</tspan><tspan
             style="font-variant:normal;font-weight:normal;font-size:32.12490082px;font-family:Times;-inkscape-font-specification:Times-Roman;writing-mode:lr-tb;fill:#000000;fill-opacity:1;fill-rule:nonzero;stroke:none"
             x="535.72949 555.35779 571.42029 587.48273 596.41345 612.47589 623.17346 637.43695 646.36768 655.2984 671.36084"
             y="286.28922"
             sodipodi:role="line"
             id="tspan294">Exploration</tspan><tspan
             style="font-variant:normal;font-weight:normal;font-size:32.12490082px;font-family:Times;-inkscape-font-specification:Times-Roman;writing-mode:lr-tb;fill:#000000;fill-opacity:1;fill-rule:nonzero;stroke:none"
             x="521.55682 544.75098 559.0144 571.51105 580.44171 596.50421 612.56665 620.59784 638.45929 654.52179 668.78522 683.04865"
             y="246.6055"
             sodipodi:role="line"
             id="tspan296">Design Space</tspan></text>
<text
           transform="matrix(1,0,0,-1,208.8094,767.4461)"
           id="text298"><tspan
             style="font-variant:normal;font-weight:normal;font-size:34.01459885px;font-family:Times;-inkscape-font-specification:Times-Roman;writing-mode:lr-tb;fill:#000000;fill-opacity:1;fill-rule:nonzero;stroke:none"
             x="0"
             y="0"
             sodipodi:role="line"
             id="tspan300" /><tspan
             style="font-variant:normal;font-weight:normal;font-size:34.01459885px;font-family:Times;-inkscape-font-specification:Times-Roman;writing-mode:lr-tb;fill:#000000;fill-opacity:1;fill-rule:nonzero;stroke:none"
             x="0"
             sodipodi:role="line"
             id="tspan304"
             y="42.51825" /><tspan
             style="font-variant:normal;font-weight:normal;font-size:34.01459885px;font-family:Times;-inkscape-font-specification:Times-Roman;writing-mode:lr-tb;fill:#000000;fill-opacity:1;fill-rule:nonzero;stroke:none"
             x="0"
             sodipodi:role="line"
             id="tspan306"
             y="85.036499" /></text>
<text
           style="font-size:12.00000095px"
           y="-879.35712"
           x="572.0174"
           id="text242-7"
           transform="scale(1,-1)"><tspan
             style="font-variant:normal;font-weight:normal;font-size:34.01459885px;font-family:Times;-inkscape-font-specification:Times-Roman;writing-mode:lr-tb;fill:#000000;fill-opacity:1;fill-rule:nonzero;stroke:none"
             x="572.0174"
             sodipodi:role="line"
             id="tspan3502"
             y="-879.35712" /></text>
<text
           style="font-size:12.00000095px"
           y="-879.35712"
           x="813.84772"
           id="text242-5"
           transform="scale(1,-1)"><tspan
             style="font-variant:normal;font-weight:normal;font-size:34.01459885px;font-family:Times;-inkscape-font-specification:Times-Roman;writing-mode:lr-tb;fill:#000000;fill-opacity:1;fill-rule:nonzero;stroke:none"
             x="813.84772"
             sodipodi:role="line"
             id="tspan244-6"
             y="-879.35712" /></text>
</g><text
         xml:space="preserve"
         style="font-style:normal;font-weight:normal;font-size:301.50280762px;line-height:125%;font-family:sans-serif;letter-spacing:0px;word-spacing:0px;fill:#000000;fill-opacity:1;stroke:none;stroke-width:1px;stroke-linecap:butt;stroke-linejoin:miter;stroke-opacity:1"
         x="7075.3984"
         y="-734.52179"
         id="text3482"
         sodipodi:linespacing="125%"
         transform="scale(1,-1)"><tspan
           sodipodi:role="line"
           id="tspan3484"
           x="7075.3984"
           y="-734.52179"
           style="font-style:normal;font-variant:normal;font-weight:normal;font-stretch:normal;font-size:301.50280762px;font-family:'Times New Roman';-inkscape-font-specification:'Times New Roman, '">Realization of the</tspan><tspan
           sodipodi:role="line"
           x="7075.3984"
           y="-357.64328"
           id="tspan3486"
           style="font-style:normal;font-variant:normal;font-weight:normal;font-stretch:normal;font-size:301.50280762px;font-family:'Times New Roman';-inkscape-font-specification:'Times New Roman, '">design solution (5)</tspan></text>
<text
         xml:space="preserve"
         style="font-style:normal;font-weight:normal;font-size:301.50280762px;line-height:125%;font-family:sans-serif;letter-spacing:0px;word-spacing:0px;fill:#000000;fill-opacity:1;stroke:none;stroke-width:1px;stroke-linecap:butt;stroke-linejoin:miter;stroke-opacity:1"
         x="5366.5947"
         y="-8274.6182"
         id="text3487"
         sodipodi:linespacing="125%"
         transform="scale(1,-1)"><tspan
           sodipodi:role="line"
           id="tspan3489"
           x="5366.5947"
           y="-8274.6182"
           style="font-style:normal;font-variant:normal;font-weight:normal;font-stretch:normal;font-family:'Times New Roman';-inkscape-font-specification:'Times New Roman, '">(1.1)</tspan></text>
<text
         xml:space="preserve"
         style="font-style:normal;font-weight:normal;font-size:301.50280762px;line-height:125%;font-family:sans-serif;letter-spacing:0px;word-spacing:0px;fill:#000000;fill-opacity:1;stroke:none;stroke-width:1px;stroke-linecap:butt;stroke-linejoin:miter;stroke-opacity:1"
         x="7445.98"
         y="-8274.6182"
         id="text3487-4"
         sodipodi:linespacing="125%"
         transform="scale(1,-1)"><tspan
           sodipodi:role="line"
           id="tspan3489-9"
           x="7445.98"
           y="-8274.6182"
           style="font-style:normal;font-variant:normal;font-weight:normal;font-stretch:normal;font-family:'Times New Roman';-inkscape-font-specification:'Times New Roman, '">(1.2)</tspan></text>
<text
         xml:space="preserve"
         style="font-style:normal;font-weight:normal;font-size:301.50280762px;line-height:125%;font-family:sans-serif;letter-spacing:0px;word-spacing:0px;fill:#000000;fill-opacity:1;stroke:none;stroke-width:1px;stroke-linecap:butt;stroke-linejoin:miter;stroke-opacity:1"
         x="6879.7485"
         y="-6927.9419"
         id="text3487-4-3"
         sodipodi:linespacing="125%"
         transform="scale(1,-1)"><tspan
           sodipodi:role="line"
           id="tspan3489-9-0"
           x="6879.7485"
           y="-6927.9419"
           style="font-style:normal;font-variant:normal;font-weight:normal;font-stretch:normal;font-family:'Times New Roman';-inkscape-font-specification:'Times New Roman, '">(2.1)</tspan></text>
<text
         xml:space="preserve"
         style="font-style:normal;font-weight:normal;font-size:301.50280762px;line-height:125%;font-family:sans-serif;letter-spacing:0px;word-spacing:0px;fill:#000000;fill-opacity:1;stroke:none;stroke-width:1px;stroke-linecap:butt;stroke-linejoin:miter;stroke-opacity:1"
         x="1299.9773"
         y="-4709.4697"
         id="text3487-4-3-9"
         sodipodi:linespacing="125%"
         transform="scale(1,-1)"><tspan
           sodipodi:role="line"
           id="tspan3489-9-0-3"
           x="1299.9773"
           y="-4709.4697"
           style="font-style:normal;font-variant:normal;font-weight:normal;font-stretch:normal;font-family:'Times New Roman';-inkscape-font-specification:'Times New Roman, '">(2.2)</tspan></text>
<text
         xml:space="preserve"
         style="font-style:normal;font-weight:normal;font-size:301.50280762px;line-height:125%;font-family:sans-serif;letter-spacing:0px;word-spacing:0px;fill:#000000;fill-opacity:1;stroke:none;stroke-width:1px;stroke-linecap:butt;stroke-linejoin:miter;stroke-opacity:1"
         x="6879.7485"
         y="-4709.4697"
         id="text3487-4-3-2"
         sodipodi:linespacing="125%"
         transform="scale(1,-1)"><tspan
           sodipodi:role="line"
           id="tspan3489-9-0-2"
           x="6879.7485"
           y="-4709.4697"
           style="font-style:normal;font-variant:normal;font-weight:normal;font-stretch:normal;font-family:'Times New Roman';-inkscape-font-specification:'Times New Roman, '">(2.3)</tspan></text>
<text
         xml:space="preserve"
         style="font-style:normal;font-weight:normal;font-size:301.50280762px;line-height:125%;font-family:sans-serif;letter-spacing:0px;word-spacing:0px;fill:#000000;fill-opacity:1;stroke:none;stroke-width:1px;stroke-linecap:butt;stroke-linejoin:miter;stroke-opacity:1"
         x="6879.7485"
         y="-2445.8572"
         id="text3487-4-3-7"
         sodipodi:linespacing="125%"
         transform="scale(1,-1)"><tspan
           sodipodi:role="line"
           id="tspan3489-9-0-1"
           x="6879.7485"
           y="-2445.8572"
           style="font-style:normal;font-variant:normal;font-weight:normal;font-stretch:normal;font-family:'Times New Roman';-inkscape-font-specification:'Times New Roman, '">(3)</tspan></text>
<text
         xml:space="preserve"
         style="font-style:normal;font-weight:normal;font-size:301.50280762px;line-height:125%;font-family:sans-serif;letter-spacing:0px;word-spacing:0px;fill:#000000;fill-opacity:1;stroke:none;stroke-width:1px;stroke-linecap:butt;stroke-linejoin:miter;stroke-opacity:1"
         x="775.65808"
         y="-6418.0186"
         id="text3487-4-3-25"
         sodipodi:linespacing="125%"
         transform="scale(1,-1)"><tspan
           sodipodi:role="line"
           id="tspan3489-9-0-4"
           x="775.65808"
           y="-6418.0186"
           style="font-style:normal;font-variant:normal;font-weight:normal;font-stretch:normal;font-family:'Times New Roman';-inkscape-font-specification:'Times New Roman, '">(4)</tspan></text>
<text
         xml:space="preserve"
         style="font-style:normal;font-weight:normal;font-size:301.50280762px;line-height:125%;font-family:sans-serif;letter-spacing:0px;word-spacing:0px;fill:#000000;fill-opacity:1;stroke:none;stroke-width:1px;stroke-linecap:butt;stroke-linejoin:miter;stroke-opacity:1"
         x="11396.633"
         y="-4783.4019"
         id="text3487-4-3-25-8"
         sodipodi:linespacing="125%"
         transform="scale(1,-1)"><tspan
           sodipodi:role="line"
           id="tspan3489-9-0-4-3"
           x="11396.633"
           y="-4783.4019"
           style="font-style:normal;font-variant:normal;font-weight:normal;font-stretch:normal;font-family:'Times New Roman';-inkscape-font-specification:'Times New Roman, '">(4)</tspan></text>
<text
         xml:space="preserve"
         style="font-style:normal;font-weight:normal;font-size:301.50280762px;line-height:125%;font-family:sans-serif;letter-spacing:0px;word-spacing:0px;fill:#000000;fill-opacity:1;stroke:none;stroke-width:1px;stroke-linecap:butt;stroke-linejoin:miter;stroke-opacity:1"
         x="10452.332"
         y="-3809.97"
         id="text3487-4-3-25-3"
         sodipodi:linespacing="125%"
         transform="scale(1,-1)"><tspan
           sodipodi:role="line"
           id="tspan3489-9-0-4-0"
           x="10452.332"
           y="-3809.97"
           style="font-style:normal;font-variant:normal;font-weight:normal;font-stretch:normal;font-family:'Times New Roman';-inkscape-font-specification:'Times New Roman, '">(4)</tspan></text>
<text
         xml:space="preserve"
         style="font-style:normal;font-weight:normal;font-size:301.50280762px;line-height:125%;font-family:sans-serif;letter-spacing:0px;word-spacing:0px;fill:#000000;fill-opacity:1;stroke:none;stroke-width:1px;stroke-linecap:butt;stroke-linejoin:miter;stroke-opacity:1"
         x="8953.3066"
         y="-3150.3989"
         id="text3487-4-3-25-5"
         sodipodi:linespacing="125%"
         transform="scale(1,-1)"><tspan
           sodipodi:role="line"
           id="tspan3489-9-0-4-1"
           x="8953.3066"
           y="-3150.3989"
           style="font-style:normal;font-variant:normal;font-weight:normal;font-stretch:normal;font-family:'Times New Roman';-inkscape-font-specification:'Times New Roman, '">(4)</tspan></text>
<text
         xml:space="preserve"
         style="font-style:normal;font-weight:normal;font-size:301.50280762px;line-height:125%;font-family:sans-serif;letter-spacing:0px;word-spacing:0px;fill:#000000;fill-opacity:1;stroke:none;stroke-width:1px;stroke-linecap:butt;stroke-linejoin:miter;stroke-opacity:1"
         x="2163.2329"
         y="-2206.2681"
         id="text3487-4-3-25-0"
         sodipodi:linespacing="125%"
         transform="scale(1,-1)"><tspan
           sodipodi:role="line"
           id="tspan3489-9-0-4-02"
           x="2163.2329"
           y="-2206.2681"
           style="font-style:normal;font-variant:normal;font-weight:normal;font-stretch:normal;font-family:'Times New Roman';-inkscape-font-specification:'Times New Roman, '">(4)</tspan></text>
</g></g></svg>