<?xml version="1.0" standalone="no"?>
<!DOCTYPE svg PUBLIC "-//W3C//DTD SVG 1.1//EN" "http://www.w3.org/Graphics/SVG/1.1/DTD/svg11.dtd">
<svg xmlns="http://www.w3.org/2000/svg" version="1.1" width="1712" height="570" viewbox="5 5 1707 565">
<rect  x="1186" y="17" width="214" height="280" fill="none" stroke="#000000" stroke-width="1"/>
<rect  x="1187" y="18" width="212" height="278" fill="#fbfcc8"/>
<text  x="1262" y="52" style="font-size:20; font-family:SansSerif.plain; fill=#000000">CWP_I</text>
<rect  x="1387" y="249" width="26" height="26" fill="none" stroke="#000000" stroke-width="1"/>
<rect  x="1388" y="250" width="24" height="24" fill="#d8bbf9"/>
<polygon  points="1387,262 1413,262 " fill="none" stroke="#000000" stroke-width="1"/>
<rect  x="1173" y="110" width="26" height="26" fill="none" stroke="#000000" stroke-width="1"/>
<rect  x="1174" y="111" width="24" height="24" fill="#68e5ff"/>
<polygon  points="1173,123 1199,123 " fill="none" stroke="#000000" stroke-width="1"/>
<rect  x="1173" y="249" width="26" height="26" fill="none" stroke="#000000" stroke-width="1"/>
<rect  x="1174" y="250" width="24" height="24" fill="#d8bbf9"/>
<polygon  points="1173,262 1199,262 " fill="none" stroke="#000000" stroke-width="1"/>
<rect  x="1220" y="62" width="144" height="96" fill="none" stroke="#000000" stroke-width="1"/>
<rect  x="1221" y="63" width="142" height="94" fill="#c9f3b2"/>
<text  x="1263" y="91" style="font-size:14; font-family:SansSerif.plain; fill=#000000">X_CWP_I</text>
<text  x="1235" y="120" style="font-size:12; font-family:SansSerif.plain; fill=#000000">+ size : Natural;</text>
<rect  x="1351" y="111" width="25" height="25" fill="#68e5ff"/>
<rect  x="1351" y="111" width="26" height="26" fill="none" stroke="#000000" stroke-width="1"/>
<polygon  points="1354,114 1354,134 1374,124 " fill="none" stroke="#000000" stroke-width="1"/>
<polygon  points="1354,114 1354,134 1374,124 " fill="#000000"/>
<line  x1="1374" y1="134" x2="1374" y2="114" stroke="#000000" stroke-width="1" fill="none"/>
<rect  x="1207" y="110" width="25" height="25" fill="#68e5ff"/>
<rect  x="1207" y="110" width="26" height="26" fill="none" stroke="#000000" stroke-width="1"/>
<polygon  points="1210,113 1210,133 1230,123 " fill="none" stroke="#000000" stroke-width="1"/>
<polygon  points="1210,113 1210,133 1230,123 " fill="#000000"/>
<line  x1="1230" y1="133" x2="1230" y2="113" stroke="#000000" stroke-width="1" fill="none"/>
<rect  x="1244" y="145" width="25" height="25" fill="#c4a67a"/>
<rect  x="1244" y="145" width="26" height="26" fill="none" stroke="#000000" stroke-width="1"/>
<polygon  points="1247,168 1267,168 1257,148 " fill="none" stroke="#000000" stroke-width="1"/>
<polygon  points="1247,168 1267,168 1257,148 " fill="#000000"/>
<line  x1="1267" y1="148" x2="1247" y2="148" stroke="#000000" stroke-width="1" fill="none"/>
<text  x="1244" y="144" style="font-size:8; font-family:SansSerif.plain; fill=#000000">cwpI_req</text>
<rect  x="1222" y="194" width="143" height="86" fill="none" stroke="#000000" stroke-width="1"/>
<rect  x="1223" y="195" width="141" height="84" fill="#c9f3b2"/>
<text  x="1265" y="223" style="font-size:14; font-family:SansSerif.plain; fill=#000000">F_CWP_I</text>
<text  x="1237" y="252" style="font-size:12; font-family:SansSerif.plain; fill=#000000">+ size : Natural;</text>
<rect  x="1352" y="249" width="25" height="25" fill="#d8bbf9"/>
<rect  x="1352" y="249" width="26" height="26" fill="none" stroke="#000000" stroke-width="1"/>
<polygon  points="1355,252 1355,272 1375,262 " fill="none" stroke="#000000" stroke-width="1"/>
<polygon  points="1355,252 1355,272 1375,262 " fill="#000000"/>
<rect  x="1209" y="249" width="25" height="25" fill="#d8bbf9"/>
<rect  x="1209" y="249" width="26" height="26" fill="none" stroke="#000000" stroke-width="1"/>
<polygon  points="1212,252 1212,272 1232,262 " fill="none" stroke="#000000" stroke-width="1"/>
<polygon  points="1212,252 1212,272 1232,262 " fill="#000000"/>
<line  x1="1232" y1="272" x2="1232" y2="252" stroke="#000000" stroke-width="1" fill="none"/>
<rect  x="1320" y="181" width="25" height="25" fill="#c4a67a"/>
<rect  x="1320" y="181" width="26" height="26" fill="none" stroke="#000000" stroke-width="1"/>
<polygon  points="1323,204 1343,204 1333,184 " fill="none" stroke="#000000" stroke-width="1"/>
<polygon  points="1323,204 1343,204 1333,184 " fill="#000000"/>
<text  x="1320" y="180" style="font-size:8; font-family:SansSerif.plain; fill=#000000">cwpI_req</text>
<rect  x="1387" y="111" width="26" height="26" fill="none" stroke="#000000" stroke-width="1"/>
<rect  x="1388" y="112" width="24" height="24" fill="#68e5ff"/>
<polygon  points="1387,124 1413,124 " fill="none" stroke="#000000" stroke-width="1"/>
<rect  x="1186" y="309" width="211" height="254" fill="none" stroke="#000000" stroke-width="1"/>
<rect  x="1187" y="310" width="209" height="252" fill="#fbfcc8"/>
<text  x="1255" y="344" style="font-size:20; font-family:SansSerif.plain; fill=#000000">CWP_Q</text>
<rect  x="1384" y="380" width="26" height="26" fill="none" stroke="#000000" stroke-width="1"/>
<rect  x="1385" y="381" width="24" height="24" fill="#68e5ff"/>
<polygon  points="1384,393 1410,393 " fill="none" stroke="#000000" stroke-width="1"/>
<rect  x="1384" y="510" width="26" height="26" fill="none" stroke="#000000" stroke-width="1"/>
<rect  x="1385" y="511" width="24" height="24" fill="#d8bbf9"/>
<polygon  points="1384,523 1410,523 " fill="none" stroke="#000000" stroke-width="1"/>
<rect  x="1173" y="487" width="26" height="26" fill="none" stroke="#000000" stroke-width="1"/>
<rect  x="1174" y="488" width="24" height="24" fill="#d8bbf9"/>
<polygon  points="1173,500 1199,500 " fill="none" stroke="#000000" stroke-width="1"/>
<rect  x="1220" y="353" width="144" height="84" fill="none" stroke="#000000" stroke-width="1"/>
<rect  x="1221" y="354" width="142" height="82" fill="#c9f3b2"/>
<text  x="1259" y="382" style="font-size:14; font-family:SansSerif.plain; fill=#000000">X_CWP_Q</text>
<text  x="1235" y="411" style="font-size:12; font-family:SansSerif.plain; fill=#000000">+ size : Natural;</text>
<rect  x="1351" y="380" width="25" height="25" fill="#68e5ff"/>
<rect  x="1351" y="380" width="26" height="26" fill="none" stroke="#000000" stroke-width="1"/>
<polygon  points="1354,383 1354,403 1374,393 " fill="none" stroke="#000000" stroke-width="1"/>
<polygon  points="1354,383 1354,403 1374,393 " fill="#000000"/>
<line  x1="1374" y1="403" x2="1374" y2="383" stroke="#000000" stroke-width="1" fill="none"/>
<rect  x="1207" y="375" width="25" height="25" fill="#68e5ff"/>
<rect  x="1207" y="375" width="26" height="26" fill="none" stroke="#000000" stroke-width="1"/>
<polygon  points="1210,378 1210,398 1230,388 " fill="none" stroke="#000000" stroke-width="1"/>
<polygon  points="1210,378 1210,398 1230,388 " fill="#000000"/>
<line  x1="1230" y1="398" x2="1230" y2="378" stroke="#000000" stroke-width="1" fill="none"/>
<rect  x="1236" y="424" width="25" height="25" fill="#c4a67a"/>
<rect  x="1236" y="424" width="26" height="26" fill="none" stroke="#000000" stroke-width="1"/>
<polygon  points="1239,447 1259,447 1249,427 " fill="none" stroke="#000000" stroke-width="1"/>
<polygon  points="1239,447 1259,447 1249,427 " fill="#000000"/>
<line  x1="1259" y1="427" x2="1239" y2="427" stroke="#000000" stroke-width="1" fill="none"/>
<rect  x="1224" y="471" width="138" height="82" fill="none" stroke="#000000" stroke-width="1"/>
<rect  x="1225" y="472" width="136" height="80" fill="#c9f3b2"/>
<text  x="1260" y="500" style="font-size:14; font-family:SansSerif.plain; fill=#000000">F_CWP_Q</text>
<text  x="1239" y="529" style="font-size:12; font-family:SansSerif.plain; fill=#000000">+ size : Natural;</text>
<rect  x="1349" y="510" width="25" height="25" fill="#d8bbf9"/>
<rect  x="1349" y="510" width="26" height="26" fill="none" stroke="#000000" stroke-width="1"/>
<polygon  points="1352,513 1352,533 1372,523 " fill="none" stroke="#000000" stroke-width="1"/>
<polygon  points="1352,513 1352,533 1372,523 " fill="#000000"/>
<rect  x="1211" y="487" width="25" height="25" fill="#d8bbf9"/>
<rect  x="1211" y="487" width="26" height="26" fill="none" stroke="#000000" stroke-width="1"/>
<polygon  points="1214,490 1214,510 1234,500 " fill="none" stroke="#000000" stroke-width="1"/>
<polygon  points="1214,490 1214,510 1234,500 " fill="#000000"/>
<line  x1="1234" y1="510" x2="1234" y2="490" stroke="#000000" stroke-width="1" fill="none"/>
<rect  x="1322" y="458" width="25" height="25" fill="#c4a67a"/>
<rect  x="1322" y="458" width="26" height="26" fill="none" stroke="#000000" stroke-width="1"/>
<polygon  points="1325,481 1345,481 1335,461 " fill="none" stroke="#000000" stroke-width="1"/>
<polygon  points="1325,481 1345,481 1335,461 " fill="#000000"/>
<rect  x="1173" y="375" width="26" height="26" fill="none" stroke="#000000" stroke-width="1"/>
<rect  x="1174" y="376" width="24" height="24" fill="#68e5ff"/>
<polygon  points="1173,388 1199,388 " fill="none" stroke="#000000" stroke-width="1"/>
<rect  x="1494" y="155" width="208" height="282" fill="none" stroke="#000000" stroke-width="1"/>
<rect  x="1495" y="156" width="206" height="280" fill="#fbfcc8"/>
<text  x="1576" y="190" style="font-size:20; font-family:SansSerif.plain; fill=#000000">Sink</text>
<rect  x="1481" y="237" width="26" height="26" fill="none" stroke="#000000" stroke-width="1"/>
<rect  x="1482" y="238" width="24" height="24" fill="#68e5ff"/>
<polygon  points="1481,250 1507,250 " fill="none" stroke="#000000" stroke-width="1"/>
<rect  x="1481" y="397" width="26" height="26" fill="none" stroke="#000000" stroke-width="1"/>
<rect  x="1482" y="398" width="24" height="24" fill="#d8bbf9"/>
<polygon  points="1481,410 1507,410 " fill="none" stroke="#000000" stroke-width="1"/>
<rect  x="1481" y="341" width="26" height="26" fill="none" stroke="#000000" stroke-width="1"/>
<rect  x="1482" y="342" width="24" height="24" fill="#d8bbf9"/>
<polygon  points="1481,354 1507,354 " fill="none" stroke="#000000" stroke-width="1"/>
<rect  x="1535" y="205" width="148" height="86" fill="none" stroke="#000000" stroke-width="1"/>
<rect  x="1536" y="206" width="146" height="84" fill="#c9f3b2"/>
<text  x="1586" y="234" style="font-size:14; font-family:SansSerif.plain; fill=#000000">X_Sink</text>
<text  x="1550" y="263" style="font-size:12; font-family:SansSerif.plain; fill=#000000">+ size : Natural;</text>
<rect  x="1522" y="237" width="25" height="25" fill="#68e5ff"/>
<rect  x="1522" y="237" width="26" height="26" fill="none" stroke="#000000" stroke-width="1"/>
<polygon  points="1525,240 1525,260 1545,250 " fill="none" stroke="#000000" stroke-width="1"/>
<polygon  points="1525,240 1525,260 1545,250 " fill="#000000"/>
<line  x1="1545" y1="260" x2="1545" y2="240" stroke="#000000" stroke-width="1" fill="none"/>
<rect  x="1549" y="278" width="25" height="25" fill="#c4a67a"/>
<rect  x="1549" y="278" width="26" height="26" fill="none" stroke="#000000" stroke-width="1"/>
<polygon  points="1552,301 1572,301 1562,281 " fill="none" stroke="#000000" stroke-width="1"/>
<polygon  points="1552,301 1572,301 1562,281 " fill="#000000"/>
<line  x1="1572" y1="281" x2="1552" y2="281" stroke="#000000" stroke-width="1" fill="none"/>
<text  x="1549" y="277" style="font-size:8; font-family:SansSerif.plain; fill=#000000">sink_req</text>
<rect  x="1536" y="331" width="153" height="94" fill="none" stroke="#000000" stroke-width="1"/>
<rect  x="1537" y="332" width="151" height="92" fill="#c9f3b2"/>
<text  x="1590" y="360" style="font-size:14; font-family:SansSerif.plain; fill=#000000">F_Sink</text>
<text  x="1551" y="389" style="font-size:12; font-family:SansSerif.plain; fill=#000000">+ size : Natural;</text>
<text  x="1551" y="403" style="font-size:12; font-family:SansSerif.plain; fill=#000000">+ size_1 : Natural;</text>
<rect  x="1523" y="341" width="25" height="25" fill="#d8bbf9"/>
<rect  x="1523" y="341" width="26" height="26" fill="none" stroke="#000000" stroke-width="1"/>
<polygon  points="1526,344 1526,364 1546,354 " fill="none" stroke="#000000" stroke-width="1"/>
<polygon  points="1526,344 1526,364 1546,354 " fill="#000000"/>
<line  x1="1546" y1="364" x2="1546" y2="344" stroke="#000000" stroke-width="1" fill="none"/>
<rect  x="1644" y="318" width="25" height="25" fill="#c4a67a"/>
<rect  x="1644" y="318" width="26" height="26" fill="none" stroke="#000000" stroke-width="1"/>
<polygon  points="1647,341 1667,341 1657,321 " fill="none" stroke="#000000" stroke-width="1"/>
<polygon  points="1647,341 1667,341 1657,321 " fill="#000000"/>
<text  x="1644" y="317" style="font-size:8; font-family:SansSerif.plain; fill=#000000">sink_req</text>
<rect  x="1523" y="397" width="25" height="25" fill="#d8bbf9"/>
<rect  x="1523" y="397" width="26" height="26" fill="none" stroke="#000000" stroke-width="1"/>
<polygon  points="1526,400 1526,420 1546,410 " fill="none" stroke="#000000" stroke-width="1"/>
<polygon  points="1526,400 1526,420 1546,410 " fill="#000000"/>
<line  x1="1546" y1="420" x2="1546" y2="400" stroke="#000000" stroke-width="1" fill="none"/>
<rect  x="838" y="154" width="208" height="281" fill="none" stroke="#000000" stroke-width="1"/>
<rect  x="839" y="155" width="206" height="279" fill="#fbfcc8"/>
<text  x="919" y="189" style="font-size:20; font-family:SansSerif.plain; fill=#000000">CWL</text>
<rect  x="1033" y="363" width="26" height="26" fill="none" stroke="#000000" stroke-width="1"/>
<rect  x="1034" y="364" width="24" height="24" fill="#d8bbf9"/>
<polygon  points="1033,376 1059,376 " fill="none" stroke="#000000" stroke-width="1"/>
<rect  x="1033" y="395" width="26" height="26" fill="none" stroke="#000000" stroke-width="1"/>
<rect  x="1034" y="396" width="24" height="24" fill="#d8bbf9"/>
<polygon  points="1033,408 1059,408 " fill="none" stroke="#000000" stroke-width="1"/>
<rect  x="876" y="202" width="134" height="96" fill="none" stroke="#000000" stroke-width="1"/>
<rect  x="877" y="203" width="132" height="94" fill="#c9f3b2"/>
<text  x="920" y="231" style="font-size:14; font-family:SansSerif.plain; fill=#000000">X_CWL</text>
<text  x="891" y="260" style="font-size:12; font-family:SansSerif.plain; fill=#000000">+ size : Natural;</text>
<rect  x="863" y="248" width="25" height="25" fill="#68e5ff"/>
<rect  x="863" y="248" width="26" height="26" fill="none" stroke="#000000" stroke-width="1"/>
<polygon  points="866,251 866,271 886,261 " fill="none" stroke="#000000" stroke-width="1"/>
<polygon  points="866,251 866,271 886,261 " fill="#000000"/>
<line  x1="886" y1="271" x2="886" y2="251" stroke="#000000" stroke-width="1" fill="none"/>
<text  x="863" y="247" style="font-size:8; font-family:SansSerif.plain; fill=#000000">cwl_ch_in</text>
<rect  x="997" y="230" width="25" height="25" fill="#68e5ff"/>
<rect  x="997" y="230" width="26" height="26" fill="none" stroke="#000000" stroke-width="1"/>
<polygon  points="1000,233 1000,253 1020,243 " fill="none" stroke="#000000" stroke-width="1"/>
<polygon  points="1000,233 1000,253 1020,243 " fill="#000000"/>
<line  x1="1020" y1="253" x2="1020" y2="233" stroke="#000000" stroke-width="1" fill="none"/>
<rect  x="899" y="285" width="25" height="25" fill="#c4a67a"/>
<rect  x="899" y="285" width="26" height="26" fill="none" stroke="#000000" stroke-width="1"/>
<polygon  points="902,308 922,308 912,288 " fill="none" stroke="#000000" stroke-width="1"/>
<polygon  points="902,308 922,308 912,288 " fill="#000000"/>
<line  x1="922" y1="288" x2="902" y2="288" stroke="#000000" stroke-width="1" fill="none"/>
<text  x="899" y="284" style="font-size:8; font-family:SansSerif.plain; fill=#000000">cwl_req</text>
<rect  x="874" y="334" width="134" height="92" fill="none" stroke="#000000" stroke-width="1"/>
<rect  x="875" y="335" width="132" height="90" fill="#c9f3b2"/>
<text  x="918" y="363" style="font-size:14; font-family:SansSerif.plain; fill=#000000">F_CWL</text>
<text  x="889" y="392" style="font-size:12; font-family:SansSerif.plain; fill=#000000">+ size : Natural;</text>
<rect  x="861" y="374" width="25" height="25" fill="#d8bbf9"/>
<rect  x="861" y="374" width="26" height="26" fill="none" stroke="#000000" stroke-width="1"/>
<polygon  points="864,377 864,397 884,387 " fill="none" stroke="#000000" stroke-width="1"/>
<polygon  points="864,377 864,397 884,387 " fill="#000000"/>
<line  x1="884" y1="397" x2="884" y2="377" stroke="#000000" stroke-width="1" fill="none"/>
<rect  x="995" y="363" width="25" height="25" fill="#d8bbf9"/>
<rect  x="995" y="363" width="26" height="26" fill="none" stroke="#000000" stroke-width="1"/>
<polygon  points="998,366 998,386 1018,376 " fill="none" stroke="#000000" stroke-width="1"/>
<polygon  points="998,366 998,386 1018,376 " fill="#000000"/>
<rect  x="976" y="321" width="25" height="25" fill="#c4a67a"/>
<rect  x="976" y="321" width="26" height="26" fill="none" stroke="#000000" stroke-width="1"/>
<polygon  points="979,344 999,344 989,324 " fill="none" stroke="#000000" stroke-width="1"/>
<polygon  points="979,344 999,344 989,324 " fill="#000000"/>
<text  x="976" y="320" style="font-size:8; font-family:SansSerif.plain; fill=#000000">cwl_req</text>
<rect  x="995" y="395" width="25" height="25" fill="#d8bbf9"/>
<rect  x="995" y="395" width="26" height="26" fill="none" stroke="#000000" stroke-width="1"/>
<polygon  points="998,398 998,418 1018,408 " fill="none" stroke="#000000" stroke-width="1"/>
<polygon  points="998,398 998,418 1018,408 " fill="#000000"/>
<rect  x="825" y="248" width="26" height="26" fill="none" stroke="#000000" stroke-width="1"/>
<rect  x="826" y="249" width="24" height="24" fill="#68e5ff"/>
<polygon  points="825,261 851,261 " fill="none" stroke="#000000" stroke-width="1"/>
<rect  x="825" y="374" width="26" height="26" fill="none" stroke="#000000" stroke-width="1"/>
<rect  x="826" y="375" width="24" height="24" fill="#d8bbf9"/>
<polygon  points="825,387 851,387 " fill="none" stroke="#000000" stroke-width="1"/>
<rect  x="1033" y="230" width="26" height="26" fill="none" stroke="#000000" stroke-width="1"/>
<rect  x="1034" y="231" width="24" height="24" fill="#68e5ff"/>
<polygon  points="1033,243 1059,243 " fill="none" stroke="#000000" stroke-width="1"/>
<rect  x="555" y="168" width="244" height="262" fill="none" stroke="#000000" stroke-width="1"/>
<rect  x="556" y="169" width="242" height="260" fill="#fbfcc8"/>
<text  x="620" y="203" style="font-size:20; font-family:SansSerif.plain; fill=#000000">Chip2Octet</text>
<rect  x="542" y="373" width="26" height="26" fill="none" stroke="#000000" stroke-width="1"/>
<rect  x="543" y="374" width="24" height="24" fill="#d8bbf9"/>
<polygon  points="542,386 568,386 " fill="none" stroke="#000000" stroke-width="1"/>
<rect  x="542" y="256" width="26" height="26" fill="none" stroke="#000000" stroke-width="1"/>
<rect  x="543" y="257" width="24" height="24" fill="#68e5ff"/>
<polygon  points="542,269 568,269 " fill="none" stroke="#000000" stroke-width="1"/>
<rect  x="598" y="214" width="156" height="85" fill="none" stroke="#000000" stroke-width="1"/>
<rect  x="599" y="215" width="154" height="83" fill="#c9f3b2"/>
<text  x="629" y="243" style="font-size:14; font-family:SansSerif.plain; fill=#000000">X_Chip2Octet</text>
<text  x="613" y="272" style="font-size:12; font-family:SansSerif.plain; fill=#000000">+ size : Natural;</text>
<rect  x="741" y="248" width="25" height="25" fill="#68e5ff"/>
<rect  x="741" y="248" width="26" height="26" fill="none" stroke="#000000" stroke-width="1"/>
<polygon  points="744,251 744,271 764,261 " fill="none" stroke="#000000" stroke-width="1"/>
<polygon  points="744,251 744,271 764,261 " fill="#000000"/>
<line  x1="764" y1="271" x2="764" y2="251" stroke="#000000" stroke-width="1" fill="none"/>
<rect  x="585" y="256" width="25" height="25" fill="#68e5ff"/>
<rect  x="585" y="256" width="26" height="26" fill="none" stroke="#000000" stroke-width="1"/>
<polygon  points="588,259 588,279 608,269 " fill="none" stroke="#000000" stroke-width="1"/>
<polygon  points="588,259 588,279 608,269 " fill="#000000"/>
<line  x1="608" y1="279" x2="608" y2="259" stroke="#000000" stroke-width="1" fill="none"/>
<rect  x="626" y="286" width="25" height="25" fill="#c4a67a"/>
<rect  x="626" y="286" width="26" height="26" fill="none" stroke="#000000" stroke-width="1"/>
<polygon  points="629,309 649,309 639,289 " fill="none" stroke="#000000" stroke-width="1"/>
<polygon  points="629,309 649,309 639,289 " fill="#000000"/>
<line  x1="649" y1="289" x2="629" y2="289" stroke="#000000" stroke-width="1" fill="none"/>
<rect  x="597" y="340" width="159" height="73" fill="none" stroke="#000000" stroke-width="1"/>
<rect  x="598" y="341" width="157" height="71" fill="#c9f3b2"/>
<text  x="630" y="369" style="font-size:14; font-family:SansSerif.plain; fill=#000000">F_Chip2Octet</text>
<rect  x="743" y="374" width="25" height="25" fill="#d8bbf9"/>
<rect  x="743" y="374" width="26" height="26" fill="none" stroke="#000000" stroke-width="1"/>
<polygon  points="746,377 746,397 766,387 " fill="none" stroke="#000000" stroke-width="1"/>
<polygon  points="746,377 746,397 766,387 " fill="#000000"/>
<rect  x="584" y="373" width="25" height="25" fill="#d8bbf9"/>
<rect  x="584" y="373" width="26" height="26" fill="none" stroke="#000000" stroke-width="1"/>
<polygon  points="587,376 587,396 607,386 " fill="none" stroke="#000000" stroke-width="1"/>
<polygon  points="587,376 587,396 607,386 " fill="#000000"/>
<line  x1="607" y1="396" x2="607" y2="376" stroke="#000000" stroke-width="1" fill="none"/>
<rect  x="716" y="327" width="25" height="25" fill="#c4a67a"/>
<rect  x="716" y="327" width="26" height="26" fill="none" stroke="#000000" stroke-width="1"/>
<polygon  points="719,350 739,350 729,330 " fill="none" stroke="#000000" stroke-width="1"/>
<polygon  points="719,350 739,350 729,330 " fill="#000000"/>
<rect  x="786" y="248" width="26" height="26" fill="none" stroke="#000000" stroke-width="1"/>
<rect  x="787" y="249" width="24" height="24" fill="#68e5ff"/>
<polygon  points="786,261 812,261 " fill="none" stroke="#000000" stroke-width="1"/>
<rect  x="786" y="374" width="26" height="26" fill="none" stroke="#000000" stroke-width="1"/>
<rect  x="787" y="375" width="24" height="24" fill="#d8bbf9"/>
<polygon  points="786,387 812,387 " fill="none" stroke="#000000" stroke-width="1"/>
<rect  x="275" y="165" width="241" height="259" fill="none" stroke="#000000" stroke-width="1"/>
<rect  x="276" y="166" width="239" height="257" fill="#fbfcc8"/>
<text  x="309" y="200" style="font-size:20; font-family:SansSerif.plain; fill=#000000">Symbol2ChipSeq</text>
<rect  x="503" y="373" width="26" height="26" fill="none" stroke="#000000" stroke-width="1"/>
<rect  x="504" y="374" width="24" height="24" fill="#d8bbf9"/>
<polygon  points="503,386 529,386 " fill="none" stroke="#000000" stroke-width="1"/>
<rect  x="503" y="256" width="26" height="26" fill="none" stroke="#000000" stroke-width="1"/>
<rect  x="504" y="257" width="24" height="24" fill="#68e5ff"/>
<polygon  points="503,269 529,269 " fill="none" stroke="#000000" stroke-width="1"/>
<rect  x="317" y="208" width="156" height="82" fill="none" stroke="#000000" stroke-width="1"/>
<rect  x="318" y="209" width="154" height="80" fill="#c9f3b2"/>
<text  x="333" y="234" style="font-size:11; font-family:SansSerif.plain; fill=#000000">X_Symbol2ChipSeq</text>
<text  x="332" y="260" style="font-size:9; font-family:SansSerif.plain; fill=#000000">+ size : Natural;</text>
<rect  x="460" y="256" width="25" height="25" fill="#68e5ff"/>
<rect  x="460" y="256" width="26" height="26" fill="none" stroke="#000000" stroke-width="1"/>
<polygon  points="463,259 463,279 483,269 " fill="none" stroke="#000000" stroke-width="1"/>
<polygon  points="463,259 463,279 483,269 " fill="#000000"/>
<line  x1="483" y1="279" x2="483" y2="259" stroke="#000000" stroke-width="1" fill="none"/>
<rect  x="304" y="245" width="25" height="25" fill="#68e5ff"/>
<rect  x="304" y="245" width="26" height="26" fill="none" stroke="#000000" stroke-width="1"/>
<polygon  points="307,248 307,268 327,258 " fill="none" stroke="#000000" stroke-width="1"/>
<polygon  points="307,248 307,268 327,258 " fill="#000000"/>
<line  x1="327" y1="268" x2="327" y2="248" stroke="#000000" stroke-width="1" fill="none"/>
<rect  x="337" y="277" width="25" height="25" fill="#c4a67a"/>
<rect  x="337" y="277" width="26" height="26" fill="none" stroke="#000000" stroke-width="1"/>
<polygon  points="340,300 360,300 350,280 " fill="none" stroke="#000000" stroke-width="1"/>
<polygon  points="340,300 360,300 350,280 " fill="#000000"/>
<line  x1="360" y1="280" x2="340" y2="280" stroke="#000000" stroke-width="1" fill="none"/>
<rect  x="316" y="332" width="154" height="81" fill="none" stroke="#000000" stroke-width="1"/>
<rect  x="317" y="333" width="152" height="79" fill="#c9f3b2"/>
<text  x="332" y="358" style="font-size:11; font-family:SansSerif.plain; fill=#000000">F_Symbol2ChipSeq</text>
<text  x="331" y="384" style="font-size:9; font-family:SansSerif.plain; fill=#000000">+ size : Natural;</text>
<rect  x="457" y="373" width="25" height="25" fill="#d8bbf9"/>
<rect  x="457" y="373" width="26" height="26" fill="none" stroke="#000000" stroke-width="1"/>
<polygon  points="460,376 460,396 480,386 " fill="none" stroke="#000000" stroke-width="1"/>
<polygon  points="460,376 460,396 480,386 " fill="#000000"/>
<rect  x="303" y="368" width="25" height="25" fill="#d8bbf9"/>
<rect  x="303" y="368" width="26" height="26" fill="none" stroke="#000000" stroke-width="1"/>
<polygon  points="306,371 306,391 326,381 " fill="none" stroke="#000000" stroke-width="1"/>
<polygon  points="306,371 306,391 326,381 " fill="#000000"/>
<line  x1="326" y1="391" x2="326" y2="371" stroke="#000000" stroke-width="1" fill="none"/>
<rect  x="429" y="319" width="25" height="25" fill="#c4a67a"/>
<rect  x="429" y="319" width="26" height="26" fill="none" stroke="#000000" stroke-width="1"/>
<polygon  points="432,342 452,342 442,322 " fill="none" stroke="#000000" stroke-width="1"/>
<polygon  points="432,342 452,342 442,322 " fill="#000000"/>
<rect  x="262" y="245" width="26" height="26" fill="none" stroke="#000000" stroke-width="1"/>
<rect  x="263" y="246" width="24" height="24" fill="#68e5ff"/>
<polygon  points="262,258 288,258 " fill="none" stroke="#000000" stroke-width="1"/>
<rect  x="262" y="368" width="26" height="26" fill="none" stroke="#000000" stroke-width="1"/>
<rect  x="263" y="369" width="24" height="24" fill="#d8bbf9"/>
<polygon  points="262,381 288,381 " fill="none" stroke="#000000" stroke-width="1"/>
<rect  x="0" y="164" width="231" height="254" fill="none" stroke="#000000" stroke-width="1"/>
<rect  x="1" y="165" width="229" height="252" fill="#fbfcc8"/>
<text  x="81" y="199" style="font-size:20; font-family:SansSerif.plain; fill=#000000">Source</text>
<rect  x="218" y="245" width="26" height="26" fill="none" stroke="#000000" stroke-width="1"/>
<rect  x="219" y="246" width="24" height="24" fill="#68e5ff"/>
<polygon  points="218,258 244,258 " fill="none" stroke="#000000" stroke-width="1"/>
<rect  x="18" y="208" width="136" height="81" fill="none" stroke="#000000" stroke-width="1"/>
<rect  x="19" y="209" width="134" height="79" fill="#c9f3b2"/>
<text  x="53" y="237" style="font-size:14; font-family:SansSerif.plain; fill=#000000">X_Source</text>
<text  x="33" y="266" style="font-size:12; font-family:SansSerif.plain; fill=#000000">+ size : Natural;</text>
<rect  x="141" y="245" width="25" height="25" fill="#68e5ff"/>
<rect  x="141" y="245" width="26" height="26" fill="none" stroke="#000000" stroke-width="1"/>
<polygon  points="144,248 144,268 164,258 " fill="none" stroke="#000000" stroke-width="1"/>
<polygon  points="144,248 144,268 164,258 " fill="#000000"/>
<line  x1="164" y1="268" x2="164" y2="248" stroke="#000000" stroke-width="1" fill="none"/>
<rect  x="40" y="276" width="25" height="25" fill="#c4a67a"/>
<rect  x="40" y="276" width="26" height="26" fill="none" stroke="#000000" stroke-width="1"/>
<polygon  points="43,299 63,299 53,279 " fill="none" stroke="#000000" stroke-width="1"/>
<polygon  points="43,299 63,299 53,279 " fill="#000000"/>
<line  x1="63" y1="279" x2="43" y2="279" stroke="#000000" stroke-width="1" fill="none"/>
<rect  x="2" y="333" width="185" height="74" fill="none" stroke="#000000" stroke-width="1"/>
<rect  x="3" y="334" width="183" height="72" fill="#c9f3b2"/>
<text  x="62" y="362" style="font-size:14; font-family:SansSerif.plain; fill=#000000">F_Source</text>
<text  x="17" y="391" style="font-size:12; font-family:SansSerif.plain; fill=#000000">+ size = 127 : Natural;</text>
<rect  x="174" y="368" width="25" height="25" fill="#d8bbf9"/>
<rect  x="174" y="368" width="26" height="26" fill="none" stroke="#000000" stroke-width="1"/>
<polygon  points="177,371 177,391 197,381 " fill="none" stroke="#000000" stroke-width="1"/>
<polygon  points="177,371 177,391 197,381 " fill="#000000"/>
<rect  x="95" y="320" width="25" height="25" fill="#c4a67a"/>
<rect  x="95" y="320" width="26" height="26" fill="none" stroke="#000000" stroke-width="1"/>
<polygon  points="98,343 118,343 108,323 " fill="none" stroke="#000000" stroke-width="1"/>
<polygon  points="98,343 118,343 108,323 " fill="#000000"/>
<rect  x="218" y="368" width="26" height="26" fill="none" stroke="#000000" stroke-width="1"/>
<rect  x="219" y="369" width="24" height="24" fill="#d8bbf9"/>
<polygon  points="218,381 244,381 " fill="none" stroke="#000000" stroke-width="1"/>
<ellipse  cx="1128" cy="243" rx="11" ry="11" fill="#68e5ff"/>
<ellipse  cx="1128" cy="243" rx="11" ry="11" fill="none" stroke="#000000" stroke-width="1"/>
<line  x1="1117" y1="243" x2="1128" y2="243" stroke="#000000" stroke-width="1" fill="none"/>
<line  x1="1128" y1="243" x2="1139" y2="243" stroke="#000000" stroke-width="1" fill="none"/>
<line  x1="1139" y1="243" x2="1134" y2="245" stroke="#000000" stroke-width="1" fill="none"/>
<line  x1="1139" y1="243" x2="1134" y2="240" stroke="#000000" stroke-width="1" fill="none"/>
<line  x1="1128" y1="243" x2="1133" y2="233" stroke="#000000" stroke-width="1" fill="none"/>
<line  x1="1133" y1="233" x2="1133" y2="237" stroke="#000000" stroke-width="1" fill="none"/>
<line  x1="1133" y1="233" x2="1128" y2="235" stroke="#000000" stroke-width="1" fill="none"/>
<line  x1="1128" y1="243" x2="1133" y2="252" stroke="#000000" stroke-width="1" fill="none"/>
<line  x1="1133" y1="252" x2="1128" y2="249" stroke="#000000" stroke-width="1" fill="none"/>
<line  x1="1133" y1="252" x2="1133" y2="247" stroke="#000000" stroke-width="1" fill="none"/>
<ellipse  cx="1452" cy="250" rx="11" ry="11" fill="#68e5ff"/>
<ellipse  cx="1452" cy="250" rx="11" ry="11" fill="none" stroke="#000000" stroke-width="1"/>
<line  x1="1441" y1="250" x2="1452" y2="250" stroke="#000000" stroke-width="1" fill="none"/>
<line  x1="1446" y1="240" x2="1452" y2="250" stroke="#000000" stroke-width="1" fill="none"/>
<line  x1="1446" y1="259" x2="1452" y2="250" stroke="#000000" stroke-width="1" fill="none"/>
<line  x1="1452" y1="250" x2="1463" y2="250" stroke="#000000" stroke-width="1" fill="none"/>
<line  x1="1463" y1="250" x2="1458" y2="252" stroke="#000000" stroke-width="1" fill="none"/>
<line  x1="1463" y1="250" x2="1458" y2="247" stroke="#000000" stroke-width="1" fill="none"/>
<line  x1="18" y1="45" x2="255" y2="45" stroke="#000000" stroke-width="1" fill="none"/>
<line  x1="18" y1="45" x2="18" y2="96" stroke="#000000" stroke-width="1" fill="none"/>
<line  x1="18" y1="96" x2="240" y2="96" stroke="#000000" stroke-width="1" fill="none"/>
<line  x1="255" y1="45" x2="255" y2="81" stroke="#000000" stroke-width="1" fill="none"/>
<polygon  points="19,46 255,46 255,81 240,96 19,96 " fill="#adbeea"/>
<polygon  points="255,81 251,84 245,83 240,96 " fill="none" stroke="#000000" stroke-width="1"/>
<polygon  points="255,81 251,84 245,83 240,96 " fill="#495a86"/>
<text  x="19" y="59" style="font-size:12; font-family:SansSerif.plain; fill=#000000">In this model THE PARAMETER SIZE</text>
<text  x="19" y="71" style="font-size:12; font-family:SansSerif.plain; fill=#000000">IS NOT MODIFIED according to the</text>
<text  x="19" y="83" style="font-size:12; font-family:SansSerif.plain; fill=#000000">operations performed by the</text>
<text  x="19" y="95" style="font-size:12; font-family:SansSerif.plain; fill=#000000">processing tasks</text>
<text  x="45" y="311" style="font-size:12; font-family:SansSerif.italic; font-style=italic; fill=#000000">source_req</text>
<line  x1="108" y1="320" x2="53" y2="302" stroke="#000000" stroke-width="1" fill="none"/>
<text  x="357" y="311" style="font-size:12; font-family:SansSerif.italic; font-style=italic; fill=#000000">bit2chip_req</text>
<line  x1="442" y1="319" x2="350" y2="303" stroke="#000000" stroke-width="1" fill="none"/>
<text  x="637" y="319" style="font-size:12; font-family:SansSerif.italic; font-style=italic; fill=#000000">chip2octet_req</text>
<line  x1="729" y1="327" x2="639" y2="312" stroke="#000000" stroke-width="1" fill="none"/>
<text  x="927" y="316" style="font-size:12; font-family:SansSerif.italic; font-style=italic; fill=#000000">cwl_req</text>
<line  x1="989" y1="321" x2="912" y2="311" stroke="#000000" stroke-width="1" fill="none"/>
<text  x="1262" y="454" style="font-size:12; font-family:SansSerif.italic; font-style=italic; fill=#000000">cwpQ_req</text>
<line  x1="1335" y1="458" x2="1249" y2="450" stroke="#000000" stroke-width="1" fill="none"/>
<text  x="1268" y="176" style="font-size:12; font-family:SansSerif.italic; font-style=italic; fill=#000000">cwpI_req</text>
<line  x1="1333" y1="181" x2="1257" y2="171" stroke="#000000" stroke-width="1" fill="none"/>
<text  x="1583" y="311" style="font-size:12; font-family:SansSerif.italic; font-style=italic; fill=#000000">sink_req</text>
<line  x1="1657" y1="318" x2="1562" y2="304" stroke="#000000" stroke-width="1" fill="none"/>
<line  x1="1199" y1="123" x2="1207" y2="123" stroke="#000000" stroke-width="1" fill="none"/>
<line  x1="1133" y1="234" x2="1133" y2="123" stroke="#000000" stroke-width="1" fill="none"/>
<line  x1="1133" y1="123" x2="1173" y2="123" stroke="#000000" stroke-width="1" fill="none"/>
<line  x1="1199" y1="262" x2="1209" y2="262" stroke="#000000" stroke-width="1" fill="none"/>
<line  x1="167" y1="258" x2="218" y2="258" stroke="#000000" stroke-width="1" fill="none"/>
<line  x1="244" y1="258" x2="262" y2="258" stroke="#000000" stroke-width="1" fill="none"/>
<line  x1="288" y1="258" x2="304" y2="258" stroke="#000000" stroke-width="1" fill="none"/>
<line  x1="200" y1="381" x2="218" y2="381" stroke="#000000" stroke-width="1" fill="none"/>
<line  x1="244" y1="381" x2="262" y2="381" stroke="#000000" stroke-width="1" fill="none"/>
<line  x1="288" y1="381" x2="303" y2="381" stroke="#000000" stroke-width="1" fill="none"/>
<line  x1="486" y1="269" x2="503" y2="269" stroke="#000000" stroke-width="1" fill="none"/>
<line  x1="529" y1="269" x2="542" y2="269" stroke="#000000" stroke-width="1" fill="none"/>
<line  x1="568" y1="269" x2="585" y2="269" stroke="#000000" stroke-width="1" fill="none"/>
<line  x1="483" y1="386" x2="503" y2="386" stroke="#000000" stroke-width="1" fill="none"/>
<line  x1="529" y1="386" x2="542" y2="386" stroke="#000000" stroke-width="1" fill="none"/>
<line  x1="568" y1="386" x2="584" y2="386" stroke="#000000" stroke-width="1" fill="none"/>
<line  x1="767" y1="261" x2="786" y2="261" stroke="#000000" stroke-width="1" fill="none"/>
<line  x1="812" y1="261" x2="825" y2="261" stroke="#000000" stroke-width="1" fill="none"/>
<line  x1="851" y1="261" x2="863" y2="261" stroke="#000000" stroke-width="1" fill="none"/>
<line  x1="769" y1="387" x2="786" y2="387" stroke="#000000" stroke-width="1" fill="none"/>
<line  x1="812" y1="387" x2="825" y2="387" stroke="#000000" stroke-width="1" fill="none"/>
<line  x1="851" y1="387" x2="861" y2="387" stroke="#000000" stroke-width="1" fill="none"/>
<line  x1="1021" y1="408" x2="1033" y2="408" stroke="#000000" stroke-width="1" fill="none"/>
<line  x1="1059" y1="408" x2="1101" y2="408" stroke="#000000" stroke-width="1" fill="none"/>
<line  x1="1101" y1="408" x2="1101" y2="500" stroke="#000000" stroke-width="1" fill="none"/>
<line  x1="1101" y1="500" x2="1173" y2="500" stroke="#000000" stroke-width="1" fill="none"/>
<line  x1="1199" y1="500" x2="1211" y2="500" stroke="#000000" stroke-width="1" fill="none"/>
<line  x1="1021" y1="376" x2="1033" y2="376" stroke="#000000" stroke-width="1" fill="none"/>
<line  x1="1059" y1="376" x2="1103" y2="376" stroke="#000000" stroke-width="1" fill="none"/>
<line  x1="1103" y1="376" x2="1103" y2="262" stroke="#000000" stroke-width="1" fill="none"/>
<line  x1="1103" y1="262" x2="1173" y2="262" stroke="#000000" stroke-width="1" fill="none"/>
<line  x1="1023" y1="243" x2="1033" y2="243" stroke="#000000" stroke-width="1" fill="none"/>
<line  x1="1059" y1="243" x2="1117" y2="243" stroke="#000000" stroke-width="1" fill="none"/>
<line  x1="1133" y1="251" x2="1133" y2="388" stroke="#000000" stroke-width="1" fill="none"/>
<line  x1="1133" y1="388" x2="1173" y2="388" stroke="#000000" stroke-width="1" fill="none"/>
<line  x1="1199" y1="388" x2="1207" y2="388" stroke="#000000" stroke-width="1" fill="none"/>
<line  x1="1377" y1="124" x2="1387" y2="124" stroke="#000000" stroke-width="1" fill="none"/>
<line  x1="1413" y1="124" x2="1446" y2="124" stroke="#000000" stroke-width="1" fill="none"/>
<line  x1="1446" y1="124" x2="1446" y2="241" stroke="#000000" stroke-width="1" fill="none"/>
<line  x1="1378" y1="262" x2="1387" y2="262" stroke="#000000" stroke-width="1" fill="none"/>
<line  x1="1413" y1="262" x2="1430" y2="262" stroke="#000000" stroke-width="1" fill="none"/>
<line  x1="1430" y1="262" x2="1430" y2="354" stroke="#000000" stroke-width="1" fill="none"/>
<line  x1="1430" y1="354" x2="1481" y2="354" stroke="#000000" stroke-width="1" fill="none"/>
<line  x1="1507" y1="354" x2="1523" y2="354" stroke="#000000" stroke-width="1" fill="none"/>
<line  x1="1375" y1="523" x2="1384" y2="523" stroke="#000000" stroke-width="1" fill="none"/>
<line  x1="1410" y1="523" x2="1432" y2="523" stroke="#000000" stroke-width="1" fill="none"/>
<line  x1="1432" y1="523" x2="1432" y2="410" stroke="#000000" stroke-width="1" fill="none"/>
<line  x1="1432" y1="410" x2="1481" y2="410" stroke="#000000" stroke-width="1" fill="none"/>
<line  x1="1507" y1="410" x2="1523" y2="410" stroke="#000000" stroke-width="1" fill="none"/>
<line  x1="1463" y1="250" x2="1481" y2="250" stroke="#000000" stroke-width="1" fill="none"/>
<line  x1="1507" y1="250" x2="1522" y2="250" stroke="#000000" stroke-width="1" fill="none"/>
<line  x1="1377" y1="393" x2="1384" y2="393" stroke="#000000" stroke-width="1" fill="none"/>
<line  x1="1410" y1="393" x2="1446" y2="393" stroke="#000000" stroke-width="1" fill="none"/>
<line  x1="1446" y1="393" x2="1446" y2="258" stroke="#000000" stroke-width="1" fill="none"/>
</svg>